<?xml version="1.0" encoding="utf-8"?>
<!-- Generator: Adobe Illustrator 19.0.0, SVG Export Plug-In . SVG Version: 6.00 Build 0)  -->
<svg version="1.1" id="Layer_1" xmlns="http://www.w3.org/2000/svg" xmlns:xlink="http://www.w3.org/1999/xlink" x="0px" y="0px"
	 viewBox="206 -206 512 512" style="enable-background:new 206 -206 512 512;" xml:space="preserve">
<style type="text/css">
	.st0{fill:#4ACFD9;}
	.st1{fill:#0295AA;}
	.st2{fill:#687F82;}
	.st3{fill:#365558;}
	.st4{fill:#FF8C29;}
	.st5{fill:#FD6A33;}
	.st6{fill:#FFD1A9;}
</style>
<g>
	<path class="st0" d="M642.7,61H530.3v40.7h112.3c2.2,0,4-1.8,4-4V65C646.7,62.8,644.9,61,642.7,61z"/>
	<rect x="500" y="61" class="st1" width="30.3" height="40.7"/>
	<path class="st1" d="M418,61c-2.2,0-4,1.8-4,4v32.7c0,2.2,1.8,4,4,4h82V61H418z"/>
	<rect x="598.8" y="75" class="st2" width="15" height="26.7"/>
	<rect x="625.7" y="75" class="st2" width="10" height="26.7"/>
	<rect x="561.3" y="75" class="st2" width="20" height="26.7"/>
	<rect x="446.2" y="75" class="st3" width="15" height="26.7"/>
	<rect x="424.3" y="75" class="st3" width="10" height="26.7"/>
	<rect x="478.7" y="75" class="st3" width="20" height="26.7"/>
	<rect x="530.3" y="75" class="st2" width="10.3" height="26.7"/>
	<rect x="520.7" y="75" class="st3" width="9.7" height="26.7"/>
</g>
<g>
	<path class="st0" d="M628.7,10H516.3v40.7h112.3c2.2,0,4-1.8,4-4V14C632.7,11.8,630.9,10,628.7,10z"/>
	<rect x="500" y="10" class="st1" width="16.3" height="40.7"/>
	<path class="st1" d="M404,10c-2.2,0-4,1.8-4,4v32.7c0,2.2,1.8,4,4,4h96V10H404z"/>
	<rect x="584.8" y="24" class="st2" width="15" height="26.7"/>
	<rect x="611.7" y="24" class="st2" width="10" height="26.7"/>
	<rect x="547.3" y="24" class="st2" width="20" height="26.7"/>
	<rect x="432.2" y="24" class="st3" width="15" height="26.7"/>
	<rect x="410.3" y="24" class="st3" width="10" height="26.7"/>
	<rect x="464.7" y="24" class="st3" width="20" height="26.7"/>
	<rect x="516.3" y="24" class="st2" width="10.3" height="26.7"/>
	<rect x="506.7" y="24" class="st3" width="9.7" height="26.7"/>
</g>
<g>
	<path class="st0" d="M637.8-41H525.5v40.7h112.3c2.2,0,4-1.8,4-4V-37C641.8-39.2,640-41,637.8-41z"/>
	<rect x="500" y="-41" class="st1" width="25.5" height="40.7"/>
	<path class="st1" d="M413.2-41c-2.2,0-4,1.8-4,4v32.7c0,2.2,1.8,4,4,4H500V-41H413.2z"/>
	<rect x="594" y="-27" class="st2" width="15" height="26.7"/>
	<rect x="620.8" y="-27" class="st2" width="10" height="26.7"/>
	<rect x="556.5" y="-27" class="st2" width="20" height="26.7"/>
	<rect x="441.3" y="-27" class="st3" width="15" height="26.7"/>
	<rect x="419.5" y="-27" class="st3" width="10" height="26.7"/>
	<rect x="473.8" y="-27" class="st3" width="20" height="26.7"/>
	<rect x="525.5" y="-27" class="st2" width="10.3" height="26.7"/>
	<rect x="515.8" y="-27" class="st3" width="9.7" height="26.7"/>
</g>
<path class="st4" d="M373.2,221.4l24.6-26.3c0,0,4.8-5.4,11.2-6.7c3.4-0.7,27-5.3,53-10.7V62.7c-4.1-3.7-5.4-9.6-1.2-17.1
	c0.3-0.6,0.7-1.2,1.2-1.9v-69C449.8-17.1,437.7-9.1,428.9-3c-13.3,9.2-45.9,32.7-67.3,46.4c-17.2,10.9-31.2,24.5-32.9,31.2
	c-1.7,6.7-12.8,28.4-20.1,36.8s-23,25.2-23,25.2L373.2,221.4z"/>
<path class="st4" d="M504.9-8c0,0,13.9-16.8,0.8-29.3c-7.9-7.5-22.2-2.7-32.3,4.2c-3.7,2.6-7.5,5.2-11.3,7.7v69
	C471.3,29.2,504.9-8,504.9-8z"/>
<path class="st5" d="M555,161.9c24.7-0.7,66.8-4.7,71.6-4.8c12.2-0.1,14.8-2.5,17.4-4.8c2.7-2.2,54-45.3,62.1-52.1
	c8.1-6.8,13.3-22.1,4.7-32.3s-20.8-15.5-35.1-4c-16.1,12.9-43.9,35.8-43.9,35.8l-23.5,0.1c0,0-15.5-3-33.2-4.3
	c-17.7-1.3-58-3.7-68.5-5.3c-14.8-2.2-20-3.3-32.7-13.7c-3.8-3.1-9.1-11.3-12-13.9v114.9c23-4.8,47.3-12.9,61.9-13.8
	C555,161.9,530.4,162.6,555,161.9z"/>
<path class="st6" d="M554.2,132"/>
<path class="st6" d="M358.9,207.1l24.1-25.5l0.1-0.1l0.1-0.1c2.2-2.4,10.3-10.4,21.9-12.7l1.1-0.2c20.5-4.1,39.4-7.9,55.9-11.4
	v-20.4c-17.3,3.6-37.6,7.8-59.7,12.2l-1.1,0.2c-17.1,3.4-28.6,14.2-32.8,18.8l-24,25.4L358.9,207.1z"/>
<path class="st4" d="M518.8,144.4c26.5-6.9,20.5-2.1,35.7-2.5c15.2-0.4,14.4-17.5-0.5-20c-14.9-2.5-22-1.6-40.1,3.1
	c-10.1,2.6-28.2,6.7-51.8,11.6v20.4C488,151.7,508,147.3,518.8,144.4z"/>
<path class="st2" d="M383,223.9l-6.8-6.6c0,0-111.9-107.8-116.4-112.4c-4.6-4.6-9.1-2.8-11.9,0c-2.8,2.8-38.9,43-38.9,43v154h100.4
	L383,223.9z"/>
<path class="st1" d="M364.5,243.8l-6.8-6.6c0,0-111.9-107.8-116.4-112.4s-9.1-2.8-11.9,0C226.6,127.6,206,152,206,152v154h100.4
	L364.5,243.8z"/>
<circle class="st6" cx="324.9" cy="244.3" r="14.2"/>
<circle class="st6" cx="293.5" cy="215.9" r="14.2"/>
<g>
	<path class="st0" d="M650-91.7H537.7V-51H650c2.2,0,4-1.8,4-4v-32.7C654-89.9,652.2-91.7,650-91.7z"/>
	<rect x="507.3" y="-91.7" class="st1" width="30.3" height="40.7"/>
	<path class="st1" d="M425.3-91.7c-2.2,0-4,1.8-4,4V-55c0,2.2,1.8,4,4,4h82v-40.7H425.3z"/>
	<rect x="606.2" y="-77.7" class="st2" width="15" height="26.7"/>
	<rect x="633" y="-77.7" class="st2" width="10" height="26.7"/>
	<rect x="568.7" y="-77.7" class="st2" width="20" height="26.7"/>
	<rect x="453.5" y="-77.7" class="st3" width="15" height="26.7"/>
	<rect x="431.7" y="-77.7" class="st3" width="10" height="26.7"/>
	<rect x="486" y="-77.7" class="st3" width="20" height="26.7"/>
	<rect x="537.7" y="-77.7" class="st2" width="10.3" height="26.7"/>
	<rect x="528" y="-77.7" class="st3" width="9.7" height="26.7"/>
</g>
<g>
	<path class="st0" d="M636-142.7H523.7v40.7H636c2.2,0,4-1.8,4-4v-32.7C640-140.9,638.2-142.7,636-142.7z"/>
	<rect x="507.3" y="-142.7" class="st1" width="16.3" height="40.7"/>
	<path class="st1" d="M411.3-142.7c-2.2,0-4,1.8-4,4v32.7c0,2.2,1.8,4,4,4h96v-40.7H411.3z"/>
	<rect x="592.2" y="-128.7" class="st2" width="15" height="26.7"/>
	<rect x="619" y="-128.7" class="st2" width="10" height="26.7"/>
	<rect x="554.7" y="-128.7" class="st2" width="20" height="26.7"/>
	<rect x="439.5" y="-128.7" class="st3" width="15" height="26.7"/>
	<rect x="417.7" y="-128.7" class="st3" width="10" height="26.7"/>
	<rect x="472" y="-128.7" class="st3" width="20" height="26.7"/>
	<rect x="523.7" y="-128.7" class="st2" width="10.3" height="26.7"/>
	<rect x="514" y="-128.7" class="st3" width="9.7" height="26.7"/>
</g>
<g>
	<path class="st0" d="M645.2-193.7H532.8v40.7h112.3c2.2,0,4-1.8,4-4v-32.7C649.2-191.9,647.4-193.7,645.2-193.7z"/>
	<rect x="507.3" y="-193.7" class="st1" width="25.5" height="40.7"/>
	<path class="st1" d="M420.5-193.7c-2.2,0-4,1.8-4,4v32.7c0,2.2,1.8,4,4,4h86.8v-40.7H420.5z"/>
	<rect x="601.3" y="-179.7" class="st2" width="15" height="26.7"/>
	<rect x="628.2" y="-179.7" class="st2" width="10" height="26.7"/>
	<rect x="563.8" y="-179.7" class="st2" width="20" height="26.7"/>
	<rect x="448.7" y="-179.7" class="st3" width="15" height="26.7"/>
	<rect x="426.8" y="-179.7" class="st3" width="10" height="26.7"/>
	<rect x="481.2" y="-179.7" class="st3" width="20" height="26.7"/>
	<rect x="532.8" y="-179.7" class="st2" width="10.3" height="26.7"/>
	<rect x="523.2" y="-179.7" class="st3" width="9.7" height="26.7"/>
</g>
</svg>
