<?xml version="1.0" encoding="utf-8"?>
<!-- Generator: Adobe Illustrator 19.0.0, SVG Export Plug-In . SVG Version: 6.00 Build 0)  -->
<svg version="1.1" id="Layer_1" xmlns="http://www.w3.org/2000/svg" xmlns:xlink="http://www.w3.org/1999/xlink" x="0px" y="0px"
	 viewBox="96 11 512 512" style="enable-background:new 96 11 512 512;" xml:space="preserve">
<style type="text/css">
	.st0{fill:#FD6A33;}
	.st1{fill:#FF8C29;}
	.st2{fill:#365558;}
	.st3{fill:#FFD1A9;}
	.st4{fill:#F0353D;}
	.st5{fill:#E6EAEA;}
	.st6{fill:#CDD4D5;}
	.st7{fill:#9BAAAB;}
	.st8{fill:#FFFFFF;}
	.st9{fill:#4ACFD9;}
	.st10{fill:#0295AA;}
</style>
<path class="st0" d="M227,244.1h-6.2h-6.3c-8.1,0-14.7,6.7-14.7,14.7V322c0,8.1,6.7,14.7,14.7,14.7h6.3h6.2c3.7,0,6.8-3,6.8-6.8
	v-79.2C233.8,247.3,230.8,244.1,227,244.1z"/>
<path class="st1" d="M481.2,336.8H475c-3.7,0-6.8-3-6.8-6.8v-79.2c0-3.7,3-6.8,6.8-6.8h6.2h6.3c8.1,0,14.7,6.7,14.7,14.7v63.4
	c0,8.1-6.7,14.7-14.7,14.7L481.2,336.8L481.2,336.8z"/>
<path class="st1" d="M456.6,218.8v128.1c0,18.7-15.2,33.9-33.9,33.9H351V141.4l0,0c8.9,0,16.2,7.3,16.2,16.2V176
	c0,4.7,4.3,8.9,8.9,8.9h46.6C441.2,184.9,456.6,200.1,456.6,218.8z"/>
<path class="st2" d="M388.3,333.4h18.4c1.9,0,3.6-1.6,3.6-3.6V324c0-1.9-1.6-3.6-3.6-3.6h-18.4c-1.9,0-3.6,1.6-3.6,3.6v5.7
	C384.8,331.6,386.4,333.4,388.3,333.4z"/>
<path class="st2" d="M397.6,277.5c9.3,0,16.9-7.6,16.9-16.9c0-9.3-7.6-16.9-16.9-16.9s-16.9,7.6-16.9,16.9S388.2,277.5,397.6,277.5z
	"/>
<path class="st2" d="M360.4,320.5H351v12.7h9.4c1.8,0,3.3-1.4,3.3-3.3v-6.1C363.8,322,362.3,320.5,360.4,320.5z"/>
<path class="st0" d="M351,141.4v239.4h-71.6c-18.7,0-33.9-15.2-33.9-33.9V218.8c0-18.7,15.2-33.9,33.9-33.9h45.1
	c5,0,10.2-3.8,10.2-8.9v-18.4C334.9,148.6,342.1,141.4,351,141.4z"/>
<path class="st2" d="M313.9,320.5H295c-1.8,0-3.3,1.4-3.3,3.3v6.1c0,1.8,1.4,3.3,3.3,3.3h18.9c1.8,0,3.3-1.4,3.3-3.3v-6.1
	C317.2,322,315.7,320.5,313.9,320.5z"/>
<path class="st2" d="M304.4,243.6c-9.3,0-16.9,7.6-16.9,16.9c0,9.3,7.6,16.9,16.9,16.9s16.9-7.6,16.9-16.9
	C321.3,251.3,313.8,243.6,304.4,243.6z"/>
<path class="st2" d="M341.6,320.5c-1.8,0-3.3,1.4-3.3,3.3v6.1c0,1.8,1.4,3.3,3.3,3.3h9.4v-12.8h-9.4V320.5z"/>
<path class="st3" d="M214.3,299.9c0.7,1,1,2.3,0.6,3.6c-1.7,7-0.3,14.3,3.7,20.1c1.3,1.9,0.9,4.6-0.8,6c-1.9,1.4-4.4,1.1-5.8-0.7
	c-5.6-7.7-7.3-17.6-5-27c0.6-2.3,2.8-3.8,5-3.2C213.1,298.5,213.7,299,214.3,299.9z"/>
<path class="st3" d="M490.6,298.5c2.2-0.6,4.4,1,5,3.2c2.4,9.4,0.6,19.3-5,27c-1.3,1.8-3.9,2.1-5.8,0.7c-1.7-1.4-2.2-4.1-0.8-6
	c4-5.8,5.3-13,3.7-20.1c-0.4-1.2-0.1-2.6,0.6-3.6C488.8,299,489.4,298.5,490.6,298.5z"/>
<path class="st4" d="M356.3,17l-0.4,23.8c-0.1,3.2-2.6,5.7-5.9,5.8c-3.2,0-5.7-2.5-5.6-5.7l0.4-23.8c0.1-3.2,2.6-5.7,5.9-5.8
	C353.8,11.3,356.3,13.8,356.3,17z"/>
<path class="st4" d="M390.6,32c0,1.5-0.6,3-1.8,4.1l-15.4,15.3c-2.3,2.3-5.9,2.3-8.2,0c-2.2-2.2-2.1-5.8,0.2-8.2l15.4-15.3
	c2.3-2.3,5.9-2.3,8.2,0C390.2,29,390.7,30.5,390.6,32z"/>
<path class="st4" d="M336.3,47.5c0,1.5-0.6,3-1.8,4.1c-2.3,2.3-5.9,2.3-8.2,0l-14.9-15c-2.2-2.2-2.1-5.8,0.2-8.2
	c2.3-2.3,5.9-2.3,8.2,0l14.9,15C335.7,44.5,336.3,46,336.3,47.5z"/>
<path class="st5" d="M469.6,190.9c0.2-47.2-33.1-87.3-79.4-102V134c0,5.6-4.6,10.1-10.1,10.1c-5.6,0-10.1-4.6-10.1-10.1
	c0,0,0-37.7,0-49.8c0-16.1-8.7-21.9-18.9-21.9V196h118.4C469.6,194.3,469.6,192.4,469.6,190.9z"/>
<path class="st6" d="M331.3,84.3c0,16.7,0,49.7,0,49.7c0,5.6-4.6,10.1-10.1,10.1s-10.1-4.6-10.1-10.1V89.1
	c-46,14.9-78.9,54.9-78.9,101.8c0,1.8,0,3.4,0.1,5.1H351V62.3C339.7,62.3,331.3,67.6,331.3,84.3z"/>
<path class="st6" d="M470.1,196.1H351v28.6c53.4,0.1,119.1,7.6,119.1,7.6c9.3,3.4,13.3-6,13.3-13.3v-9.4
	C483.4,202.1,477.4,196.1,470.1,196.1z"/>
<path class="st7" d="M230.3,196.1c-7.3,0-13.3,6-13.3,13.3v9.4c0,7.3,4.6,15.8,13.3,13.3c0,0,67.9-7.6,119.9-7.6c0.3,0,0.5,0,0.8,0
	v-28.6H230.3V196.1z"/>
<g>
	<path class="st8" d="M498.3,433.8H350.5v83.4h147.8c6.6,0,12-5.4,12-12v-59.4C510.3,439.2,504.9,433.8,498.3,433.8z"/>
	<path class="st5" d="M205.1,433.8c-6.6,0-12,5.4-12,12v59.4c0,6.6,5.4,12,12,12h145.5v-83.4H205.1z"/>
	<circle class="st0" cx="258.5" cy="475.5" r="11.5"/>
	<circle class="st0" cx="350.5" cy="475.5" r="11.5"/>
	<circle class="st1" cx="442.5" cy="475.5" r="11.5"/>
	<path class="st9" d="M351,523h145c10.5,0,19-8.5,19-19v-57c0-10.5-8.5-19-19-19H351v10h145c5,0,9,4,9,9v57c0,5-4,9-9,9H351V523z"/>
	<path class="st10" d="M351,513H206c-5,0-9-4-9-9v-57c0-5,4-9,9-9h145v-10H206c-10.5,0-19,8.5-19,19v57c0,10.5,8.5,19,19,19h145V513
		z"/>
	<path class="st1" d="M351,487c6.1-0.3,11-5.3,11-11.5s-4.9-11.2-11-11.5V487z"/>
</g>
</svg>
