<svg width="512" height="512" viewBox="0 0 512 512" fill="none" xmlns="http://www.w3.org/2000/svg">
<rect x="40" y="27" width="72" height="72" fill="#F0353D"/>
<rect x="40" y="147" width="72" height="72" fill="#F0353D"/>
<rect x="40" y="267" width="72" height="72" fill="#F0353D"/>
<rect x="400" y="27" width="72" height="72" fill="#FD6A33"/>
<rect x="400" y="147" width="72" height="72" fill="#FD6A33"/>
<rect x="400" y="267" width="72" height="72" fill="#FD6A33"/>
<path fill-rule="evenodd" clip-rule="evenodd" d="M280 36.0817V27H352V71.2628C332.243 53.3151 307.454 40.8011 280 36.0817ZM352 283.514V339H294.6V335.623C294.6 324.564 302.821 313.574 315.968 307.462C329.195 301.313 341.33 293.207 352 283.514ZM281.6 339V335.623C281.6 317.905 294.41 303.148 310.488 295.674C325.537 288.678 339.028 278.899 350.299 267H280V339H281.6ZM280 49.2942V99H352V89.6105C333.359 69.1643 308.298 54.6647 280 49.2942Z" fill="#FD6A33"/>
<path fill-rule="evenodd" clip-rule="evenodd" d="M217.465 339H160V284.414C170.649 293.908 182.722 301.837 195.856 307.842C209.138 313.914 217.465 324.965 217.465 336.095V339ZM160 70.3628V27H232V35.9135C204.61 40.4223 179.833 52.6814 160 70.3628ZM232 49.1085C203.797 54.2328 178.755 68.4137 160 88.526V99H232V49.1085ZM230.465 339H232V267H160.701C172.159 279.096 185.911 289.001 201.261 296.019C217.493 303.44 230.465 318.26 230.465 336.095V339Z" fill="#F0353D"/>
<path fill-rule="evenodd" clip-rule="evenodd" d="M282 393H230V404H282V393ZM230 372H282V383H230V372ZM310.488 295.674C294.41 303.148 281.6 317.905 281.6 335.623V361H230.465V336.095C230.465 318.26 217.493 303.44 201.261 296.019C156.263 275.446 125 230.066 125 177.39C125 105.378 183.427 47 255.5 47C327.573 47 386 105.378 386 177.39C386 229.773 355.084 274.942 310.488 295.674Z" fill="#4ACFD9"/>
<path fill-rule="evenodd" clip-rule="evenodd" d="M256 47.001C255.833 47.001 255.667 47 255.5 47C183.427 47 125 105.377 125 177.39C125 230.066 156.263 275.446 201.261 296.019C217.493 303.44 230.465 318.26 230.465 336.095V361H256V47.001ZM256 372H230V383H256V372ZM256 393H230V404H256V393Z" fill="#365558"/>
<path fill-rule="evenodd" clip-rule="evenodd" d="M401 427H111C106.029 427 102 431.029 102 436V493C102 497.971 106.029 502 111 502H401C405.971 502 410 497.971 410 493V436C410 431.029 405.971 427 401 427ZM111 417C100.507 417 92 425.507 92 436V493C92 503.493 100.507 512 111 512H401C411.493 512 420 503.493 420 493V436C420 425.507 411.493 417 401 417H111Z" fill="#365558"/>
<circle cx="163.5" cy="464.5" r="11.5" fill="#365558"/>
<circle cx="255.5" cy="464.5" r="11.5" fill="#365558"/>
<circle cx="347.5" cy="464.5" r="11.5" fill="#0295AA"/>
<path d="M256 512H401C411.493 512 420 503.493 420 493V436C420 425.507 411.493 417 401 417H256V427H401C405.971 427 410 431.029 410 436V493C410 497.971 405.971 502 401 502H256V512Z" fill="#0295AA"/>
<path fill-rule="evenodd" clip-rule="evenodd" d="M256 475.979C262.119 475.717 267 470.673 267 464.489C267 458.306 262.119 453.262 256 453V475.979Z" fill="#0295AA"/>
</svg>
