<?xml version="1.0" encoding="utf-8"?>
<!-- Generator: Adobe Illustrator 24.1.1, SVG Export Plug-In . SVG Version: 6.00 Build 0)  -->
<svg version="1.1" id="Balance" xmlns="http://www.w3.org/2000/svg" xmlns:xlink="http://www.w3.org/1999/xlink" x="0px" y="0px"
	 viewBox="0 0 512 512" style="enable-background:new 0 0 512 512;" xml:space="preserve">
<style type="text/css">
	.st0{fill:#687F82;}
	.st1{fill:#9BAAAB;}
	.st2{fill:#CDD4D5;}
	.st3{fill:none;stroke:#0295AA;stroke-width:4;stroke-linecap:round;stroke-linejoin:round;stroke-miterlimit:10;}
	.st4{fill:none;stroke:#4ACFD9;stroke-width:4;stroke-linecap:round;stroke-linejoin:round;stroke-miterlimit:10;}
	.st5{fill:#0295AA;}
	.st6{fill:#4ACFD9;}
</style>
<g>
	<path class="st0" d="M141,492c-5.5,0-10,4.5-10,10v10h125v-20H141z"/>
	<path class="st1" d="M381,502c0-5.5-4.5-10-10-10H256v20h125V502z"/>
</g>
<g>
	<path class="st1" d="M336,474.5c0-5.5-4.5-10-10-10h-70v20h80V474.5z"/>
	<path class="st0" d="M186,464.5c-5.5,0-10,4.5-10,10v10h80v-20H186z"/>
</g>
<g>
	<path class="st1" d="M231,456.5h25v-240c-7.5,0-14.5-1.8-20.7-5L231,456.5z"/>
	<path class="st2" d="M256,216.5v240h25l-4.3-245C270.5,214.7,263.5,216.5,256,216.5z"/>
</g>
<g>
	<path class="st1" d="M234,132.2c6.5-3.6,14-5.7,22-5.7v-39h-19.7c-2.9,0-5.2,2.4-5,5.3L234,132.2z"/>
	<path class="st2" d="M280.6,92.8c0.2-2.9-2.1-5.3-5-5.3H256v39c8,0,15.5,2.1,22,5.7L280.6,92.8z"/>
</g>
<g>
	<g>
		<polyline class="st3" points="156,352 80,221.5 4,352 		"/>
		<line class="st3" x1="80" y1="221.5" x2="80" y2="197.9"/>
	</g>
	<path id="plato_11_" class="st0" d="M160,348.5H0v5c0,5.5,4.5,10,10,10h140c5.5,0,10-4.5,10-10V348.5z"/>
</g>
<g>
	<g>
		<polyline class="st4" points="508,352 432,221.5 356,352 		"/>
		<line class="st4" x1="432" y1="221.5" x2="432" y2="197.9"/>
	</g>
	<path id="plato_10_" class="st1" d="M512,348.5H352v5c0,5.5,4.5,10,10,10h140c5.5,0,10-4.5,10-10V348.5z"/>
</g>
<g>
	<path class="st5" d="M217,171.5c0,21.5,17.5,39,39,39v-78C234.5,132.5,217,150,217,171.5z"/>
	<path class="st0" d="M184.6,173.7c-30.6,8.6-62.3,17.5-107.5,12.8c-5.5-0.6-10.4,3.4-11,8.9c-0.6,5.5,3.4,10.4,8.9,11
		c9.3,1,18.1,1.4,26.5,1.4c35.7,0,63.4-7.8,88.5-14.9c21.9-6.2,42.6-12,66-12v-20C229.8,161,207.8,167.2,184.6,173.7z"/>
	<path class="st1" d="M232,171.5c0,13.3,10.7,24,24,24v-48C242.7,147.5,232,158.2,232,171.5z"/>
</g>
<g>
	<path class="st6" d="M256,132.5v78c21.5,0,39-17.5,39-39C295,150,277.5,132.5,256,132.5z"/>
	<path class="st1" d="M445.9,195.5c-0.6-5.5-5.5-9.5-11-8.9c-44.8,4.7-75.8-4.1-105.8-12.6c-23.5-6.7-45.8-13-73.1-13v20
		c24.6,0,45.5,5.9,67.7,12.2c24.5,6.9,51.7,14.6,87,14.6c8.3,0,17.1-0.4,26.4-1.4C442.5,205.9,446.5,201,445.9,195.5z"/>
	<path class="st2" d="M256,147.5v48c13.3,0,24-10.7,24-24S269.3,147.5,256,147.5z"/>
</g>
</svg>
