<svg width="512" height="512" viewBox="0 0 512 512" fill="none" xmlns="http://www.w3.org/2000/svg">
<path fill-rule="evenodd" clip-rule="evenodd" d="M126.806 70.5019C111.437 40.5908 133.132 5 166.734 5H345.207C378.755 5 400.454 40.4883 385.191 70.3933L297.144 242.9C294.248 248.575 294.204 255.287 297.027 260.999L386.289 441.638C401.027 471.462 379.406 506.42 346.166 506.51L166.08 507C132.706 507.091 110.901 471.996 125.74 442.072L215.504 261.049C218.348 255.315 218.3 248.569 215.374 242.876L126.806 70.5019ZM166.734 29.7972C151.671 29.7972 141.946 45.7517 148.835 59.1601L237.404 231.534C243.929 244.234 244.037 259.282 237.693 272.074L147.929 453.097C141.277 466.511 151.052 482.243 166.012 482.203L346.098 481.713C360.999 481.672 370.691 466.002 364.085 452.632L274.823 271.994C268.526 259.251 268.623 244.278 275.085 231.618L363.131 59.1114C369.973 45.7057 360.246 29.7972 345.207 29.7972H166.734Z" fill="#45CCD3"/>
<path fill-rule="evenodd" clip-rule="evenodd" d="M130.53 24.1399C121.357 37.0617 118.952 54.6948 127.184 70.6994L215.722 242.841C218.646 248.527 218.695 255.263 215.852 260.99L126.118 441.769C111.285 471.653 133.082 506.7 166.444 506.61L346.469 506.12C361.959 506.078 374.924 498.47 382.861 487.342L365.787 455.999C369.182 468.383 359.943 481.32 346.402 481.357L166.377 481.846C151.421 481.886 141.65 466.176 148.3 452.779L238.034 272C244.375 259.225 244.267 244.197 237.744 231.515L149.206 59.3729C148.595 58.1855 148.115 56.9781 147.758 55.7636L130.53 24.1399Z" fill="#0197A5"/>
<rect x="247" y="82" width="18" height="278" fill="#9BAAAB"/>
<path d="M255.843 101.102H303.823L268.469 238.758C265.409 250.675 266.943 263.307 272.768 274.144L293.728 313.142H255.843V101.102Z" fill="#FD6A33"/>
<path d="M255.843 101.102H209.411L243.759 239.304C246.64 250.894 245.188 263.137 239.677 273.733L219.18 313.142H255.843V101.102Z" fill="#F0353D"/>
<path d="M256 461L285.445 425.75H226.555L256 461Z" fill="#4ACFD9"/>
<path d="M256 418L279.383 389.5H232.617L256 418Z" fill="#0295AA"/>
</svg>
