<?xml version="1.0" encoding="utf-8"?>
<!-- Generator: Adobe Illustrator 19.0.0, SVG Export Plug-In . SVG Version: 6.00 Build 0)  -->
<svg version="1.1" id="Layer_1" xmlns="http://www.w3.org/2000/svg" xmlns:xlink="http://www.w3.org/1999/xlink" x="0px" y="0px"
	 viewBox="96 11 512 512" style="enable-background:new 96 11 512 512;" xml:space="preserve">
<style type="text/css">
	.st0{display:none;fill:#020202;}
	.st1{fill:#FFD1A9;}
	.st2{fill:#FF8C29;}
	.st3{fill:#FD6A33;}
	.st4{fill:#F0353D;}
	.st5{fill:#365558;}
	.st6{fill:#0295AA;}
	.st7{fill:#4ACFD9;}
	.st8{fill:#9BAAAB;}
	.st9{fill:#CDD4D5;}
	.st10{fill:#E6EAEA;}
	.st11{fill:#FFFFFF;}
	.st12{fill:#BCD643;}
</style>
<rect x="782" y="-140" class="st0" width="512" height="512"/>
<path class="st1" d="M151.5,65"/>
<path class="st1" d="M497.9,490.8c6.4,0,11.7-5.3,11.7-11.7V173.5c0-3-1.2-6.1-3.5-8.2L387.6,46.7c-2.1-2.1-5.1-3.5-8.2-3.5H211.2
	v447.5H497.9z"/>
<path class="st2" d="M497.9,491c6.4,0,11.7-5.3,11.7-11.7V267.1H211.2V491H497.9z"/>
<path class="st3" d="M347.7,20.1v494c0,6.4-11.1,8.5-8.6,8.5l-127.9-31.8V43.3l129-31.9C345.6,9.8,347.7,13.7,347.7,20.1z"/>
<path class="st4" d="M347.7,514.3c0,8.9-5.3,9.2-8.6,8.5L211.2,491V267.1h136.5V514.3z"/>
<path class="st3" d="M391.4,173.7h118.5l0,0c0-3-1.2-6.1-3.5-8.2L387.9,46.9c-2.1-2.1-5.1-3.5-8.2-3.5l0,0V162
	C379.5,168.4,384.8,173.7,391.4,173.7z"/>
<rect x="-533" y="-17.5" class="st4" width="128" height="128"/>
<rect x="-405" y="-17.5" class="st3" width="128" height="128"/>
<rect x="-277" y="-17.5" class="st2" width="128" height="128"/>
<rect x="-149" y="-17.5" class="st1" width="128" height="128"/>
<rect x="-533" y="110.5" class="st5" width="128" height="128"/>
<rect x="-405" y="110.5" class="st6" width="128" height="128"/>
<rect x="-277" y="110.5" class="st7" width="128" height="128"/>
<rect x="-533" y="238.5" class="st8" width="128" height="128"/>
<rect x="-405" y="238.5" class="st9" width="128" height="128"/>
<rect x="-277" y="238.5" class="st10" width="128" height="128"/>
<rect x="-149" y="238.5" class="st11" width="128" height="128"/>
<rect x="-533" y="366.5" class="st12" width="128" height="128"/>
</svg>
