<?xml version="1.0" encoding="utf-8"?>
<!-- Generator: Adobe Illustrator 19.0.0, SVG Export Plug-In . SVG Version: 6.00 Build 0)  -->
<svg version="1.1" id="Layer_1" xmlns="http://www.w3.org/2000/svg" xmlns:xlink="http://www.w3.org/1999/xlink" x="0px" y="0px"
	 viewBox="206 -206 512 512" style="enable-background:new 206 -206 512 512;" xml:space="preserve">
<style type="text/css">
	.st0{fill:#0295AA;}
	.st1{fill:#4ACFD9;}
	.st2{fill:#365558;}
	.st3{fill:#687F82;}
	.st4{fill:#FF8C29;}
	.st5{fill:#FFFFFF;}
	.st6{fill:#F0353D;}
	.st7{fill:#FFD1A9;}
	.st8{fill:#FD6A33;}
</style>
<path class="st0" d="M465.6,23.3c-8.4-0.1-26.8-0.1-35.2,0c-3.3,0-5.1,1.9-5.1,5c-0.1,4.7-0.1,9.5,0,14.2c0.1,3.6,1.9,5.3,5.8,5.3
	c4,0.1,18,0,22,0c4,0,8,0,12,0c4.2-0.1,5.9-1.8,5.9-5.8c0-4.5,0-8.9,0-13.4C470.9,25.3,469.1,23.4,465.6,23.3z"/>
<path class="st1" d="M473.4,82.9c-4.1,0-8.2,0.1-12.3,0c-3.8-0.1-5.7-1.8-5.7-5.4c-0.1-4.6-0.1-9.3,0-13.9c0-3.3,1.8-5.2,5.2-5.2
	c8.4-0.1,26.8-0.1,35.2,0c3.4,0,5.2,1.9,5.2,5.2c0.1,4.6,0.1,9.3,0,13.9c-0.1,3.6-1.9,5.3-5.7,5.4C491.3,83,477.3,82.9,473.4,82.9z"
	/>
<path class="st0" d="M465.6,93.3c-8.4-0.1-26.8-0.1-35.2,0c-3.3,0-5.1,1.9-5.1,5c-0.1,4.7-0.1,9.5,0,14.2c0.1,3.6,1.9,5.3,5.8,5.3
	c4,0.1,18,0,22,0c4,0,8,0,12,0c4.2-0.1,5.9-1.8,5.9-5.8c0-4.5,0-8.9,0-13.4C470.9,95.3,469.1,93.4,465.6,93.3z"/>
<path class="st1" d="M473.4,152.9c-4.1,0-8.2,0.1-12.3,0c-3.8-0.1-5.7-1.8-5.7-5.4c-0.1-4.6-0.1-9.3,0-13.9c0-3.3,1.8-5.2,5.2-5.2
	c8.4-0.1,26.8-0.1,35.2,0c3.4,0,5.2,1.9,5.2,5.2c0.1,4.6,0.1,9.3,0,13.9c-0.1,3.6-1.9,5.3-5.7,5.4
	C491.3,153,477.3,152.9,473.4,152.9z"/>
<path class="st0" d="M465.7,163.3c-8.4-0.1-26.8-0.1-35.2,0c-3.3,0-5.1,1.9-5.1,5c-0.1,4.7-0.1,9.5,0,14.2c0.1,3.6,1.9,5.3,5.8,5.3
	c4,0.1,18,0,22,0c4,0,8,0,12,0c4.2-0.1,5.9-1.8,5.9-5.8c0-4.5,0-8.9,0-13.4C471,165.3,469.2,163.4,465.7,163.3z"/>
<path class="st1" d="M473.5,222.9c-4.1,0-8.2,0.1-12.3,0c-3.8-0.1-5.7-1.8-5.7-5.4c-0.1-4.6-0.1-9.3,0-13.9c0-3.3,1.8-5.2,5.2-5.2
	c8.4-0.1,26.8-0.1,35.2,0c3.4,0,5.2,1.9,5.2,5.2c0.1,4.6,0.1,9.3,0,13.9c-0.1,3.6-1.9,5.3-5.7,5.4
	C491.5,223,477.5,222.9,473.5,222.9z"/>
<path class="st0" d="M465.7,233.3c-8.4-0.1-26.8-0.1-35.2,0c-3.3,0-5.1,1.9-5.1,5c-0.1,4.7-0.1,9.5,0,14.2c0.1,3.6,1.9,5.3,5.8,5.3
	c4,0.1,18,0,22,0c4,0,8,0,12,0c4.2-0.1,5.9-1.8,5.9-5.8c0-4.5,0-8.9,0-13.4C471,235.3,469.2,233.4,465.7,233.3z"/>
<path class="st1" d="M473.5,292.9c-4.1,0-8.2,0.1-12.3,0c-3.8-0.1-5.7-1.8-5.7-5.4c-0.1-4.6-0.1-9.3,0-13.9c0-3.3,1.8-5.2,5.2-5.2
	c8.4-0.1,26.8-0.1,35.2,0c3.4,0,5.2,1.9,5.2,5.2c0.1,4.6,0.1,9.3,0,13.9c-0.1,3.6-1.9,5.3-5.7,5.4
	C491.5,293,477.5,292.9,473.5,292.9z"/>
<path class="st2" d="M431.1,55.9c3.5-1.7,7.2-1.9,10-1.9h21c0-27.5,0-96.4,0-114.7c-2,1-26.4,0.8-38.3,5.5
	c-11.9,4.7-19.9,18.1-24.5,31.8c-2.3,6.7-2.9,13.7-0.7,20.6c6.3,20.3,10.8,40.9,10,62.5c-0.1,4,1.6,7.1,4.8,10.2h6.9
	C420.5,64.3,425.9,58.3,431.1,55.9z"/>
<path class="st3" d="M524.5-23.4c-4.7-13.7-12.6-27.1-24.5-31.8c-10.8-4.3-31.7-4.5-37.1-5.3V54h0.1h22c3.6,0,8.3,0.3,12.2,3
	c2.6,1.8,5.8,5.3,6.2,11.6c0,0.9,7.1,1.3,7.1,1.3c3.2-3.1,4.9-6.2,4.8-10.2c-0.8-21.6,3.7-42.2,10-62.5
	C527.4-9.7,526.8-16.7,524.5-23.4z"/>
<path class="st4" d="M499-175.8c0.1-2.5,0.1-5.1-0.3-7.5c-1.8-12.8-8.7-20.2-22.3-21.8c-4.4-0.5-8.9-0.8-13.5-0.8
	c-4.6,0-9.2,0.3-13.7,0.8c-14.5,1.8-22.2,10.5-22.5,24.4c-0.2,9.2,0.4,18.4,0.8,27.6c1.2,28.1,2.4,56.2,3.6,84.3
	c0.4,8.8,1.1,21.9,1.2,23.4c0.3,5.2,4.7,5.7,8.8,5.7c1.2,0,11.5,0,21.8,0c9.3,0,18.8,0,22,0c6.8,0,8.2-1.7,8.4-5
	c0.2-3.3,0.3-4.9,0.5-9.8C495.6-95,497.3-135.4,499-175.8z M481.8-162.4c-4.4,6.5-11,9.3-17.1,9.5c-0.7,0-1.3,0-1.9,0
	c-5.6-0.2-9.4-1.4-13-3.6c-11-6.9-11.9-20.4-2-28.5c4.2-3.4,9.6-5.1,14.9-5.1c5.4,0,10.9,1.7,15,5.2
	C485.1-178.9,486.8-169.7,481.8-162.4z"/>
<path class="st5" d="M493.9-54.7c-0.2,4.9-0.3,6.5-0.5,9.8c-0.2,3.3-1.7,5-8.4,5c-3.2,0-12.7,0-22,0c-10.4,0-20.6,0-21.8,0
	c-4.1,0-8.5-0.6-8.8-5.7c-0.1-1.5-0.9-14.6-1.2-23.4c-1.2-28.1-2.4-56.2-3.6-84.3c-0.4-9.2-1-18.4-0.8-27.6
	c0.3-13.9,8-22.6,22.5-24.4c4.4-0.5,8.9-0.8,13.5-0.8c0.1,0,0.2,0,0.3,0c4.5,0,9,0.3,13.5,0.8c13.6,1.6,20.5,9,22.3,21.8
	c0.4,2.5,0.4,5,0.3,7.5C497.3-135.4,495.6-95,493.9-54.7z"/>
<path class="st5" d="M464.8-152.9c-0.1,0-0.1,0-0.2,0c-0.6,0-1.1,0-1.7,0c-5.6-0.2-9.4-1.4-13-3.6c-11-6.9-11.9-20.4-2-28.5
	c4.2-3.4,9.5-5.1,14.9-5.1c0,0,0,0,0,0c5.4,0,10.9,1.7,15,5.2c7.2,6,8.9,15.1,3.9,22.5C477.4-155.9,470.8-153.1,464.8-152.9z"/>
<path class="st6" d="M462.8-60.5c-0.6-0.1-1-0.2-1.2-0.3c0,18.4,0,47.2,0,74.7h1.2V-60.5z"/>
<path class="st6" d="M462.8-85.5v55.9h-1.2c0-21.3,0-41.8,0-55.9H462.8z"/>
<g>
	<path class="st7" d="M493.8-54.7c-0.2,4.9-0.3,6.5-0.5,9.8c-0.2,3.3-1.7,5-8.4,5c-3.2,0-12.7,0-22,0v-113.1c0.6,0,1.2,0,1.9,0
		c6.1-0.2,12.7-3,17.1-9.5c5-7.3,3.3-16.5-3.9-22.5c-4.2-3.4-9.6-5.2-15-5.2v-16c4.5,0,9,0.3,13.5,0.8c13.6,1.6,20.5,9,22.3,21.8
		c0.4,2.5,0.4,5,0.3,7.5C497.2-135.4,495.5-95,493.8-54.7z"/>
</g>
<g>
	<path class="st4" d="M432.2-45.5c-0.1-1.5-0.9-14.6-1.2-23.4c-1.2-28.1-2.4-56.2-3.6-84.3c-0.4-9.2-1-18.4-0.8-27.6
		c0.3-13.9,8-22.6,22.5-24.4c4.5-0.6,9.1-0.8,13.7-0.8v16c-5.4,0-10.8,1.7-14.9,5.1c-9.9,8.1-9,21.6,2,28.5c3.5,2.2,7.4,3.4,13,3.6
		v113.1c-10.4,0-20.6,0-21.8,0C436.9-39.8,432.5-40.4,432.2-45.5z"/>
</g>
<path class="st4" d="M479.5,14c0-7.9,0-15.8,0-23.8c0,0,0,0,0,0c0-18.2,0-36.5,0-54.7c0-4.9-2.2-6.9-7.3-7c-3.1,0-6.3,0-9.4,0V14
	h0.1H479.5z"/>
<path class="st4" d="M471,51.5c6.7,0,8.6-1.7,8.6-8.1c0-9.8,0-19.6,0-29.5h-16.6h-0.1v37.5C465.6,51.5,468.3,51.5,471,51.5z"/>
<path class="st8" d="M462.8-71.4c-2.8,0-5.6,0-8.4,0c-6.7,0-8.6,1.7-8.6,8.1c0,19.4,0,38.8,0,58.2c0,6.4,0,12.8,0,19.2h17V-71.4z"/>
<path class="st8" d="M445.9,44.3c0,5.2,2.2,7.2,7.6,7.2c3.1,0,6.2,0,9.4,0V14h-17C445.9,24.1,445.9,34.2,445.9,44.3z"/>
</svg>
