<?xml version="1.0" encoding="utf-8"?>
<!-- Generator: Adobe Illustrator 19.0.0, SVG Export Plug-In . SVG Version: 6.00 Build 0)  -->
<svg version="1.1" id="Layer_1" xmlns="http://www.w3.org/2000/svg" xmlns:xlink="http://www.w3.org/1999/xlink" x="0px" y="0px"
	 viewBox="96 11 512 512" style="enable-background:new 96 11 512 512;" xml:space="preserve">
<style type="text/css">
	.st0{display:none;}
	.st1{fill:#F0353D;}
	.st2{fill:#FD6A33;}
	.st3{fill:#FF8C29;}
	.st4{fill:#FFD1A9;}
	.st5{fill:#365558;}
	.st6{fill:#0295AA;}
	.st7{fill:#4ACFD9;}
	.st8{fill:none;stroke:#000000;stroke-miterlimit:10;}
	.st9{fill:#9BAAAB;}
	.st10{fill:#CDD4D5;}
	.st11{fill:#E6EAEA;}
	.st12{fill:#FFFFFF;}
	.st13{fill:#BCD643;}
</style>
<polygon class="st0" points="1164.7,-585 906,-585 906,-73 1418,-73 1418,-236.9 1164.7,-236.9 "/>
<rect x="1164.7" y="-585" class="st0" width="253.3" height="348.1"/>
<g class="st0">
	
		<text transform="matrix(1 0 0 1 942.4224 -454.0488)" style="display:inline;fill:#CDD4D5; font-family:'Saira-Black'; font-size:64.1866px;">E = mc</text>
	
		<text transform="matrix(1 0 0 1 1135.1074 -475.4227)" style="display:inline;fill:#CDD4D5; font-family:'Saira-Black'; font-size:37.4208px;">2</text>
</g>
<g>
	<rect x="-474" y="-251.9" class="st1" width="128" height="128"/>
	<rect x="-346" y="-251.9" class="st2" width="128" height="128"/>
	<rect x="-218" y="-251.9" class="st3" width="128" height="128"/>
	<rect x="-90" y="-251.9" class="st4" width="128" height="128"/>
	<rect x="-474" y="-123.9" class="st5" width="128" height="128"/>
	<rect x="-346" y="-123.9" class="st6" width="128" height="128"/>
	<rect x="-218" y="-123.9" class="st7" width="128" height="128"/>
	<rect x="-90" y="-123.9" class="st8" width="128" height="128"/>
	<rect x="-474" y="4.1" class="st9" width="128" height="128"/>
	<rect x="-346" y="4.1" class="st10" width="128" height="128"/>
	<rect x="-218" y="4.1" class="st11" width="128" height="128"/>
	<rect x="-90" y="4.1" class="st12" width="128" height="128"/>
	<rect x="-474" y="132.1" class="st13" width="128" height="128"/>
	<rect x="-346" y="132.1" class="st8" width="128" height="128"/>
	<rect x="-218" y="132.1" class="st8" width="128" height="128"/>
	<rect x="-90" y="132.1" class="st8" width="128" height="128"/>
</g>
<path class="st13" d="M471.1,364.9L271.6,108.8c-3.1-4-7.9-6.2-12.8-6.2h-58.7v59.3H229c4.9,0,9.7,2.4,12.8,6.2l201,254.1
	c3.1,3.8,7.9,6.2,12.8,6.2h48.2v-57.3H484C478.9,371.1,474.2,368.7,471.1,364.9z"/>
<path class="st1" d="M286.9,298l-48,66.7c-3.1,4-7.9,6.2-12.8,6.2h-25.2c-0.3,0-0.5,0-0.8,0v57.3h54.5c4.9,0,9.7-2.4,12.8-6.2
	l56.8-76.8L286.9,298z"/>
<path class="st1" d="M451,102.5c-4.9,0-9.7,2.4-12.8,6.2l-52.4,72.7l37.5,48.2l44.8-61.6c3.1-3.8,7.9-6.2,12.8-6.2h22.9v-59.3H451z"
	/>
<polygon class="st1" points="200.5,324.7 96.2,399.3 200.5,474 "/>
<polygon class="st13" points="503.7,474 608,399.4 503.7,324.7 "/>
<polygon class="st1" points="503.5,209.3 607.8,134.7 503.5,60 "/>
<polygon class="st13" points="200.3,60 96,134.6 200.3,209.3 "/>
</svg>
