<svg width="512" height="512" viewBox="0 0 512 512" fill="none" xmlns="http://www.w3.org/2000/svg">
<path fill-rule="evenodd" clip-rule="evenodd" d="M198 116H256V209H198V116ZM198 212H256V383H198V212ZM198 386V478H256V386H198Z" fill="#9BAAAB"/>
<path fill-rule="evenodd" clip-rule="evenodd" d="M256 116H314V209H256V116ZM256 212H314V383H256V212ZM256 386V478H314V386H256Z" fill="#CDD4D5"/>
<path fill-rule="evenodd" clip-rule="evenodd" d="M476 139C476 126.297 465.703 116 453 116H350V234H476V139ZM350 408V237H476V408H350ZM350 411V478H453C465.703 478 476 467.703 476 455V411H350Z" fill="#CDD4D5"/>
<path fill-rule="evenodd" clip-rule="evenodd" d="M36 139C36 126.297 46.2975 116 59 116H162V209H36V139ZM162 383V212H36V383H162ZM162 386V478H59C46.2975 478 36 467.703 36 455V386H162Z" fill="#9BAAAB"/>
<path fill-rule="evenodd" clip-rule="evenodd" d="M484 131.375C484 118.569 471.464 108.188 456 108.188H56C40.536 108.188 28 118.569 28 131.375V462.625C28 475.431 40.536 485.812 56 485.812H456C471.464 485.812 484 475.431 484 462.625V131.375ZM28 85C12.536 85 0 95.3814 0 108.188V485.812C0 498.619 12.536 509 28 509H484C499.464 509 512 498.619 512 485.812V108.188C512 95.3814 499.464 85 484 85H28Z" fill="black"/>
<path fill-rule="evenodd" clip-rule="evenodd" d="M484 131.375C484 118.569 471.464 108.188 456 108.188H56C40.536 108.188 28 118.569 28 131.375V462.625C28 475.431 40.536 485.812 56 485.812H456C471.464 485.812 484 475.431 484 462.625V131.375ZM28 85C12.536 85 0 95.3814 0 108.188V485.812C0 498.619 12.536 509 28 509H484C499.464 509 512 498.619 512 485.812V108.188C512 95.3814 499.464 85 484 85H28Z" fill="#9BAAAB"/>
<rect x="322" y="100" width="20" height="396" fill="#CDD4D5"/>
<rect x="170" y="100" width="20" height="396" fill="#9BAAAB"/>
<path d="M48 22C48 10.9543 56.9543 2 68 2H89C100.046 2 109 10.9543 109 22V77H48V22Z" fill="#9BAAAB"/>
<path d="M403 22C403 10.9543 411.954 2 423 2H444C455.046 2 464 10.9543 464 22V77H403V22Z" fill="#CDD4D5"/>
<path d="M134.867 303.672C134.867 317.828 131.938 328.656 126.078 336.156C120.219 343.656 111.641 347.406 100.344 347.406C89.1875 347.406 80.6562 343.727 74.75 336.367C68.8438 329.008 65.8203 318.461 65.6797 304.727V285.883C65.6797 271.586 68.6328 260.734 74.5391 253.328C80.4922 245.922 89.0469 242.219 100.203 242.219C111.359 242.219 119.891 245.898 125.797 253.258C131.703 260.57 134.727 271.094 134.867 284.828V303.672ZM114.547 283C114.547 274.516 113.375 268.352 111.031 264.508C108.734 260.617 105.125 258.672 100.203 258.672C95.4219 258.672 91.8828 260.523 89.5859 264.227C87.3359 267.883 86.1406 273.625 86 281.453V306.344C86 314.688 87.125 320.898 89.375 324.977C91.6719 329.008 95.3281 331.023 100.344 331.023C105.312 331.023 108.898 329.078 111.102 325.188C113.305 321.297 114.453 315.344 114.547 307.328V283Z" fill="#365558"/>
<path d="M437.078 337.469H448.68V353.852H437.078V376H416.758V353.852H374.781L373.867 341.055L416.547 273.625H437.078V337.469ZM394.117 337.469H416.758V301.328L415.422 303.648L394.117 337.469Z" fill="#FD6A33"/>
<path fill-rule="evenodd" clip-rule="evenodd" d="M256 509H484C499.464 509 512 498.619 512 485.812V108.188C512 95.3814 499.464 85 484 85H256V108.188H456C471.464 108.188 484 118.569 484 131.375V462.625C484 475.431 471.464 485.812 456 485.812H256V509Z" fill="#CDD4D5"/>
<path d="M293.867 303.672C293.867 317.828 290.938 328.656 285.078 336.156C279.219 343.656 270.641 347.406 259.344 347.406C248.188 347.406 239.656 343.727 233.75 336.367C227.844 329.008 224.82 318.461 224.68 304.727V285.883C224.68 271.586 227.633 260.734 233.539 253.328C239.492 245.922 248.047 242.219 259.203 242.219C270.359 242.219 278.891 245.898 284.797 253.258C290.703 260.57 293.727 271.094 293.867 284.828V303.672ZM273.547 283C273.547 274.516 272.375 268.352 270.031 264.508C267.734 260.617 264.125 258.672 259.203 258.672C254.422 258.672 250.883 260.523 248.586 264.227C246.336 267.883 245.141 273.625 245 281.453V306.344C245 314.688 246.125 320.898 248.375 324.977C250.672 329.008 254.328 331.023 259.344 331.023C264.312 331.023 267.898 329.078 270.102 325.188C272.305 321.297 273.453 315.344 273.547 307.328V283Z" fill="#365558"/>
<path fill-rule="evenodd" clip-rule="evenodd" d="M256 347.29C257.087 347.367 258.202 347.405 259.344 347.405C270.641 347.405 279.219 343.655 285.078 336.155C290.938 328.655 293.867 317.827 293.867 303.671V284.827C293.727 271.093 290.703 260.569 284.797 253.257C278.891 245.897 270.359 242.218 259.203 242.218C258.11 242.218 257.043 242.253 256 242.324V258.986C256.997 258.776 258.065 258.671 259.203 258.671C264.125 258.671 267.734 260.616 270.031 264.507C272.375 268.351 273.547 274.515 273.547 282.999V307.327C273.453 315.343 272.305 321.296 270.102 325.187C267.898 329.077 264.312 331.022 259.344 331.022C258.152 331.022 257.038 330.909 256 330.681V347.29Z" fill="#0295AA"/>
<mask id="mask0" mask-type="alpha" maskUnits="userSpaceOnUse" x="374" y="95" width="72" height="106">
<path d="M397.633 138.812H408.461C413.617 138.812 417.438 137.523 419.922 134.945C422.406 132.367 423.648 128.945 423.648 124.68C423.648 120.555 422.406 117.344 419.922 115.047C417.484 112.75 414.109 111.602 409.797 111.602C405.906 111.602 402.648 112.68 400.023 114.836C397.398 116.945 396.086 119.711 396.086 123.133H375.766C375.766 117.789 377.195 113.008 380.055 108.789C382.961 104.523 386.992 101.195 392.148 98.8047C397.352 96.4141 403.07 95.2188 409.305 95.2188C420.133 95.2188 428.617 97.8203 434.758 103.023C440.898 108.18 443.969 115.305 443.969 124.398C443.969 129.086 442.539 133.398 439.68 137.336C436.82 141.273 433.07 144.297 428.43 146.406C434.195 148.469 438.484 151.562 441.297 155.688C444.156 159.812 445.586 164.688 445.586 170.312C445.586 179.406 442.258 186.695 435.602 192.18C428.992 197.664 420.227 200.406 409.305 200.406C399.086 200.406 390.719 197.711 384.203 192.32C377.734 186.93 374.5 179.805 374.5 170.945H394.82C394.82 174.789 396.25 177.93 399.109 180.367C402.016 182.805 405.578 184.023 409.797 184.023C414.625 184.023 418.398 182.758 421.117 180.227C423.883 177.648 425.266 174.25 425.266 170.031C425.266 159.812 419.641 154.703 408.391 154.703H397.633V138.812Z" fill="#FF8C29"/>
</mask>
<g mask="url(#mask0)">
<rect width="111" height="90" transform="matrix(1 0 0 -1 342 206)" fill="#FF8C29"/>
</g>
<mask id="mask1" mask-type="alpha" maskUnits="userSpaceOnUse" x="65" y="73" width="70" height="105">
<path d="M113.492 136.078C108.195 141.281 102.008 143.883 94.9297 143.883C85.8828 143.883 78.6406 140.789 73.2031 134.602C67.7656 128.367 65.0469 119.977 65.0469 109.43C65.0469 102.727 66.5 96.5859 69.4062 91.0078C72.3594 85.3828 76.4609 81.0234 81.7109 77.9297C86.9609 74.7891 92.8672 73.2188 99.4297 73.2188C106.18 73.2188 112.18 74.9062 117.43 78.2812C122.68 81.6562 126.758 86.5078 129.664 92.8359C132.57 99.1641 134.047 106.406 134.094 114.562V122.086C134.094 139.148 129.852 152.555 121.367 162.305C112.883 172.055 100.859 177.258 85.2969 177.914L80.3047 177.984V161.039L84.8047 160.969C102.477 160.172 112.039 151.875 113.492 136.078ZM99.9219 128.344C103.203 128.344 106.016 127.5 108.359 125.812C110.75 124.125 112.555 122.086 113.773 119.695V111.328C113.773 104.438 112.461 99.0938 109.836 95.2969C107.211 91.5 103.695 89.6016 99.2891 89.6016C95.2109 89.6016 91.8594 91.4766 89.2344 95.2266C86.6094 98.9297 85.2969 103.594 85.2969 109.219C85.2969 114.797 86.5625 119.391 89.0938 123C91.6719 126.562 95.2812 128.344 99.9219 128.344Z" fill="#365558"/>
</mask>
<g mask="url(#mask1)">
<rect width="108" height="74" transform="matrix(1 0 0 -1 44 190)" fill="#365558"/>
</g>
<mask id="mask2" mask-type="alpha" maskUnits="userSpaceOnUse" x="220" y="73" width="70" height="105">
<path d="M268.492 136.078C263.195 141.281 257.008 143.883 249.93 143.883C240.883 143.883 233.641 140.789 228.203 134.602C222.766 128.367 220.047 119.977 220.047 109.43C220.047 102.727 221.5 96.5859 224.406 91.0078C227.359 85.3828 231.461 81.0234 236.711 77.9297C241.961 74.7891 247.867 73.2188 254.43 73.2188C261.18 73.2188 267.18 74.9062 272.43 78.2812C277.68 81.6562 281.758 86.5078 284.664 92.8359C287.57 99.1641 289.047 106.406 289.094 114.562V122.086C289.094 139.148 284.852 152.555 276.367 162.305C267.883 172.055 255.859 177.258 240.297 177.914L235.305 177.984V161.039L239.805 160.969C257.477 160.172 267.039 151.875 268.492 136.078ZM254.922 128.344C258.203 128.344 261.016 127.5 263.359 125.812C265.75 124.125 267.555 122.086 268.773 119.695V111.328C268.773 104.438 267.461 99.0938 264.836 95.2969C262.211 91.5 258.695 89.6016 254.289 89.6016C250.211 89.6016 246.859 91.4766 244.234 95.2266C241.609 98.9297 240.297 103.594 240.297 109.219C240.297 114.797 241.562 119.391 244.094 123C246.672 126.562 250.281 128.344 254.922 128.344Z" fill="#365558"/>
</mask>
<g mask="url(#mask2)">
<rect width="108" height="74" transform="matrix(1 0 0 -1 199 190)" fill="#365558"/>
</g>
<mask id="mask3" mask-type="alpha" maskUnits="userSpaceOnUse" x="220" y="73" width="70" height="105">
<path d="M268.492 136.078C263.195 141.281 257.008 143.883 249.93 143.883C240.883 143.883 233.641 140.789 228.203 134.602C222.766 128.367 220.047 119.977 220.047 109.43C220.047 102.727 221.5 96.5859 224.406 91.0078C227.359 85.3828 231.461 81.0234 236.711 77.9297C241.961 74.7891 247.867 73.2188 254.43 73.2188C261.18 73.2188 267.18 74.9062 272.43 78.2812C277.68 81.6562 281.758 86.5078 284.664 92.8359C287.57 99.1641 289.047 106.406 289.094 114.562V122.086C289.094 139.148 284.852 152.555 276.367 162.305C267.883 172.055 255.859 177.258 240.297 177.914L235.305 177.984V161.039L239.805 160.969C257.477 160.172 267.039 151.875 268.492 136.078ZM254.922 128.344C258.203 128.344 261.016 127.5 263.359 125.812C265.75 124.125 267.555 122.086 268.773 119.695V111.328C268.773 104.438 267.461 99.0938 264.836 95.2969C262.211 91.5 258.695 89.6016 254.289 89.6016C250.211 89.6016 246.859 91.4766 244.234 95.2266C241.609 98.9297 240.297 103.594 240.297 109.219C240.297 114.797 241.562 119.391 244.094 123C246.672 126.562 250.281 128.344 254.922 128.344Z" fill="#365558"/>
</mask>
<g mask="url(#mask3)">
<rect width="51" height="74" transform="matrix(1 0 0 -1 256 190)" fill="#0295AA"/>
</g>
<mask id="mask4" mask-type="alpha" maskUnits="userSpaceOnUse" x="377" y="450" width="70" height="105">
<path d="M379.984 502.656L385.891 450.625H443.266V467.57H402.555L400.023 489.578C404.852 487 409.984 485.711 415.422 485.711C425.172 485.711 432.812 488.734 438.344 494.781C443.875 500.828 446.641 509.289 446.641 520.164C446.641 526.773 445.234 532.703 442.422 537.953C439.656 543.156 435.672 547.211 430.469 550.117C425.266 552.977 419.125 554.406 412.047 554.406C405.859 554.406 400.117 553.164 394.82 550.68C389.523 548.148 385.328 544.609 382.234 540.062C379.188 535.516 377.57 530.336 377.383 524.523H397.492C397.914 528.789 399.391 532.117 401.922 534.508C404.5 536.852 407.852 538.023 411.977 538.023C416.57 538.023 420.109 536.383 422.594 533.102C425.078 529.773 426.32 525.086 426.32 519.039C426.32 513.227 424.891 508.773 422.031 505.68C419.172 502.586 415.117 501.039 409.867 501.039C405.039 501.039 401.125 502.305 398.125 504.836L396.156 506.664L379.984 502.656Z" fill="#FD6A33"/>
</mask>
<g mask="url(#mask4)">
<rect width="102" height="50" transform="matrix(1 0 0 -1 359 478)" fill="#F0353D"/>
</g>
<mask id="mask5" mask-type="alpha" maskUnits="userSpaceOnUse" x="70" y="416" width="46" height="103">
<path d="M115.32 519H95V440.672L70.7422 448.195V431.672L113.141 416.484H115.32V519Z" fill="#365558"/>
</mask>
<g mask="url(#mask5)">
<rect width="80" height="70" transform="matrix(1 0 0 -1 56 478)" fill="#365558"/>
</g>
<mask id="mask6" mask-type="alpha" maskUnits="userSpaceOnUse" x="225" y="416" width="46" height="103">
<path d="M270.32 519H250V440.672L225.742 448.195V431.672L268.141 416.484H270.32V519Z" fill="#365558"/>
</mask>
<g mask="url(#mask6)">
<path d="M211 478H291V408H211V478Z" fill="#365558"/>
</g>
<mask id="mask7" mask-type="alpha" maskUnits="userSpaceOnUse" x="225" y="416" width="46" height="103">
<path d="M270.32 519H250V440.672L225.742 448.195V431.672L268.141 416.484H270.32V519Z" fill="#365558"/>
</mask>
<g mask="url(#mask7)">
<path d="M256 478H291V408H256V478Z" fill="#0295AA"/>
</g>
</svg>
