<?xml version="1.0" encoding="utf-8"?>
<!-- Generator: Adobe Illustrator 19.0.0, SVG Export Plug-In . SVG Version: 6.00 Build 0)  -->
<svg version="1.1" xmlns="http://www.w3.org/2000/svg" xmlns:xlink="http://www.w3.org/1999/xlink" x="0px" y="0px"
	 viewBox="206 -206 512 512" style="enable-background:new 206 -206 512 512;" xml:space="preserve">
<style type="text/css">
	.st0{display:none;}
	.st1{display:inline;}
	.st2{fill:#E6EAEA;}
	.st3{fill:#FF8C29;}
	.st4{fill:#CDD4D5;}
	.st5{fill:#FD6A33;}
	.st6{fill:#9BAAAB;}
	.st7{fill:#4ACFD9;}
	.st8{fill:#0295AA;}
</style>
<g id="Layer_1">
	<g id="Layer_3" class="st0">
		<path class="st1" d="M206-206.4v512.8h512v-512.8H206z M507.4,250.7h-50.8l-89.5-106.5v-284.1c0-4.8,3.3-8.7,7.3-8.7h133V250.7z"
			/>
		<path class="st1" d="M367.1-139.9v284.1l89.5,106.5h50.8v-399.3h-133C370.4-148.7,367.1-144.8,367.1-139.9z"/>
	</g>
	<g>
		<path class="st2" d="M333.6-136.7H206v370.2h127.6c3.9,0,7.1-3.6,7.1-8.1v-354C340.7-133.1,337.5-136.7,333.6-136.7z"/>
		<path class="st3" d="M301.8-72H206v16.2h95.8c4.1,0,7.4-3.6,7.4-8.1C309.1-68.3,305.8-72,301.8-72z"/>
		<path class="st3" d="M301.8-2.9H206v16.2h95.8c4.1,0,7.4-3.6,7.4-8.1C309.1,0.7,305.8-2.9,301.8-2.9z"/>
		<path class="st3" d="M301.8,66.2H206v16.2h95.8c4.1,0,7.4-3.6,7.4-8.1C309.1,69.8,305.8,66.2,301.8,66.2z"/>
		<path class="st3" d="M301.8,135.3H206v16.2h95.8c4.1,0,7.4-3.6,7.4-8.1C309.1,138.9,305.8,135.3,301.8,135.3z"/>
	</g>
	<g>
		<path class="st4" d="M583.9-136.7c-4.1,0-7.4,3.6-7.4,8.1v263.3l90.2,98.8H718v-370.2H583.9z"/>
		<g>
			<path class="st5" d="M619.9-63.9c0,4.5,3.3,8.1,7.4,8.1H718V-72h-90.7C623.2-72,619.9-68.3,619.9-63.9z"/>
			<path class="st5" d="M619.9,5.2c0,4.5,3.3,8.1,7.4,8.1H718V-2.9h-90.7C623.2-2.9,619.9,0.7,619.9,5.2z"/>
			<path class="st5" d="M619.9,74.3c0,4.5,3.3,8.1,7.4,8.1H718V66.2h-90.7C623.2,66.2,619.9,69.8,619.9,74.3z"/>
			<path class="st5" d="M619.9,143.4c0,4.5,3.3,8.1,7.4,8.1H718v-16.2h-90.7C623.2,135.3,619.9,138.9,619.9,143.4z"/>
		</g>
		<g>
			<path class="st6" d="M659.3,134.7h-82.8l90.2,98.8v-90.7C666.7,138.4,663.4,134.7,659.3,134.7z"/>
		</g>
	</g>
	<path class="st7" d="M389.5-6.4l-61.8,0c-12.4,0-24.1,4.9-33,13.7S281,27.8,281,40.3c0,25.7,20.9,46.6,46.6,46.6l61.8,0
		c12.4,0,24.1-4.9,33-13.7c8.8-8.8,13.7-20.5,13.7-33c0-12.4-4.9-24.1-13.7-33C413.6-1.5,401.9-6.4,389.5-6.4z M327.7,16.8l61.8,0
		c12.9,0,23.4,10.5,23.4,23.4c0,12.9-10.5,23.4-23.4,23.4l-30.9,0l0,0l-30.9,0c-12.9,0-23.4-10.5-23.4-23.4
		C304.2,27.3,314.7,16.8,327.7,16.8z"/>
	<path class="st7" d="M598.2-6.4l-61.8,0c-12.4,0-24.1,4.9-33,13.7c-8.8,8.8-13.7,20.5-13.7,33c0,12.4,4.9,24.1,13.7,33
		c8.8,8.8,20.5,13.7,33,13.7l61.8,0c12.4,0,24.1-4.9,33-13.7s13.7-20.5,13.7-33c0-12.4-4.9-24.1-13.7-33
		C622.3-1.5,610.6-6.4,598.2-6.4z M598.2,63.7l-30.9,0l-30.9,0c-12.9,0-23.4-10.5-23.4-23.4c0-12.9,10.5-23.4,23.4-23.4h61.8
		c12.9,0,23.4,10.5,23.4,23.4C621.6,53.2,611.1,63.7,598.2,63.7z"/>
	<path class="st8" d="M528.7,28.7l-131.9,0c-6.4,0-11.6,5.2-11.6,11.6c0,3.1,1.2,6,3.4,8.2c2.2,2.2,5.1,3.4,8.2,3.4l131.9,0
		c3.1,0,6-1.2,8.2-3.4c2.2-2.2,3.4-5.1,3.4-8.2c0-3.1-1.2-6-3.4-8.2C534.7,29.9,531.8,28.7,528.7,28.7z"/>
	<g>
		<path class="st5" d="M467.2-17.3c-0.7,0.7-1.7,1.1-2.7,1.1c-2.1,0-3.9-1.7-3.9-3.9v-30.6c0-2.1,1.7-3.9,3.9-3.9
			c2.1,0,3.9,1.7,3.9,3.9V-20C468.3-18.9,467.9-18,467.2-17.3z"/>
		<path class="st5" d="M450.7-10.4c-1.5,1.5-4,1.5-5.5,0l-21.6-21.6c-1.5-1.5-1.5-4,0-5.5c1.5-1.5,4-1.5,5.5,0l21.6,21.6
			C452.2-14.4,452.2-11.9,450.7-10.4z"/>
		<path class="st5" d="M505.3-32.1l-21.6,21.6c-1.5,1.5-4,1.5-5.5,0s-1.5-4,0-5.5l21.6-21.6c1.5-1.5,4-1.5,5.5,0
			C506.8-36,506.8-33.6,505.3-32.1z"/>
	</g>
</g>
<g id="Layer_2">
</g>
</svg>
