<svg width="512" height="512" viewBox="0 0 512 512" fill="none" xmlns="http://www.w3.org/2000/svg">
<rect x="230.899" y="118.71" width="22.5516" height="154.326" fill="#9BAAAB"/>
<rect x="342.645" y="328.486" width="22.0465" height="85.5137" fill="#9BAAAB"/>
<rect x="454.213" y="98" width="22.0465" height="187.729" fill="#9BAAAB"/>
<path fill-rule="evenodd" clip-rule="evenodd" d="M288.531 153.329H195V378.046H288.531V153.329ZM240.403 315H233.169V325.616H240.356C247.872 325.616 251.63 329.029 251.63 335.856C251.63 338.675 250.706 340.945 248.858 342.667C247.042 344.358 244.521 345.204 241.296 345.204C238.477 345.204 236.097 344.39 234.156 342.761C232.245 341.133 231.29 339.035 231.29 336.467H217.715C217.715 342.386 219.875 347.146 224.197 350.747C228.55 354.348 234.14 356.149 240.967 356.149C248.263 356.149 254.12 354.317 258.535 350.653C262.982 346.989 265.205 342.119 265.205 336.044C265.205 332.286 264.25 329.029 262.34 326.273C260.461 323.518 257.596 321.451 253.744 320.073C256.844 318.664 259.349 316.644 261.26 314.013C263.17 311.383 264.125 308.502 264.125 305.37C264.125 299.295 262.074 294.535 257.971 291.09C253.869 287.614 248.201 285.876 240.967 285.876C236.802 285.876 232.981 286.674 229.505 288.271C226.06 289.868 223.367 292.092 221.426 294.942C219.515 297.76 218.56 300.954 218.56 304.524H232.136C232.136 302.238 233.012 300.391 234.766 298.981C236.52 297.541 238.696 296.821 241.296 296.821C244.177 296.821 246.431 297.588 248.06 299.122C249.72 300.657 250.549 302.802 250.549 305.558C250.549 308.408 249.72 310.694 248.06 312.416C246.4 314.138 243.848 315 240.403 315Z" fill="#D3F035"/>
<path fill-rule="evenodd" clip-rule="evenodd" d="M400.1 118.589H306.569V343.305H400.1V118.589ZM331.314 320.991H378.194V310.046H348.788L364.337 293.652C368.596 288.986 371.602 284.899 373.356 281.392C375.109 277.885 375.986 274.44 375.986 271.058C375.986 264.888 374.029 260.113 370.114 256.731C366.231 253.348 360.767 251.657 353.72 251.657C349.117 251.657 344.999 252.644 341.366 254.617C337.734 256.558 334.915 259.252 332.911 262.696C330.938 266.141 329.952 269.946 329.952 274.111H343.574C343.574 270.666 344.451 267.895 346.205 265.797C347.99 263.667 350.417 262.602 353.486 262.602C356.335 262.602 358.527 263.479 360.062 265.233C361.596 266.955 362.364 269.335 362.364 272.373C362.364 274.596 361.628 276.945 360.156 279.419C358.715 281.893 356.476 284.79 353.439 288.109L331.314 311.69V320.991Z" fill="#F0353D"/>
<path fill-rule="evenodd" clip-rule="evenodd" d="M511.668 161.346H418.137V386.062H511.668V161.346ZM462.402 365.575H475.978V297.087H474.522L446.196 307.233V318.272L462.402 313.246V365.575Z" fill="#F0353D"/>
<path fill-rule="evenodd" clip-rule="evenodd" d="M353.334 118.589H306.569V343.305H353.334V320.991H331.314V311.69L353.334 288.221V262.603C350.337 262.638 347.96 263.702 346.205 265.797C344.451 267.895 343.574 270.666 343.574 274.111H329.952C329.952 269.946 330.938 266.141 332.911 262.696C334.915 259.252 337.734 256.558 341.366 254.617C344.897 252.699 348.886 251.713 353.334 251.66V118.589ZM353.334 305.253L348.788 310.046H353.334V305.253Z" fill="#D3F035"/>
<path fill-rule="evenodd" clip-rule="evenodd" d="M31 0H0V512H31L69 488.5L31 465L69 442L31 419L69 395.5L31 372L69 349L31 326L69 302.5L31 279L69 256L31 233L69 209.5L31 186L69 163L31 140L69 116.5L31 93L69 70L31 47L69 23.5L31 0Z" fill="#0295AA"/>
<circle cx="158" cy="274" r="8" fill="#0295AA"/>
<circle cx="127" cy="274" r="8" fill="#0295AA"/>
<circle cx="95" cy="274" r="8" fill="#0295AA"/>
</svg>
