<svg width="512" height="512" viewBox="0 0 512 512" fill="none" xmlns="http://www.w3.org/2000/svg">
<path fill-rule="evenodd" clip-rule="evenodd" d="M126.806 70.5019C111.437 40.5908 133.132 5 166.734 5H345.207C378.755 5 400.454 40.4883 385.191 70.3933L297.144 242.9C294.248 248.575 294.204 255.287 297.027 260.999L386.289 441.638C401.027 471.462 379.406 506.42 346.166 506.51L166.08 507C132.706 507.091 110.901 471.996 125.74 442.072L215.504 261.049C218.348 255.315 218.3 248.569 215.374 242.876L126.806 70.5019ZM166.734 29.7972C151.671 29.7972 141.946 45.7517 148.835 59.1601L237.404 231.534C243.929 244.234 244.037 259.282 237.693 272.074L147.929 453.097C141.277 466.511 151.052 482.243 166.012 482.203L346.098 481.713C360.999 481.672 370.691 466.002 364.085 452.632L274.823 271.994C268.526 259.251 268.623 244.278 275.085 231.618L363.131 59.1114C369.973 45.7057 360.246 29.7972 345.207 29.7972H166.734Z" fill="#45CCD3"/>
<path fill-rule="evenodd" clip-rule="evenodd" d="M130.542 23.8757C121.358 36.8122 118.951 54.4654 127.192 70.4883L215.831 242.826C218.758 248.518 218.806 255.262 215.961 260.996L126.125 441.981C111.274 471.899 133.096 506.986 166.497 506.895L346.726 506.405C362.234 506.363 375.214 498.746 383.16 487.605L366.067 456.227C369.465 468.625 360.216 481.577 346.659 481.613L166.429 482.103C151.457 482.144 141.674 466.415 148.331 453.004L238.167 272.018C244.516 259.229 244.408 244.184 237.878 231.487L149.238 59.1489C148.627 57.9601 148.146 56.7513 147.789 55.5354L130.542 23.8757Z" fill="#0197A5"/>
<rect width="18" height="278.21" transform="matrix(1 0 0 -1 247 430.412)" fill="#9BAAAB"/>
<path d="M255.997 410.969H304.032L268.633 273.135C265.572 261.219 267.107 248.587 272.931 237.75L293.925 198.687H255.997V410.969Z" fill="#FD6A33"/>
<path d="M255.997 410.969H209.512L243.905 272.59C246.785 260.999 245.334 248.756 239.823 238.161L219.292 198.687H255.997V410.969Z" fill="#F0353D"/>
<path d="M256 128L285.445 92H226.555L256 128Z" fill="#4ACFD9"/>
<path d="M256 85L279.383 55.75H232.617L256 85Z" fill="#0295AA"/>
</svg>
