<?xml version="1.0" encoding="utf-8"?>
<!-- Generator: Adobe Illustrator 19.0.0, SVG Export Plug-In . SVG Version: 6.00 Build 0)  -->
<svg version="1.1" id="Layer_1" xmlns="http://www.w3.org/2000/svg" xmlns:xlink="http://www.w3.org/1999/xlink" x="0px" y="0px"
	 viewBox="96 11 512 512" style="enable-background:new 96 11 512 512;" xml:space="preserve">
<style type="text/css">
	.st0{fill:#BCD643;}
	.st1{fill:#365558;}
	.st2{fill:#4ACFD9;}
	.st3{fill:#FF8C29;}
	.st4{fill:#FFD1A9;}
	.st5{fill:#FD6A33;}
	.st6{fill:#F0353D;}
</style>
<polygon class="st0" points="453,82.5 554.8,39.5 554.8,270 453,313 "/>
<path class="st1" d="M465.3,178.9c2.7-1.3,5,2.1,5,7.5s-2.2,10.8-5,12.1s-5-2.1-5-7.5C460.3,185.6,462.6,180.2,465.3,178.9z"/>
<polygon class="st2" points="566.5,10.9 422.8,10.9 422.8,28.1 566.5,28.1 566.5,265.7 608,265.7 608,10.9 "/>
<g>
	<path class="st3" d="M178.9,182.1h-66c-4.5,0-8.7,1.8-12,4.9c-3.1,3.3-4.9,7.5-4.9,12v66c0,3.9,1,6.7,2.7,8
		c18.4-38.5,49.6-69.8,88.2-88.1C185.6,183.1,182.8,182.1,178.9,182.1z"/>
	<path class="st4" d="M184.1,194.4c3.2-3.2,4.5-6.3,3.5-8.7c-0.1-0.4-0.3-0.7-0.6-1c-38.6,18.4-69.8,49.6-88.2,88.1
		c0.3,0.2,0.6,0.4,1,0.6c2.4,1,5.5-0.3,8.7-3.5l10.6-10.6l27.2-27.3l27.3-27.2L184.1,194.4z"/>
	<path class="st4" d="M184.4,232.1l-7.3-7.3l0,0L165.3,213l-19.2,19.2l11.8,11.8l0,0l0,0l-11.8-11.8l-19.1,19.2l11.8,11.8l0,0
		l7.3,7.3C156.4,255.4,169.4,242.4,184.4,232.1z"/>
	<path class="st5" d="M184.4,232.1c-15,10.3-28.1,23.3-38.4,38.3l28.9,28.9c9.2-15.9,22.5-29.1,38.4-38.3L184.4,232.1z"/>
	<path class="st4" d="M243.3,290.9l-29.9-29.8c-15.9,9.2-29.1,22.5-38.4,38.3l29.9,29.8C211.6,311.6,225.6,297.5,243.3,290.9z"/>
	<path class="st6" d="M218.7,333.1l14.3-14.2l14.3-14.2c2.7-2.7,2.7-7.1,0-9.9l-3.9-3.9c-17.7,6.7-31.7,20.7-38.4,38.3l3.9,3.9
		C211.6,335.9,216.1,335.9,218.7,333.1z"/>
	<path class="st3" d="M437,264.9v-66c0-4.5-1.8-8.7-4.9-12c-3.3-3.1-7.5-4.9-12-4.9h-66c-3.9,0-6.7,1-8,2.7
		c38.6,18.4,69.8,49.6,88.2,88.1C436,271.6,437,268.8,437,264.9z"/>
	<path class="st4" d="M424.8,270c3.2,3.2,6.3,4.5,8.7,3.5c0.4-0.1,0.7-0.3,1-0.6c-18.4-38.5-49.6-69.8-88.2-88.1
		c-0.2,0.3-0.4,0.6-0.6,1c-1,2.4,0.3,5.5,3.5,8.7l10.6,10.6l27.3,27.2l27.2,27.3L424.8,270z"/>
	<path class="st4" d="M387,270.4l7.3-7.3l0,0l11.8-11.8l-19.2-19.2l-11.8,11.8l0,0l0,0l11.8-11.8l-19.2-19.2l-11.8,11.8l0,0
		l-7.3,7.3C363.6,242.4,376.8,255.4,387,270.4z"/>
	<path class="st5" d="M387,270.4c-10.3-15-23.3-28.1-38.4-38.3L319.8,261c15.9,9.2,29.1,22.5,38.4,38.3L387,270.4z"/>
	<path class="st4" d="M328.3,329.2l29.9-29.8c-9.2-15.9-22.5-29.1-38.4-38.3l-29.9,29.8C307.5,297.5,321.5,311.6,328.3,329.2z"/>
	<path class="st6" d="M285.9,304.7l14.3,14.2l14.3,14.2c2.7,2.7,7.1,2.7,9.9,0l3.9-3.9c-6.7-17.6-20.7-31.7-38.4-38.3l-3.9,3.9
		C283.1,297.5,283.1,302,285.9,304.7z"/>
	<path class="st3" d="M354.3,522.9h66c4.5,0,8.7-1.8,12-4.9c3.1-3.3,4.9-7.5,4.9-12v-66c0-3.9-1-6.7-2.7-8
		c-18.4,38.5-49.6,69.8-88.2,88.1C347.5,521.9,350.3,522.9,354.3,522.9z"/>
	<path class="st4" d="M349,510.6c-3.2,3.2-4.5,6.3-3.5,8.7c0.1,0.4,0.3,0.7,0.6,1c38.6-18.4,69.8-49.6,88.2-88.1
		c-0.3-0.2-0.6-0.4-1-0.6c-2.4-1-5.5,0.3-8.7,3.5L414,445.8L386.8,473l-27.3,27.2L349,510.6z"/>
	<path class="st4" d="M348.6,472.9l7.3,7.3l0,0l11.8,11.8l19.2-19.2L375.1,461l0,0l0,0l11.8,11.8l19.2-19.2l-11.8-11.7l0,0l-7.3-7.3
		C376.8,449.6,363.6,462.6,348.6,472.9z"/>
	<path class="st5" d="M348.6,472.9c15-10.3,28.1-23.3,38.4-38.3l-29-29c-9.2,15.9-22.5,29.1-38.4,38.3L348.6,472.9z"/>
	<path class="st4" d="M289.8,414.1l29.9,29.8c15.9-9.2,29.1-22.5,38.4-38.3l-29.9-29.8C321.5,393.4,307.5,407.5,289.8,414.1z"/>
	<path class="st6" d="M314.4,371.9l-14.3,14.2l-14.3,14.2c-2.7,2.7-2.7,7.1,0,9.9l3.9,3.9c17.7-6.7,31.7-20.7,38.4-38.3l-3.9-3.9
		C321.5,369.1,317,369.1,314.4,371.9z"/>
	<path class="st3" d="M96.1,440.1v66c0,4.5,1.8,8.7,4.9,12c3.3,3.1,7.5,4.9,12,4.9h66c3.9,0,6.7-1,8-2.7
		c-38.6-18.4-69.8-49.6-88.2-88.1C97.1,433.4,96.1,436.2,96.1,440.1z"/>
	<path class="st4" d="M108.4,435c-3.2-3.2-6.3-4.5-8.7-3.5c-0.4,0.1-0.7,0.3-1,0.6c18.4,38.5,49.6,69.8,88.2,88.1
		c0.2-0.3,0.4-0.6,0.6-1c1-2.4-0.3-5.5-3.5-8.7l-10.6-10.6l-27.3-27.2l-27.2-27.3L108.4,435z"/>
	<path class="st4" d="M146.1,434.6l-7.3,7.3l0,0l-11.7,11.7l19.2,19.2l11.8-11.8l0,0l0,0l-11.8,11.8l19.2,19.2l11.8-11.8l0,0
		l7.3-7.3C169.4,462.6,156.4,449.6,146.1,434.6z"/>
	<path class="st5" d="M146.1,434.6c10.3,15,23.3,28.1,38.4,38.3l28.9-28.9c-15.9-9.2-29.1-22.5-38.4-38.3L146.1,434.6z"/>
	<path class="st4" d="M204.9,375.8l-29.8,29.8c9.2,15.9,22.5,29.1,38.4,38.3l29.9-29.8C225.6,407.5,211.6,393.4,204.9,375.8z"/>
	<path class="st6" d="M247.2,400.3l-14.3-14.2l-14.3-14.2c-2.7-2.7-7.1-2.7-9.9,0l-3.9,3.9c6.7,17.6,20.7,31.7,38.4,38.3l3.9-3.9
		C249.9,407.5,249.9,403,247.2,400.3z"/>
</g>
</svg>
