<svg width="512" height="512" viewBox="0 0 512 512" fill="none" xmlns="http://www.w3.org/2000/svg">
<path d="M45 376.5H408.5V421.725C408.5 462.347 414.606 480.366 426 489.772C433 494 436.555 496.785 447.5 499C458.058 501.137 483.72 505.509 500.469 506.845C501.79 506.95 503.117 506.625 504.156 505.803C509.513 501.561 512 495.628 512 488V24C512 10.7452 501.255 0 488 0H69C55.7452 0 45 10.7452 45 24L45 376.5Z" fill="#FF8C29"/>
<path d="M45 396.5V488C45 489.419 45.1231 490.809 45.3593 492.16C57.8318 499.976 72.6022 504.5 88.4424 504.5H416.725C415.245 503.524 413.817 502.473 412.444 501.339C395.24 487.137 389.357 462.418 389.357 421.725V396.5H45Z" fill="#FF8C29"/>
<path fill-rule="evenodd" clip-rule="evenodd" d="M278 504.5H416.725C415.245 503.524 413.817 502.473 412.444 501.339C395.24 487.137 389.357 462.418 389.357 421.725V396.5H278V504.5ZM278 376.5H408.5V421.725C408.5 462.347 414.743 480.366 426.137 489.772C431.949 494.57 439.803 497.738 450.748 499.953C461.306 502.09 483.72 505.509 500.469 506.845C501.79 506.95 503.117 506.625 504.156 505.803C509.513 501.561 512 495.628 512 488V24C512 10.7452 501.255 0 488 0H278V376.5Z" fill="#FFD1A9"/>
<path fill-rule="evenodd" clip-rule="evenodd" d="M471.686 53.2105H85.314C78.6917 53.2105 73.3232 58.9366 73.3232 66V147C73.3232 154.063 78.6917 159.789 85.314 159.789H471.686C478.308 159.789 483.677 154.063 483.677 147V66C483.677 58.9366 478.308 53.2105 471.686 53.2105ZM85.314 39C71.3335 39 60 51.0883 60 66V147C60 161.912 71.3335 174 85.314 174H471.686C485.667 174 497 161.912 497 147V66C497 51.0883 485.667 39 471.686 39H85.314Z" fill="#365558"/>
<path d="M278 174H471.628C485.641 174 497 161.912 497 147V66C497 51.0883 485.641 39 471.628 39H278V53.2105H471.628C478.266 53.2105 483.646 58.9366 483.646 66V147C483.646 154.063 478.266 159.789 471.628 159.789H278V174Z" fill="#0295AA"/>
<path d="M201.197 118.978H193.132L190.124 137H182.477L185.485 118.978H176V111.418H186.739L188.828 98.9341H179.134V91.2857H190.124L193.174 73H200.779L197.728 91.2857H205.835L208.885 73H216.532L213.482 91.2857H222.633V98.9341H212.186L210.097 111.418H219.457V118.978H208.843L205.835 137H198.188L201.197 118.978ZM194.386 111.418H202.45L204.54 98.9341H196.433L194.386 111.418Z" fill="#365558"/>
<path d="M251.507 95.0659L262.914 73H277.33L259.613 104.736L277.79 137H263.206L251.507 114.582L239.807 137H225.223L243.4 104.736L225.683 73H240.099L251.507 95.0659Z" fill="#365558"/>
<path d="M305.117 101.835L317.778 73H331.484L311.511 113.791V137H298.766V113.791L278.792 73H292.54L305.117 101.835Z" fill="#365558"/>
<path d="M350.329 126.407H381V137H334.66V129.264L364.745 83.6813H334.702V73H380.331V80.5604L350.329 126.407Z" fill="#365558"/>
<rect x="60" y="212" width="218" height="16" fill="#365558"/>
<rect x="60" y="285" width="218" height="16" fill="#365558"/>
<rect x="278" y="212" width="219" height="16" fill="#0295AA"/>
<rect x="278" y="285" width="219" height="16" fill="#0295AA"/>
<rect x="60" y="248" width="218" height="17" fill="#365558"/>
<rect x="60" y="321" width="218" height="17" fill="#365558"/>
<rect x="278" y="248" width="219" height="17" fill="#0295AA"/>
<rect x="278" y="321" width="219" height="17" fill="#0295AA"/>
<path d="M0 389V423.982C0 472.593 39.597 512 88.4424 512H487C421.108 507.2 396.857 503.04 396.857 421.725V389H0Z" fill="#FF8C29"/>
<path fill-rule="evenodd" clip-rule="evenodd" d="M279 73.4238L298.766 113.791V137H311.511V113.791L331.484 73H317.778L305.117 101.835L292.54 73H279V73.4238ZM381 126.407H350.329L380.331 80.5604V73H334.702V83.6813H364.745L334.66 129.264V137H381V126.407Z" fill="#0295AA"/>
<path fill-rule="evenodd" clip-rule="evenodd" d="M278 512H487C421.108 507.2 396.857 503.04 396.857 421.725V389H278V512Z" fill="#FFD1A9"/>
</svg>
