<?xml version="1.0" encoding="utf-8"?>
<!-- Generator: Adobe Illustrator 19.0.0, SVG Export Plug-In . SVG Version: 6.00 Build 0)  -->
<svg version="1.1" id="Layer_1" xmlns="http://www.w3.org/2000/svg" xmlns:xlink="http://www.w3.org/1999/xlink" x="0px" y="0px"
	 viewBox="96 11 512 512" style="enable-background:new 96 11 512 512;" xml:space="preserve">
<style type="text/css">
	.st0{display:none;fill:#020202;}
	.st1{fill:#FD6A33;}
	.st2{fill:#FF8C29;}
	.st3{fill:#FFFFFF;}
	.st4{fill:#FFD1A9;}
	.st5{fill:#F0353D;}
	.st6{fill:#E6EAEA;}
	.st7{fill:#CDD4D5;}
	.st8{fill:#9BAAAB;}
	.st9{fill:#365558;}
	.st10{fill:#0295AA;}
	.st11{fill:#4ACFD9;}
	.st12{fill:none;stroke:#000000;stroke-miterlimit:10;}
	.st13{fill:#BCD643;}
</style>
<rect x="398" y="-184" class="st0" width="512" height="512"/>
<path class="st1" d="M228,243.8h-6.2h-6.3c-8.1,0-14.7,6.7-14.7,14.7v63.3c0,8.1,6.7,14.7,14.7,14.7h6.3h6.2c3.7,0,6.8-3,6.8-6.8
	v-79.2C234.8,247,231.8,243.8,228,243.8z"/>
<path class="st2" d="M482.2,336.5H476c-3.7,0-6.8-3-6.8-6.8v-79.2c0-3.7,3-6.8,6.8-6.8h6.2h6.3c8.1,0,14.7,6.7,14.7,14.7v63.4
	c0,8.1-6.7,14.7-14.7,14.7H482.2z"/>
<path class="st2" d="M457.6,218.5v128.1c0,18.7-15.2,33.9-33.9,33.9H352V141.2l0,0c8.9,0,16.2,7.3,16.2,16.2v18.4
	c0,4.7,4.3,8.9,8.9,8.9h46.6C442.2,184.6,457.6,199.8,457.6,218.5z"/>
<path class="st3" d="M389.3,333.1h18.4c1.9,0,3.6-1.6,3.6-3.6v-5.7c0-1.9-1.6-3.6-3.6-3.6h-18.4c-1.9,0-3.6,1.6-3.6,3.6v5.7
	C385.8,331.4,387.4,333.1,389.3,333.1z"/>
<path class="st3" d="M398.6,277.2c9.3,0,16.9-7.6,16.9-16.9c0-9.3-7.6-16.9-16.9-16.9s-16.9,7.6-16.9,16.9
	C381.7,269.6,389.2,277.2,398.6,277.2z"/>
<path class="st3" d="M361.4,320.3H352V333h9.4c1.8,0,3.3-1.4,3.3-3.3v-6.1C364.8,321.8,363.3,320.3,361.4,320.3z"/>
<path class="st1" d="M352,141.1v239.4h-71.6c-18.7,0-33.9-15.2-33.9-33.9V218.5c0-18.7,15.2-33.9,33.9-33.9h45.1
	c5,0,10.2-3.8,10.2-8.9v-18.4C335.9,148.4,343.1,141.1,352,141.1z"/>
<path class="st3" d="M314.9,320.3H296c-1.8,0-3.3,1.4-3.3,3.3v6.1c0,1.8,1.4,3.3,3.3,3.3h18.9c1.8,0,3.3-1.4,3.3-3.3v-6.1
	C318.2,321.8,316.7,320.3,314.9,320.3z"/>
<path class="st3" d="M305.4,243.3c-9.3,0-16.9,7.6-16.9,16.9c0,9.3,7.6,16.9,16.9,16.9s16.9-7.6,16.9-16.9
	C322.3,251,314.8,243.3,305.4,243.3z"/>
<path class="st3" d="M342.6,320.3c-1.8,0-3.3,1.4-3.3,3.3v6.1c0,1.8,1.4,3.3,3.3,3.3h9.4v-12.8H342.6z"/>
<path class="st4" d="M215.3,299.6c0.7,1,1,2.3,0.6,3.6c-1.7,7-0.3,14.3,3.7,20.1c1.3,1.9,0.9,4.6-0.8,6c-1.9,1.4-4.4,1.1-5.8-0.7
	c-5.6-7.7-7.3-17.6-5-27c0.6-2.3,2.8-3.8,5-3.2C214.1,298.3,214.7,298.8,215.3,299.6z"/>
<path class="st4" d="M491.6,298.3c2.2-0.6,4.4,1,5,3.2c2.4,9.4,0.6,19.3-5,27c-1.3,1.8-3.9,2.1-5.8,0.7c-1.7-1.4-2.2-4.1-0.8-6
	c4-5.8,5.3-13,3.7-20.1c-0.4-1.2-0.1-2.6,0.6-3.6C489.8,298.8,490.4,298.3,491.6,298.3z"/>
<path class="st5" d="M357.3,16.7l-0.4,23.8c-0.1,3.2-2.6,5.7-5.9,5.8c-3.2,0-5.7-2.5-5.6-5.7l0.4-23.8c0.1-3.2,2.6-5.7,5.9-5.8
	C354.8,11,357.3,13.5,357.3,16.7z"/>
<path class="st5" d="M391.6,31.7c0,1.5-0.6,3-1.8,4.1l-15.4,15.3c-2.3,2.3-5.9,2.3-8.2,0c-2.2-2.2-2.1-5.8,0.2-8.2l15.4-15.3
	c2.3-2.3,5.9-2.3,8.2,0C391.2,28.7,391.7,30.3,391.6,31.7z"/>
<path class="st5" d="M337.3,47.2c0,1.5-0.6,3-1.8,4.1c-2.3,2.3-5.9,2.3-8.2,0l-14.9-15c-2.2-2.2-2.1-5.8,0.2-8.2
	c2.3-2.3,5.9-2.3,8.2,0l14.9,15C336.7,44.3,337.3,45.7,337.3,47.2z"/>
<path class="st6" d="M470.6,190.6c0.2-47.2-33.1-87.3-79.4-102v45.1c0,5.6-4.6,10.1-10.1,10.1c-5.6,0-10.1-4.6-10.1-10.1
	c0,0,0-37.7,0-49.8c0-16.1-8.7-21.9-18.9-21.9v133.7h118.4C470.6,194,470.6,192.2,470.6,190.6z"/>
<path class="st7" d="M332.3,84c0,16.7,0,49.7,0,49.7c0,5.6-4.6,10.1-10.1,10.1s-10.1-4.6-10.1-10.1V88.8
	c-46,14.9-78.9,54.9-78.9,101.8c0,1.8,0,3.4,0.1,5.1H352V62C340.7,62,332.3,67.3,332.3,84z"/>
<path class="st7" d="M471.1,195.8H352v28.6c53.4,0.1,119.1,7.6,119.1,7.6c9.3,3.4,13.3-6,13.3-13.3v-9.4
	C484.4,201.8,478.4,195.8,471.1,195.8z"/>
<path class="st8" d="M231.3,195.8c-7.3,0-13.3,6-13.3,13.3v9.4c0,7.3,4.6,15.8,13.3,13.3c0,0,67.9-7.6,119.9-7.6c0.3,0,0.5,0,0.8,0
	v-28.6H231.3z"/>
<g>
	<rect x="-441" y="11" class="st5" width="128" height="128"/>
	<rect x="-313" y="11" class="st1" width="128" height="128"/>
	<rect x="-185" y="11" class="st2" width="128" height="128"/>
	<rect x="-57" y="11" class="st4" width="128" height="128"/>
	<rect x="-441" y="139" class="st9" width="128" height="128"/>
	<rect x="-313" y="139" class="st10" width="128" height="128"/>
	<rect x="-185" y="139" class="st11" width="128" height="128"/>
	<rect x="-57" y="139" class="st12" width="128" height="128"/>
	<rect x="-441" y="267" class="st8" width="128" height="128"/>
	<rect x="-313" y="267" class="st7" width="128" height="128"/>
	<rect x="-185" y="267" class="st6" width="128" height="128"/>
	<rect x="-57" y="267" class="st3" width="128" height="128"/>
	<rect x="-441" y="395" class="st13" width="128" height="128"/>
	<rect x="-313" y="395" class="st12" width="128" height="128"/>
	<rect x="-185" y="395" class="st12" width="128" height="128"/>
	<rect x="-57" y="395" class="st12" width="128" height="128"/>
</g>
<path class="st10" d="M510.3,434.1h-159v88h158.9c6.9,0,12.5-5.6,12.5-12.5v-62.9C522.9,439.8,517.2,434.1,510.3,434.1z"/>
<path class="st9" d="M193.8,434.1c-6.9,0-12.5,5.6-12.5,12.5v62.9c0,6.9,5.6,12.5,12.5,12.5h157.6v-88H193.8z"/>
<path class="st11" d="M240.5,390.5h-16.9c-6.9,0-12.5,5.6-12.5,12.5v68.7c0,6.9,5.6,12.5,12.5,12.5h16.9c6.9,0,12.5-5.6,12.5-12.5
	V403C253,396.1,247.4,390.5,240.5,390.5z"/>
<path class="st2" d="M232,450.3c-0.1,0-0.2,0-0.2,0v28.4c0.1,0,0.2,0,0.2,0c7.8,0,14.2-6.4,14.2-14.2S239.8,450.3,232,450.3z"/>
<path class="st1" d="M217.9,464.5c0,7.7,6.2,14,13.9,14.2v-28.3C224,450.5,217.9,456.8,217.9,464.5z"/>
<path class="st11" d="M480.6,484.2h-16.9c-6.9,0-12.5-5.6-12.5-12.5V403c0-6.9,5.6-12.5,12.5-12.5h16.9c6.9,0,12.5,5.6,12.5,12.5
	v68.7C493.1,478.6,487.5,484.2,480.6,484.2z"/>
<path class="st2" d="M472,450.3c-0.1,0-0.2,0-0.2,0v28.4c0.1,0,0.2,0,0.2,0c7.8,0,14.2-6.4,14.2-14.2S479.9,450.3,472,450.3z"/>
<path class="st1" d="M458.1,464.5c0,7.7,6.2,14,13.9,14.2v-28.3C464.2,450.5,458.1,456.8,458.1,464.5z"/>
</svg>
