<?xml version="1.0" encoding="utf-8"?>
<!-- Generator: Adobe Illustrator 19.0.0, SVG Export Plug-In . SVG Version: 6.00 Build 0)  -->
<svg version="1.1" id="Layer_1" xmlns="http://www.w3.org/2000/svg" xmlns:xlink="http://www.w3.org/1999/xlink" x="0px" y="0px"
	 viewBox="96 11 512 512" style="enable-background:new 96 11 512 512;" xml:space="preserve">
<style type="text/css">
	.st0{fill:#365558;}
	.st1{fill:#E6EAEA;}
	.st2{fill:#9BAAAB;}
	.st3{fill:#FF8C29;}
	.st4{fill:#FFD1A9;}
	.st5{fill:#FD6A33;}
	.st6{fill:#F0353D;}
</style>
<polygon class="st0" points="250.9,313 149.2,270 149.2,39.5 250.9,82.5 "/>
<path class="st1" d="M243.6,191c0,5.4-2.2,8.8-5,7.5s-5-6.7-5-12.1s2.2-8.8,5-7.5C241.3,180.2,243.6,185.6,243.6,191z"/>
<polygon class="st2" points="137.5,10.9 96,10.9 96,265.6 137.5,265.6 137.5,28.1 281.2,28.1 281.2,10.9 "/>
<g>
	<path class="st3" d="M525.2,182.1h66c4.5,0,8.7,1.8,12,4.9c3.1,3.3,4.9,7.5,4.9,12v66c0,3.9-1,6.7-2.7,8
		c-18.4-38.5-49.6-69.8-88.2-88.1C518.4,183.1,521.3,182.1,525.2,182.1z"/>
	<path class="st4" d="M519.9,194.4c-3.2-3.2-4.5-6.3-3.5-8.7c0.1-0.4,0.3-0.7,0.6-1c38.6,18.4,69.8,49.6,88.2,88.1
		c-0.3,0.2-0.6,0.4-1,0.6c-2.4,1-5.5-0.3-8.7-3.5l-10.6-10.6L557.8,232l-27.3-27.2L519.9,194.4z"/>
	<path class="st4" d="M519.5,232.1l7.3-7.3l0,0l11.8-11.8l19.2,19.2L546,244l0,0l0,0l11.8-11.8l19.2,19.2l-11.8,11.8l0,0l-7.3,7.3
		C547.7,255.4,534.5,242.4,519.5,232.1z"/>
	<path class="st5" d="M519.5,232.1c15,10.3,28.1,23.3,38.4,38.3l-29,29c-9.2-15.9-22.5-29.1-38.4-38.3L519.5,232.1z"/>
	<path class="st4" d="M460.7,290.9l29.9-29.8c15.9,9.2,29.1,22.5,38.4,38.3l-29.9,29.8C492.4,311.6,478.4,297.5,460.7,290.9z"/>
	<path class="st6" d="M485.3,333.1L471,318.9l-14.3-14.2c-2.7-2.7-2.7-7.1,0-9.9l3.9-3.9c17.7,6.7,31.7,20.7,38.4,38.3l-3.9,3.9
		C492.4,335.9,487.9,335.9,485.3,333.1z"/>
	<path class="st3" d="M266.9,264.9v-66c0-4.5,1.8-8.7,4.9-12c3.3-3.1,7.5-4.9,12-4.9h66c3.9,0,6.7,1,8,2.7
		c-38.6,18.4-69.8,49.6-88.2,88.1C267.9,271.6,266.9,268.8,266.9,264.9z"/>
	<path class="st4" d="M279.2,270c-3.2,3.2-6.3,4.5-8.7,3.5c-0.4-0.1-0.7-0.3-1-0.6c18.4-38.5,49.6-69.8,88.2-88.1
		c0.2,0.3,0.4,0.6,0.6,1c1,2.4-0.3,5.5-3.5,8.7l-10.6,10.6l-27.3,27.2l-27.2,27.3L279.2,270z"/>
	<path class="st4" d="M316.9,270.4l-7.3-7.3l0,0l-11.7-11.7l19.2-19.2l11.8,11.8l0,0l0,0l-11.8-11.8l19.2-19.2l11.8,11.8l0,0
		l7.3,7.3C340.3,242.4,327.2,255.4,316.9,270.4z"/>
	<path class="st5" d="M316.9,270.4c10.3-15,23.3-28.1,38.4-38.3l28.9,28.9c-15.9,9.2-29.1,22.5-38.4,38.3L316.9,270.4z"/>
	<path class="st4" d="M375.7,329.2l-29.8-29.8c9.2-15.9,22.5-29.1,38.4-38.3l29.9,29.8C396.4,297.5,382.4,311.6,375.7,329.2z"/>
	<path class="st6" d="M418,304.7l-14.2,14.2l-14.3,14.2c-2.7,2.7-7.1,2.7-9.9,0l-3.9-3.9c6.7-17.6,20.7-31.7,38.4-38.3l3.9,3.9
		C420.8,297.5,420.8,302,418,304.7z"/>
	<path class="st3" d="M349.7,522.9h-66c-4.5,0-8.7-1.8-12-4.9c-3.1-3.3-4.9-7.5-4.9-12v-66c0-3.9,1-6.7,2.7-8
		c18.4,38.5,49.6,69.8,88.2,88.1C356.4,521.9,353.6,522.9,349.7,522.9z"/>
	<path class="st4" d="M354.9,510.6c3.2,3.2,4.5,6.3,3.5,8.7c-0.1,0.4-0.3,0.7-0.6,1c-38.6-18.4-69.8-49.6-88.2-88.1
		c0.3-0.2,0.6-0.4,1-0.6c2.4-1,5.5,0.3,8.7,3.5l10.6,10.6l27.2,27.3l27.3,27.2L354.9,510.6z"/>
	<path class="st4" d="M355.3,472.9l-7.3,7.3l0,0l-11.8,11.7L317,472.7l11.8-11.8l0,0l0,0L317,472.7l-19.1-19.1l11.8-11.8l0,0
		l7.3-7.3C327.2,449.6,340.3,462.6,355.3,472.9z"/>
	<path class="st5" d="M355.3,472.9c-15-10.3-28.1-23.3-38.4-38.3l28.9-28.9c9.2,15.9,22.5,29.1,38.4,38.3L355.3,472.9z"/>
	<path class="st4" d="M414.1,414.1l-29.9,29.8c-15.9-9.2-29.1-22.5-38.4-38.3l29.9-29.8C382.4,393.4,396.4,407.5,414.1,414.1z"/>
	<path class="st6" d="M389.5,371.9l14.3,14.2l14.3,14.2c2.7,2.7,2.7,7.1,0,9.9l-3.9,3.9c-17.7-6.7-31.7-20.7-38.4-38.3l3.9-3.9
		C382.4,369.1,386.9,369.1,389.5,371.9z"/>
	<path class="st3" d="M607.9,440.1v66c0,4.5-1.8,8.7-4.9,12c-3.3,3.1-7.5,4.9-12,4.9h-66c-3.9,0-6.7-1-8-2.7
		c38.6-18.4,69.8-49.6,88.2-88.1C606.9,433.4,607.9,436.2,607.9,440.1z"/>
	<path class="st4" d="M595.7,435c3.2-3.2,6.3-4.5,8.7-3.5c0.4,0.1,0.7,0.3,1,0.6c-18.4,38.5-49.6,69.8-88.2,88.1
		c-0.2-0.3-0.4-0.6-0.6-1c-1-2.4,0.3-5.5,3.5-8.7l10.6-10.6l27.3-27.2l27.2-27.3L595.7,435z"/>
	<path class="st4" d="M557.9,434.6l7.3,7.3l0,0l11.8,11.8l-19.2,19.2L546,461.1l0,0l0,0l11.8,11.8l-19.2,19l-11.8-11.8l0,0l-7.3-7.3
		C534.5,462.6,547.7,449.6,557.9,434.6z"/>
	<path class="st5" d="M557.9,434.6c-10.3,15-23.3,28.1-38.4,38.3L490.6,444c15.9-9.2,29.1-22.5,38.4-38.3L557.9,434.6z"/>
	<path class="st4" d="M499.1,375.8l29.9,29.8c-9.2,15.9-22.5,29.1-38.4,38.3l-29.9-29.8C478.4,407.5,492.4,393.4,499.1,375.8z"/>
	<path class="st6" d="M456.8,400.3l14.3-14.2l14.3-14.2c2.7-2.7,7.1-2.7,9.9,0l3.9,3.9c-6.7,17.6-20.7,31.7-38.4,38.3l-3.9-3.9
		C454,407.5,454,403,456.8,400.3z"/>
</g>
</svg>
