<?xml version="1.0" encoding="utf-8"?>
<!-- Generator: Adobe Illustrator 24.1.1, SVG Export Plug-In . SVG Version: 6.00 Build 0)  -->
<svg version="1.1" id="Fails" xmlns="http://www.w3.org/2000/svg" xmlns:xlink="http://www.w3.org/1999/xlink" x="0px" y="0px"
	 viewBox="0 0 512 512" style="enable-background:new 0 0 512 512;" xml:space="preserve">
<style type="text/css">
	.st0{fill:#FF8C29;}
	.st1{fill:#E6EAEA;}
	.st2{fill:#CDD4D5;}
	.st3{fill:#FD6A33;}
	.st4{fill:#9BAAAB;}
</style>
<g>
	<path class="st0" d="M256,0C114.9,0,0,114.9,0,256s114.9,256,256,256s256-114.9,256-256S397.1,0,256,0z M256,471.7
		c-119.1,0-215.7-96.6-215.7-215.7S136.9,40.3,256,40.3S471.7,136.9,471.7,256S375.1,471.7,256,471.7z"/>
	<path class="st1" d="M255.4,39.6c-0.6,0-1.3,0-1.9,0V471c0.6,0,1.3,0,1.9,0c118.9,0,215.7-96.8,215.7-215.7S374.4,39.6,255.4,39.6z
		"/>
	<path class="st2" d="M39.7,255.3c0,118.3,95.7,214.7,213.8,215.7V39.6C135.5,40.6,39.7,137,39.7,255.3z"/>
</g>
<g id="hand">
	<g>
		<path class="st0" d="M206.4,293.5c-1.5-1.4-42.8-10.4-91.5-10.7c-8.7,0,0-137.3,0-137.2c53.4-0.3,87.5,2.9,87.5-2.3
			c0-9.6,22.5-18.6,51.1-25.7v224.8C235.7,319.3,216.1,301.6,206.4,293.5z"/>
		<path class="st3" d="M439.8,242.1c0,21.1-35.3,25.3-35.3,25.3s21.6,2.1,23.5,25.3c1.9,23.3-27.5,28.8-35.3,28.8
			c-6,0-18.6,0-25.9,0c-47.2-0.2-42.8,9.3-42.8,9.3s21.6,84.6,3.9,112.1c-17.7,27.4-33.4,9.1-35.3,4.8c-3.9-12.6-1.9-25.5-4.9-38.5
			c-5.6-24.5-19.3-47.6-34.2-66.9V117.5c40.6-10.1,93.4-16.3,111.8-15.1c31.4,2.1,39.3,9.1,43.2,25.3c3.9,16.3-15.7,29.6-15.7,29.6
			s31.4-6.3,37.3,21.2c5.8,27.5-29.5,31.8-29.5,31.8C434,210.4,439.8,221,439.8,242.1z"/>
		<g>
			<g>
				<path class="st0" d="M415,315.4c1.7-4.1,3.5-7.8,5-11.5s2.6-7.4,2.7-10.7c0.1-0.4,0-0.8,0-1.3v-0.6l-0.1-0.6
					c-0.1-0.4-0.1-0.9-0.2-1.3c-0.1-0.4-0.2-0.9-0.3-1.3c-0.5-1.8-1.1-3.6-1.8-5.4c-1.5-3.7-3.4-7.4-5.2-11.4
					c3.9,2.1,7.2,5.2,9.8,8.8c1.3,1.8,2.4,3.9,3.3,6.1c0.8,2.2,1.3,4.7,1.3,7.2c-0.2,5.1-2.3,9.5-4.8,13.1
					C422,310,418.9,313.1,415,315.4z"/>
			</g>
			<g>
				<path class="st0" d="M425.9,260.9c2.8-3.7,4.8-7.4,6.1-11.3c0.6-1.9,1.1-3.8,1.3-5.8c0.1-1,0.2-1.9,0.2-2.9s0-1.9,0-3
					c0-0.5,0-1.1,0-1.6s0-1-0.1-1.5c-0.1-1-0.1-2-0.3-3c-0.3-2-0.7-3.9-1.3-5.8c-1.3-3.9-3.2-7.6-6-11.4c2.3,0.7,4.3,2,6.2,3.5
					c1.8,1.6,3.4,3.5,4.7,5.6s2.2,4.4,2.8,6.9c0.3,1.2,0.5,2.4,0.7,3.7c0,0.6,0.1,1.3,0.1,1.8l0.1,1.7c0,0.6,0,1.1,0,1.8
					c0,0.6,0,1.2-0.1,1.9c-0.1,1.2-0.3,2.5-0.6,3.7c-0.6,2.4-1.6,4.8-2.9,6.9c-1.3,2.1-2.9,4-4.8,5.5
					C430.2,258.9,428.2,260.2,425.9,260.9z"/>
			</g>
			<g>
				<path class="st0" d="M419.9,203.3c1.5-4.2,3-8,4.2-11.9c1.2-3.8,2.1-7.6,2-10.9c-0.1-3.2-1.6-6.7-3.5-10.1
					c-1.9-3.5-4.3-6.9-6.7-10.5c4.2,1.5,7.8,4.1,11,7.4c1.5,1.7,2.9,3.6,4,5.7c0.5,1.1,1,2.2,1.3,3.4c0.3,1.2,0.5,2.5,0.6,3.8
					c0.1,2.6-0.3,5-1,7.2c-0.7,2.2-1.7,4.3-2.8,6.2C426.5,197.5,423.6,200.8,419.9,203.3z"/>
			</g>
			<g>
				<path class="st0" d="M402.5,148.2c0.9-3.9,1.7-7.2,2.2-10.6c0.2-1.7,0.4-3.3,0.5-4.9c0.1-0.8,0.1-1.6,0.1-2.4
					c0-0.7,0-1.4-0.2-2.1c-0.4-2.9-1.7-6-3.3-9.1s-3.5-6.2-5.4-9.5c1.8,0.7,3.5,1.7,5,2.9c1.6,1.1,3,2.4,4.3,3.9
					c2.6,2.9,4.9,6.4,5.8,10.8c0.2,1.1,0.3,2.2,0.3,3.3c-0.1,1-0.1,2.1-0.2,3.1c-0.3,2-0.8,4-1.6,5.9s-1.8,3.6-3.1,5.1
					C405.7,145.8,404.3,147.2,402.5,148.2z"/>
			</g>
		</g>
	</g>
	<g id="sleeve_5_">
		<path class="st1" d="M185.3,130.7H80L74.7,337h110.6c4,0,7.2-3.2,7.2-7.2V137.9C192.5,134,189.3,130.7,185.3,130.7z"/>
		<path class="st4" d="M145.9,130.7H53.2L32.8,239.1L23.1,337c0,0,81.9,0,122.9,0c4,0,7.2-3.2,7.2-7.2V137.9
			C153.1,134,149.9,130.7,145.9,130.7z"/>
		<g>
			<ellipse class="st3" cx="120.1" cy="255.4" rx="16.3" ry="16.3"/>
			<ellipse class="st3" cx="119" cy="303.9" rx="16.3" ry="16.3"/>
		</g>
	</g>
</g>
<path class="st3" d="M40.3,256c0-118.4,95.3-214.4,213.4-215.7V0C113.6,1.3,0,115.5,0,256s113.6,254.7,253.7,256v-40.3
	C135.7,470.4,40.3,374.4,40.3,256z"/>
</svg>
