<?xml version="1.0" encoding="utf-8"?>
<!-- Generator: Adobe Illustrator 24.1.1, SVG Export Plug-In . SVG Version: 6.00 Build 0)  -->
<svg version="1.1" id="Hit_Ratio" xmlns="http://www.w3.org/2000/svg" xmlns:xlink="http://www.w3.org/1999/xlink" x="0px" y="0px"
	 viewBox="0 0 512 512" style="enable-background:new 0 0 512 512;" xml:space="preserve">
<style type="text/css">
	.st0{fill:#E6EAEA;}
	.st1{fill:#CDD4D5;}
	.st2{fill:#BCD643;}
	.st3{fill:#4ACFD9;}
	.st4{fill:#0295AA;}
	.st5{fill:#9BAAAB;}
</style>
<circle class="st0" cx="256" cy="256" r="216"/>
<path class="st1" d="M40,256c0,118.3,95.1,214.4,213,216V40C135.1,41.6,40,137.7,40,256z"/>
<g id="cake">
	<path class="st2" d="M424.2,194.8c-0.3-0.8-0.6-1.6-0.9-2.3L87,314.9c0.3,0.8,0.5,1.6,0.8,2.3c33.8,92.9,136.5,140.8,229.4,107
		S458,287.7,424.2,194.8z"/>
	<path class="st2" d="M77,256c0,98,78.8,177.6,176.5,178.9V77.1C155.8,78.4,77,158,77,256z"/>
</g>
<g id="hand">
	<path class="st3" d="M178.6,217.4c-1.1,1-31.6,7.7-67.6,7.9c-6.4,0,0,101.5,0,101.4c39.5,0.2,64.7-2.1,64.7,1.7
		c0,7.1,16.6,13.8,37.8,19V181.2C200.2,198.4,185.7,211.4,178.6,217.4z"/>
	<path class="st4" d="M351.2,255.4c0-15.6-26.1-18.7-26.1-18.7s16-1.6,17.4-18.7c1.4-17.2-20.3-21.3-26.1-21.3c-4.4,0-13.8,0-19.1,0
		c-34.9,0.1-31.6-6.9-31.6-6.9s16-62.5,2.9-82.9c-13.1-20.3-24.7-6.7-26.1-3.5c-2.9,9.3-1.4,18.9-3.6,28.5
		c-4.1,18.1-14.3,35.2-25.3,49.5v166.2c30,7.5,69.1,12.1,82.7,11.2c23.2-1.6,29.1-6.7,31.9-18.7c2.9-12.1-11.6-21.9-11.6-21.9
		s23.2,4.7,27.6-15.7c4.3-20.3-21.8-23.5-21.8-23.5C346.9,278.9,351.2,271,351.2,255.4z"/>
	<g>
		<g>
			<path class="st3" d="M332.8,201.3c2.8,1.6,5.2,4,7.1,6.7c1.8,2.7,3.4,5.9,3.5,9.7c0,1.8-0.4,3.7-1,5.3c-0.7,1.6-1.5,3.1-2.4,4.5
				c-2,2.7-4.4,5-7.2,6.5c1.4-3,2.7-5.7,3.8-8.4c0.5-1.3,1-2.7,1.3-4c0.1-0.3,0.1-0.7,0.2-1c0.1-0.3,0.1-0.7,0.1-1l0.1-0.4v-0.4
				c0-0.3,0.1-0.6,0-1c-0.1-2.4-0.9-5.2-2-7.9C335.4,207,334.1,204.2,332.8,201.3z"/>
		</g>
		<g>
			<path class="st3" d="M340.9,241.6c1.7,0.5,3.2,1.4,4.6,2.6c1.4,1.1,2.5,2.5,3.5,4.1c1,1.6,1.7,3.3,2.1,5.1
				c0.2,0.9,0.4,1.8,0.4,2.7c0.1,0.4,0.1,0.9,0.1,1.4c0,0.4,0,0.9,0,1.3l-0.1,1.3c0,0.4-0.1,0.9-0.1,1.3c-0.1,0.9-0.2,1.8-0.5,2.7
				c-0.4,1.8-1.1,3.5-2.1,5.1c-1,1.6-2.1,3-3.5,4.1c-1.3,1.1-2.9,2.1-4.6,2.6c2.1-2.7,3.5-5.5,4.4-8.4c0.4-1.4,0.8-2.9,1-4.3
				c0.1-0.7,0.1-1.5,0.2-2.2c0-0.4,0.1-0.7,0.1-1.1s0-0.8,0-1.2c0.1-0.8,0.1-1.5,0-2.2c0-0.7-0.1-1.5-0.1-2.1
				c-0.2-1.4-0.5-2.9-1-4.3C344.4,247,343,244.3,340.9,241.6z"/>
		</g>
		<g>
			<path class="st3" d="M336.4,284.1c2.7,1.8,4.9,4.4,6.7,7.2c0.9,1.4,1.6,3,2.1,4.6c0.5,1.6,0.8,3.5,0.7,5.3
				c-0.1,1-0.2,1.9-0.4,2.8c-0.3,0.9-0.6,1.8-1,2.5c-0.8,1.6-1.8,3-3,4.2c-2.3,2.4-5,4.4-8.1,5.5c1.8-2.7,3.5-5.2,5-7.8
				s2.5-5.1,2.6-7.5c0.1-2.4-0.6-5.2-1.5-8.1C338.6,290,337.5,287.2,336.4,284.1z"/>
		</g>
		<g>
			<path class="st3" d="M323.6,324.8c1.3,0.7,2.4,1.8,3.3,2.9c1,1.1,1.7,2.4,2.3,3.8c0.6,1.4,1,2.8,1.2,4.4c0.1,0.7,0.1,1.5,0.1,2.3
				s-0.1,1.7-0.2,2.4c-0.7,3.2-2.4,5.8-4.3,8c-1,1.1-2.1,2-3.2,2.9c-1.2,0.8-2.4,1.6-3.7,2.1c1.4-2.4,2.8-4.7,4-7
				c1.2-2.3,2.1-4.6,2.4-6.7c0.1-0.5,0.1-1,0.1-1.6c0-0.6,0-1.2-0.1-1.8c-0.1-1.2-0.2-2.4-0.4-3.6
				C324.9,330.2,324.3,327.7,323.6,324.8z"/>
		</g>
	</g>
</g>
<g id="sleeve_2_">
	<path class="st0" d="M163,362.1h-32.8V209.6h32.7c3,0,5.3,2.4,5.3,5.3v141.9C168.3,359.8,166,362.1,163,362.1z"/>
	<path class="st5" d="M134,209.6c-11.9,0-31.4,0-50.8,0C79.2,224.4,77,240,77,256c0,39.7,13,76.4,34.9,106.1h22
		c2.9,0,5.3-2.4,5.4-5.3V214.9C139.3,212,136.9,209.6,134,209.6z"/>
	<g>
		
			<ellipse transform="matrix(0.1602 -0.9871 0.9871 0.1602 -170.0326 340.0338)" class="st4" cx="114.8" cy="269.9" rx="12.1" ry="12.1"/>
		<ellipse class="st4" cx="114" cy="234.1" rx="12.1" ry="12.1"/>
	</g>
</g>
<g id="ring_2_">
	<path id="right_1_" class="st3" d="M256,0c-1,0-2,0-3,0v40c1,0,2,0,3,0c119.3,0,216,96.7,216,216s-96.7,216-216,216c-1,0-2,0-3,0
		v40c1,0,2,0,3,0c141.4,0,256-114.6,256-256S397.4,0,256,0z"/>
	<path id="left_1_" class="st4" d="M40,256c0-118.3,95.1-214.4,213-216V0C113,1.6,0,115.6,0,256s113,254.4,253,256v-40
		C135.1,470.4,40,374.3,40,256z"/>
</g>
</svg>
