<?xml version="1.0" encoding="utf-8"?>
<!-- Generator: Adobe Illustrator 24.1.1, SVG Export Plug-In . SVG Version: 6.00 Build 0)  -->
<svg version="1.1" id="Hit_Fail" xmlns="http://www.w3.org/2000/svg" xmlns:xlink="http://www.w3.org/1999/xlink" x="0px" y="0px"
	 viewBox="0 0 512 512" style="enable-background:new 0 0 512 512;" xml:space="preserve">
<style type="text/css">
	.st0{fill:#CDD4D5;}
	.st1{fill:#4ACFD9;}
	.st2{fill:#FFFFFF;}
	.st3{fill:#FF8C29;}
	.st4{fill:#FD6A33;}
	.st5{fill:#E6EAEA;}
	.st6{fill:#9BAAAB;}
	.st7{fill:#0295AA;}
	.st8{fill:#365558;}
</style>
<g>
	<path class="st0" d="M252,85.5H21.1c-4.4,0-8,3.6-8,8v376.3c0,4.4,3.6,8,8,8H252c4.4,0,8-3.6,8-8V93.5
		C260,89.1,256.4,85.5,252,85.5z"/>
	<path class="st1" d="M252,85.5H21.1c-4.4,0-8,3.6-8,8v67.9H260V93.5C260,89.1,256.4,85.5,252,85.5z"/>
	<path class="st2" d="M46.8,135.7c-4.4,0-8-3.6-8-8v-8.6c0-4.4,3.6-8,8-8s8,3.6,8,8v8.6C54.8,132.2,51.2,135.7,46.8,135.7z"/>
</g>
<g>
	<path class="st0" d="M260,33.7h230.9c4.4,0,8,3.6,8,8v376.3c0,4.4-3.6,8-8,8H260c-4.4,0-8-3.6-8-8V41.7
		C252,37.3,255.6,33.7,260,33.7z"/>
	<path class="st1" d="M260,33.7h230.9c4.4,0,8,3.6,8,8v67.9H252V41.7C252,37.3,255.6,33.7,260,33.7z"/>
	<path class="st2" d="M473.4,83.9c-4.4,0-8-3.6-8-8v-8.6c0-4.4,3.6-8,8-8c4.4,0,8,3.6,8,8v8.6C481.4,80.3,477.8,83.9,473.4,83.9z"/>
</g>
<g id="fail">
	<g>
		<path class="st3" d="M327.6,266.6c-0.8-0.7-22.7-5.5-48.6-5.7c-4.6,0,0-72.9,0-72.8c28.4-0.2,46.5,1.5,46.5-1.2
			c0-5.1,11.9-9.9,27.1-13.6v119.4C343.2,280.3,332.8,270.9,327.6,266.6z"/>
		<path class="st4" d="M451.6,239.3c0,11.2-18.7,13.4-18.7,13.4s11.5,1.1,12.5,13.4c1,12.4-14.6,15.3-18.7,15.3c-3.2,0-9.9,0-13.8,0
			c-25.1-0.1-22.7,4.9-22.7,4.9s11.5,44.9,2.1,59.5c-9.4,14.5-17.7,4.8-18.7,2.5c-2.1-6.7-1-13.5-2.6-20.4
			c-3-13-10.2-25.3-18.2-35.5V173.1c21.6-5.4,49.6-8.7,59.4-8c16.7,1.1,20.9,4.8,22.9,13.4c2.1,8.7-8.3,15.7-8.3,15.7
			s16.7-3.3,19.8,11.3c3.1,14.6-15.7,16.9-15.7,16.9C448.5,222.5,451.6,228.1,451.6,239.3z"/>
		<g>
			<g>
				<path class="st3" d="M438.4,278.2c0.9-2.2,1.9-4.1,2.7-6.1c0.8-2,1.4-3.9,1.4-5.7c0.1-0.2,0-0.4,0-0.7v-0.3l-0.1-0.3
					c-0.1-0.2-0.1-0.5-0.1-0.7c-0.1-0.2-0.1-0.5-0.2-0.7c-0.3-1-0.6-1.9-1-2.9c-0.8-2-1.8-3.9-2.8-6.1c2.1,1.1,3.8,2.8,5.2,4.7
					c0.7,1,1.3,2.1,1.8,3.2c0.4,1.2,0.7,2.5,0.7,3.8c-0.1,2.7-1.2,5-2.5,7C442.1,275.3,440.5,277,438.4,278.2z"/>
			</g>
			<g>
				<path class="st3" d="M444.2,249.3c1.5-2,2.5-3.9,3.2-6c0.3-1,0.6-2,0.7-3.1c0.1-0.5,0.1-1,0.1-1.5c0-0.5,0-1,0-1.6
					c0-0.3,0-0.6,0-0.8c0-0.3,0-0.5-0.1-0.8c-0.1-0.5-0.1-1.1-0.2-1.6c-0.2-1.1-0.4-2.1-0.7-3.1c-0.7-2.1-1.7-4-3.2-6.1
					c1.2,0.4,2.3,1.1,3.3,1.9c1,0.8,1.8,1.9,2.5,3c0.7,1.1,1.2,2.3,1.5,3.7c0.2,0.6,0.3,1.3,0.4,2c0,0.3,0.1,0.7,0.1,1l0.1,0.9
					c0,0.3,0,0.6,0,1c0,0.3,0,0.6-0.1,1c-0.1,0.6-0.2,1.3-0.3,2c-0.3,1.3-0.8,2.5-1.5,3.7c-0.7,1.1-1.5,2.1-2.5,2.9
					C446.5,248.2,445.4,248.9,444.2,249.3z"/>
			</g>
			<g>
				<path class="st3" d="M441,218.7c0.8-2.2,1.6-4.2,2.2-6.3c0.6-2,1.1-4,1.1-5.8c-0.1-1.7-0.8-3.6-1.9-5.4c-1-1.9-2.3-3.7-3.6-5.6
					c2.2,0.8,4.1,2.2,5.8,3.9c0.8,0.9,1.5,1.9,2.1,3c0.3,0.6,0.5,1.2,0.7,1.8c0.2,0.6,0.3,1.3,0.3,2c0.1,1.4-0.2,2.7-0.5,3.8
					s-0.9,2.3-1.5,3.3C444.5,215.6,443,217.4,441,218.7z"/>
			</g>
			<g>
				<path class="st3" d="M431.8,189.4c0.5-2.1,0.9-3.8,1.2-5.6c0.1-0.9,0.2-1.8,0.3-2.6c0.1-0.4,0.1-0.8,0.1-1.3
					c0-0.4,0-0.7-0.1-1.1c-0.2-1.5-0.9-3.2-1.8-4.8c-0.8-1.6-1.9-3.3-2.9-5c1,0.4,1.9,0.9,2.7,1.5c0.8,0.6,1.6,1.3,2.3,2.1
					c1.4,1.5,2.6,3.4,3.1,5.7c0.1,0.6,0.2,1.2,0.2,1.8c-0.1,0.5-0.1,1.1-0.1,1.6c-0.2,1.1-0.4,2.1-0.8,3.1c-0.4,1-1,1.9-1.6,2.7
					C433.5,188.2,432.7,188.9,431.8,189.4z"/>
			</g>
		</g>
	</g>
	<g id="sleeve_7_">
		<path class="st5" d="M316.4,180.1h-55.9l-2.8,109.5h58.7c2.1,0,3.8-1.7,3.8-3.8V184C320.3,181.9,318.6,180.1,316.4,180.1z"/>
		<path class="st6" d="M295.5,180.1H253v109.5c0,0,20.8,0,42.6,0c2.1,0,3.8-1.7,3.8-3.8V184C299.3,181.9,297.6,180.1,295.5,180.1z"
			/>
		<g>
			<ellipse class="st4" cx="281.8" cy="246.4" rx="8.7" ry="8.7"/>
			<ellipse class="st4" cx="281.2" cy="272.1" rx="8.7" ry="8.7"/>
		</g>
	</g>
</g>
<g id="hit">
	<g>
		<path class="st1" d="M176.3,294c0.8,0.7,22.7,5.5,48.6,5.7c4.6,0,0,72.9,0,72.8c-28.4,0.2-46.5-1.5-46.5,1.2
			c0,5.1-11.9,9.9-27.1,13.6V268C160.8,280.3,171.2,289.7,176.3,294z"/>
		<path class="st7" d="M52.3,321.3c0-11.2,18.7-13.4,18.7-13.4s-11.5-1.1-12.5-13.4c-1-12.3,14.6-15.3,18.7-15.3c3.2,0,9.9,0,13.8,0
			c25.1,0.1,22.7-4.9,22.7-4.9s-11.5-44.9-2.1-59.5c9.4-14.5,17.7-4.8,18.7-2.5c2.1,6.7,1,13.5,2.6,20.4c3,13,10.2,25.3,18.2,35.5
			v119.4c-21.6,5.4-49.6,8.7-59.4,8C75.2,394.3,71,390.6,69,382c-2.1-8.7,8.3-15.7,8.3-15.7s-16.7,3.3-19.8-11.3
			c-3.1-14.6,15.7-16.9,15.7-16.9C55.4,338.2,52.3,332.5,52.3,321.3z"/>
	</g>
	<g id="sleeve_6_">
		<path class="st5" d="M187.5,398h55.9l2.8-109.5h-58.7c-2.1,0-3.8,1.7-3.8,3.8v101.9C183.6,396.3,185.3,398,187.5,398z"/>
		<path class="st6" d="M208.4,398H251V288.4c0,0-20.9,0-42.7,0c-2.1,0-3.8,1.7-3.8,3.8v101.9C204.6,396.3,206.3,398,208.4,398z"/>
		<g>
			
				<ellipse transform="matrix(0.9871 -0.1602 0.1602 0.9871 -50.2722 39.8569)" class="st7" cx="222.1" cy="331.7" rx="8.7" ry="8.7"/>
			<ellipse class="st7" cx="222.7" cy="306" rx="8.7" ry="8.7"/>
		</g>
	</g>
	<g>
		<g>
			<path class="st1" d="M65.5,282.4c-2,1.2-3.7,2.9-5.1,4.8c-1.3,2-2.4,4.2-2.5,7c0,1.3,0.3,2.7,0.7,3.8c0.5,1.2,1.1,2.2,1.8,3.2
				c1.4,1.9,3.1,3.6,5.2,4.7c-1-2.1-2-4.1-2.8-6.1c-0.4-1-0.7-2-1-2.9c-0.1-0.2-0.1-0.5-0.2-0.7c-0.1-0.2-0.1-0.5-0.1-0.7l-0.1-0.3
				V295c0-0.2-0.1-0.4,0-0.7c0.1-1.8,0.6-3.7,1.4-5.7C63.6,286.6,64.6,284.5,65.5,282.4z"/>
		</g>
		<g>
			<path class="st1" d="M59.7,311.4c-1.2,0.4-2.3,1-3.3,1.9c-1,0.8-1.8,1.8-2.5,2.9c-0.7,1.1-1.2,2.3-1.5,3.7
				c-0.2,0.6-0.3,1.3-0.3,2c-0.1,0.3-0.1,0.6-0.1,1c0,0.3,0,0.6,0,1l0.1,0.9c0,0.3,0.1,0.6,0.1,1c0.1,0.6,0.2,1.3,0.4,2
				c0.3,1.3,0.8,2.5,1.5,3.7c0.7,1.1,1.5,2.1,2.5,3c1,0.8,2.1,1.5,3.3,1.9c-1.5-2-2.5-4-3.2-6.1c-0.3-1-0.6-2.1-0.7-3.1
				c-0.1-0.5-0.1-1.1-0.2-1.6c0-0.3-0.1-0.5-0.1-0.8s0-0.6,0-0.8c-0.1-0.6-0.1-1.1,0-1.6c0-0.5,0.1-1.1,0.1-1.5
				c0.2-1,0.4-2.1,0.7-3.1C57.2,315.3,58.2,313.3,59.7,311.4z"/>
		</g>
		<g>
			<path class="st1" d="M63,341.9c-2,1.3-3.5,3.1-4.8,5.2c-0.6,1-1.1,2.1-1.5,3.3c-0.4,1.2-0.6,2.5-0.5,3.8c0.1,0.7,0.2,1.4,0.3,2
				c0.2,0.6,0.4,1.3,0.7,1.8c0.6,1.1,1.3,2.1,2.1,3c1.6,1.8,3.6,3.1,5.8,3.9c-1.3-2-2.5-3.8-3.6-5.6c-1-1.8-1.8-3.7-1.9-5.4
				c-0.1-1.8,0.4-3.8,1.1-5.8C61.4,346.1,62.2,344.1,63,341.9z"/>
		</g>
		<g>
			<path class="st1" d="M72.1,371.1c-1,0.5-1.7,1.3-2.4,2.1c-0.7,0.8-1.2,1.8-1.6,2.7c-0.4,1-0.7,2-0.8,3.1
				c-0.1,0.5-0.1,1.1-0.1,1.6c0,0.6,0.1,1.2,0.2,1.8c0.5,2.3,1.7,4.2,3.1,5.7c0.7,0.8,1.5,1.4,2.3,2.1c0.8,0.6,1.7,1.1,2.7,1.5
				c-1-1.8-2-3.4-2.9-5c-0.8-1.6-1.5-3.3-1.8-4.8c-0.1-0.4-0.1-0.7-0.1-1.1c0-0.4,0-0.8,0.1-1.3c0.1-0.8,0.2-1.8,0.3-2.6
				C71.2,375,71.7,373.2,72.1,371.1z"/>
		</g>
	</g>
</g>
<path class="st8" d="M252,512c-4.4,0-8-3.6-8-8V8c0-4.4,3.6-8,8-8c4.4,0,8,3.6,8,8v496C260,508.4,256.4,512,252,512z"/>
</svg>
