<?xml version="1.0" encoding="utf-8"?>
<!-- Generator: Adobe Illustrator 24.1.1, SVG Export Plug-In . SVG Version: 6.00 Build 0)  -->
<svg version="1.1" id="Hits" xmlns="http://www.w3.org/2000/svg" xmlns:xlink="http://www.w3.org/1999/xlink" x="0px" y="0px"
	 viewBox="0 0 512 512" style="enable-background:new 0 0 512 512;" xml:space="preserve">
<style type="text/css">
	.st0{fill:#4ACFD9;}
	.st1{fill:#E6EAEA;}
	.st2{fill:#CDD4D5;}
	.st3{display:none;fill-rule:evenodd;clip-rule:evenodd;fill:#0295AA;}
	.st4{display:none;}
	.st5{display:inline;fill:#0295AA;}
	.st6{fill:#0295AA;}
	.st7{fill:#9BAAAB;}
</style>
<g>
	<path class="st0" d="M256,0C114.9,0,0,114.9,0,256s114.9,256,256,256s256-114.9,256-256S397.1,0,256,0z M256,471.7
		c-119.1,0-215.7-96.6-215.7-215.7S136.9,40.3,256,40.3S471.7,136.9,471.7,256S375.1,471.7,256,471.7z"/>
	<path class="st1" d="M255.4,39.5c-0.6,0-1.3,0-1.9,0v431.4c0.6,0,1.3,0,1.9,0c118.9,0,215.7-96.8,215.7-215.7
		S374.3,39.5,255.4,39.5z"/>
	<path class="st2" d="M39.7,255.3c0,118.3,95.7,214.7,213.8,215.7V39.6C135.4,40.6,39.7,137,39.7,255.3z"/>
</g>
<g id="hand">
	<g id="bak_7_">
		<path id="thumbs_9_" class="st3" d="M107.8,229.4c52.3-0.2,96.7-10,98.3-11.5c19-16,74-66.5,87.3-124.4c3.2-14,1.1-27.8,5.3-41.4
			c2.1-4.6,19-24.3,37.9,5.2c19,29.6-4.2,120.4-4.2,120.4s-4.8,10.2,45.9,10c7.9,0,21.4,0,27.8,0c8.4,0,40,5.9,37.9,30.9
			s-25.2,27.2-25.2,27.2s37.9,4.6,37.9,27.2s-6.3,34.1-42.1,34.1c0,0,37.9,4.6,31.7,34.1c-6.3,29.6-40,22.8-40,22.8
			s21.1,14.3,16.9,31.8c-4.2,17.5-12.7,25-46.4,27.2s-175-18.8-175-43.8c0-5.5-36.6-2.1-94-2.5C107.8,377,98.4,229.4,107.8,229.4z"
			/>
		<g class="st4">
			<path class="st5" d="M256,32.2c30.3,0,59.6,5.9,87.2,17.6c26.7,11.3,50.6,27.4,71.2,48c20.6,20.6,36.7,44.5,48,71.2
				c11.7,27.6,17.6,56.9,17.6,87.2s-5.9,59.6-17.6,87.2c-11.3,26.7-27.4,50.6-48,71.2s-44.5,36.7-71.2,48
				c-27.6,11.7-56.9,17.6-87.2,17.6s-59.6-5.9-87.2-17.6c-26.7-11.3-50.6-27.4-71.2-48s-36.7-44.5-48-71.2
				C37.9,315.8,32,286.5,32,256.2s5.9-59.6,17.6-87.2c11.3-26.7,27.4-50.6,48-71.2s44.5-36.7,71.2-48
				C196.4,38.1,225.7,32.2,256,32.2 M256,0.2C114.6,0.2,0,114.8,0,256.2s114.6,256,256,256s256-114.6,256-256S397.4,0.2,256,0.2
				L256,0.2z"/>
		</g>
	</g>
	<g>
		<path class="st0" d="M206.4,218.9c-1.5,1.4-42.8,10.4-91.5,10.7c-8.7,0,0,137.3,0,137.2c53.4,0.3,87.5-2.9,87.5,2.3
			c0,9.6,22.5,18.6,51.1,25.7V170C235.6,193.2,216,210.8,206.4,218.9z"/>
		<path class="st6" d="M439.8,270.3c0-21.1-35.3-25.3-35.3-25.3s21.6-2.1,23.5-25.3s-27.5-28.8-35.3-28.8c-6,0-18.6,0-25.9,0
			c-47.2,0.2-42.8-9.3-42.8-9.3s21.6-84.6,3.9-112.1c-17.7-27.4-33.4-9.1-35.3-4.8c-3.9,12.6-1.9,25.5-4.9,38.5
			c-5.6,24.5-19.3,47.6-34.2,66.9v224.8c40.6,10.1,93.4,16.3,111.8,15.1c31.4-2.1,39.3-9.1,43.2-25.3c3.9-16.3-15.7-29.6-15.7-29.6
			s31.4,6.3,37.3-21.2c5.8-27.5-29.5-31.8-29.5-31.8C434,302.1,439.8,291.4,439.8,270.3z"/>
	</g>
	<g id="sleeve_17_">
		<path class="st1" d="M185.3,414.7H80l-5.3-206.3h110.5c4,0,7.2,3.2,7.2,7.2v191.9C192.5,411.5,189.3,414.7,185.3,414.7z"/>
		<path class="st7" d="M145.9,414.7H80.1C62,379.6,50.7,342.4,40.8,306.3c-9-32.7-14.6-61.4-17.7-97.9c41,0,81.9,0,122.9,0
			c4,0,7.2,3.2,7.2,7.2v191.9C153.1,411.5,149.8,414.7,145.9,414.7z"/>
		<g>
			
				<ellipse transform="matrix(0.1602 -0.9871 0.9871 0.1602 -185.3933 362.0963)" class="st6" cx="120.1" cy="290" rx="16.3" ry="16.3"/>
			<ellipse class="st6" cx="119" cy="241.5" rx="16.3" ry="16.3"/>
		</g>
	</g>
	<g>
		<g>
			<path class="st0" d="M415,197.1c3.8,2.2,7,5.4,9.6,9c2.5,3.7,4.6,8,4.8,13.1c0,2.5-0.5,5-1.3,7.2c-0.9,2.2-2,4.2-3.3,6.1
				c-2.7,3.6-5.9,6.7-9.8,8.8c1.9-4,3.7-7.7,5.2-11.4c0.7-1.8,1.4-3.7,1.8-5.4c0.1-0.4,0.2-0.9,0.3-1.3s0.1-0.9,0.2-1.3l0.1-0.6
				v-0.6c0-0.4,0.1-0.8,0-1.3c-0.1-3.3-1.2-7-2.7-10.7C418.5,204.9,416.7,201.1,415,197.1z"/>
		</g>
		<g>
			<path class="st0" d="M425.9,251.6c2.3,0.7,4.3,1.9,6.2,3.5c1.9,1.5,3.4,3.4,4.8,5.5c1.3,2.1,2.3,4.4,2.9,6.9
				c0.3,1.2,0.5,2.5,0.6,3.7c0.1,0.6,0.1,1.2,0.1,1.9c0,0.6,0,1.2,0,1.8l-0.1,1.7c0,0.6-0.1,1.2-0.1,1.8c-0.2,1.2-0.3,2.5-0.7,3.7
				c-0.6,2.4-1.5,4.7-2.8,6.9c-1.3,2.1-2.9,4-4.7,5.6c-1.8,1.5-3.9,2.9-6.2,3.5c2.8-3.7,4.7-7.5,6-11.4c0.6-1.9,1.1-3.9,1.3-5.8
				c0.1-1,0.2-2,0.3-3c0-0.5,0.1-1,0.1-1.5s0-1.1,0-1.6c0.1-1.1,0.1-2,0-3c0-1-0.1-2-0.2-2.9c-0.3-1.9-0.7-3.9-1.3-5.8
				C430.7,259,428.7,255.3,425.9,251.6z"/>
		</g>
		<g>
			<path class="st0" d="M419.8,309.1c3.7,2.5,6.6,5.9,9,9.7c1.2,1.9,2.1,4,2.8,6.2s1.1,4.7,1,7.2c-0.1,1.3-0.3,2.6-0.6,3.8
				c-0.4,1.2-0.8,2.4-1.3,3.4c-1.1,2.1-2.5,4-4,5.7c-3.1,3.3-6.8,5.9-11,7.4c2.4-3.7,4.8-7.1,6.7-10.5s3.4-6.9,3.5-10.1
				c0.2-3.3-0.8-7.1-2-10.9C422.8,317.1,421.3,313.3,419.8,309.1z"/>
		</g>
		<g>
			<path class="st0" d="M402.5,364.2c1.8,0.9,3.2,2.4,4.5,3.9s2.3,3.3,3.1,5.1c0.8,1.9,1.3,3.8,1.6,5.9c0.2,1,0.2,2,0.2,3.1
				s-0.1,2.3-0.3,3.3c-0.9,4.3-3.2,7.9-5.8,10.8c-1.3,1.5-2.8,2.7-4.3,3.9c-1.6,1.1-3.2,2.1-5,2.9c1.9-3.3,3.8-6.4,5.4-9.5
				c1.6-3.1,2.8-6.2,3.3-9.1c0.1-0.7,0.2-1.4,0.2-2.1c0-0.8,0-1.6-0.1-2.4c-0.1-1.6-0.3-3.3-0.5-4.9
				C404.2,371.5,403.4,368.1,402.5,364.2z"/>
		</g>
	</g>
</g>
<path class="st6" d="M40.3,256c0-118.4,95.3-214.4,213.4-215.7V0C113.6,1.3,0,115.5,0,256s113.6,254.7,253.7,256v-40.3
	C135.6,470.4,40.3,374.3,40.3,256z"/>
</svg>
