<svg width="512" height="512" viewBox="0 0 512 512" fill="none" xmlns="http://www.w3.org/2000/svg">
<rect x="81.9062" y="120.075" width="20.0432" height="261.798" fill="#9BAAAB"/>
<rect x="50" y="150.843" width="83.1276" height="199.722" fill="#D3F035"/>
<rect x="50" y="150.843" width="41.5638" height="199.722" fill="#F0353D"/>
<rect x="245.251" y="244.788" width="20.0432" height="261.798" fill="#9BAAAB"/>
<rect x="214.073" y="275.556" width="83.1276" height="199.722" fill="#D3F035"/>
<rect x="214.073" y="275.556" width="41.5638" height="199.722" fill="#F0353D"/>
<rect x="410.051" y="190.226" width="20.0432" height="261.798" fill="#9BAAAB"/>
<rect x="378.873" y="220.994" width="83.1276" height="199.722" fill="#D3F035"/>
<rect x="378.873" y="220.994" width="41.5638" height="199.722" fill="#F0353D"/>
<path d="M256 221L309.694 128H202.306L256 221Z" fill="#9BAAAB"/>
<path d="M274.435 100.175C271.343 104.058 267.478 106 262.841 106C258.203 106 254.544 104.759 251.865 102.278C249.288 99.7972 248 96.5609 248 92.5696C248 91.1672 248.824 85.288 250.473 74.932L255.575 45.9676H249.082L249.391 43.055H256.039C263.665 43.055 269.282 42.7314 272.889 42.0841L275.053 41.5987L264.386 102.764C267.478 102.44 270.055 100.93 272.116 98.233L274.435 100.175ZM260.831 26.0647C258.667 23.7994 257.585 21.0485 257.585 17.8123C257.585 14.576 258.667 11.8252 260.831 9.55987C262.995 7.18662 265.623 6 268.715 6C271.807 6 274.435 7.18662 276.599 9.55987C278.866 11.8252 280 14.576 280 17.8123C280 21.0485 278.866 23.7994 276.599 26.0647C274.435 28.3301 271.807 29.4628 268.715 29.4628C265.623 29.4628 262.995 28.3301 260.831 26.0647Z" fill="#9BAAAB"/>
</svg>
