<?xml version="1.0" encoding="utf-8"?>
<!-- Generator: Adobe Illustrator 19.0.0, SVG Export Plug-In . SVG Version: 6.00 Build 0)  -->
<svg version="1.1" id="Layer_1" xmlns="http://www.w3.org/2000/svg" xmlns:xlink="http://www.w3.org/1999/xlink" x="0px" y="0px"
	 viewBox="96 11 512 512" style="enable-background:new 96 11 512 512;" xml:space="preserve">
<style type="text/css">
	.st0{display:none;}
	.st1{fill:#F0353D;}
	.st2{fill:#FD6A33;}
	.st3{fill:#FF8C29;}
	.st4{fill:#FFD1A9;}
	.st5{fill:#365558;}
	.st6{fill:#0295AA;}
	.st7{fill:#4ACFD9;}
	.st8{fill:none;stroke:#000000;stroke-miterlimit:10;}
	.st9{fill:#9BAAAB;}
	.st10{fill:#CDD4D5;}
	.st11{fill:#E6EAEA;}
	.st12{fill:#FFFFFF;}
	.st13{fill:#BCD643;}
</style>
<polygon class="st0" points="1068.7,-596 810,-596 810,-84 1322,-84 1322,-247.9 1068.7,-247.9 "/>
<rect x="1068.7" y="-596" class="st0" width="253.3" height="348.1"/>
<g class="st0">
	
		<text transform="matrix(1 0 0 1 846.4224 -465.0488)" style="display:inline;fill:#CDD4D5; font-family:'Saira-Black'; font-size:64.1866px;">E = mc</text>
	
		<text transform="matrix(1 0 0 1 1039.1074 -486.4227)" style="display:inline;fill:#CDD4D5; font-family:'Saira-Black'; font-size:37.4208px;">2</text>
</g>
<g>
	<rect x="-570" y="-262.9" class="st1" width="128" height="128"/>
	<rect x="-442" y="-262.9" class="st2" width="128" height="128"/>
	<rect x="-314" y="-262.9" class="st3" width="128" height="128"/>
	<rect x="-186" y="-262.9" class="st4" width="128" height="128"/>
	<rect x="-570" y="-134.9" class="st5" width="128" height="128"/>
	<rect x="-442" y="-134.9" class="st6" width="128" height="128"/>
	<rect x="-314" y="-134.9" class="st7" width="128" height="128"/>
	<rect x="-186" y="-134.9" class="st8" width="128" height="128"/>
	<rect x="-570" y="-6.9" class="st9" width="128" height="128"/>
	<rect x="-442" y="-6.9" class="st10" width="128" height="128"/>
	<rect x="-314" y="-6.9" class="st11" width="128" height="128"/>
	<rect x="-186" y="-6.9" class="st12" width="128" height="128"/>
	<rect x="-570" y="121.1" class="st13" width="128" height="128"/>
	<rect x="-442" y="121.1" class="st8" width="128" height="128"/>
	<rect x="-314" y="121.1" class="st8" width="128" height="128"/>
	<rect x="-186" y="121.1" class="st8" width="128" height="128"/>
</g>
<g>
	<path class="st1" d="M260,429.2c4.9,0,9.7-2.4,12.8-6.2l56.4-77.1L281,311.5l-38,52.3c-3.1,3.8-7.9,6.2-12.8,6.2H96v59.3H260z"/>
	<polygon class="st1" points="340.8,405.2 340.7,276.9 219.3,318.3 	"/>
</g>
<g>
	<path class="st13" d="M444,429.2c-4.9,0-9.7-2.4-12.8-6.2l-56.4-77.1l48.2-34.4l38,52.3c3.1,3.8,7.9,6.2,12.8,6.2H608v59.3H444z"/>
	<polygon class="st13" points="484.7,318.3 363.3,276.9 363.2,405.2 	"/>
</g>
<g>
	<path class="st13" d="M260,105.9c4.9,0,9.7,2.4,12.8,6.2l56.4,77.1L281,223.6l-38-52.3c-3.1-3.8-7.9-6.2-12.8-6.2H96v-59.3H260z"/>
	<polygon class="st13" points="219.3,216.8 340.7,258.2 340.8,129.9 	"/>
</g>
<g>
	<path class="st1" d="M444,105.9c-4.9,0-9.7,2.4-12.8,6.2l-56.4,77.1l48.2,34.4l38-52.3c3.1-3.8,7.9-6.2,12.8-6.2H608v-59.3H444z"/>
	<polygon class="st1" points="363.2,129.9 363.3,258.2 484.7,216.8 	"/>
</g>
</svg>
