<svg width="512" height="512" viewBox="0 0 512 512" fill="none" xmlns="http://www.w3.org/2000/svg">
<path fill-rule="evenodd" clip-rule="evenodd" d="M73 0C68.5817 0 65 3.58172 65 8V504C65 508.418 68.5817 512 73 512H339.286V405.099L447.593 399.473V8C447.593 3.58172 444.012 0 439.593 0H73Z" fill="#FED1A8"/>
<path d="M65 8C65 3.58172 68.5817 0 73 0H256.297V512H73C68.5817 512 65 508.418 65 504V8Z" fill="#FF8C29"/>
<path d="M336.297 405V512L340.512 510.588L445.892 404.65L447.297 399H342.297C338.983 399 336.297 401.686 336.297 405Z" fill="#FD6A34"/>
<rect x="100" y="169" width="312" height="81" fill="#E6EAEA"/>
<path fill-rule="evenodd" clip-rule="evenodd" d="M401 171H111C106.029 171 102 175.029 102 180V237C102 241.971 106.029 246 111 246H401C405.971 246 410 241.971 410 237V180C410 175.029 405.971 171 401 171ZM111 161C100.507 161 92 169.507 92 180V237C92 247.493 100.507 256 111 256H401C411.493 256 420 247.493 420 237V180C420 169.507 411.493 161 401 161H111Z" fill="#365558"/>
<circle cx="163.5" cy="208.5" r="11.5" fill="#365558"/>
<circle cx="255.5" cy="208.5" r="11.5" fill="#365558"/>
<circle cx="347.5" cy="208.5" r="11.5" fill="#0295AA"/>
<path d="M256 256H401C411.493 256 420 247.493 420 237V180C420 169.507 411.493 161 401 161H256V171H401C405.971 171 410 175.029 410 180V237C410 241.971 405.971 246 401 246H256V256Z" fill="#0295AA"/>
<path fill-rule="evenodd" clip-rule="evenodd" d="M256 219.979C262.119 219.717 267 214.673 267 208.489C267 202.306 262.119 197.262 256 197V219.979Z" fill="#0295AA"/>
</svg>
