<svg width="512" height="512" viewBox="0 0 512 512" fill="none" xmlns="http://www.w3.org/2000/svg">
<path fill-rule="evenodd" clip-rule="evenodd" d="M246.331 248L247.998 247.999L247.998 189.999L188.921 248H0V0H248V248H246.331Z" fill="#FF8C29"/>
<path d="M248 247.983L211 248L248 212L248 247.983Z" fill="#FF8C29"/>
<path d="M248 511.983L211 512L248 476L248 511.983Z" fill="#FD6A33"/>
<path d="M512 247.983L475 248L512 212L512 247.983Z" fill="#4ACFD9"/>
<path d="M512 511.983L475 512L512 476L512 511.983Z" fill="#0295AA"/>
<path fill-rule="evenodd" clip-rule="evenodd" d="M246.331 512L247.998 511.999L247.998 453.999L188.921 512H0V264H248V512H246.331Z" fill="#FD6A33"/>
<path fill-rule="evenodd" clip-rule="evenodd" d="M510.331 248L511.998 247.999L511.998 189.999L452.921 248H264V0H512V248H510.331Z" fill="#4ACFD9"/>
<path fill-rule="evenodd" clip-rule="evenodd" d="M510.331 512L511.998 511.999L511.998 453.999L452.921 512H264V264H512V512H510.331Z" fill="#0295AA"/>
<path fill-rule="evenodd" clip-rule="evenodd" d="M333 39.9997C328.582 39.9997 325 43.5814 325 47.9997V200.073C325 204.492 328.582 208.073 333 208.073H415.039V172.981L450.593 171.134L450.593 47.9997C450.593 43.5814 447.012 39.9997 442.593 39.9997H333Z" fill="#FED1A8"/>
<path fill-rule="evenodd" clip-rule="evenodd" d="M333 304C328.582 304 325 307.581 325 312V464.073C325 468.492 328.582 472.073 333 472.073H415.039V436.981L450.593 435.134L450.593 312C450.593 307.581 447.012 304 442.593 304H333Z" fill="#FED1A8"/>
<path fill-rule="evenodd" clip-rule="evenodd" d="M69 304C64.5817 304 61 307.581 61 312V464.073C61 468.492 64.5817 472.073 69 472.073H151.039V436.981L186.593 435.134L186.593 312C186.593 307.581 183.012 304 178.593 304H69Z" fill="#0295AA"/>
<path fill-rule="evenodd" clip-rule="evenodd" d="M69 39.9997C64.5817 39.9997 61 43.5814 61 47.9997V200.073C61 204.492 64.5817 208.073 69 208.073H151.039V172.981L186.593 171.134L186.593 47.9997C186.593 43.5814 183.012 39.9997 178.593 39.9997H69Z" fill="#0295AA"/>
<path d="M325 42.6982C325 41.2485 326.18 40.0732 327.635 40.0732H388V208.073H327.635C326.18 208.073 325 206.898 325 205.448V42.6982Z" fill="#FF8C29"/>
<path d="M325 306.698C325 305.248 326.18 304.073 327.635 304.073H388V472.073H327.635C326.18 472.073 325 470.898 325 469.448V306.698Z" fill="#FF8C29"/>
<path d="M61 306.698C61 305.248 62.1796 304.073 63.6347 304.073H124V472.073H63.6346C62.1796 472.073 61 470.898 61 469.448V306.698Z" fill="#365558"/>
<path d="M61 42.6982C61 41.2485 62.1796 40.0732 63.6347 40.0732H124V208.073H63.6346C62.1796 208.073 61 206.898 61 205.448V42.6982Z" fill="#365558"/>
<path d="M414 177.073V208.073L415.367 207.611L449.544 172.923L450 171.073H420C416.686 171.073 414 173.76 414 177.073Z" fill="#FD6A34"/>
<path d="M414 441.073V472.073L415.367 471.611L449.544 436.923L450 435.073H420C416.686 435.073 414 437.76 414 441.073Z" fill="#FD6A34"/>
<path d="M150 441.073V472.073L151.367 471.611L185.544 436.923L186 435.073H156C152.686 435.073 150 437.76 150 441.073Z" fill="#4ACFD9"/>
<path d="M150 177.073V208.073L151.367 207.611L185.544 172.923L186 171.073H156C152.686 171.073 150 173.76 150 177.073Z" fill="#4ACFD9"/>
</svg>
