<svg width="512" height="512" viewBox="0 0 512 512" fill="none" xmlns="http://www.w3.org/2000/svg">
<rect x="72.7354" y="52" width="33.756" height="231" fill="#9BAAAB"/>
<rect x="240" y="366" width="33" height="128" fill="#9BAAAB"/>
<rect x="407" y="21" width="33" height="281" fill="#9BAAAB"/>
<path fill-rule="evenodd" clip-rule="evenodd" d="M159 103.818H19V440.182H159V103.818ZM86.9609 345.812H76.1328V361.703H86.8906C98.1406 361.703 103.766 366.812 103.766 377.031C103.766 381.25 102.383 384.648 99.6172 387.227C96.8984 389.758 93.125 391.023 88.2969 391.023C84.0781 391.023 80.5156 389.805 77.6094 387.367C74.75 384.93 73.3203 381.789 73.3203 377.945H53C53 386.805 56.2344 393.93 62.7031 399.32C69.2188 404.711 77.5859 407.406 87.8047 407.406C98.7266 407.406 107.492 404.664 114.102 399.18C120.758 393.695 124.086 386.406 124.086 377.312C124.086 371.688 122.656 366.812 119.797 362.688C116.984 358.562 112.695 355.469 106.93 353.406C111.57 351.297 115.32 348.273 118.18 344.336C121.039 340.398 122.469 336.086 122.469 331.398C122.469 322.305 119.398 315.18 113.258 310.023C107.117 304.82 98.6328 302.219 87.8047 302.219C81.5703 302.219 75.8516 303.414 70.6484 305.805C65.4922 308.195 61.4609 311.523 58.5547 315.789C55.6953 320.008 54.2656 324.789 54.2656 330.133H74.5859C74.5859 326.711 75.8984 323.945 78.5234 321.836C81.1484 319.68 84.4062 318.602 88.2969 318.602C92.6094 318.602 95.9844 319.75 98.4219 322.047C100.906 324.344 102.148 327.555 102.148 331.68C102.148 335.945 100.906 339.367 98.4219 341.945C95.9375 344.523 92.1172 345.812 86.9609 345.812Z" fill="#D3F035"/>
<path fill-rule="evenodd" clip-rule="evenodd" d="M326 51.8184H186V388.182H326V51.8184ZM223.039 354.781H293.211V338.398H249.195L272.469 313.859C278.844 306.875 283.344 300.758 285.969 295.508C288.594 290.258 289.906 285.102 289.906 280.039C289.906 270.805 286.977 263.656 281.117 258.594C275.305 253.531 267.125 251 256.578 251C249.688 251 243.523 252.477 238.086 255.43C232.648 258.336 228.43 262.367 225.43 267.523C222.477 272.68 221 278.375 221 284.609H241.391C241.391 279.453 242.703 275.305 245.328 272.164C248 268.977 251.633 267.383 256.227 267.383C260.492 267.383 263.773 268.695 266.07 271.32C268.367 273.898 269.516 277.461 269.516 282.008C269.516 285.336 268.414 288.852 266.211 292.555C264.055 296.258 260.703 300.594 256.156 305.562L223.039 340.859V354.781Z" fill="#F0353D"/>
<path fill-rule="evenodd" clip-rule="evenodd" d="M493 115.818H353V452.182H493V115.818ZM419.258 421.516H439.578V319H437.398L395 334.188V350.711L419.258 343.188V421.516Z" fill="#F0353D"/>
<path fill-rule="evenodd" clip-rule="evenodd" d="M256 51.8184H186V388.182H256V354.781H223.039V340.859L256 305.729V267.384C251.513 267.436 247.956 269.029 245.328 272.164C242.703 275.305 241.391 279.453 241.391 284.609H221C221 278.375 222.477 272.68 225.43 267.523C228.43 262.367 232.648 258.336 238.086 255.43C243.371 252.559 249.342 251.084 256 251.003V51.8184ZM256 331.224L249.195 338.398H256V331.224Z" fill="#D3F035"/>
</svg>
