<?xml version="1.0" encoding="utf-8"?>
<!-- Generator: Adobe Illustrator 19.0.0, SVG Export Plug-In . SVG Version: 6.00 Build 0)  -->
<svg version="1.1" id="Layer_1" xmlns="http://www.w3.org/2000/svg" xmlns:xlink="http://www.w3.org/1999/xlink" x="0px" y="0px"
	 viewBox="96 11 512 512" style="enable-background:new 96 11 512 512;" xml:space="preserve">
<style type="text/css">
	.st0{fill:#FFD1A9;}
	.st1{display:none;fill:#9BAAAB;}
	.st2{fill:#CDD4D5;}
	.st3{fill:#FF8C29;}
	.st4{fill:#9BAAAB;}
	.st5{fill:#FD6A33;}
	.st6{fill:#FFFFFF;}
	.st7{fill:#0295AA;}
	.st8{fill:#365558;}
	.st9{fill:#F0353D;}
</style>
<path class="st0" d="M96.1,172.5c0-7.9,6.5-14.3,14.3-14.3h81c7.9,0,14.3,6.5,14.3,14.3c0,0,0-0.8,0,9c0,9.9,3.5,17.5,17.5,17.5
	s342.3,0,342.3,0c7.9,0,14.3,6.5,14.3,14.3v295.5c0,7.9-6.5,14.3-14.3,14.3H110.3c-7.9,0-14.3-6.5-14.3-14.3V172.5"/>
<polygon class="st1" points="351.8,201.7 215.7,254.4 79.5,201.7 216,148.3 "/>
<polygon class="st2" points="214.8,289.4 332.5,335 332.5,189.3 214.8,143.7 "/>
<polygon class="st3" points="332.5,335.4 214.8,380.9 214.8,235.2 332.5,189.7 "/>
<polygon class="st4" points="214.8,289.4 97,335 97,189.3 214.8,143.7 "/>
<polygon class="st5" points="97,335.4 214.8,380.9 214.8,235.2 97,189.7 "/>
<polygon class="st2" points="214.8,144.2 169,98 96,126.5 96,188.7 97,189.7 "/>
<polyline class="st6" points="214.8,143.7 253.4,98.7 371.8,144.4 332.5,189.7 "/>
<polyline class="st0" points="214.8,235.6 253.1,196.5 371.2,150.4 332.5,190.1 "/>
<polygon class="st3" points="214.8,235.6 169.5,196.8 96,168.4 96,188.7 97,189.6 "/>
<path class="st6" d="M243.3,318.1c-3.2,0-5-2.1-5-5.6c0-15.1,0-30.5,0-46c0-6.7,5.5-14.3,12.3-17l1.1-0.5c4.6-1.8,9.3-3.8,14-5.3
	c3.6-1.2,5-3.2,4.7-6.8c-0.2-1.8-0.1-3.8-0.1-5.8v-0.7c0.1-2.7,1.9-5,4.7-6.1c0.8-0.3,1.4-0.5,2-0.5c0.5,0,1.5,0,1.6,2
	c0.1,2.5,0.2,5,0,7.4c-0.1,0.9,0,2.3,0.8,3.2c0.4,0.4,1,0.8,2,0.8c0.7,0,1.4-0.2,2.4-0.6c4.4-1.8,8.8-3.5,13.1-5.1l2-0.8
	c1.7-0.6,3.2-1,4.7-1c4.4,0,6.9,2.9,6.9,8c0,4.5,0,9,0,13.5c-0.1,10.3-0.1,20.9,0.2,31.3c0.1,4.7-4.7,12.2-10.2,14
	c-6.2,2.1-12.6,4.6-18.7,7c-2.6,1.1-5.3,2.1-8,3.1l-7.7,2.9c-6.5,2.5-13,5-19.5,7.4C245.5,317.8,244.4,318.1,243.3,318.1z
	 M262,290.5c-0.8,0-1.6,0.3-2.3,0.6c-1.5,0.7-2.7,1.1-3.8,1.4c-2.6,0.8-3.8,2.5-3.8,5c0.1,3.1,2.1,3.3,2.8,3.3
	c0.6,0,1.3-0.2,2.1-0.5c0.5-0.2,0.9-0.4,1.4-0.5c0.2-0.1,0.5-0.2,0.8-0.3c0.2-0.1,0.4-0.2,0.5-0.2c0.4-0.2,0.7-0.3,1.1-0.4
	c1.2-0.4,4.1-1.3,4.1-5.1C264.7,290.7,262.7,290.5,262,290.5z M278.3,284.3c-0.7,0-1.4,0.2-2.3,0.6c-1.4,0.5-3.4,1.1-3.4,1.1
	c-2.7,1-3.4,3.4-2.8,5.2c0.5,1.4,1.9,2.4,3.4,2.5h0.2c0.9,0,1.7-0.3,1.9-0.4c0,0,1.6-0.6,2-0.8c1.1-0.5,3.8-1.3,3.9-4.8
	c0-1.3-0.3-2.2-0.9-2.8C279.8,284.7,279.2,284.3,278.3,284.3z M294,278.2c-0.9,0-5.1,1.2-5.1,1.2c-1.6,0.6-3.9,1.4-4,4.9
	c0,1.2,0.3,2.1,0.9,2.8c0.4,0.4,1,0.8,1.9,0.8l0,0c0.9,0,1.7-0.4,2.6-0.8l2.5-0.5c1.6-0.5,3.9-1.4,4-4.9c0-1.2-0.3-2.1-0.9-2.7
	C295.6,278.6,295,278.2,294,278.2z M260.8,263.7c-0.9,0-1.9,0.2-2.9,0.6c-4.1,1.6-7.1,5.8-7.1,9.9c0,3.4,2.3,5.8,5.5,5.8l0,0
	c0.9,0,1.9-0.2,2.9-0.6c4.1-1.6,7.1-5.8,7.1-9.9C266.3,266,264,263.7,260.8,263.7z M292.8,251.5c-0.9,0-1.9,0.2-2.8,0.5
	c-4.1,1.6-7.1,5.6-7.2,9.8c0,1.7,0.5,3.2,1.6,4.4c1,1,2.4,1.6,3.9,1.6l0,0c0.9,0,1.9-0.2,2.8-0.5c4.1-1.6,7.1-5.6,7.2-9.8
	c0-1.7-0.5-3.2-1.6-4.4C295.7,252,294.3,251.5,292.8,251.5z"/>
<path class="st6" d="M225.8,308.4c-0.6,0-2,0-2.1-2.6c-0.1-6.3-0.2-13,0-20.4c0.1-3.2,2.2-6,5.5-7.4c0.6-0.2,1.1-0.5,1.6-0.6
	c0.6-0.2,1.2-0.5,1.7-0.7c0,0.5,0,1.1,0,1.7c0,0.5,0,0.9,0,1.4c0,2.6,0,5.1,0,7.7v2.2l0,0c0,0,0,4,0,5.3c0,3.2,0,6.5,0,9.8
	c0,1.2-0.3,1.7-1.4,2c-0.7,0.2-1.4,0.5-2,0.8c-0.4,0.2-0.8,0.3-1.2,0.5C227.1,308.2,226.4,308.4,225.8,308.4z"/>
<path class="st6" d="M316.5,275c-0.1-0.7-0.1-1.7-0.1-2.8c0-3.8,0-7.7,0-11.4c0-1.3,0-2.5,0-3.8c0-3.2,0-6.5,0-9.7
	c0-1.4,0.3-1.8,1.5-2.2c0.7-0.2,1.4-0.5,2-0.8c0.4-0.2,0.8-0.3,1.2-0.5c0.8-0.2,1.4-0.4,2-0.4c0.6,0,2.1,0,2.1,2.7
	c0.1,6.9,0.1,13.8,0,20.4c-0.1,3.2-2.2,5.9-5.6,7.3C318.4,274.3,317.3,274.8,316.5,275z"/>
<polygon class="st7" points="332.5,320.8 214.8,366.3 214.8,344.2 332.5,298.7 "/>
<polygon class="st8" points="97,320.8 214.8,366.3 214.8,344.2 97,298.7 "/>
<path class="st9" d="M357.4,385.9c-1.5-0.6-2.7-1.8-3.4-3.4l-9-21.4c-1.4-3.2,0.2-6.8,3.4-8.1c3.2-1.4,6.8,0.2,8.1,3.4l9,21.4
	c1.4,3.2-0.2,6.8-3.4,8.1C360.5,386.6,358.8,386.6,357.4,385.9z"/>
<polygon class="st1" points="489.3,63.3 625.8,116.7 489.7,169.4 353.5,116.7 "/>
<polygon class="st4" points="490.6,58.7 372.8,104.3 372.8,250 490.6,204.4 "/>
<polygon class="st3" points="372.8,104.7 490.6,150.2 490.6,295.9 372.8,250.4 "/>
<polygon class="st4" points="490.6,58.7 608.3,104.3 608.3,250 490.6,204.4 "/>
<polygon class="st5" points="608.3,104.7 490.6,150.2 490.6,295.9 608.3,250.4 "/>
<polygon class="st6" points="536.4,13 490.6,59.2 608.3,104.7 608.3,41.1 "/>
<polyline class="st2" points="372.8,104.7 333.6,59.4 452,13.7 490.6,58.7 "/>
<polyline class="st0" points="372.8,105.1 334.1,65.4 452.2,111.5 490.6,150.6 "/>
<polygon class="st3" points="535.8,111.8 490.6,150.6 608.3,104.6 608.3,83.8 "/>
<path class="st6" d="M458.8,232c-6.5-2.5-13-5-19.5-7.4l-7.7-2.9c-2.6-1-5.3-2-8-3.1c-6.2-2.4-12.5-4.9-18.7-7
	c-5.5-1.8-10.2-9.3-10.2-14c0.2-10.4,0.2-21,0.2-31.3c0-4.5,0-9,0-13.5c0-5.1,2.6-8,6.9-8c1.4,0,3,0.4,4.7,1l2,0.8
	c4.3,1.7,8.7,3.3,13.1,5.1c1,0.5,1.7,0.6,2.4,0.6c1.1,0,1.7-0.5,2-0.8c0.8-0.9,0.9-2.3,0.8-3.2c-0.2-2.4-0.1-4.9,0-7.4
	c0.1-2,1.1-2,1.6-2c0.5,0,1.2,0.2,2,0.5c2.9,1.1,4.7,3.4,4.7,6.1v0.7c0,2,0.1,4-0.1,5.8c-0.4,3.6,1.1,5.6,4.7,6.8
	c4.7,1.6,9.4,3.5,14,5.3l1.1,0.5c6.8,2.7,12.3,10.3,12.3,17c0,15.4,0,30.8,0,46c-0.1,3.5-1.9,5.6-5,5.6
	C460.9,233.1,459.8,232.8,458.8,232z M440.5,208.7c0,3.8,2.9,4.7,4.1,5.1c0.4,0.1,0.7,0.2,1.1,0.4c0.2,0.1,0.4,0.2,0.5,0.2
	c0.3,0.2,0.5,0.2,0.8,0.3c0.5,0.2,1,0.3,1.4,0.5c0.8,0.4,1.5,0.5,2.1,0.5c0.7,0,2.7-0.2,2.8-3.3c0-2.5-1.2-4.1-3.8-5
	c-1.1-0.3-2.3-0.8-3.8-1.4c-0.8-0.3-1.6-0.6-2.3-0.6C442.6,205.5,440.6,205.7,440.5,208.7z M425,199.9c-0.6,0.6-0.9,1.5-0.9,2.8
	c0.1,3.5,2.8,4.4,3.9,4.8c0.5,0.2,2,0.8,2,0.8c0.2,0.1,1,0.4,1.9,0.4h0.2c1.5-0.1,2.9-1.1,3.4-2.5c0.6-1.8-0.1-4.2-2.8-5.2
	c0,0-2-0.6-3.4-1.1c-1-0.4-1.7-0.6-2.3-0.6C426.2,199.3,425.5,199.7,425,199.9z M409.5,194c-0.6,0.6-0.9,1.5-0.9,2.7
	c0.1,3.5,2.4,4.4,4,4.9l2.5,0.5c0.9,0.4,1.7,0.8,2.6,0.8l0,0c0.9,0,1.5-0.4,1.9-0.8c0.6-0.7,0.9-1.6,0.9-2.8c-0.1-3.5-2.4-4.3-4-4.9
	c0,0-4.2-1.2-5.1-1.2C410.4,193.2,409.8,193.6,409.5,194z M439,184.5c0,4.1,3.1,8.3,7.1,9.9c1.1,0.4,2,0.6,2.9,0.6l0,0
	c3.2,0,5.5-2.4,5.5-5.8c0-4.1-3.1-8.3-7.1-9.9c-1.1-0.4-2-0.6-2.9-0.6C441.3,178.7,439,181,439,184.5z M408.6,168
	c-1.1,1.1-1.6,2.6-1.6,4.4c0.1,4.1,3.1,8.2,7.2,9.8c0.9,0.4,1.9,0.5,2.8,0.5l0,0c1.5,0,2.9-0.6,3.9-1.6c1.1-1.1,1.6-2.6,1.6-4.4
	c-0.1-4.1-3.1-8.2-7.2-9.8c-0.9-0.4-1.9-0.5-2.8-0.5C411,166.5,409.6,167,408.6,168z"/>
<path class="st6" d="M477.5,222.9c-0.5-0.2-0.8-0.3-1.2-0.5c-0.6-0.3-1.3-0.5-2-0.8c-1.1-0.3-1.4-0.8-1.4-2c0-3.2,0-6.5,0-9.8
	c0-1.3,0-5.3,0-5.3l0,0v-2.2c0-2.6,0-5.1,0-7.7c0-0.5,0-0.9,0-1.4c0-0.6,0-1.2,0-1.7c0.5,0.2,1.1,0.5,1.7,0.7c0.5,0.2,1,0.4,1.6,0.6
	c3.3,1.4,5.4,4.1,5.5,7.4c0.2,7.4,0.1,14.1,0,20.4c-0.1,2.6-1.5,2.6-2.1,2.6C478.9,223.4,478.2,223.2,477.5,222.9z"/>
<path class="st6" d="M385.8,188.9c-3.5-1.4-5.6-4.1-5.6-7.3c-0.1-6.6-0.1-13.5,0-20.4c0-2.7,1.5-2.7,2.1-2.7c0.5,0,1.2,0.2,2,0.4
	c0.5,0.2,0.8,0.3,1.2,0.5c0.6,0.3,1.3,0.5,2,0.8c1.2,0.4,1.5,0.8,1.5,2.2c0,3.2,0,6.5,0,9.7c0,1.3,0,2.5,0,3.8c0,3.8,0,7.6,0,11.4
	c0,1.1,0,2.1-0.1,2.8C388,189.8,386.9,189.3,385.8,188.9z"/>
<polygon class="st7" points="372.8,213.7 490.6,259.2 490.6,281.3 372.8,235.8 "/>
<polygon class="st8" points="608.3,213.7 490.6,259.2 490.6,281.3 608.3,235.8 "/>
<path class="st3" d="M564.3,523.2H109.1c-7.9,0-13.1-6.5-11.7-14.3l26.1-147.8c1.4-7.9,8.9-14.3,16.8-14.3h455.1
	c7.9,0,13.1,6.5,11.7,14.3l-26.1,147.8C579.8,516.7,572.1,523.2,564.3,523.2z"/>
<path class="st8" d="M123.2,505.6c-1.9,0-3.5-0.7-4.6-2c-1.1-1.4-1.5-3.3-1.2-5.4l1.3-6.9c1.8-5.4,5.6-9.5,8.2-9.5h434.2
	c1.9,0,3.5,0.7,4.6,2c1.1,1.4,1.5,3.3,1.2,5.4l-1.3,6.9c-0.8,5-4.6,9.5-9.4,9.5H123.2z"/>
</svg>
