<?xml version="1.0" encoding="utf-8"?>
<!-- Generator: Adobe Illustrator 24.1.1, SVG Export Plug-In . SVG Version: 6.00 Build 0)  -->
<svg version="1.1" id="Profit_Loss" xmlns="http://www.w3.org/2000/svg" xmlns:xlink="http://www.w3.org/1999/xlink" x="0px"
	 y="0px" viewBox="0 0 512 512" style="enable-background:new 0 0 512 512;" xml:space="preserve">
<style type="text/css">
	.st0{fill:#FF8C29;}
	.st1{fill:#FD6A33;}
	.st2{fill:#687F82;}
	.st3{fill:#365558;}
	.st4{fill:#FFD1A9;}
	.st5{fill:#0295AA;}
	.st6{fill:#4ACFD9;}
	.st7{display:none;fill:#0295AA;}
	.st8{display:none;fill:#4ACFD9;}
	.st9{fill:#E6EAEA;}
	.st10{fill:#FFFFFF;}
</style>
<g id="coins-bottom">
	<g>
		<g>
			<path class="st0" d="M324.8,499.8l-32.9-32.9l-11.8,11.9l32.9,32.9c0.6,0.6,1.7,0.7,2.4,0l9.6-9.6
				C325.5,501.4,325.5,500.4,324.8,499.8z"/>
			
				<rect x="273.9" y="463.8" transform="matrix(0.7071 -0.7071 0.7071 0.7071 -249.0044 337.0004)" class="st1" width="16.8" height="10.6"/>
			<path class="st1" d="M259.1,434c-0.6-0.6-1.7-0.7-2.4,0l-9.6,9.6c-0.6,0.6-0.7,1.7,0,2.4l25.4,25.4l11.9-11.9L259.1,434
				L259.1,434z"/>
		</g>
		
			<rect x="300.6" y="494.1" transform="matrix(0.7071 -0.7071 0.7071 0.7071 -261.9138 362.1065)" class="st2" width="11.1" height="6.2"/>
		
			<rect x="307.7" y="502.2" transform="matrix(0.7071 -0.7071 0.7071 0.7071 -264.8091 369.175)" class="st2" width="11.1" height="4.1"/>
		
			<rect x="290.4" y="482.8" transform="matrix(0.7071 -0.7071 0.7071 0.7071 -257.6309 351.9051)" class="st2" width="11.1" height="8.3"/>
		
			<rect x="256" y="449.4" transform="matrix(0.7071 -0.7071 0.7071 0.7071 -243.3318 317.4854)" class="st3" width="11.1" height="6.2"/>
		
			<rect x="248.8" y="443.3" transform="matrix(0.7071 -0.7071 0.7071 0.7071 -240.409 310.2832)" class="st3" width="11.1" height="4.1"/>
		
			<rect x="266.2" y="458.6" transform="matrix(0.7071 -0.7071 0.7071 0.7071 -247.6146 327.6868)" class="st3" width="11.1" height="8.3"/>
		
			<rect x="279.9" y="474.3" transform="matrix(0.7071 -0.7071 0.7071 0.7071 -253.2889 341.3876)" class="st2" width="11.1" height="4.3"/>
		
			<rect x="277" y="471.5" transform="matrix(0.7071 -0.7071 0.7071 0.7071 -252.0363 338.4704)" class="st3" width="11.1" height="4"/>
	</g>
	<g>
		<g>
			<path class="st0" d="M250.8,408.8l-32.9,32.9l11.9,11.9l32.9-32.9c0.6-0.6,0.7-1.7,0-2.4l-9.6-9.6
				C252.5,408.1,251.4,408.1,250.8,408.8z"/>
			
				<rect x="213.2" y="443.5" transform="matrix(0.7071 -0.7071 0.7071 0.7071 -255.283 287.5906)" class="st1" width="12.6" height="16.8"/>
			<path class="st1" d="M185,474.5c-0.6,0.6-0.7,1.7,0,2.4l9.6,9.6c0.6,0.6,1.7,0.7,2.4,0l24-24l-11.9-11.9L185,474.5L185,474.5z"/>
		</g>
		
			<rect x="245.1" y="421.8" transform="matrix(0.7071 -0.7071 0.7071 0.7071 -229.5086 300.6563)" class="st2" width="6.2" height="11.1"/>
		
			<rect x="253.2" y="414.7" transform="matrix(0.7071 -0.7071 0.7071 0.7071 -222.4065 303.562)" class="st2" width="4.1" height="11.1"/>
		
			<rect x="233.8" y="432.1" transform="matrix(0.7071 -0.7071 0.7071 0.7071 -239.7642 296.4545)" class="st2" width="8.3" height="11.1"/>
		
			<rect x="200.4" y="466.5" transform="matrix(0.7071 -0.7071 0.7071 0.7071 -274.1591 282.1451)" class="st3" width="6.2" height="11.1"/>
		
			<rect x="194.3" y="473.6" transform="matrix(0.7071 -0.7071 0.7071 0.7071 -281.2983 279.1619)" class="st3" width="4.1" height="11.1"/>
		
			<rect x="209.6" y="456.3" transform="matrix(0.7071 -0.7071 0.7071 0.7071 -263.9576 286.4279)" class="st3" width="8.3" height="11.1"/>
		
			<rect x="225.3" y="442.6" transform="matrix(0.7071 -0.7071 0.7071 0.7071 -250.2567 292.1022)" class="st2" width="4.3" height="11.1"/>
		
			<rect x="222.5" y="445.5" transform="matrix(0.7071 -0.7071 0.7071 0.7071 -253.1741 290.8496)" class="st3" width="4" height="11.1"/>
	</g>
	<g>
		<g>
			<path class="st0" d="M326.6,452.3l-32.9-32.9l-11.9,11.9l32.9,32.9c0.6,0.6,1.7,0.7,2.4,0l9.6-9.6
				C327.2,454,327.3,453,326.6,452.3z"/>
			
				<rect x="277" y="419.6" transform="matrix(0.7071 -0.7071 0.7071 0.7071 -215.5036 325.6873)" class="st1" width="16.8" height="6.8"/>
			<path class="st1" d="M260.9,386.6c-0.6-0.6-1.7-0.7-2.4,0l-9.6,9.6c-0.6,0.6-0.7,1.7,0,2.4l28.1,28.1l11.9-11.9L260.9,386.6
				L260.9,386.6z"/>
		</g>
		
			<rect x="302.4" y="446.6" transform="matrix(0.7071 -0.7071 0.7071 0.7071 -227.7671 349.4698)" class="st2" width="11.1" height="6.2"/>
		
			<rect x="309.4" y="454.7" transform="matrix(0.7071 -0.7071 0.7071 0.7071 -230.7435 356.4842)" class="st2" width="11.1" height="4.1"/>
		
			<rect x="292.2" y="435.3" transform="matrix(0.7071 -0.7071 0.7071 0.7071 -223.4945 339.2435)" class="st2" width="11.1" height="8.3"/>
		
			<rect x="257.7" y="401.9" transform="matrix(0.7071 -0.7071 0.7071 0.7071 -209.2661 304.7359)" class="st3" width="11.1" height="6.2"/>
		
			<rect x="250.5" y="395.8" transform="matrix(0.7071 -0.7071 0.7071 0.7071 -206.3433 297.5923)" class="st3" width="11.1" height="4.1"/>
		
			<rect x="268" y="411.2" transform="matrix(0.7071 -0.7071 0.7071 0.7071 -213.5662 315.0959)" class="st3" width="11.1" height="8.3"/>
		
			<rect x="281.7" y="426.9" transform="matrix(0.7071 -0.7071 0.7071 0.7071 -219.2405 328.7969)" class="st2" width="11.1" height="4.3"/>
		
			<rect x="278.8" y="424.1" transform="matrix(0.7071 -0.7071 0.7071 0.7071 -217.9879 325.8796)" class="st3" width="11.1" height="4"/>
	</g>
	<g>
		<g>
			<path class="st4" d="M209.5,393.4"/>
			<path class="st0" d="M254.5,354.9l-32.9,32.9l11.9,11.9l32.9-32.9c0.6-0.6,0.7-1.7,0-2.4l-9.5-9.5
				C256.2,354.3,255.2,354.3,254.5,354.9z"/>
			
				<rect x="218.6" y="389.1" transform="matrix(0.7071 -0.7071 0.7071 0.7071 -215.476 274.739)" class="st1" width="10.6" height="16.8"/>
			<path class="st1" d="M188.8,420.7c-0.6,0.6-0.7,1.7,0,2.4l9.6,9.6c0.6,0.6,1.7,0.7,2.4,0l25.4-25.4l-11.9-11.9L188.8,420.7
				L188.8,420.7z"/>
		</g>
		
			<rect x="248.8" y="368" transform="matrix(0.7071 -0.7071 0.7071 0.7071 -190.3426 287.5146)" class="st2" width="6.2" height="11.1"/>
		
			<rect x="256.9" y="360.9" transform="matrix(0.7071 -0.7071 0.7071 0.7071 -183.2741 290.41)" class="st2" width="4.1" height="11.1"/>
		
			<rect x="237.5" y="378.3" transform="matrix(0.7071 -0.7071 0.7071 0.7071 -200.6318 283.3025)" class="st2" width="8.3" height="11.1"/>
		
			<rect x="204.1" y="412.7" transform="matrix(0.7071 -0.7071 0.7071 0.7071 -235.0515 269.0033)" class="st3" width="6.2" height="11.1"/>
		
			<rect x="198" y="419.9" transform="matrix(0.7071 -0.7071 0.7071 0.7071 -242.2538 266.0805)" class="st3" width="4.1" height="11.1"/>
		
			<rect x="213.3" y="402.5" transform="matrix(0.7071 -0.7071 0.7071 0.7071 -224.8502 273.2863)" class="st3" width="8.3" height="11.1"/>
		
			<rect x="229" y="388.8" transform="matrix(0.7071 -0.7071 0.7071 0.7071 -211.1492 278.9605)" class="st2" width="4.3" height="11.1"/>
		
			<rect x="226.2" y="391.7" transform="matrix(0.7071 -0.7071 0.7071 0.7071 -214.0666 277.7079)" class="st3" width="4" height="11.1"/>
	</g>
</g>
<g id="coins-top">
	<g>
		<g>
			<path class="st0" d="M264,66.3l-32.9-32.9l-11.8,11.9l32.9,32.9c0.6,0.6,1.7,0.7,2.4,0l9.6-9.6C264.7,67.9,264.7,66.9,264,66.3z"
				/>
			
				<rect x="213" y="30.3" transform="matrix(0.7071 -0.7071 0.7071 0.7071 39.678 167.0174)" class="st1" width="16.8" height="10.6"/>
			<path class="st1" d="M198.3,0.5c-0.6-0.6-1.7-0.7-2.4,0l-9.6,9.6c-0.6,0.6-0.7,1.7,0,2.4l25.4,25.4L223.6,26L198.3,0.5L198.3,0.5
				z"/>
		</g>
		
			<rect x="239.8" y="60.6" transform="matrix(0.7071 -0.7071 0.7071 0.7071 26.8394 192.1527)" class="st2" width="11.1" height="6.2"/>
		
			<rect x="246.8" y="68.7" transform="matrix(0.7071 -0.7071 0.7071 0.7071 23.8733 199.1919)" class="st2" width="11.1" height="4.1"/>
		
			<rect x="229.6" y="49.3" transform="matrix(0.7071 -0.7071 0.7071 0.7071 31.1223 181.9512)" class="st2" width="11.1" height="8.3"/>
		
			<rect x="195.2" y="15.9" transform="matrix(0.7071 -0.7071 0.7071 0.7071 45.3506 147.5023)" class="st3" width="11.1" height="6.2"/>
		
			<rect x="188" y="9.8" transform="matrix(0.7071 -0.7071 0.7071 0.7071 48.3442 140.3294)" class="st3" width="11.1" height="4.1"/>
		
			<rect x="205.4" y="25.1" transform="matrix(0.7071 -0.7071 0.7071 0.7071 41.1384 157.733)" class="st3" width="11.1" height="8.3"/>
		
			<rect x="219.1" y="40.8" transform="matrix(0.7071 -0.7071 0.7071 0.7071 35.4642 171.4339)" class="st2" width="11.1" height="4.3"/>
		<rect x="216.2" y="38" transform="matrix(0.7071 -0.7071 0.7071 0.7071 36.6461 168.4873)" class="st3" width="11.1" height="4"/>
	</g>
	<g>
		<g>
			<path class="st0" d="M314.3,25.7l-32.9,32.9l11.9,11.9l32.9-32.9c0.6-0.6,0.7-1.7,0-2.4l-9.6-9.6C316,25,314.9,25,314.3,25.7z"/>
			
				<rect x="276.6" y="60.5" transform="matrix(0.7071 -0.7071 0.7071 0.7071 34.1223 220.2526)" class="st1" width="12.6" height="16.8"/>
			<path class="st1" d="M248.5,91.4c-0.6,0.6-0.7,1.7,0,2.4l9.6,9.6c0.6,0.6,1.7,0.7,2.4,0l24-24l-11.9-11.9L248.5,91.4L248.5,91.4z
				"/>
		</g>
		
			<rect x="308.6" y="38.8" transform="matrix(0.7071 -0.7071 0.7071 0.7071 59.938 233.4184)" class="st2" width="6.2" height="11.1"/>
		
			<rect x="316.7" y="31.6" transform="matrix(0.7071 -0.7071 0.7071 0.7071 67.0694 236.2533)" class="st2" width="4.1" height="11.1"/>
		
			<rect x="297.3" y="49" transform="matrix(0.7071 -0.7071 0.7071 0.7071 49.7117 229.1457)" class="st2" width="8.3" height="11.1"/>
		
			<rect x="263.8" y="83.4" transform="matrix(0.7071 -0.7071 0.7071 0.7071 15.2462 214.8071)" class="st3" width="6.2" height="11.1"/>
		
			<rect x="257.7" y="90.6" transform="matrix(0.7071 -0.7071 0.7071 0.7071 8.1069 211.8239)" class="st3" width="4.1" height="11.1"/>
		
			<rect x="273.1" y="73.2" transform="matrix(0.7071 -0.7071 0.7071 0.7071 25.5183 219.1193)" class="st3" width="8.3" height="11.1"/>
		
			<rect x="288.8" y="59.5" transform="matrix(0.7071 -0.7071 0.7071 0.7071 39.2192 224.7935)" class="st2" width="4.3" height="11.1"/>
		
			<rect x="285.9" y="62.5" transform="matrix(0.7071 -0.7071 0.7071 0.7071 36.2312 223.5116)" class="st3" width="4" height="11.1"/>
	</g>
	<g>
		<g>
			<path class="st0" d="M262.3,113.7l-32.9-32.9l-11.9,11.9l32.9,32.9c0.6,0.6,1.7,0.7,2.4,0l9.6-9.6
				C262.9,115.4,263,114.4,262.3,113.7z"/>
			
				<rect x="212.6" y="81" transform="matrix(0.7071 -0.7071 0.7071 0.7071 5.0355 180.9919)" class="st1" width="16.8" height="6.8"/>
			<path class="st1" d="M196.6,48c-0.6-0.6-1.7-0.7-2.4,0l-9.6,9.6c-0.6,0.6-0.7,1.7,0,2.4l28.1,28.1l11.9-11.9L196.6,48L196.6,48z"
				/>
		</g>
		
			<rect x="238" y="108" transform="matrix(0.7071 -0.7071 0.7071 0.7071 -7.2279 204.7743)" class="st2" width="11.1" height="6.2"/>
		
			<rect x="245.1" y="116.1" transform="matrix(0.7071 -0.7071 0.7071 0.7071 -10.1336 211.8179)" class="st2" width="11.1" height="4.1"/>
		
			<rect x="227.8" y="96.7" transform="matrix(0.7071 -0.7071 0.7071 0.7071 -2.9554 194.548)" class="st2" width="11.1" height="8.3"/>
		
			<rect x="193.3" y="63.3" transform="matrix(0.7071 -0.7071 0.7071 0.7071 11.273 160.0405)" class="st3" width="11.1" height="6.2"/>
		
			<rect x="186.2" y="57.2" transform="matrix(0.7071 -0.7071 0.7071 0.7071 14.2665 152.9261)" class="st3" width="11.1" height="4.1"/>
		
			<rect x="203.7" y="72.6" transform="matrix(0.7071 -0.7071 0.7071 0.7071 7.0436 170.4297)" class="st3" width="11.1" height="8.3"/>
		
			<rect x="217.4" y="88.3" transform="matrix(0.7071 -0.7071 0.7071 0.7071 1.3694 184.1306)" class="st2" width="11.1" height="4.3"/>
		<rect x="214.5" y="85.4" transform="matrix(0.7071 -0.7071 0.7071 0.7071 2.622 181.2133)" class="st3" width="11.1" height="4"/>
	</g>
	<g>
		<g>
			<path class="st4" d="M265.5,117.9"/>
			<path class="st0" d="M310.5,79.4l-32.9,32.9l11.9,11.9l32.9-32.9c0.6-0.6,0.7-1.7,0-2.4l-9.5-9.5
				C312.2,78.8,311.2,78.8,310.5,79.4z"/>
			
				<rect x="274.5" y="113.7" transform="matrix(0.7071 -0.7071 0.7071 0.7071 -4.3604 233.6165)" class="st1" width="10.6" height="16.8"/>
			<path class="st1" d="M244.8,145.3c-0.6,0.6-0.7,1.7,0,2.4l9.6,9.6c0.6,0.6,1.7,0.7,2.4,0l25.4-25.4l-11.9-11.9L244.8,145.3
				L244.8,145.3z"/>
		</g>
		
			<rect x="304.7" y="92.6" transform="matrix(0.7071 -0.7071 0.7071 0.7071 20.773 246.3921)" class="st2" width="6.2" height="11.1"/>
		
			<rect x="312.8" y="85.5" transform="matrix(0.7071 -0.7071 0.7071 0.7071 27.8415 249.2874)" class="st2" width="4.1" height="11.1"/>
		
			<rect x="293.5" y="102.8" transform="matrix(0.7071 -0.7071 0.7071 0.7071 10.5545 242.2091)" class="st2" width="8.3" height="11.1"/>
		
			<rect x="260" y="137.3" transform="matrix(0.7071 -0.7071 0.7071 0.7071 -23.936 227.8808)" class="st3" width="6.2" height="11.1"/>
		
			<rect x="254" y="144.4" transform="matrix(0.7071 -0.7071 0.7071 0.7071 -31.0675 224.9873)" class="st3" width="4.1" height="11.1"/>
		
			<rect x="269.3" y="127" transform="matrix(0.7071 -0.7071 0.7071 0.7071 -13.6639 232.193)" class="st3" width="8.3" height="11.1"/>
		
			<rect x="285" y="113.3" transform="matrix(0.7071 -0.7071 0.7071 0.7071 3.703480e-02 237.8672)" class="st2" width="4.3" height="11.1"/>
		
			<rect x="282.2" y="116.2" transform="matrix(0.7071 -0.7071 0.7071 0.7071 -2.8803 236.6146)" class="st3" width="4" height="11.1"/>
	</g>
</g>
<g id="bag_1_">
	<path class="st5" d="M154.2,428.7l2.9-10.2l15.7,6.1l15.1-27.7l18.3,13.5l34.7-22.7l15.1,22.6V138.6h-26.5
		c-0.1,0-20.4-8.6-41.2-2.4s-35,46.7-38.8,69.5c0,0-15,110.8-16.9,119.9c-1.9,9-4.6,15.3-9.9,26.2c-3.7,7.7-10,16.9-10,38.6
		s17.3,38.3,38.3,38.3H154.2z"/>
	<path class="st6" d="M389.4,351.8c-5.3-10.9-8-17.2-9.9-26.2s-16.9-119.9-16.9-119.9c-3.8-22.8-17.9-63.4-38.8-69.5
		c-20.8-6.2-41.1,2.4-41.2,2.4h-26.5V410l23-13.5l16.6,13.5l27.7-5.7V418h16.5l14,4.5l5,6.3h2.1c21.1,0,38.3-16.6,38.3-38.3
		S393.1,359.5,389.4,351.8z"/>
	<path class="st3" d="M193.6,109c-4.3,0-7.7,4.5-7.7,10v9.7c0,5.5,3.5,10,7.7,10h62.3V109H193.6z"/>
	<path class="st5" d="M318.3,109c4.3,0,7.7,4.5,7.7,10v9.7c0,5.5-3.5,10-7.7,10H256V109H318.3z"/>
	<path class="st7" d="M176.6,115.5c-5.8-3.3-12.1-6.6-12.1-0.5c0,8.3,23,9.7,27.6,9.5h63.8c0-10.9,0,8.6,0-4.6
		C196.7,120.4,182.3,119,176.6,115.5z"/>
	<path class="st8" d="M335.2,115.5c5.8-3.3,12.1-6.6,12.1-0.5c0,8.3-23,9.7-27.6,9.5h-63.8c0-10.9,0,8.6,0-4.6
		C315.1,120.4,329.5,119,335.2,115.5z"/>
	<path class="st9" d="M146.9,366.7c1.3,1.3,2,3,1.8,5c-0.9,10.5,2.7,20.8,10.1,28.1c2.4,2.4,2.4,6.4,0,8.8s-6.4,2.4-8.8,0
		c-10-10-15-23.9-13.8-38c0.3-3.4,3.3-5.9,6.8-5.6C144.5,365,145.9,365.7,146.9,366.7z"/>
	<path class="st10" d="M348.1,203.6c1.3-14.2-3.8-28.2-13.9-38.3c-2.4-2.4-6.5-2.4-8.9,0s-2.4,6.5,0,8.9
		c7.4,7.4,11.2,17.9,10.2,28.4c-0.2,2,0.5,3.6,1.8,5c1.1,1,2.4,1.7,3.9,1.7C344.8,209.5,347.7,207,348.1,203.6z"/>
	<g>
		<path class="st0" d="M256.1,173.3v158.9c43.9,0,79.4-35.6,79.4-79.4S299.8,173.3,256.1,173.3z"/>
		<path class="st1" d="M176.6,252.7c0,43.9,35.6,79.4,79.4,79.4V173.2C212.1,173.3,176.6,208.8,176.6,252.7z"/>
		<g>
			<path class="st10" d="M233.1,269.4l-6.8,14.3c-0.9,2-1.4,3.6-1.4,4.7c0,2.2,1.7,3.7,4.9,4.6v2.4h-33.5V293c2-0.4,3.5-1.1,4.6-2.1
				s2.2-2.9,3.6-5.8l37.2-77.9c1.2-2.5,1.7-4.5,1.7-5.9c0-2.3-1.4-3.9-4.3-4.9V194h36v2.4c-2.9,0.8-4.4,2.3-4.4,4.4
				c0,1.4,0.5,3,1.4,4.9l38.6,78.1c1.6,3.3,3,5.5,4.3,6.8c1.2,1.2,2.9,2.1,4.9,2.4v2.4h-37.3V293c3.3-0.5,4.9-2.1,4.9-4.6
				c0-1.1-0.5-2.6-1.5-4.6l-6.8-14.3 M279.2,269.4l-22.8-50l-23.3,50"/>
		</g>
		<path class="st10" d="M309.6,262.5H202.1c-1.1,0-1.9,0.8-1.9,1.9v4.9c0,1.1,0.8,1.9,1.9,1.9h107.6c1.1,0,1.9-0.8,1.9-1.9v-4.9
			C311.5,263.3,310.7,262.5,309.6,262.5z"/>
		<path class="st10" d="M303.9,250.1h-95.8c-0.8,0-1.5,0.7-1.5,1.5v4.3c0,0.8,0.7,1.5,1.5,1.5h95.8c0.8,0,1.5-0.7,1.5-1.5v-4.3
			C305.5,250.8,304.8,250.1,303.9,250.1z"/>
	</g>
</g>
</svg>
