<?xml version="1.0" encoding="utf-8"?>
<!-- Generator: Adobe Illustrator 19.0.0, SVG Export Plug-In . SVG Version: 6.00 Build 0)  -->
<svg version="1.1" id="Layer_1" xmlns="http://www.w3.org/2000/svg" xmlns:xlink="http://www.w3.org/1999/xlink" x="0px" y="0px"
	 viewBox="96 11 512 512" style="enable-background:new 96 11 512 512;" xml:space="preserve">
<style type="text/css">
	.st0{fill:#FFD1A9;}
	.st1{fill:#FF8C29;}
	.st2{fill:#FD6A33;}
	.st3{fill:#4ACFD9;}
	.st4{fill:#E6EAEA;}
	.st5{fill:#CDD4D5;}
</style>
<path class="st0" d="M533.7,11H170.3c-5.5,0-10,4.5-10,10v491.7c0,5.5,4.5,10,10,10h261.9c2.5,0,5.2-1,7.1-3l101.6-101.6
	c1.8-1.8,3-4.4,3-7.1V21.2C543.7,15.5,539.2,11,533.7,11z"/>
<path class="st1" d="M170.2,11c-5.5,0-10,4.5-10,10v491.7c0,5.5,4.5,10,10,10H352V11H170.2z"/>
<path class="st2" d="M432.1,421.4V523l0,0c2.5,0,5.2-1,7.1-3l101.6-101.6c1.8-1.8,3-4.4,3-7.1l0,0H442.1
	C436.6,411.2,432.1,415.8,432.1,421.4z"/>
<path class="st3" d="M352,126.5c-77.4,0-140.5,63-140.5,140.5s63,140.5,140.5,140.5s140.5-63,140.5-140.5S429.4,126.5,352,126.5z"/>
<path class="st4" d="M351.7,149.6c-0.4,0-0.7,0-1,0v236.7c0.4,0,0.7,0,1,0C417,386.3,470,333.2,470,268S416.9,149.6,351.7,149.6z"/>
<path class="st5" d="M233.3,268c0,64.9,52.5,117.8,117.3,118.3V149.7C285.8,150.2,233.3,203.1,233.3,268z"/>
<path class="st1" d="M401.6,269.6c-2.1-5.7-5.2-9.8-9.3-12.2c-4.1-2.5-9.8-4.2-16.9-5.2l-24.6-2.8v32l6,0.8c4.5,0.5,7.7,1.1,9.5,1.7
	c1.7,0.6,2.9,1.6,3.6,3.1c0.6,1.5,0.9,4.1,0.9,7.7c0,3.9-0.5,6.6-1.6,8.4c-1,1.8-3.4,3.1-7.1,3.8c-2.5,0.5-6.3,0.9-11.2,1v49.7h12
	v-20c14-0.7,24.5-4.2,31.5-10.4c7-6.2,10.5-17.4,10.5-33.8C404.7,283.3,403.6,275.3,401.6,269.6z"/>
<path class="st1" d="M355.4,223c11.4,0,25.3,0.8,41.7,2.4v-27.8c-4.2-0.9-9.6-1.7-16.2-2.6c-6.6-0.9-12.7-1.4-18.3-1.6v-20.5h-12
	v50.1C352.1,223,353.7,223,355.4,223z"/>
<path class="st2" d="M343.8,308c-13.5,0-28.6-0.7-45.5-2.1v27.8c11.4,2.1,24.3,3.4,38.8,3.9v20h13.5V308
	C348.6,308,346.3,308,343.8,308z"/>
<path class="st2" d="M337.2,193.6c-14.2,1-25,4.6-32.3,10.7c-7.4,6.1-11,16.5-11,31c0,13,2.2,22.9,6.4,29.7
	c4.3,6.9,12.7,11.1,25.3,12.9l25,3.4v-32l-9.5-1.1c-4.4-0.5-7.4-1.1-9.1-1.7c-1.6-0.6-2.8-1.6-3.3-3.1c-0.5-1.5-0.8-4.1-0.8-7.7
	c0-3.9,0.8-6.6,2.5-8.4c1.6-1.7,4.3-2.9,7.9-3.4c2.8-0.4,6.9-0.7,12.3-0.7v-50.1h-13.5L337.2,193.6L337.2,193.6z"/>
</svg>
