<svg width="512" height="512" viewBox="0 0 512 512" fill="none" xmlns="http://www.w3.org/2000/svg">
<path fill-rule="evenodd" clip-rule="evenodd" d="M64.7031 8C64.7031 3.58173 68.2848 0 72.7031 0H439.297C443.715 0 447.297 3.58173 447.297 8V399.473L338.989 405.099V512H72.7031C68.2848 512 64.7031 508.418 64.7031 504V8ZM274.625 281.859C278.938 286.359 281.094 292.453 281.094 300.141C281.094 307.547 278.703 313.453 273.922 317.859C269.141 322.172 262.625 324.328 254.375 324.328C244.438 324.328 236.797 321.375 231.453 315.469C226.203 309.469 223.578 300.891 223.578 289.734H182.938C182.938 308.953 188.188 324.375 198.688 336C209.281 347.531 224.188 354.328 243.406 356.391V373.055C243.406 379.229 248.412 384.234 254.586 384.234C260.76 384.234 265.766 379.229 265.766 373.055V356.25C283.203 354.469 296.891 348.609 306.828 338.672C316.766 328.734 321.734 315.797 321.734 299.859C321.734 291.328 320.422 283.875 317.797 277.5C315.172 271.031 311.375 265.312 306.406 260.344C301.438 255.281 295.344 250.781 288.125 246.844C280.906 242.812 271.672 238.547 260.422 234.047C249.266 229.547 241.625 225.141 237.5 220.828C233.375 216.516 231.312 210.797 231.312 203.672C231.312 195.984 233.422 189.984 237.641 185.672C241.859 181.266 247.812 179.062 255.5 179.062C263.281 179.062 269.469 181.875 274.062 187.5C278.75 193.031 281.094 201.422 281.094 212.672H321.734C321.734 194.391 317.047 179.531 307.672 168.094C298.297 156.562 285.312 149.625 268.719 147.281V128.016C268.719 121.802 263.682 116.766 257.469 116.766C251.256 116.766 246.219 121.802 246.219 128.016V146.859C229.438 148.547 215.984 154.453 205.859 164.578C195.734 174.703 190.672 187.688 190.672 203.531C190.672 212.719 192.125 220.641 195.031 227.297C198.031 233.953 202.156 239.766 207.406 244.734C212.75 249.609 219.125 253.969 226.531 257.812C233.938 261.562 242.75 265.359 252.969 269.203C263.188 273.047 270.406 277.266 274.625 281.859Z" fill="#FED1A8"/>
<path fill-rule="evenodd" clip-rule="evenodd" d="M72.7031 0C68.2848 0 64.7031 3.58173 64.7031 8V504C64.7031 508.418 68.2848 512 72.7031 512H256V384.146C255.537 384.204 255.065 384.234 254.586 384.234C248.412 384.234 243.406 379.229 243.406 373.055V356.391C224.188 354.328 209.281 347.531 198.688 336C188.188 324.375 182.938 308.953 182.938 289.734H223.578C223.578 300.891 226.203 309.469 231.453 315.469C236.797 321.375 244.438 324.328 254.375 324.328C254.924 324.328 255.466 324.319 256 324.299V270.39C255.021 269.991 254.01 269.595 252.969 269.203C242.75 265.359 233.938 261.562 226.531 257.812C219.125 253.969 212.75 249.609 207.406 244.734C202.156 239.766 198.031 233.953 195.031 227.297C192.125 220.641 190.672 212.719 190.672 203.531C190.672 187.688 195.734 174.703 205.859 164.578C215.984 154.453 229.438 148.547 246.219 146.859V128.016C246.219 122.3 250.481 117.58 256 116.861V0H72.7031ZM256 179.066V232.187C247.222 228.331 241.055 224.545 237.5 220.828C233.375 216.516 231.312 210.797 231.312 203.672C231.312 195.984 233.422 189.984 237.641 185.672C241.859 181.266 247.812 179.062 255.5 179.062C255.667 179.062 255.834 179.064 256 179.066Z" fill="#FF8C29"/>
<path d="M336 405V512L340.215 510.588L445.595 404.65L447 399H342C338.686 399 336 401.686 336 405Z" fill="#FD6A34"/>
</svg>
