<svg width="512" height="513" viewBox="0 0 512 513" fill="none" xmlns="http://www.w3.org/2000/svg">
<path fill-rule="evenodd" clip-rule="evenodd" d="M262.306 2.28313C258.166 1.24807 253.834 1.24807 249.694 2.28313L19.6941 59.7831C8.11972 62.6767 0 73.0763 0 85.0068V486.707C0 501.066 11.6406 512.707 26 512.707H486C500.359 512.707 512 501.066 512 486.707V85.0068C512 73.0763 503.88 62.6767 492.306 59.7831L262.306 2.28313ZM256 128.707C273.673 128.707 288 114.38 288 96.7066C288 79.0335 273.673 64.7066 256 64.7066C238.327 64.7066 224 79.0335 224 96.7066C224 114.38 238.327 128.707 256 128.707ZM143.32 271.707H123V193.379L98.7422 200.902V184.379L141.141 169.191H143.32V271.707ZM114.633 398.519H125.461C130.617 398.519 134.438 397.23 136.922 394.652C139.406 392.074 140.648 388.652 140.648 384.386C140.648 380.261 139.406 377.05 136.922 374.753C134.484 372.457 131.109 371.308 126.797 371.308C122.906 371.308 119.648 372.386 117.023 374.543C114.398 376.652 113.086 379.418 113.086 382.839H92.7656C92.7656 377.496 94.1953 372.714 97.0547 368.496C99.9609 364.23 103.992 360.902 109.148 358.511C114.352 356.121 120.07 354.925 126.305 354.925C137.133 354.925 145.617 357.527 151.758 362.73C157.898 367.886 160.969 375.011 160.969 384.105C160.969 388.793 159.539 393.105 156.68 397.043C153.82 400.98 150.07 404.003 145.43 406.113C151.195 408.175 155.484 411.269 158.297 415.394C161.156 419.519 162.586 424.394 162.586 430.019C162.586 439.113 159.258 446.402 152.602 451.886C145.992 457.371 137.227 460.113 126.305 460.113C116.086 460.113 107.719 457.418 101.203 452.027C94.7344 446.636 91.5 439.511 91.5 430.652H111.82C111.82 434.496 113.25 437.636 116.109 440.074C119.016 442.511 122.578 443.73 126.797 443.73C131.625 443.73 135.398 442.464 138.117 439.933C140.883 437.355 142.266 433.957 142.266 429.738C142.266 419.519 136.641 414.41 125.391 414.41H114.633V398.519ZM350.961 271.707H421.133V255.324H377.117L400.391 230.785C406.766 223.8 411.266 217.683 413.891 212.433C416.516 207.183 417.828 202.027 417.828 196.964C417.828 187.73 414.898 180.582 409.039 175.519C403.227 170.457 395.047 167.925 384.5 167.925C377.609 167.925 371.445 169.402 366.008 172.355C360.57 175.261 356.352 179.293 353.352 184.449C350.398 189.605 348.922 195.3 348.922 201.535H369.312C369.312 196.379 370.625 192.23 373.25 189.089C375.922 185.902 379.555 184.308 384.148 184.308C388.414 184.308 391.695 185.621 393.992 188.246C396.289 190.824 397.438 194.386 397.438 198.933C397.438 202.261 396.336 205.777 394.133 209.48C391.977 213.183 388.625 217.519 384.078 222.488L350.961 257.785V271.707ZM422.68 420.175H411.078V356.332H390.547L347.867 423.761L348.781 436.558H390.758V458.707H411.078V436.558H422.68V420.175ZM390.758 420.175H368.117L389.422 386.355L390.758 384.035V420.175Z" fill="#FFD1A9"/>
<path fill-rule="evenodd" clip-rule="evenodd" d="M0 85.0067C0 73.0762 8.11972 62.6766 19.6941 59.783L256 0.706543V64.7065C238.327 64.7065 224 79.0334 224 96.7065C224 114.38 238.327 128.707 256 128.707V512.707H26C11.6406 512.707 0 501.066 0 486.707V85.0067ZM123 271.707H143.32V169.191H141.141L98.7422 184.378V200.902L123 193.378V271.707ZM125.461 398.519H114.633V414.41H125.391C136.641 414.41 142.266 419.519 142.266 429.738C142.266 433.957 140.883 437.355 138.117 439.933C135.398 442.464 131.625 443.73 126.797 443.73C122.578 443.73 119.016 442.511 116.109 440.074C113.25 437.636 111.82 434.496 111.82 430.652H91.5C91.5 439.511 94.7344 446.636 101.203 452.027C107.719 457.417 116.086 460.113 126.305 460.113C137.227 460.113 145.992 457.371 152.602 451.886C159.258 446.402 162.586 439.113 162.586 430.019C162.586 424.394 161.156 419.519 158.297 415.394C155.484 411.269 151.195 408.175 145.43 406.113C150.07 404.003 153.82 400.98 156.68 397.042C159.539 393.105 160.969 388.792 160.969 384.105C160.969 375.011 157.898 367.886 151.758 362.73C145.617 357.527 137.133 354.925 126.305 354.925C120.07 354.925 114.352 356.121 109.148 358.511C103.992 360.902 99.9609 364.23 97.0547 368.496C94.1953 372.714 92.7656 377.496 92.7656 382.839H113.086C113.086 379.417 114.398 376.652 117.023 374.542C119.648 372.386 122.906 371.308 126.797 371.308C131.109 371.308 134.484 372.457 136.922 374.753C139.406 377.05 140.648 380.261 140.648 384.386C140.648 388.652 139.406 392.074 136.922 394.652C134.438 397.23 130.617 398.519 125.461 398.519Z" fill="#0295AA"/>
<path fill-rule="evenodd" clip-rule="evenodd" d="M512 288H256V513H486C500.359 513 512 501.359 512 487V288ZM411.078 420.469H422.68V436.852H411.078V459H390.758V436.852H348.781L347.867 424.055L390.547 356.625H411.078V420.469ZM368.117 420.469H390.758V384.328L389.422 386.648L368.117 420.469Z" fill="#FF8C29"/>
<path fill-rule="evenodd" clip-rule="evenodd" d="M0 288V487C0 501.359 11.6406 513 26 513H256V288H0ZM114.633 398.812H125.461C130.617 398.812 134.438 397.523 136.922 394.945C139.406 392.367 140.648 388.945 140.648 384.68C140.648 380.555 139.406 377.344 136.922 375.047C134.484 372.75 131.109 371.602 126.797 371.602C122.906 371.602 119.648 372.68 117.023 374.836C114.398 376.945 113.086 379.711 113.086 383.133H92.7656C92.7656 377.789 94.1953 373.008 97.0547 368.789C99.9609 364.523 103.992 361.195 109.148 358.805C114.352 356.414 120.07 355.219 126.305 355.219C137.133 355.219 145.617 357.82 151.758 363.023C157.898 368.18 160.969 375.305 160.969 384.398C160.969 389.086 159.539 393.398 156.68 397.336C153.82 401.273 150.07 404.297 145.43 406.406C151.195 408.469 155.484 411.562 158.297 415.688C161.156 419.812 162.586 424.688 162.586 430.312C162.586 439.406 159.258 446.695 152.602 452.18C145.992 457.664 137.227 460.406 126.305 460.406C116.086 460.406 107.719 457.711 101.203 452.32C94.7344 446.93 91.5 439.805 91.5 430.945H111.82C111.82 434.789 113.25 437.93 116.109 440.367C119.016 442.805 122.578 444.023 126.797 444.023C131.625 444.023 135.398 442.758 138.117 440.227C140.883 437.648 142.266 434.25 142.266 430.031C142.266 419.812 136.641 414.703 125.391 414.703H114.633V398.812Z" fill="#365558"/>
</svg>
