<svg width="512" height="512" viewBox="0 0 512 512" fill="none" xmlns="http://www.w3.org/2000/svg">
<g clip-path="url(#clip0)">
<path fill-rule="evenodd" clip-rule="evenodd" d="M401 427H111C106.029 427 102 431.029 102 436V493C102 497.971 106.029 502 111 502H401C405.971 502 410 497.971 410 493V436C410 431.029 405.971 427 401 427ZM111 417C100.507 417 92 425.507 92 436V493C92 503.493 100.507 512 111 512H401C411.493 512 420 503.493 420 493V436C420 425.507 411.493 417 401 417H111Z" fill="#365558"/>
<circle cx="163.5" cy="464.5" r="11.5" fill="#365558"/>
<circle cx="255.5" cy="464.5" r="11.5" fill="#365558"/>
<circle cx="347.5" cy="464.5" r="11.5" fill="#0295AA"/>
<path d="M256 512H401C411.493 512 420 503.493 420 493V436C420 425.507 411.493 417 401 417H256V427H401C405.971 427 410 431.029 410 436V493C410 497.971 405.971 502 401 502H256V512Z" fill="#0295AA"/>
<path fill-rule="evenodd" clip-rule="evenodd" d="M256 475.979C262.119 475.717 267 470.673 267 464.489C267 458.306 262.119 453.262 256 453V475.979Z" fill="#0295AA"/>
<path d="M309.32 376.027V413L256 361.852L309.32 310.704V347.678L457.495 347.678C471.892 347.678 483.562 336.043 483.562 321.691L483.562 237H512L512 350.04C512 364.392 500.329 376.027 485.932 376.027L309.32 376.027Z" fill="#0295AA"/>
<path d="M293.183 152.937L256 152.937L307.438 206L358.877 152.937L321.693 152.937L321.693 54.242C321.693 39.9147 333.394 28.3001 347.828 28.3001L512 28.3001L512 -7.55055e-07L319.318 -7.55055e-07C304.884 -5.82937e-07 293.183 11.6145 293.183 25.9418L293.183 152.937Z" fill="#4ACFD9"/>
<path d="M202.68 36.9733V0L256 51.1478L202.68 102.296V65.3223L54.5053 65.3223C40.1084 65.3223 28.4375 76.9569 28.4375 91.3089L28.4375 176H1.80801e-05L0 62.9599C0 48.6079 11.6709 36.9733 26.0677 36.9733L202.68 36.9733Z" fill="#F0353D"/>
<path d="M218.817 233.32L256 233.32L204.562 180L153.123 233.32L190.307 233.32L190.307 332.495C190.307 346.892 178.606 358.562 164.172 358.562L-2.00012 358.562L-2.00012 387L192.682 387C207.116 387 218.817 375.329 218.817 360.932L218.817 233.32Z" fill="#FD6A33"/>
</g>
<defs>
<clipPath id="clip0">
<rect width="512" height="512" fill="white" transform="matrix(1 0 0 -1 0 512)"/>
</clipPath>
</defs>
</svg>
