<?xml version="1.0" encoding="utf-8"?>
<!-- Generator: Adobe Illustrator 19.0.0, SVG Export Plug-In . SVG Version: 6.00 Build 0)  -->
<svg version="1.1" id="Layer_1" xmlns="http://www.w3.org/2000/svg" xmlns:xlink="http://www.w3.org/1999/xlink" x="0px" y="0px"
	 viewBox="96 11 512 512" style="enable-background:new 96 11 512 512;" xml:space="preserve">
<style type="text/css">
	.st0{fill:#F0353D;}
	.st1{fill:#FD6A33;}
	.st2{fill:#FF8C29;}
	.st3{fill:#FFD1A9;}
	.st4{fill:#365558;}
	.st5{fill:#0295AA;}
	.st6{fill:#4ACFD9;}
	.st7{fill:#9BAAAB;}
	.st8{fill:#CDD4D5;}
	.st9{fill:#E6EAEA;}
	.st10{fill:#FFFFFF;}
	.st11{fill:#BCD643;}
</style>
<rect x="-646" y="-52.7" class="st0" width="128" height="128"/>
<rect x="-518" y="-52.7" class="st1" width="128" height="128"/>
<rect x="-390" y="-52.7" class="st2" width="128" height="128"/>
<rect x="-262" y="-52.7" class="st3" width="128" height="128"/>
<rect x="-646" y="75.3" class="st4" width="128" height="128"/>
<rect x="-518" y="75.3" class="st5" width="128" height="128"/>
<rect x="-390" y="75.3" class="st6" width="128" height="128"/>
<rect x="-646" y="203.3" class="st7" width="128" height="128"/>
<rect x="-518" y="203.3" class="st8" width="128" height="128"/>
<rect x="-390" y="203.3" class="st9" width="128" height="128"/>
<rect x="-262" y="203.3" class="st10" width="128" height="128"/>
<rect x="-646" y="331.3" class="st11" width="128" height="128"/>
<polygon class="st11" points="175.5,387 204.2,415.8 218.4,401.6 189.7,372.9 "/>
<polygon class="st11" points="233,444.5 247.1,430.4 218.4,401.6 204.2,415.8 "/>
<polygon class="st11" points="203.8,358.8 232.5,387.5 246.6,373.3 217.9,344.6 "/>
<polygon class="st11" points="261.3,416.3 275.4,402.1 246.6,373.3 232.5,387.5 "/>
<path class="st11" d="M260.8,359.2l41.8-41.8l-21.3-21.3c-4.1-4.1-10.7-4.1-14.8,0l-34.4,34.4L260.8,359.2z"/>
<path class="st11" d="M289.5,388l34.4-34.4c4.1-4.1,4.1-10.8,0-14.8l-21.3-21.3l-41.8,41.8L289.5,388z"/>
<polygon class="st11" points="217.9,344.6 246.6,373.3 260.8,359.2 232.1,330.5 "/>
<polygon class="st11" points="275.4,402.1 289.5,388 260.8,359.2 246.6,373.3 "/>
<polygon class="st11" points="189.7,372.9 218.4,401.6 232.5,387.5 203.8,358.8 "/>
<polygon class="st11" points="247.1,430.4 261.3,416.3 232.5,387.5 218.4,401.6 "/>
<polygon class="st11" points="143.7,418.9 172.4,447.6 190.1,429.9 161.4,401.2 "/>
<polygon class="st11" points="201.2,476.4 218.9,458.7 190.1,429.9 172.4,447.6 "/>
<polygon class="st11" points="161.4,401.2 190.1,429.9 204.2,415.8 175.5,387 "/>
<polygon class="st11" points="218.9,458.7 233,444.5 204.2,415.8 190.1,429.9 "/>
<path class="st7" d="M97.1,398.5l-0.1,99c0,6.8,2.6,13.2,7.5,18c0,0,0,0,0,0c0,0,0,0,0,0L139,481c0,0,0,0,0,0c0,0,0,0,0,0
	c-4.8-4.8-7.5-11.2-7.5-18l0.1-56.3l-15.9-15.9c-4.9-4.9-9.5-6.7-13-5.2C99.1,387.1,97.2,391.7,97.1,398.5z"/>
<path class="st8" d="M122.5,523l99.1,0c6.9,0,11.4-2,12.9-5.5c1.5-3.5-0.4-8.2-5.2-13l-15.9-15.9l-56.3,0c-6.8,0-13.1-2.6-18-7.4
	l-34.5,34.5C109.3,520.4,115.7,523,122.5,523z"/>
<path class="st11" d="M131.6,406.7l-0.1,56.3c0,6.8,2.6,13.2,7.5,18c0,0,0,0,0,0c0,0,0,0,0,0l33.4-33.4L131.6,406.7z"/>
<path class="st11" d="M213.3,488.5l-40.8-40.9L139,481c4.8,4.8,11.2,7.5,18,7.4L213.3,488.5z"/>
<polygon class="st11" points="232,89.5 203.2,118.2 217.4,132.4 246.1,103.7 "/>
<polygon class="st11" points="174.5,147 188.6,161.1 217.4,132.4 203.2,118.2 "/>
<polygon class="st11" points="260.2,117.8 231.5,146.5 245.7,160.6 274.4,131.9 "/>
<polygon class="st11" points="202.7,175.3 216.9,189.4 245.7,160.6 231.5,146.5 "/>
<path class="st11" d="M259.8,174.8l41.8,41.8l21.3-21.3c4.1-4.1,4.1-10.7,0-14.8l-34.4-34.4L259.8,174.8z"/>
<path class="st11" d="M231,203.5l34.4,34.4c4.1,4.1,10.8,4.1,14.8,0l21.3-21.3l-41.8-41.8L231,203.5z"/>
<polygon class="st11" points="274.4,131.9 245.7,160.6 259.8,174.8 288.5,146.1 "/>
<polygon class="st11" points="216.9,189.4 231,203.5 259.8,174.8 245.7,160.6 "/>
<polygon class="st11" points="246.1,103.7 217.4,132.4 231.5,146.5 260.2,117.8 "/>
<polygon class="st11" points="188.6,161.1 202.7,175.3 231.5,146.5 217.4,132.4 "/>
<polygon class="st11" points="200.1,57.7 171.4,86.4 189.1,104.1 217.8,75.4 "/>
<polygon class="st11" points="142.6,115.2 160.3,132.9 189.1,104.1 171.4,86.4 "/>
<polygon class="st11" points="217.8,75.4 189.1,104.1 203.2,118.2 232,89.5 "/>
<polygon class="st11" points="160.3,132.9 174.5,147 203.2,118.2 189.1,104.1 "/>
<path class="st7" d="M220.5,11.1l-99-0.1c-6.8,0-13.2,2.6-18,7.5c0,0,0,0,0,0c0,0,0,0,0,0L138,53c0,0,0,0,0,0c0,0,0,0,0,0
	c4.8-4.8,11.2-7.5,18-7.5l56.3,0.1l15.9-15.9c4.9-4.9,6.7-9.5,5.2-13C231.9,13.1,227.3,11.2,220.5,11.1z"/>
<path class="st8" d="M96,36.5l0,99.1c0,6.9,2,11.4,5.5,12.9c3.5,1.5,8.2-0.4,13-5.2l15.9-15.9l0-56.3c0-6.8,2.6-13.1,7.4-18
	l-34.5-34.5C98.6,23.3,96,29.7,96,36.5z"/>
<path class="st11" d="M212.3,45.6L156,45.5c-6.8,0-13.2,2.6-18,7.5c0,0,0,0,0,0c0,0,0,0,0,0l33.4,33.4L212.3,45.6z"/>
<path class="st11" d="M130.5,127.3l40.9-40.8L138,53c-4.8,4.8-7.5,11.2-7.4,18L130.5,127.3z"/>
<polygon class="st11" points="529.5,147 500.8,118.2 486.6,132.4 515.3,161.1 "/>
<polygon class="st11" points="472,89.5 457.9,103.6 486.6,132.4 500.8,118.2 "/>
<polygon class="st11" points="501.2,175.2 472.5,146.5 458.4,160.7 487.1,189.4 "/>
<polygon class="st11" points="443.7,117.7 429.6,131.9 458.4,160.7 472.5,146.5 "/>
<path class="st11" d="M444.2,174.8l-41.8,41.8l21.3,21.3c4.1,4.1,10.7,4.1,14.8,0l34.4-34.4L444.2,174.8z"/>
<path class="st11" d="M415.5,146l-34.4,34.4c-4.1,4.1-4.1,10.8,0,14.8l21.3,21.3l41.8-41.8L415.5,146z"/>
<polygon class="st11" points="487.1,189.4 458.4,160.7 444.2,174.8 472.9,203.5 "/>
<polygon class="st11" points="429.6,131.9 415.5,146 444.2,174.8 458.4,160.7 "/>
<polygon class="st11" points="515.3,161.1 486.6,132.4 472.5,146.5 501.2,175.2 "/>
<polygon class="st11" points="457.9,103.6 443.7,117.7 472.5,146.5 486.6,132.4 "/>
<polygon class="st11" points="561.3,115.1 532.6,86.4 514.9,104.1 543.6,132.8 "/>
<polygon class="st11" points="503.8,57.6 486.1,75.3 514.9,104.1 532.6,86.4 "/>
<polygon class="st11" points="543.6,132.8 514.9,104.1 500.8,118.2 529.5,147 "/>
<polygon class="st11" points="486.1,75.3 472,89.5 500.8,118.2 514.9,104.1 "/>
<path class="st7" d="M607.9,135.5l0.1-99c0-6.8-2.6-13.2-7.5-18c0,0,0,0,0,0c0,0,0,0,0,0L566,53c0,0,0,0,0,0c0,0,0,0,0,0
	c4.8,4.8,7.5,11.2,7.5,18l-0.1,56.3l15.9,15.9c4.9,4.9,9.5,6.7,13,5.2C605.9,146.9,607.8,142.3,607.9,135.5z"/>
<path class="st8" d="M582.5,11l-99.1,0c-6.9,0-11.4,2-12.9,5.5c-1.5,3.5,0.4,8.2,5.2,13l15.9,15.9l56.3,0c6.8,0,13.1,2.6,18,7.4
	l34.5-34.5C595.7,13.6,589.3,11,582.5,11z"/>
<path class="st11" d="M573.4,127.3l0.1-56.3c0-6.8-2.6-13.2-7.5-18c0,0,0,0,0,0c0,0,0,0,0,0l-33.4,33.4L573.4,127.3z"/>
<path class="st11" d="M491.7,45.5l40.8,40.9L566,53c-4.8-4.8-11.2-7.5-18-7.4L491.7,45.5z"/>
<polygon class="st11" points="472,444.5 500.8,415.8 486.6,401.6 457.9,430.3 "/>
<polygon class="st11" points="529.5,387 515.4,372.9 486.6,401.6 500.8,415.8 "/>
<polygon class="st11" points="443.8,416.2 472.5,387.5 458.3,373.4 429.6,402.1 "/>
<polygon class="st11" points="501.3,358.7 487.1,344.6 458.3,373.4 472.5,387.5 "/>
<path class="st11" d="M444.2,359.2l-41.8-41.8l-21.3,21.3c-4.1,4.1-4.1,10.7,0,14.8l34.4,34.4L444.2,359.2z"/>
<path class="st11" d="M473,330.5l-34.4-34.4c-4.1-4.1-10.8-4.1-14.8,0l-21.3,21.3l41.8,41.8L473,330.5z"/>
<polygon class="st11" points="429.6,402.1 458.3,373.4 444.2,359.2 415.5,387.9 "/>
<polygon class="st11" points="487.1,344.6 473,330.5 444.2,359.2 458.3,373.4 "/>
<polygon class="st11" points="457.9,430.3 486.6,401.6 472.5,387.5 443.8,416.2 "/>
<polygon class="st11" points="515.4,372.9 501.3,358.7 472.5,387.5 486.6,401.6 "/>
<polygon class="st11" points="503.9,476.3 532.6,447.6 514.9,429.9 486.2,458.6 "/>
<polygon class="st11" points="561.4,418.8 543.7,401.1 514.9,429.9 532.6,447.6 "/>
<polygon class="st11" points="486.2,458.6 514.9,429.9 500.8,415.8 472,444.5 "/>
<polygon class="st11" points="543.7,401.1 529.5,387 500.8,415.8 514.9,429.9 "/>
<path class="st7" d="M483.5,522.9l99,0.1c6.8,0,13.2-2.6,18-7.5c0,0,0,0,0,0c0,0,0,0,0,0L566,481c0,0,0,0,0,0c0,0,0,0,0,0
	c-4.8,4.8-11.2,7.5-18,7.5l-56.3-0.1l-15.9,15.9c-4.9,4.9-6.7,9.5-5.2,13C472.1,520.9,476.7,522.8,483.5,522.9z"/>
<path class="st8" d="M608,497.5l0-99.1c0-6.9-2-11.4-5.5-12.9c-3.5-1.5-8.2,0.4-13,5.2l-15.9,15.9l0,56.3c0,6.8-2.6,13.1-7.4,18
	l34.5,34.5C605.4,510.7,608,504.3,608,497.5z"/>
<path class="st11" d="M491.7,488.4l56.3,0.1c6.8,0,13.2-2.6,18-7.5c0,0,0,0,0,0c0,0,0,0,0,0l-33.4-33.4L491.7,488.4z"/>
<path class="st11" d="M573.5,406.7l-40.9,40.8L566,481c4.8-4.8,7.5-11.2,7.4-18L573.5,406.7z"/>
</svg>
