<svg width="512" height="512" viewBox="0 0 512 512" fill="none" xmlns="http://www.w3.org/2000/svg">
<rect x="4" y="4" width="18" height="504" fill="#0295AA"/>
<path fill-rule="evenodd" clip-rule="evenodd" d="M48 355.554L119.717 250.336L216.678 316.425L368.77 93.2854L328.19 65.4819L445 12L437.304 140.241L399.51 114.346L226.482 368.202L129.521 302.113L48.0948 421.575H48V355.554Z" fill="#0295AA"/>
<rect x="508" y="490" width="18" height="504" transform="rotate(90 508 490)" fill="#0295AA"/>
<rect x="438" y="162" width="41" height="313" fill="#4ACFD9"/>
<rect x="373" y="191" width="41" height="284" fill="#4ACFD9"/>
<rect x="308" y="290" width="41" height="185" fill="#4ACFD9"/>
<rect x="243" y="376" width="41" height="99" fill="#0295AA"/>
<rect x="256" y="376" width="28" height="99" fill="#4ACFD9"/>
<rect x="178" y="389" width="41" height="86" fill="#0295AA"/>
<rect x="113" y="354" width="41" height="121" fill="#0295AA"/>
<rect x="48" y="428" width="41" height="47" fill="#0295AA"/>
<rect x="48" y="24" width="20" height="20" fill="#0295AA"/>
<rect x="48" y="60" width="20" height="20" fill="#0295AA"/>
<rect x="48" y="96" width="20" height="20" fill="#0295AA"/>
<rect x="73" y="24" width="10" height="20" fill="#0295AA"/>
<rect x="73" y="60" width="10" height="20" fill="#0295AA"/>
<rect x="73" y="96" width="10" height="20" fill="#0295AA"/>
<rect x="85" y="24" width="10" height="20" fill="#0295AA"/>
<rect x="85" y="60" width="10" height="20" fill="#0295AA"/>
<rect x="85" y="96" width="10" height="20" fill="#0295AA"/>
<rect x="97" y="24" width="10" height="20" fill="#0295AA"/>
<rect x="97" y="60" width="10" height="20" fill="#0295AA"/>
<rect x="97" y="96" width="10" height="20" fill="#0295AA"/>
<rect x="109" y="24" width="10" height="20" fill="#0295AA"/>
<rect x="109" y="60" width="10" height="20" fill="#0295AA"/>
<rect x="109" y="96" width="10" height="20" fill="#0295AA"/>
<rect x="121" y="24" width="10" height="20" fill="#0295AA"/>
<rect x="121" y="60" width="10" height="20" fill="#0295AA"/>
<rect x="121" y="96" width="10" height="20" fill="#0295AA"/>
<rect x="133" y="24" width="10" height="20" fill="#4ACFD9"/>
<rect x="133" y="60" width="10" height="20" fill="#0295AA"/>
<rect x="133" y="96" width="10" height="20" fill="#0295AA"/>
<rect x="145" y="24" width="10" height="20" fill="#4ACFD9"/>
<rect x="145" y="60" width="10" height="20" fill="#0295AA"/>
<rect x="145" y="96" width="10" height="20" fill="#0295AA"/>
<rect x="157" y="24" width="10" height="20" fill="#4ACFD9"/>
<rect x="157" y="60" width="10" height="20" fill="#0295AA"/>
<rect x="157" y="96" width="10" height="20" fill="#0295AA"/>
<rect x="169" y="24" width="10" height="20" fill="#4ACFD9"/>
<rect x="169" y="60" width="10" height="20" fill="#0295AA"/>
<rect x="169" y="96" width="10" height="20" fill="#0295AA"/>
<rect x="181" y="24" width="10" height="20" fill="#4ACFD9"/>
<rect x="181" y="60" width="10" height="20" fill="#0295AA"/>
<rect x="181" y="96" width="10" height="20" fill="#0295AA"/>
<rect x="193" y="24" width="10" height="20" fill="#4ACFD9"/>
<rect x="193" y="60" width="10" height="20" fill="#0295AA"/>
<rect x="193" y="96" width="10" height="20" fill="#4ACFD9"/>
<rect x="205" y="24" width="10" height="20" fill="#4ACFD9"/>
<rect x="205" y="60" width="10" height="20" fill="#0295AA"/>
<rect x="205" y="96" width="10" height="20" fill="#4ACFD9"/>
<rect x="217" y="24" width="10" height="20" fill="#4ACFD9"/>
<rect x="217" y="60" width="10" height="20" fill="#0295AA"/>
<rect x="217" y="96" width="10" height="20" fill="#4ACFD9"/>
<rect x="229" y="24" width="10" height="20" fill="#4ACFD9"/>
<rect x="229" y="60" width="10" height="20" fill="#4ACFD9"/>
<rect x="229" y="96" width="10" height="20" fill="#4ACFD9"/>
<rect x="241" y="24" width="10" height="20" fill="#4ACFD9"/>
<rect x="241" y="60" width="10" height="20" fill="#4ACFD9"/>
<rect x="241" y="96" width="10" height="20" fill="#4ACFD9"/>
<rect x="253" y="24" width="10" height="20" fill="#4ACFD9"/>
<rect x="253" y="60" width="10" height="20" fill="#4ACFD9"/>
<rect x="253" y="96" width="10" height="20" fill="#4ACFD9"/>
<rect x="265" y="24" width="10" height="20" fill="#4ACFD9"/>
<rect x="265" y="60" width="10" height="20" fill="#4ACFD9"/>
<rect x="265" y="96" width="10" height="20" fill="#4ACFD9"/>
<rect x="277" y="24" width="10" height="20" fill="#4ACFD9"/>
<rect x="277" y="60" width="10" height="20" fill="#4ACFD9"/>
<rect x="277" y="96" width="10" height="20" fill="#4ACFD9"/>
<rect x="508" y="490" width="18" height="252" transform="rotate(90 508 490)" fill="#4ACFD9"/>
<path fill-rule="evenodd" clip-rule="evenodd" d="M256 324.895L399.51 114.346L437.304 140.241L445 12L328.19 65.4819L368.77 93.2855L256 258.735V324.895Z" fill="#4ACFD9"/>
</svg>
