<svg width="512" height="512" viewBox="0 0 512 512" fill="none" xmlns="http://www.w3.org/2000/svg">
<path d="M168 512H0V17.2778L121.811 196.325L168 165.458V512Z" fill="#FFD1A9"/>
<path d="M168 141.403L127.189 168.675L12.4351 0H36.4316L36.2373 0.132324L132.905 141.947L168 117.702V141.403Z" fill="#FFD1A9"/>
<path d="M172 114.939V138.73L231.184 99.1792L339 257.42V221.74L236.386 70.46L172 114.939Z" fill="#FFD1A9"/>
<path d="M168 93.394L138.095 114.053L60.3511 0H168V93.394Z" fill="#FFD1A9"/>
<path d="M172 90.6309L241.614 42.54L339 186.111V0H172V90.6309Z" fill="#FFD1A9"/>
<path d="M343 192.008V0H512V512H343V389.938L483.447 454.543L473.46 282.271L426.145 314.584L343 192.008Z" fill="#FFD1A9"/>
<path d="M339 388.097L327.213 382.675L339 374.682V292.94L225.816 126.821L172 162.785V512H339V388.097Z" fill="#FFD1A9"/>
<path d="M343 298.811V371.969L377.093 348.849L343 298.811Z" fill="#FFD1A9"/>
<path d="M343 263.291V227.637L420.855 342.416L455.54 318.729L461.553 422.457L367.787 379.325L404.907 354.151L343 263.291Z" fill="#FFD1A9"/>
<path d="M168 512H0V17.2778L121.811 196.325L168 165.458V512Z" fill="#FF8C29"/>
<path d="M168 141.403L127.189 168.675L12.4351 0H36.4316L36.2373 0.132324L132.905 141.947L168 117.702V141.403Z" fill="#FF8C29"/>
<path d="M172 114.939V138.73L231.184 99.1792L339 257.42V221.74L236.386 70.46L172 114.939Z" fill="#FF8C29"/>
<path d="M168 93.394L138.095 114.053L60.3511 0H168V93.394Z" fill="#FF8C29"/>
<path d="M172 90.6309L241.614 42.54L339 186.111V0H172V90.6309Z" fill="#FF8C29"/>
<path d="M339 388.097L327.213 382.675L339 374.682V292.94L225.816 126.821L172 162.785V512H339V388.097Z" fill="#FF8C29"/>
<path d="M168 512H0V17.2778L121.811 196.325L168 165.458V512Z" fill="#FD6A33"/>
<path d="M168 141.403L127.189 168.675L12.4351 0H36.4316L36.2373 0.132324L132.905 141.947L168 117.702V141.403Z" fill="#FD6A33"/>
<path d="M168 93.394L138.095 114.053L60.3511 0H168V93.394Z" fill="#FD6A33"/>
<path fill-rule="evenodd" clip-rule="evenodd" d="M464.407 300.834L472.636 437.963L347.729 380.775L391.122 351.044L228.489 112.439L124.807 183.109L0 0.000274658H48.2204L135.29 127.743L238.972 57.0732L423.993 328.523L464.407 300.834Z" fill="#F0353D"/>
</svg>
