<?xml version="1.0" encoding="utf-8"?>
<!-- Generator: Adobe Illustrator 19.0.0, SVG Export Plug-In . SVG Version: 6.00 Build 0)  -->
<svg version="1.1" id="Layer_1" xmlns="http://www.w3.org/2000/svg" xmlns:xlink="http://www.w3.org/1999/xlink" x="0px" y="0px"
	 viewBox="96 11 512 512" style="enable-background:new 96 11 512 512;" xml:space="preserve">
<style type="text/css">
	.st0{fill:#0295AA;}
	.st1{fill:#365558;}
	.st2{fill:#FF8C29;}
	.st3{fill:#FFD1A9;}
	.st4{fill:#FD6A33;}
	.st5{fill:#F0353D;}
	.st6{fill:#4ACFD9;}
	.st7{fill:#9BAAAB;}
	.st8{fill:#CDD4D5;}
	.st9{fill:#E6EAEA;}
	.st10{fill:#FFFFFF;}
	.st11{fill:#BCD643;}
</style>
<path class="st0" d="M352,206.6v120.8c33.3,0,60.4-27.1,60.4-60.4S385.3,206.6,352,206.6z"/>
<path class="st1" d="M291.6,267c0,33.3,27.1,60.4,60.4,60.4V206.6C318.7,206.6,291.6,233.7,291.6,267z"/>
<path class="st2" d="M352,108.5v50c59.9,0,108.5,48.6,108.5,108.5S411.9,375.5,352,375.5v50c87.4,0,158.5-71.1,158.5-158.5
	S439.4,108.5,352,108.5z"/>
<path class="st3" d="M369,126.5c-11.6-1.1-11.4,14.2,0,16.1c61.2,8.3,108.5,60.9,108.5,124.4c0,11.3,16,12.8,16,0
	C493.5,194.7,439,134.9,369,126.5z"/>
<path class="st4" d="M243.5,267c0-59.9,48.6-108.5,108.5-108.5v-50c-87.4,0-158.5,71.1-158.5,158.5S264.6,425.5,352,425.5v-50
	C292.1,375.5,243.5,326.9,243.5,267z"/>
<rect x="-460" y="11" class="st5" width="128" height="128"/>
<rect x="-332" y="11" class="st4" width="128" height="128"/>
<rect x="-204" y="11" class="st2" width="128" height="128"/>
<rect x="-76" y="11" class="st3" width="128" height="128"/>
<rect x="-460" y="139" class="st1" width="128" height="128"/>
<rect x="-332" y="139" class="st0" width="128" height="128"/>
<rect x="-204" y="139" class="st6" width="128" height="128"/>
<rect x="-460" y="267" class="st7" width="128" height="128"/>
<rect x="-332" y="267" class="st8" width="128" height="128"/>
<rect x="-204" y="267" class="st9" width="128" height="128"/>
<rect x="-76" y="267" class="st10" width="128" height="128"/>
<rect x="-460" y="395" class="st11" width="128" height="128"/>
<path class="st6" d="M352.1,58.8H352V108h0.1c10.2,0,18.6-5.4,18.6-12V70.8C370.7,64.2,362.3,58.8,352.1,58.8z"/>
<path class="st0" d="M351.9,58.8c-10.2,0-18.6,5.4-18.6,12V96c0,6.6,8.4,12,18.6,12h0.1V58.8H351.9z"/>
<path class="st0" d="M353,10.5h-1v64h1c18.3,0,33.3-9.7,33.3-21.5V32C386.2,20.2,371.3,10.5,353,10.5z"/>
<path class="st1" d="M351,10.5c-18.3,0-33.3,9.7-33.3,21.5v21c0,11.8,15,21.5,33.3,21.5h1v-64H351z"/>
<path class="st3" d="M352.1,158.5L352.1,158.5l-0.1,48.1h0.1c6.1,0,11.1-5.3,11.1-11.7v-24.7C363.1,163.8,358.2,158.5,352.1,158.5z"
	/>
<path class="st2" d="M351.9,158.5c-6.1,0-11.1,5.3-11.1,11.7v24.7c0,6.4,5,11.7,11.1,11.7h0.1L351.9,158.5L351.9,158.5z"/>
<path class="st6" d="M499.3,119.8L499.3,119.8l-34.9,34.8l0.1,0.1c4.7,4.7,12.3,4.7,17,0l17.9-17.9C504,132.1,504,124.5,499.3,119.8
	z"/>
<path class="st0" d="M499.2,119.7c-4.7-4.7-12.3-4.7-17,0l-17.9,17.9c-4.7,4.7-4.7,12.3,0,17l0.1,0.1L499.2,119.7L499.2,119.7z"/>
<path class="st6" d="M533.8,86.1l-0.4-0.4l-45.3,45.3l0.4,0.4c8.4,8.4,22,8.4,30.4,0l14.8-14.8C542.2,108.1,542.2,94.4,533.8,86.1z"
	/>
<path class="st0" d="M532.9,85.2c-8.4-8.4-22-8.4-30.4,0L487.7,100c-8.4,8.4-8.4,22,0,30.4l0.4,0.4l45.3-45.3L532.9,85.2z"/>
<path class="st6" d="M204.7,414.2L204.7,414.2l34.9-34.8l-0.1-0.1c-4.7-4.7-12.3-4.7-17,0l-17.9,17.9
	C200,401.9,200,409.5,204.7,414.2z"/>
<path class="st0" d="M204.8,414.3c4.7,4.7,12.3,4.7,17,0l17.9-17.9c4.7-4.7,4.7-12.3,0-17l-0.1-0.1L204.8,414.3L204.8,414.3z"/>
<path class="st6" d="M170.2,447.9l0.4,0.4l45.3-45.3l-0.4-0.4c-8.4-8.4-22-8.4-30.4,0l-14.8,14.8
	C161.8,425.9,161.8,439.6,170.2,447.9z"/>
<path class="st0" d="M171.1,448.8c8.4,8.4,22,8.4,30.4,0l14.8-14.8c8.4-8.4,8.4-22,0-30.4l-0.4-0.4l-45.3,45.3L171.1,448.8z"/>
<path class="st6" d="M499.2,414.3L499.2,414.3l-34.8-34.9l-0.1,0.1c-4.7,4.7-4.7,12.3,0,17l17.9,17.9
	C486.9,419,494.5,419,499.2,414.3z"/>
<path class="st0" d="M499.3,414.2c4.7-4.7,4.7-12.3,0-17l-17.9-17.9c-4.7-4.7-12.3-4.7-17,0l-0.1,0.1L499.3,414.2L499.3,414.2z"/>
<path class="st6" d="M532.9,448.8l0.4-0.4l-45.3-45.3l-0.4,0.4c-8.4,8.4-8.4,22,0,30.4l14.8,14.8
	C510.9,457.2,524.6,457.2,532.9,448.8z"/>
<path class="st0" d="M533.8,447.9c8.4-8.4,8.4-22,0-30.4L519,402.7c-8.4-8.4-22-8.4-30.4,0l-0.4,0.4l45.3,45.3L533.8,447.9z"/>
<path class="st6" d="M204.8,119.7L204.8,119.7l34.8,34.9l0.1-0.1c4.7-4.7,4.7-12.3,0-17l-17.9-17.9C217.1,115,209.5,115,204.8,119.7
	z"/>
<path class="st0" d="M204.7,119.8c-4.7,4.7-4.7,12.3,0,17l17.9,17.9c4.7,4.7,12.3,4.7,17,0l0.1-0.1L204.7,119.8L204.7,119.8z"/>
<path class="st6" d="M171.1,85.2l-0.4,0.4l45.3,45.3l0.4-0.4c8.4-8.4,8.4-22,0-30.4l-14.8-14.8C193.1,76.8,179.4,76.8,171.1,85.2z"
	/>
<path class="st0" d="M170.2,86.1c-8.4,8.4-8.4,22,0,30.4l14.8,14.8c8.4,8.4,22,8.4,30.4,0l0.4-0.4l-45.3-45.3L170.2,86.1z"/>
<path class="st6" d="M351.9,474.8h0.1v-49.3h-0.1c-10.2,0-18.6,5.4-18.6,12v25.3C333.3,469.3,341.7,474.8,351.9,474.8z"/>
<path class="st0" d="M352.1,474.8c10.2,0,18.6-5.4,18.6-12v-25.3c0-6.6-8.4-12-18.6-12H352v49.3H352.1z"/>
<path class="st0" d="M351,523h1v-64h-1c-18.3,0-33.3,9.7-33.3,21.5v21C317.8,513.3,332.7,523,351,523z"/>
<path class="st1" d="M353,523c18.3,0,33.3-9.7,33.3-21.5v-21c0-11.8-15-21.5-33.3-21.5h-1v64H353z"/>
<path class="st6" d="M560,267.1V267h-49.3v0.1c0,10.2,5.4,18.6,12,18.6H548C554.6,285.7,560,277.3,560,267.1z"/>
<path class="st0" d="M560,266.9c0-10.2-5.4-18.6-12-18.6h-25.3c-6.6,0-12,8.4-12,18.6v0.1H560V266.9z"/>
<path class="st0" d="M608.3,268v-1h-64v1c0,18.3,9.7,33.3,21.5,33.3h21C598.6,301.2,608.3,286.3,608.3,268z"/>
<path class="st1" d="M608.3,266c0-18.3-9.7-33.3-21.5-33.3h-21c-11.8,0-21.5,15-21.5,33.3v1h64V266z"/>
<path class="st6" d="M144,266.9v0.1h49.3v-0.1c0-10.2-5.4-18.6-12-18.6H156C149.4,248.3,144,256.7,144,266.9z"/>
<path class="st0" d="M144,267.1c0,10.2,5.4,18.6,12,18.6h25.3c6.6,0,12-8.4,12-18.6V267H144V267.1z"/>
<path class="st0" d="M95.8,266v1h64v-1c0-18.3-9.7-33.3-21.5-33.3h-21C105.4,232.8,95.8,247.7,95.8,266z"/>
<path class="st1" d="M95.8,268c0,18.3,9.7,33.3,21.5,33.3h21c11.8,0,21.5-15,21.5-33.3v-1h-64V268z"/>
<path class="st3" d="M351.9,375.5L351.9,375.5l0.1-48.1h-0.1c-6.1,0-11.1,5.3-11.1,11.7v24.7C340.9,370.2,345.8,375.5,351.9,375.5z"
	/>
<path class="st2" d="M352.1,375.5c6.1,0,11.1-5.3,11.1-11.7v-24.7c0-6.4-5-11.7-11.1-11.7H352L352.1,375.5L352.1,375.5z"/>
<path class="st3" d="M460.5,267.1L460.5,267.1l-48.1-0.1v0.1c0,6.1,5.3,11.1,11.7,11.1h24.7C455.2,278.1,460.5,273.2,460.5,267.1z"
	/>
<path class="st2" d="M460.5,266.9c0-6.1-5.3-11.1-11.7-11.1h-24.7c-6.4,0-11.7,5-11.7,11.1v0.1L460.5,266.9L460.5,266.9z"/>
<path class="st3" d="M243.5,266.9L243.5,266.9l48.1,0.1v-0.1c0-6.1-5.3-11.1-11.7-11.1h-24.7C248.8,255.9,243.5,260.8,243.5,266.9z"
	/>
<path class="st2" d="M243.5,267.1c0,6.1,5.3,11.1,11.7,11.1h24.7c6.4,0,11.7-5,11.7-11.1V267L243.5,267.1L243.5,267.1z"/>
<path class="st3" d="M428.8,191L428.8,191l-34.1,34l0.1,0.1c4.3,4.3,11.6,4.1,16.1-0.5l17.4-17.4C432.9,202.6,433.1,195.4,428.8,191
	z"/>
<path class="st2" d="M428.7,190.9c-4.3-4.3-11.6-4.1-16.1,0.5l-17.4,17.4c-4.6,4.6-4.8,11.8-0.5,16.1l0.1,0.1L428.7,190.9
	L428.7,190.9z"/>
<path class="st3" d="M275.2,344.4L275.2,344.4l34.1-34l-0.1-0.1c-4.3-4.3-11.6-4.1-16.1,0.5l-17.4,17.4
	C271.1,332.8,270.9,340.1,275.2,344.4z"/>
<path class="st2" d="M275.3,344.5c4.3,4.3,11.6,4.1,16.1-0.5l17.4-17.4c4.6-4.6,4.8-11.8,0.5-16.1l-0.1-0.1L275.3,344.5L275.3,344.5
	z"/>
<path class="st3" d="M428.7,344.5L428.7,344.5l-34-34.1l-0.1,0.1c-4.3,4.3-4.1,11.6,0.5,16.1l17.4,17.4
	C417.1,348.6,424.4,348.8,428.7,344.5z"/>
<path class="st2" d="M428.8,344.4c4.3-4.3,4.1-11.6-0.5-16.1l-17.4-17.4c-4.6-4.6-11.8-4.8-16.1-0.5l-0.1,0.1L428.8,344.4
	L428.8,344.4z"/>
<path class="st3" d="M275.3,190.9L275.3,190.9l34,34.1l0.1-0.1c4.3-4.3,4.1-11.6-0.5-16.1l-17.4-17.4
	C286.9,186.8,279.6,186.6,275.3,190.9z"/>
<path class="st2" d="M275.2,191c-4.3,4.3-4.1,11.6,0.5,16.1l17.4,17.4c4.6,4.6,11.8,4.8,16.1,0.5l0.1-0.1L275.2,191L275.2,191z"/>
<path class="st2" d="M333.2,404.7c11.6,1.1,11.4-14.2,0-16.1c-61.2-8.3-108.5-60.9-108.5-124.4c0-11.3-16-12.7-16,0
	C208.7,336.5,263.2,396.3,333.2,404.7z"/>
<path class="st6" d="M352,226.3v81.3c22.4,0,40.7-18.2,40.7-40.7S374.4,226.3,352,226.3z"/>
<path class="st0" d="M311.3,267c0,22.4,18.2,40.7,40.7,40.7v-81.3C329.6,226.3,311.3,244.6,311.3,267z"/>
</svg>
