<svg width="512" height="512" viewBox="0 0 512 512" fill="none" xmlns="http://www.w3.org/2000/svg">
<path d="M168 0H0V494.722L121.811 315.675L168 346.542V0Z" fill="#4ACFD9"/>
<path d="M168 370.597L127.189 343.325L12.4351 512H36.4316L36.2373 511.868L132.905 370.053L168 394.298V370.597Z" fill="#4ACFD9"/>
<path d="M172 397.061V373.27L231.184 412.821L339 254.58V290.26L236.386 441.54L172 397.061Z" fill="#4ACFD9"/>
<path d="M168 418.606L138.095 397.947L60.3511 512H168V418.606Z" fill="#4ACFD9"/>
<path d="M172 421.369L241.614 469.46L339 325.889V512H172V421.369Z" fill="#4ACFD9"/>
<path d="M343 319.992V512H512V0H343V122.062L483.447 57.457L473.46 229.729L426.145 197.416L343 319.992Z" fill="#4ACFD9"/>
<path d="M339 123.903L327.213 129.325L339 137.318V219.06L225.816 385.179L172 349.215V0H339V123.903Z" fill="#4ACFD9"/>
<path d="M343 213.189V140.031L377.093 163.151L343 213.189Z" fill="#4ACFD9"/>
<path d="M343 248.709V284.363L420.855 169.584L455.54 193.271L461.553 89.543L367.787 132.675L404.907 157.849L343 248.709Z" fill="#4ACFD9"/>
<path d="M168 0H0V494.722L121.811 315.675L168 346.542V0Z" fill="#0295AA"/>
<path d="M168 370.597L127.189 343.325L12.4351 512H36.4316L36.2373 511.868L132.905 370.053L168 394.298V370.597Z" fill="#0295AA"/>
<path d="M172 397.061V373.27L231.184 412.821L339 254.58V290.26L236.386 441.54L172 397.061Z" fill="#0295AA"/>
<path d="M168 418.606L138.095 397.947L60.3511 512H168V418.606Z" fill="#0295AA"/>
<path d="M172 421.369L241.614 469.46L339 325.889V512H172V421.369Z" fill="#0295AA"/>
<path d="M339 123.903L327.213 129.325L339 137.318V219.06L225.816 385.179L172 349.215V0H339V123.903Z" fill="#0295AA"/>
<path d="M168 0H0V494.722L121.811 315.675L168 346.542V0Z" fill="#365558"/>
<path d="M168 370.597L127.189 343.325L12.4351 512H36.4316L36.2373 511.868L132.905 370.053L168 394.298V370.597Z" fill="#365558"/>
<path d="M168 418.606L138.095 397.947L60.3511 512H168V418.606Z" fill="#365558"/>
<path fill-rule="evenodd" clip-rule="evenodd" d="M464.407 211.166L472.636 74.0366L347.729 131.225L391.122 160.956L228.489 399.561L124.807 328.891L0 512H48.2204L135.29 384.257L238.972 454.927L423.993 183.477L464.407 211.166Z" fill="#BCD643"/>
</svg>
