<?xml version="1.0" encoding="utf-8"?>
<!-- Generator: Adobe Illustrator 19.0.0, SVG Export Plug-In . SVG Version: 6.00 Build 0)  -->
<svg version="1.1" id="Layer_1" xmlns="http://www.w3.org/2000/svg" xmlns:xlink="http://www.w3.org/1999/xlink" x="0px" y="0px"
	 viewBox="96 11 512 512" style="enable-background:new 96 11 512 512;" xml:space="preserve">
<style type="text/css">
	.st0{display:none;}
	.st1{fill:#FF8C29;}
	.st2{fill:#FFD1A9;}
	.st3{fill:#FD6A33;}
	.st4{fill:#F0353D;}
</style>
<polygon class="st0" points="1068.7,-596 810,-596 810,-84 1322,-84 1322,-247.9 1068.7,-247.9 "/>
<rect x="1068.7" y="-596" class="st0" width="253.3" height="348.1"/>
<g class="st0">
	
		<text transform="matrix(1 0 0 1 846.4224 -465.0488)" style="display:inline;fill:#CDD4D5; font-family:'Saira-Black'; font-size:64.1866px;">E = mc</text>
	
		<text transform="matrix(1 0 0 1 1039.1074 -486.4227)" style="display:inline;fill:#CDD4D5; font-family:'Saira-Black'; font-size:37.4208px;">2</text>
</g>
<path class="st1" d="M220.4,11h-99.1c-6.8,0-13.1,2.7-18,7.3c-4.6,4.9-7.3,11.2-7.3,18v99.1c0,5.8,1.4,10,4,12
	C127.6,89.5,174.5,42.6,232.4,15C230.4,12.4,226.2,11,220.4,11z"/>
<path class="st2" d="M228.1,29.5c4.8-4.8,6.7-9.4,5.2-13c-0.2-0.5-0.5-1-0.9-1.5C174.5,42.6,127.6,89.5,100,147.4
	c0.5,0.4,1,0.7,1.5,0.9c3.6,1.5,8.2-0.4,13-5.2l15.9-15.9l40.8-41l41-40.8L228.1,29.5z"/>
<path class="st2" d="M228.7,86.1l-10.9-10.9l-0.1,0l-17.7-17.7l-28.8,28.8L189,104l0,0.1l-0.1,0l-17.7-17.7l-28.8,28.8l17.7,17.7
	l0,0.1l10.9,10.9C186.6,121.1,206.1,101.6,228.7,86.1z"/>
<path class="st3" d="M228.7,86.1c-22.6,15.4-42.2,35-57.6,57.6l43.4,43.4c13.9-23.8,33.8-43.7,57.6-57.6L228.7,86.1z"/>
<path class="st2" d="M317,174.4l-44.8-44.8c-23.8,13.9-43.7,33.8-57.6,57.6l44.8,44.8C269.4,205.5,290.5,184.4,317,174.4z"/>
<path class="st4" d="M280.1,237.9l21.4-21.4c0,0,21.4-21.4,21.4-21.4c4.1-4,4.1-10.7,0-14.8l-5.9-5.9c-26.5,10-47.6,31.1-57.6,57.6
	l5.9,5.9C269.4,242,276.1,242,280.1,237.9z"/>
<path class="st1" d="M608,135.4V36.3c0-6.8-2.7-13.1-7.3-18c-4.9-4.6-11.2-7.3-18-7.3h-99.1c-5.8,0-10,1.4-12,4
	C529.5,42.6,576.4,89.5,604,147.4C606.6,145.4,608,141.2,608,135.4z"/>
<path class="st2" d="M589.5,143.1c4.8,4.8,9.4,6.7,13,5.2c0.5-0.2,1-0.5,1.5-0.9C576.4,89.5,529.5,42.6,471.6,15
	c-0.4,0.5-0.7,1-0.9,1.5c-1.5,3.6,0.4,8.2,5.2,13l15.9,15.9l41,40.8l40.8,41L589.5,143.1z"/>
<path class="st2" d="M532.9,143.7l10.9-10.9l0-0.1l17.7-17.7l-28.8-28.8L515,104l-0.1,0l0-0.1l17.7-17.7l-28.8-28.8l-17.7,17.7
	l-0.1,0l-10.9,10.9C497.9,101.6,517.4,121.1,532.9,143.7z"/>
<path class="st3" d="M532.9,143.7c-15.4-22.6-35-42.2-57.6-57.6l-43.4,43.4c23.8,13.9,43.7,33.8,57.6,57.6L532.9,143.7z"/>
<path class="st2" d="M444.6,232l44.8-44.8c-13.9-23.8-33.8-43.7-57.6-57.6L387,174.4C413.5,184.4,434.6,205.5,444.6,232z"/>
<path class="st4" d="M381.1,195.1l21.4,21.4c0,0,21.4,21.4,21.4,21.4c4,4.1,10.7,4.1,14.8,0l5.9-5.9c-10-26.5-31.1-47.6-57.6-57.6
	l-5.9,5.9C377,184.4,377,191.1,381.1,195.1z"/>
<path class="st1" d="M483.6,523h99.1c6.8,0,13.1-2.7,18-7.3c4.6-4.9,7.3-11.2,7.3-18v-99.1c0-5.8-1.4-10-4-12
	c-27.6,57.9-74.5,104.8-132.4,132.4C473.6,521.6,477.8,523,483.6,523z"/>
<path class="st2" d="M475.9,504.5c-4.8,4.8-6.7,9.4-5.2,13c0.2,0.5,0.5,1,0.9,1.5c57.9-27.6,104.8-74.5,132.4-132.4
	c-0.5-0.4-1-0.7-1.5-0.9c-3.6-1.5-8.2,0.4-13,5.2l-15.9,15.9l-40.8,41l-41,40.8L475.9,504.5z"/>
<path class="st2" d="M475.3,447.9l10.9,10.9l0.1,0l17.7,17.7l28.8-28.8L515,430l0-0.1l0.1,0l17.7,17.7l28.8-28.8l-17.7-17.7l0-0.1
	l-10.9-10.9C517.4,412.9,497.9,432.4,475.3,447.9z"/>
<path class="st3" d="M475.3,447.9c22.6-15.4,42.2-35,57.6-57.6l-43.4-43.4c-13.9,23.8-33.8,43.7-57.6,57.6L475.3,447.9z"/>
<path class="st2" d="M387,359.6l44.8,44.8c23.8-13.9,43.7-33.8,57.6-57.6L444.6,302C434.6,328.5,413.5,349.6,387,359.6z"/>
<path class="st4" d="M423.9,296.1l-21.4,21.4c0,0-21.4,21.4-21.4,21.4c-4.1,4-4.1,10.7,0,14.8l5.9,5.9c26.5-10,47.6-31.1,57.6-57.6
	l-5.9-5.9C434.6,292,427.9,292,423.9,296.1z"/>
<path class="st1" d="M96,398.6v99.1c0,6.8,2.7,13.1,7.3,18c4.9,4.6,11.2,7.3,18,7.3h99.1c5.8,0,10-1.4,12-4
	c-57.9-27.6-104.8-74.5-132.4-132.4C97.4,388.6,96,392.8,96,398.6z"/>
<path class="st2" d="M114.5,390.9c-4.8-4.8-9.4-6.7-13-5.2c-0.5,0.2-1,0.5-1.5,0.9c27.6,57.9,74.5,104.8,132.4,132.4
	c0.4-0.5,0.7-1,0.9-1.5c1.5-3.6-0.4-8.2-5.2-13l-15.9-15.9l-41-40.8l-40.8-41L114.5,390.9z"/>
<path class="st2" d="M171.1,390.3l-10.9,10.9l0,0.1l-17.7,17.7l28.8,28.8L189,430l0.1,0l0,0.1l-17.7,17.7l28.8,28.8l17.7-17.7l0.1,0
	l10.9-10.9C206.1,432.4,186.6,412.9,171.1,390.3z"/>
<path class="st3" d="M171.1,390.3c15.4,22.6,35,42.2,57.6,57.6l43.4-43.4c-23.8-13.9-43.7-33.8-57.6-57.6L171.1,390.3z"/>
<path class="st2" d="M259.4,302l-44.8,44.8c13.9,23.8,33.8,43.7,57.6,57.6l44.8-44.8C290.5,349.6,269.4,328.5,259.4,302z"/>
<path class="st4" d="M322.9,338.9l-21.4-21.4c0,0-21.4-21.4-21.4-21.4c-4-4.1-10.7-4.1-14.8,0l-5.9,5.9c10,26.5,31.1,47.6,57.6,57.6
	l5.9-5.9C327,349.6,327,342.9,322.9,338.9z"/>
</svg>
