<?xml version="1.0" encoding="utf-8"?>
<!-- Generator: Adobe Illustrator 19.0.0, SVG Export Plug-In . SVG Version: 6.00 Build 0)  -->
<svg version="1.1" id="Layer_1" xmlns="http://www.w3.org/2000/svg" xmlns:xlink="http://www.w3.org/1999/xlink" x="0px" y="0px"
	 viewBox="96 11 512 512" style="enable-background:new 96 11 512 512;" xml:space="preserve">
<style type="text/css">
	.st0{fill:#FF8C29;}
	.st1{fill:#FFD1A9;}
	.st2{fill:#FD6A33;}
	.st3{fill:#687F82;}
	.st4{fill:#CDD4D5;}
	.st5{fill:#9BAAAB;}
	.st6{fill:#FFFFFF;}
	.st7{display:none;fill:#4ACFD9;}
	.st8{display:none;fill:#0295AA;}
	.st9{display:none;fill:#FD6A33;}
	.st10{fill:#F0353D;}
	.st11{fill:#365558;}
	.st12{fill:#0295AA;}
	.st13{fill:#4ACFD9;}
	.st14{display:none;fill:#687F82;}
	.st15{display:none;fill:#FFFFFF;}
</style>
<polygon class="st0" points="516.4,141.5 516.4,150.7 525.6,141.5 "/>
<polygon class="st0" points="465.9,141.5 465.9,164.4 467.9,166.3 491.5,166.3 491.5,141.5 "/>
<polygon class="st0" points="500.8,166.3 491.5,166.3 491.5,175.6 "/>
<polygon class="st0" points="516.4,102.5 516.4,115.9 529.8,115.9 "/>
<polygon class="st0" points="491.5,91 475.7,91 465.9,100.8 465.9,115.9 491.5,115.9 "/>
<polygon class="st0" points="450.8,115.9 441.1,125.6 441.1,139.6 443,141.5 465.9,141.5 465.9,115.9 "/>
<rect x="491.5" y="115.9" class="st0" width="24.9" height="25.6"/>
<path class="st0" d="M505,91l-9-9c-1.2-1.2-2.7-1.9-4.4-2.2V91H505z"/>
<polygon class="st1" points="516.4,102.5 516.4,115.9 529.8,115.9 "/>
<polygon class="st1" points="479.3,91 491.5,103.3 491.5,91 "/>
<polygon class="st1" points="504.1,115.9 516.4,128.2 516.4,115.9 "/>
<path class="st1" d="M505,91l-9-9c-1.2-1.2-2.7-1.9-4.4-2.2V91H505z"/>
<polygon class="st2" points="239.3,101.5 228.9,91 213.7,91 213.7,115.9 239.3,115.9 "/>
<polygon class="st2" points="188.8,115.9 188.8,101.8 174.7,115.9 "/>
<polygon class="st2" points="239.3,163.7 239.3,141.5 213.7,141.5 213.7,166.3 236.7,166.3 "/>
<polygon class="st2" points="178.9,141.5 188.8,151.4 188.8,141.5 "/>
<polygon class="st2" points="203.8,166.3 213.7,176.3 213.7,166.3 "/>
<rect x="188.8" y="115.9" class="st2" width="24.8" height="25.6"/>
<polygon class="st2" points="253.7,115.9 239.3,115.9 239.3,141.5 261.5,141.5 264.1,138.9 264.1,126.3 "/>
<path class="st2" d="M208.6,82l-9,9h14.1V79.7C211.8,79.8,210,80.6,208.6,82z"/>
<polygon class="st1" points="213.7,91 213.7,102.6 225.3,91 "/>
<polygon class="st1" points="174.8,115.9 188.8,115.9 188.8,101.9 "/>
<polygon class="st1" points="200.4,115.9 188.8,115.9 188.8,127.5 "/>
<path class="st1" d="M208.7,82l-9,9h14V79.7C211.9,79.8,210.1,80.6,208.7,82z"/>
<path class="st3" d="M377,48.6c-0.1-4.4-3.6-7.9-8-7.9h-4v24.8h12V48.6z"/>
<path class="st3" d="M335.1,40.7c-4.4,0-8,3.6-8,7.9v16.9h13.1V40.7H335.1z"/>
<rect x="340.2" y="65.5" class="st3" width="24.9" height="25.6"/>
<rect x="365" y="40.6" class="st4" width="25.6" height="20.1"/>
<rect x="314.6" y="40.6" class="st4" width="25.6" height="20.1"/>
<path class="st4" d="M309.6,11c-4.4,0-7.9,3.6-7.9,7.9v21.7h12.9V11H309.6z"/>
<path class="st4" d="M402.4,18.9c0-4.3-3.6-7.9-8-7.9h-3.8v29.6h11.8V18.9z"/>
<rect x="340.2" y="11" class="st4" width="24.9" height="29.6"/>
<rect x="314.6" y="40.6" class="st5" width="25.6" height="20.1"/>
<path class="st5" d="M309.6,11c-4.4,0-7.9,3.6-7.9,7.9v21.7h12.9V11H309.6z"/>
<rect x="340.2" y="11" class="st5" width="11.8" height="29.6"/>
<path class="st6" d="M390.6,40.6v10.2c2-1.4,3.3-3.7,3.3-6.4v-3.8H390.6z"/>
<path class="st6" d="M377.9,40.6v3.8c0,4.3,3.6,7.9,8,7.9c1.8,0,3.4-0.6,4.7-1.5V40.6H377.9z"/>
<path class="st6" d="M393.9,27.4c0-2.6-1.3-4.9-3.3-6.3v19.5h3.3V27.4z"/>
<path class="st4" d="M441.1,110.9c-8.3-3.8-16.8-7-25.6-9.7v14.8h25.6V110.9z"/>
<path class="st4" d="M390.6,95.1c-8.4-1.5-16.9-2.6-25.6-3.1v23.9h25.6V95.1z"/>
<path class="st4" d="M340.2,91.9c-8.7,0.5-17.2,1.5-25.6,3v21h25.6V91.9z"/>
<path class="st4" d="M289.7,100.8c-8.8,2.7-17.3,5.8-25.6,9.5v5.6h25.6V100.8z"/>
<path class="st4" d="M491.5,142.9c-0.6-0.5-1.1-1-1.7-1.4h-23.9v24.8h25.6V142.9z"/>
<rect x="415.5" y="141.5" class="st4" width="25.6" height="24.8"/>
<rect x="365" y="141.5" class="st4" width="25.6" height="24.8"/>
<rect x="314.6" y="141.5" class="st4" width="25.6" height="24.8"/>
<rect x="264.1" y="141.5" class="st4" width="25.6" height="24.8"/>
<path class="st4" d="M239.3,141.5h-25.1c-0.2,0.2-0.4,0.3-0.5,0.5v24.4h25.6V141.5z"/>
<rect x="516.4" y="292.8" class="st4" width="25.6" height="24.8"/>
<rect x="465.9" y="292.8" class="st4" width="25.6" height="24.8"/>
<rect x="415.5" y="292.8" class="st4" width="25.6" height="24.8"/>
<rect x="365" y="292.8" class="st4" width="25.6" height="24.8"/>
<rect x="314.6" y="292.8" class="st4" width="25.6" height="24.8"/>
<rect x="264.1" y="292.8" class="st4" width="25.6" height="24.8"/>
<rect x="213.7" y="292.8" class="st4" width="25.6" height="24.8"/>
<rect x="163.2" y="292.8" class="st4" width="25.6" height="24.8"/>
<rect x="516.4" y="343.3" class="st4" width="25.6" height="24.8"/>
<rect x="465.9" y="343.3" class="st4" width="25.6" height="24.8"/>
<rect x="415.5" y="343.3" class="st4" width="25.6" height="24.8"/>
<rect x="365" y="343.3" class="st4" width="25.6" height="24.8"/>
<rect x="314.6" y="343.3" class="st4" width="25.6" height="24.8"/>
<rect x="264.1" y="343.3" class="st4" width="25.6" height="24.8"/>
<rect x="213.7" y="343.3" class="st4" width="25.6" height="24.8"/>
<rect x="163.2" y="343.3" class="st4" width="25.6" height="24.8"/>
<path class="st4" d="M542,409.3v-15.5h-25.6v24.9h20.3C538.5,415.5,540.3,412.4,542,409.3z"/>
<rect x="465.9" y="393.7" class="st4" width="25.6" height="24.9"/>
<rect x="415.5" y="393.7" class="st4" width="25.6" height="24.9"/>
<rect x="365" y="393.7" class="st4" width="25.6" height="24.9"/>
<rect x="314.6" y="393.7" class="st4" width="25.6" height="24.9"/>
<rect x="264.1" y="393.7" class="st4" width="25.6" height="24.9"/>
<rect x="213.7" y="393.7" class="st4" width="25.6" height="24.9"/>
<path class="st4" d="M163.2,393.7v17.7c1.3,2.4,2.7,4.8,4.1,7.1h21.5v-24.9H163.2z"/>
<path class="st4" d="M516.4,444.2v2.5c0.7-0.8,1.4-1.7,2.1-2.5H516.4z"/>
<rect x="465.9" y="444.2" class="st4" width="25.6" height="24.9"/>
<rect x="415.5" y="444.2" class="st4" width="25.6" height="24.9"/>
<rect x="365" y="444.2" class="st4" width="25.6" height="24.9"/>
<rect x="314.6" y="444.2" class="st4" width="25.6" height="24.9"/>
<rect x="264.1" y="444.2" class="st4" width="25.6" height="24.9"/>
<rect x="213.7" y="444.2" class="st4" width="25.6" height="24.9"/>
<path class="st4" d="M185.5,444.2c1.1,1.3,2.2,2.6,3.3,3.9v-3.9H185.5z"/>
<path class="st4" d="M441.1,494.6h-25.6v18.8c8.8-2.7,17.3-6,25.6-9.7V494.6z"/>
<path class="st4" d="M390.6,494.6H365v28c8.7-0.5,17.2-1.6,25.6-3.1V494.6z"/>
<path class="st4" d="M314.6,494.6v25.1c8.4,1.5,16.9,2.5,25.6,2.9v-28H314.6z"/>
<path class="st4" d="M264.1,494.6v9.6c8.3,3.7,16.8,6.9,25.6,9.6v-19.2H264.1z"/>
<path class="st4" d="M209.5,469c1.4,1.2,2.8,2.4,4.2,3.6V469H209.5z"/>
<rect x="289.7" y="469" class="st4" width="24.8" height="25.6"/>
<rect x="340.2" y="469" class="st4" width="24.9" height="25.6"/>
<rect x="390.6" y="469" class="st4" width="24.8" height="25.6"/>
<path class="st4" d="M441.1,469v25.6h17.6c2.4-1.4,4.8-2.8,7.2-4.3V469H441.1z"/>
<path class="st4" d="M494.5,469h-3v2.6C492.5,470.8,493.5,469.9,494.5,469z"/>
<path class="st4" d="M239.3,469v22c2,1.2,4,2.4,6,3.6h18.8V469H239.3z"/>
<rect x="239.3" y="418.6" class="st4" width="24.8" height="25.6"/>
<rect x="289.7" y="418.6" class="st4" width="24.8" height="25.6"/>
<rect x="340.2" y="418.6" class="st4" width="24.9" height="25.6"/>
<rect x="390.6" y="418.6" class="st4" width="24.8" height="25.6"/>
<rect x="441.1" y="418.6" class="st4" width="24.8" height="25.6"/>
<rect x="491.5" y="418.6" class="st4" width="24.9" height="25.6"/>
<rect x="188.8" y="418.6" class="st4" width="24.8" height="25.6"/>
<path class="st4" d="M145.1,368.1c2.6,8.8,5.7,17.3,9.3,25.6h8.8v-25.6H145.1z"/>
<rect x="188.8" y="368.1" class="st4" width="24.8" height="25.6"/>
<rect x="239.3" y="368.1" class="st4" width="24.8" height="25.6"/>
<rect x="289.7" y="368.1" class="st4" width="24.8" height="25.6"/>
<rect x="390.6" y="368.1" class="st4" width="24.8" height="25.6"/>
<rect x="441.1" y="368.1" class="st4" width="24.8" height="25.6"/>
<rect x="491.5" y="368.1" class="st4" width="24.9" height="25.6"/>
<path class="st4" d="M558.9,368.1h-17v25.6h7.6C553.2,385.5,556.3,376.9,558.9,368.1z"/>
<rect x="340.2" y="368.1" class="st4" width="24.9" height="25.6"/>
<path class="st4" d="M136.6,317.7c0.4,8.7,1.4,17.2,2.8,25.6h23.9v-25.6H136.6z"/>
<rect x="188.8" y="317.7" class="st4" width="24.8" height="25.6"/>
<rect x="239.3" y="317.7" class="st4" width="24.8" height="25.6"/>
<rect x="289.7" y="317.7" class="st4" width="24.8" height="25.6"/>
<rect x="441.1" y="317.7" class="st4" width="24.8" height="25.6"/>
<path class="st4" d="M567.4,317.7H542v25.6h22.7C566.1,334.9,567,326.4,567.4,317.7z"/>
<rect x="491.5" y="317.7" class="st4" width="24.9" height="25.6"/>
<rect x="390.6" y="317.7" class="st4" width="24.8" height="25.6"/>
<rect x="340.2" y="317.7" class="st4" width="24.9" height="25.6"/>
<rect x="516.4" y="242.4" class="st4" width="25.6" height="24.9"/>
<rect x="465.9" y="242.4" class="st4" width="25.6" height="24.9"/>
<rect x="415.5" y="242.4" class="st4" width="25.6" height="24.9"/>
<rect x="365" y="242.4" class="st4" width="25.6" height="24.9"/>
<rect x="314.6" y="242.4" class="st4" width="25.6" height="24.9"/>
<rect x="264.1" y="242.4" class="st4" width="25.6" height="24.9"/>
<rect x="213.7" y="242.4" class="st4" width="25.6" height="24.9"/>
<rect x="163.2" y="242.4" class="st4" width="25.6" height="24.9"/>
<path class="st4" d="M140,267.3c-1.6,8.4-2.7,16.9-3.3,25.6h26.4v-25.6H140z"/>
<rect x="188.8" y="267.3" class="st4" width="24.8" height="25.6"/>
<rect x="289.7" y="267.3" class="st4" width="24.8" height="25.6"/>
<path class="st4" d="M567.2,292.8c-0.6-8.7-1.7-17.2-3.3-25.6h-22v25.6H567.2z"/>
<rect x="491.5" y="267.3" class="st4" width="24.9" height="25.6"/>
<rect x="441.1" y="267.3" class="st4" width="24.8" height="25.6"/>
<rect x="390.6" y="267.3" class="st4" width="24.8" height="25.6"/>
<rect x="340.2" y="267.3" class="st4" width="24.9" height="25.6"/>
<rect x="239.3" y="267.3" class="st4" width="24.8" height="25.6"/>
<path class="st4" d="M542,205.3c-2.4-4.5-5-9-7.8-13.3h-17.8v24.8H542V205.3z"/>
<rect x="465.9" y="192" class="st4" width="25.6" height="24.8"/>
<rect x="415.5" y="192" class="st4" width="25.6" height="24.8"/>
<rect x="365" y="192" class="st4" width="25.6" height="24.8"/>
<rect x="314.6" y="192" class="st4" width="25.6" height="24.8"/>
<rect x="264.1" y="192" class="st4" width="25.6" height="24.8"/>
<rect x="213.7" y="192" class="st4" width="25.6" height="24.8"/>
<path class="st4" d="M188.8,192h-19c-2.3,3.7-4.5,7.4-6.6,11.2v13.7h25.6V192z"/>
<path class="st4" d="M156.3,216.8c-3.8,8.3-7.2,16.8-10,25.6h16.9v-25.6H156.3z"/>
<rect x="188.8" y="216.8" class="st4" width="24.8" height="25.6"/>
<rect x="239.3" y="216.8" class="st4" width="24.8" height="25.6"/>
<rect x="289.7" y="216.8" class="st4" width="24.8" height="25.6"/>
<rect x="390.6" y="216.8" class="st4" width="24.8" height="25.6"/>
<rect x="441.1" y="216.8" class="st4" width="24.8" height="25.6"/>
<rect x="491.5" y="216.8" class="st4" width="24.9" height="25.6"/>
<path class="st4" d="M557.7,242.4c-2.8-8.8-6.1-17.3-10-25.6H542v25.6H557.7z"/>
<rect x="340.2" y="216.8" class="st4" width="24.9" height="25.6"/>
<path class="st4" d="M188.9,166.3C188.9,166.4,188.8,166.4,188.9,166.3l-0.1,25.6h24.8v-25.6H188.9z"/>
<rect x="239.3" y="166.3" class="st4" width="24.8" height="25.6"/>
<rect x="340.2" y="166.3" class="st4" width="24.9" height="25.6"/>
<rect x="390.6" y="166.3" class="st4" width="24.8" height="25.6"/>
<rect x="441.1" y="166.3" class="st4" width="24.8" height="25.6"/>
<path class="st4" d="M515.1,166.3h-23.6V192h24.9v-24.1C516,167.3,515.6,166.8,515.1,166.3z"/>
<rect x="289.7" y="166.3" class="st4" width="24.8" height="25.6"/>
<path class="st4" d="M451.4,115.9h-10.3v25.6h24.8v-17.3C461.2,121.3,456.4,118.5,451.4,115.9z"/>
<rect x="390.6" y="115.9" class="st4" width="24.8" height="25.6"/>
<rect x="340.2" y="115.9" class="st4" width="24.9" height="25.6"/>
<rect x="289.7" y="115.9" class="st4" width="24.8" height="25.6"/>
<path class="st4" d="M252.7,115.9c-4.6,2.4-9,4.9-13.4,7.6v18h24.8v-25.6H252.7z"/>
<rect x="314.6" y="192" class="st5" width="25.6" height="24.8"/>
<rect x="264.1" y="192" class="st5" width="25.6" height="24.8"/>
<rect x="213.7" y="192" class="st5" width="25.6" height="24.8"/>
<path class="st5" d="M169.8,192c-2.3,3.6-4.5,7.4-6.6,11.1v13.7h25.6V192H169.8z"/>
<rect x="314.6" y="292.8" class="st5" width="25.6" height="24.8"/>
<rect x="264.1" y="292.8" class="st5" width="25.6" height="24.8"/>
<rect x="213.7" y="292.8" class="st5" width="25.6" height="24.8"/>
<rect x="163.2" y="292.8" class="st5" width="25.6" height="24.8"/>
<rect x="314.6" y="343.3" class="st5" width="25.6" height="24.8"/>
<rect x="264.1" y="343.3" class="st5" width="25.6" height="24.8"/>
<rect x="213.7" y="343.3" class="st5" width="25.6" height="24.8"/>
<rect x="163.2" y="343.3" class="st5" width="25.6" height="24.8"/>
<rect x="314.6" y="393.7" class="st5" width="25.6" height="24.9"/>
<rect x="264.1" y="393.7" class="st5" width="25.6" height="24.9"/>
<rect x="213.7" y="393.7" class="st5" width="25.6" height="24.9"/>
<path class="st5" d="M163.2,393.7v17.7c1.3,2.4,2.7,4.8,4.1,7.1h21.5v-24.9H163.2z"/>
<path class="st5" d="M314.6,494.6v25.1c8.4,1.5,16.9,2.5,25.6,2.9v-28H314.6z"/>
<path class="st5" d="M264.1,494.6v9.6c8.3,3.7,16.8,6.9,25.6,9.6v-19.2H264.1z"/>
<rect x="314.6" y="444.2" class="st5" width="25.6" height="24.9"/>
<rect x="264.1" y="444.2" class="st5" width="25.6" height="24.9"/>
<rect x="213.7" y="444.2" class="st5" width="25.6" height="24.9"/>
<path class="st5" d="M185.5,444.2c1.1,1.3,2.2,2.6,3.3,3.9v-3.9H185.5z"/>
<path class="st5" d="M239.3,469v22c2,1.2,4,2.4,6,3.6h18.8V469H239.3z"/>
<rect x="289.7" y="469" class="st5" width="24.8" height="25.6"/>
<rect x="340.2" y="469" class="st5" width="11.8" height="25.6"/>
<path class="st5" d="M209.5,469c1.4,1.2,2.8,2.4,4.2,3.6V469H209.5z"/>
<rect x="188.8" y="418.6" class="st5" width="24.8" height="25.6"/>
<rect x="289.7" y="418.6" class="st5" width="24.8" height="25.6"/>
<rect x="340.2" y="418.6" class="st5" width="11.8" height="25.6"/>
<rect x="239.3" y="418.6" class="st5" width="24.8" height="25.6"/>
<path class="st5" d="M145.1,368.1c2.6,8.8,5.7,17.3,9.3,25.6h8.8v-25.6H145.1z"/>
<rect x="188.8" y="368.1" class="st5" width="24.8" height="25.6"/>
<rect x="289.7" y="368.1" class="st5" width="24.8" height="25.6"/>
<rect x="340.2" y="368.1" class="st5" width="11.8" height="25.6"/>
<rect x="239.3" y="368.1" class="st5" width="24.8" height="25.6"/>
<path class="st5" d="M136.6,317.7c0.4,8.7,1.4,17.2,2.8,25.6h23.9v-25.6H136.6z"/>
<rect x="188.8" y="317.7" class="st5" width="24.8" height="25.6"/>
<rect x="239.3" y="317.7" class="st5" width="24.8" height="25.6"/>
<rect x="289.7" y="317.7" class="st5" width="24.8" height="25.6"/>
<rect x="340.2" y="317.7" class="st5" width="11.8" height="25.6"/>
<rect x="314.6" y="242.4" class="st5" width="25.6" height="24.9"/>
<rect x="264.1" y="242.4" class="st5" width="25.6" height="24.9"/>
<rect x="213.7" y="242.4" class="st5" width="25.6" height="24.9"/>
<rect x="163.2" y="242.4" class="st5" width="25.6" height="24.9"/>
<rect x="188.8" y="267.3" class="st5" width="24.8" height="25.6"/>
<rect x="340.2" y="267.3" class="st5" width="11.8" height="25.6"/>
<rect x="289.7" y="267.3" class="st5" width="24.8" height="25.6"/>
<rect x="239.3" y="267.3" class="st5" width="24.8" height="25.6"/>
<path class="st5" d="M140,267.3c-1.6,8.4-2.7,16.9-3.3,25.6h26.4v-25.6H140z"/>
<rect x="239.3" y="216.8" class="st5" width="24.8" height="25.6"/>
<rect x="340.2" y="216.8" class="st5" width="11.8" height="25.6"/>
<rect x="289.7" y="216.8" class="st5" width="24.8" height="25.6"/>
<rect x="188.8" y="216.8" class="st5" width="24.8" height="25.6"/>
<path class="st5" d="M156.2,216.8c-3.8,8.3-7.2,16.8-10,25.6h16.9v-25.6H156.2z"/>
<rect x="314.6" y="141.5" class="st5" width="25.6" height="24.8"/>
<rect x="264.1" y="141.5" class="st5" width="25.6" height="24.8"/>
<path class="st5" d="M214.2,141.5c-0.2,0.1-0.3,0.3-0.5,0.4v24.4h25.6v-24.8H214.2z"/>
<path class="st5" d="M188.9,166.3C188.8,166.4,188.8,166.4,188.9,166.3l0,25.6h24.8v-25.6H188.9z"/>
<rect x="289.7" y="166.3" class="st5" width="24.8" height="25.6"/>
<rect x="340.2" y="166.3" class="st5" width="11.8" height="25.6"/>
<rect x="239.3" y="166.3" class="st5" width="24.8" height="25.6"/>
<path class="st5" d="M314.6,94.9v21h25.6v-24C331.5,92.4,323,93.4,314.6,94.9z"/>
<path class="st5" d="M264.1,110.3v5.6h25.6v-15.1C280.9,103.4,272.4,106.6,264.1,110.3z"/>
<rect x="340.2" y="115.9" class="st5" width="11.8" height="25.6"/>
<rect x="289.7" y="115.9" class="st5" width="24.8" height="25.6"/>
<path class="st5" d="M252.6,115.9c-4.5,2.4-9,4.9-13.3,7.6v18h24.8v-25.6H252.6z"/>
<path class="st7" d="M352,146.7c-88.6,0-160.6,72-160.6,160.6s72,160.6,160.6,160.6s160.6-72.1,160.6-160.6S440.6,146.7,352,146.7z
	 M352,405.3c-54.1,0-98.1-44-98.1-98.1s44-98.1,98.1-98.1s98.1,44,98.1,98.1S406.1,405.3,352,405.3z"/>
<path class="st8" d="M254,307.3c0-54.1,44-98.1,98.1-98.1v-62.5c-88.6,0-160.6,72-160.6,160.6s72,160.6,160.6,160.6v-62.5
	C297.9,405.3,254,361.3,254,307.3z"/>
<path class="st9" d="M191.4,307.3v8h62.5v-8c0-54.1,44-98.1,98.1-98.1v-62.5C263.5,146.7,191.4,218.7,191.4,307.3z"/>
<path class="st1" d="M314.6,152.3v14.1h25.6v-18.2C331.6,148.8,323.1,150.2,314.6,152.3z"/>
<path class="st1" d="M277.6,166.3h12.1v-5.8C285.6,162.3,281.6,164.2,277.6,166.3z"/>
<path class="st1" d="M289.7,166.3v16.3c7.9-4,16.2-7.2,24.8-9.7v-6.6H289.7z"/>
<path class="st1" d="M352.6,166.3h-12.4v1.9c4.1-0.4,8.2-0.6,12.4-0.6V166.3z"/>
<path class="st1" d="M314.6,192v1.9c2.1-0.7,4.2-1.4,6.3-1.9H314.6z"/>
<polygon class="st1" points="286.1,192 289.7,198.2 289.7,192 "/>
<path class="st1" d="M289.7,182.7v9.2h24.8v-19C305.9,175.4,297.6,178.7,289.7,182.7z"/>
<path class="st1" d="M352.6,167.7c-4.2,0-8.3,0.2-12.4,0.6v20.1c4.1-0.4,8.2-0.6,12.4-0.6V167.7z"/>
<path class="st1" d="M320.9,192c-2.1,0.6-4.2,1.2-6.3,1.9v21.4c8.1-3.3,16.7-5.6,25.6-6.8V192H320.9z"/>
<path class="st1" d="M311,216.8h-10.6l2.4,4.2C305.5,219.5,308.2,218.1,311,216.8z"/>
<path class="st1" d="M352.6,187.7c-4.2,0-8.3,0.2-12.4,0.6v3.6h12.4V187.7z"/>
<path class="st1" d="M314.6,215.3v1.5h25.6v-8.4C331.2,209.6,322.7,211.9,314.6,215.3z"/>
<path class="st1" d="M352.5,216.8h-12.3v11.8c4-0.6,8.1-1,12.3-1V216.8z"/>
<path class="st1" d="M311,216.8c-2.8,1.3-5.5,2.7-8.2,4.2l10,17.3c0.6-0.3,1.2-0.7,1.8-1v-20.5H311z"/>
<path class="st1" d="M315.1,242.4l7.7,13.3c5.3-3.1,11.2-5.4,17.4-6.7v-6.6H315.1z"/>
<path class="st1" d="M312.8,238.4l1.8,3.1v-4.1C314,237.7,313.4,238.1,312.8,238.4z"/>
<path class="st1" d="M352.6,227.7c-4.2,0-8.4,0.3-12.4,1v13.7h12.4V227.7z"/>
<path class="st1" d="M322.8,255.7l6.7,11.5h10.7V249C334,250.3,328.1,252.6,322.8,255.7z"/>
<path class="st1" d="M352.6,267.3h-12.4v2.4c3.9-1.3,8.1-2,12.4-2V267.3z"/>
<path class="st1" d="M340.2,269.7v16l4.1,7.1h8.3v-25.1C348.3,267.7,344.1,268.4,340.2,269.7z"/>
<path class="st1" d="M415.5,160.6v5.7h12C423.5,164.3,419.5,162.4,415.5,160.6z"/>
<path class="st1" d="M390.6,152.3c-8.3-2-16.8-3.4-25.6-4.1v18.2h25.6V152.3z"/>
<path class="st1" d="M352.6,166.3v1.4c4.2,0,8.3,0.2,12.4,0.6v-1.9H352.6z"/>
<path class="st1" d="M390.6,166.3v6.6c8.6,2.4,17,5.7,24.8,9.7v-16.3H390.6z"/>
<polygon class="st0" points="415.5,192 415.5,198.4 419.2,192 "/>
<path class="st0" d="M384.3,192c2.1,0.6,4.2,1.2,6.3,1.9V192H384.3z"/>
<path class="st0" d="M352.6,167.7v20c4.2,0,8.3,0.2,12.4,0.6v-20.1C360.9,167.9,356.8,167.7,352.6,167.7z"/>
<path class="st0" d="M390.6,173v19h24.8v-9.3C407.6,178.7,399.3,175.4,390.6,173z"/>
<path class="st2" d="M384.2,192H365v16.5c8.9,1.1,17.5,3.5,25.6,6.8v-21.4C388.5,193.2,386.3,192.6,384.2,192z"/>
<path class="st2" d="M404.9,216.8h-10.8c2.8,1.3,5.6,2.7,8.3,4.3L404.9,216.8z"/>
<path class="st2" d="M352.6,187.7v4.3H365v-3.6C360.9,187.9,356.8,187.7,352.6,187.7z"/>
<path class="st10" d="M394.1,216.8c-1.1-0.5-2.3-1-3.5-1.5v1.5H394.1z"/>
<path class="st10" d="M390.6,215.3c-8.1-3.4-16.7-5.7-25.6-6.8v8.3h25.6V215.3z"/>
<path class="st10" d="M352.6,216.8v10.9c4.2,0,8.4,0.3,12.4,1v-11.9H352.6z"/>
<path class="st10" d="M402.4,221.1c-2.7-1.6-5.5-3-8.3-4.3h-3.5v20.6c0.6,0.3,1.2,0.7,1.8,1L402.4,221.1z"/>
<path class="st11" d="M390.1,242.4H365v6.6c6.2,1.3,12,3.6,17.4,6.7L390.1,242.4z"/>
<path class="st11" d="M352.6,227.7v14.7H365v-13.7C361,228,356.8,227.7,352.6,227.7z"/>
<path class="st11" d="M392.4,238.4c-0.6-0.3-1.2-0.7-1.8-1v4.1L392.4,238.4z"/>
<path class="st12" d="M382.4,255.7c-5.3-3.1-11.2-5.4-17.4-6.7v18.2h10.7L382.4,255.7z"/>
<path class="st12" d="M352.6,267.3v0.5c4.3,0,8.5,0.7,12.4,2v-2.5H352.6z"/>
<path class="st13" d="M352.6,267.7v25.1h8.3l4.1-7.1v-16.1C361.1,268.4,356.9,267.7,352.6,267.7z"/>
<path class="st1" d="M465.9,194.8v22h18.1C478.7,209,472.7,201.6,465.9,194.8z"/>
<path class="st1" d="M431.1,192c3.4,2.4,6.7,4.9,9.9,7.5V192H431.1z"/>
<path class="st1" d="M458.7,216.8c2.5,3,4.9,6,7.2,9.2v-9.2H458.7z"/>
<path class="st1" d="M463,192c-6.7-6.4-14-12.3-21.9-17.5V192H463z"/>
<path class="st0" d="M441.1,216.8v-17.3c-3.2-2.6-6.5-5.2-9.9-7.5h-11.9l-3.7,6.4v7.2c5.4,3.4,10.4,7.1,15.2,11.2H441.1z"/>
<path class="st0" d="M458.7,216.8h-17.7V227c4.4,4.8,8.3,9.9,11.9,15.4h12l1-0.6V226C463.6,222.8,461.3,219.8,458.7,216.8z"/>
<path class="st2" d="M438.8,257.5l2.3-1.3v-13.8h-13C432.1,247.1,435.7,252.1,438.8,257.5z"/>
<path class="st2" d="M415.5,205.7v11.1h15.2C425.9,212.7,420.8,209,415.5,205.7z"/>
<path class="st2" d="M404.9,216.8l-2.5,4.3c4.6,2.7,9,5.7,13.1,9.1v-13.4H404.9z"/>
<path class="st2" d="M452.9,242.4c-3.5-5.5-7.5-10.6-11.9-15.4v15.4H452.9z"/>
<path class="st10" d="M421.9,267.3l16.9-9.8c-3.1-5.4-6.7-10.4-10.7-15.1h-12.6v16.2c2.1,2.7,4.1,5.6,5.9,8.6H421.9z"/>
<path class="st10" d="M421.5,267.5l0.4-0.3h-0.6C421.4,267.3,421.5,267.4,421.5,267.5z"/>
<path class="st10" d="M402.4,221.1l-10,17.3c2.1,1.2,4.2,2.6,6.2,4h16.9v-12.3C411.4,226.8,407,223.8,402.4,221.1z"/>
<path class="st11" d="M415.5,258.7v8.6h5.9C419.6,264.3,417.6,261.4,415.5,258.7z"/>
<path class="st11" d="M390.1,242.4l-7.7,13.3c2.9,1.7,5.7,3.6,8.2,5.8v-19.1H390.1z"/>
<path class="st11" d="M396.6,267.3c2.9,3.1,5.4,6.6,7.6,10.3l11.3-6.5v-3.7H396.6z"/>
<path class="st11" d="M398.6,242.4c-2-1.4-4.1-2.8-6.2-4l-1.8,3.1v0.9H398.6z"/>
<polygon class="st11" points="390.6,242.4 390.6,241.5 390.1,242.4 "/>
<path class="st12" d="M375.7,267.3h14.9v-5.8c-2.6-2.2-5.3-4.1-8.2-5.8L375.7,267.3z"/>
<path class="st12" d="M404.1,277.5c-2.1-3.7-4.7-7.1-7.5-10.3h-6v18L404.1,277.5z"/>
<polygon class="st12" points="365,292.8 365,300.1 377.6,292.8 "/>
<polygon class="st12" points="360.9,292.8 365,292.8 365,285.8 "/>
<path class="st1" d="M486.3,267.3h5.3v-24.9h-15.4C480.2,250.3,483.7,258.6,486.3,267.3z"/>
<path class="st1" d="M491.3,292.8c0.1,0.6,0.1,1.3,0.2,2v-2H491.3z"/>
<path class="st1" d="M511.4,292.8c-0.8-8.6-2.2-17.1-4.4-25.6h-15.5v25.6H511.4z"/>
<path class="st1" d="M498.4,242.4c-2-4.6-4.3-9.1-6.8-13.6v13.6H498.4z"/>
<path class="st0" d="M476.1,242.4h-10.2v24.9h20.3C483.7,258.6,480.3,250.3,476.1,242.4z"/>
<path class="st0" d="M492.1,307.2c0-4.2-0.2-8.4-0.6-12.5v12.5H492.1z"/>
<path class="st0" d="M471.2,292.8c0.6,4.7,0.9,9.5,0.9,14.4h19.4v-12.5c-0.1-0.6-0.1-1.3-0.2-1.9H471.2z"/>
<path class="st0" d="M465.2,267.3c0.2,0.7,0.5,1.4,0.7,2.1v-2.1H465.2z"/>
<polygon class="st0" points="464.9,242.4 465.9,242.4 465.9,241.8 "/>
<path class="st2" d="M438.8,257.5c0.8,1.4,1.5,2.8,2.3,4.2v-5.5L438.8,257.5z"/>
<path class="st2" d="M471.2,292.8h-5.3v14.4h6.2C472.1,302.3,471.8,297.6,471.2,292.8z"/>
<path class="st2" d="M465.2,267.3h-21.5c3.5,8,6,16.6,7.3,25.6h14.9v-23.5C465.7,268.6,465.5,267.9,465.2,267.3z"/>
<path class="st10" d="M443.8,267.3c-0.8-1.9-1.7-3.8-2.7-5.6v5.6H443.8z"/>
<path class="st10" d="M421.9,267.3h19.1v-5.6c-0.7-1.4-1.5-2.8-2.3-4.2L421.9,267.3z"/>
<path class="st10" d="M432.2,307.2h8.9v-14.4h-10.2C431.7,297.5,432.2,302.3,432.2,307.2z"/>
<path class="st10" d="M451.1,292.8c-1.3-9-3.8-17.6-7.4-25.6h-2.7v25.6H451.1z"/>
<path class="st11" d="M430.8,292.8h-15.3v14.4h16.6C432.1,302.3,431.6,297.5,430.8,292.8z"/>
<path class="st11" d="M404.1,277.5c2.8,4.8,4.9,9.9,6.2,15.3h5.1v-21.9L404.1,277.5z"/>
<path class="st11" d="M389.4,292.8c0.5,1.2,0.9,2.4,1.2,3.7v-3.7H389.4z"/>
<path class="st11" d="M410.3,292.8c-1.4-5.5-3.5-10.6-6.2-15.3l-13.5,7.8v7.6H410.3z"/>
<path class="st11" d="M390.6,296.6c-0.4-1.3-0.8-2.6-1.3-3.8h-11.7l-12.7,7.3v7.2h25.6V296.6z"/>
<path class="st1" d="M487.4,343.3c-2.3,8.6-5.4,17-9.3,24.8h13.4v-24.8H487.4z"/>
<path class="st1" d="M500.1,368.1h-8.6v17.5C494.7,380,497.6,374.2,500.1,368.1z"/>
<path class="st1" d="M511.9,317.7h-20.1c-0.1,0.7-0.1,1.4-0.2,2.1v23.5h16.6C510,335,511.3,326.4,511.9,317.7z"/>
<path class="st0" d="M492,307.3h-0.5v10.4h0.1C491.9,314.3,492,310.8,492,307.3z"/>
<path class="st0" d="M472.1,307.3c0,3.5-0.2,7-0.5,10.4h19.9v-10.4H472.1z"/>
<path class="st0" d="M487.3,343.3h-20.8c-0.2,0.6-0.4,1.2-0.6,1.8v23.1H478C481.8,360.3,485,351.9,487.3,343.3z"/>
<polygon class="st0" points="458,368.1 465.9,372.7 465.9,368.1 "/>
<path class="st0" d="M491.6,317.7L491.6,317.7l-0.1,0.9C491.6,318.3,491.6,318,491.6,317.7z"/>
<path class="st2" d="M465.9,343.3v1.6c0.2-0.5,0.4-1.1,0.5-1.6H465.9z"/>
<path class="st2" d="M438.7,357l2.4,1.4v-5.7C440.3,354.1,439.5,355.6,438.7,357z"/>
<path class="st2" d="M472.1,307.3h-6.2v10.4h5.7C471.9,314.3,472.1,310.8,472.1,307.3z"/>
<path class="st2" d="M451.6,317.7c-0.9,8.9-3.1,17.5-6.2,25.6h20.6v-25.6H451.6z"/>
<path class="st10" d="M432.1,307.3c0,3.5-0.2,7-0.7,10.4h9.7v-10.4H432.1z"/>
<path class="st10" d="M421.4,347l17.3,10c0.8-1.4,1.6-2.9,2.4-4.4v-9.3h-17.7C422.8,344.6,422.1,345.8,421.4,347z"/>
<path class="st10" d="M451.6,317.7h-10.5v25.6h4.2C448.5,335.2,450.6,326.6,451.6,317.7z"/>
<polygon class="st10" points="415,343.3 415.5,343.6 415.5,343.3 "/>
<path class="st10" d="M423.4,343.3h-7.9v0.3l5.9,3.4C422.1,345.8,422.8,344.6,423.4,343.3z"/>
<path class="st10" d="M432.1,307.3h-16.6v10.4h15.9C431.9,314.3,432.1,310.8,432.1,307.3z"/>
<path class="st10" d="M411.2,317.7c-1.2,6.9-3.7,13.4-7.1,19.3l10.9,6.3h0.5v-25.6H411.2z"/>
<path class="st10" d="M411.2,317.7h-20.5c0,0.1-0.1,0.2-0.1,0.3v11.2l13.5,7.8C407.5,331.1,409.9,324.6,411.2,317.7z"/>
<polygon class="st10" points="365,307.3 365,314.5 370.7,317.7 390.6,317.7 390.6,307.3 "/>
<path class="st10" d="M390.7,317.7L390.7,317.7l-0.1,0.3C390.6,317.9,390.7,317.8,390.7,317.7z"/>
<path class="st1" d="M432.3,445.4c0.7-0.4,1.3-0.8,2-1.2h-2.7L432.3,445.4z"/>
<path class="st1" d="M486.6,393.7h-20.6v24.9h0.9C474.1,411.1,480.7,402.8,486.6,393.7z"/>
<path class="st1" d="M436.5,418.6h4.6V415C439.6,416.2,438.1,417.4,436.5,418.6z"/>
<path class="st1" d="M441.1,418.6v21.3c8.9-5.9,17.2-12.7,24.8-20.5v-0.9H441.1z"/>
<path class="st1" d="M465.9,418.6v0.9c0.3-0.3,0.6-0.6,0.9-0.9H465.9z"/>
<path class="st1" d="M461.9,393.7h4v-5.3C464.6,390.2,463.3,392,461.9,393.7z"/>
<path class="st0" d="M435,393.7c-6,5.7-12.5,10.7-19.5,15.1v7.2l1.5,2.6h19.6c1.5-1.2,3-2.4,4.5-3.6v-21.3H435z"/>
<path class="st0" d="M458.1,368.1h-2.7c-4.1,6.9-8.9,13.4-14.3,19.4v6.2h20.9c1.4-1.7,2.7-3.5,4-5.3v-15.8L458.1,368.1z"/>
<path class="st2" d="M415.5,393.7v15.1c7-4.4,13.6-9.4,19.5-15.1H415.5z"/>
<path class="st2" d="M438.8,357c-2.2,3.9-4.7,7.6-7.5,11.1h9.8v-9.8L438.8,357z"/>
<path class="st2" d="M402.4,393.4l0.2,0.3h12.9v-9.4C411.4,387.7,407,390.7,402.4,393.4z"/>
<path class="st2" d="M455.4,368.1h-14.3v19.4C446.5,381.6,451.3,375.1,455.4,368.1z"/>
<path class="st2" d="M438.7,357l-17.3-10c-1.8,3.1-3.8,6-5.9,8.8v12.4h15.7C434,364.6,436.5,360.9,438.7,357z"/>
<path class="st2" d="M403.6,368.1c-3.5,3-7.3,5.6-11.3,8l10,17.3c4.6-2.7,9-5.7,13.2-9.1v-16.1H403.6z"/>
<path class="st2" d="M415.5,343.6v12.2c2.2-2.8,4.1-5.7,5.9-8.8L415.5,343.6z"/>
<path class="st2" d="M382.3,358.8l5.4,9.3h2.9v-15.2C388,355.1,385.2,357.1,382.3,358.8z"/>
<path class="st2" d="M403.6,368.1h-13v5.1l1.7,2.9C396.3,373.8,400.1,371.1,403.6,368.1z"/>
<path class="st2" d="M399.9,343.3H415l-10.9-6.3C402.8,339.2,401.4,341.3,399.9,343.3z"/>
<path class="st2" d="M373.4,343.3l8.9,15.4c2.9-1.7,5.7-3.7,8.3-5.8v-9.6H373.4z"/>
<path class="st2" d="M404.1,336.9l-13.5-7.8v14.2h9.2C401.4,341.3,402.8,339.1,404.1,336.9z"/>
<polygon class="st2" points="365,314.4 365,317.7 370.7,317.7 "/>
<polygon class="st2" points="358.6,317.7 365,328.8 365,317.7 "/>
<path class="st1" d="M431.6,444.2h-16.2v9.7c5.7-2.4,11.4-5.2,16.9-8.4L431.6,444.2z"/>
<path class="st1" d="M390.6,444.2h-11.7c-4.6,0.9-9.2,1.5-13.9,1.9v20.2c8.6-0.7,17.1-2,25.6-4.1V444.2z"/>
<path class="st1" d="M390.6,441.4v2.8h24.8v-12.5C407.6,435.7,399.3,439,390.6,441.4z"/>
<path class="st0" d="M352.6,444.2v2.5c4.2,0,8.3-0.2,12.4-0.6v-1.9H352.6z"/>
<path class="st0" d="M365,444.2v1.9c4.7-0.4,9.3-1.1,13.9-1.9H365z"/>
<polygon class="st0" points="415.5,416.2 415.5,418.6 416.9,418.6 "/>
<path class="st0" d="M395.9,418.6c-1.7,0.7-3.5,1.3-5.2,1.9v20.9c8.7-2.5,17-5.7,24.8-9.7v-13.1H395.9z"/>
<path class="st0" d="M352.6,426.7v17.5H365v-18.1C360.9,426.5,356.8,426.7,352.6,426.7z"/>
<path class="st2" d="M365,405.9v12.7h25.6v-19.4C382.6,402.5,374,404.8,365,405.9z"/>
<path class="st2" d="M395.9,418.6h-5.2v1.9C392.4,419.9,394.1,419.3,395.9,418.6z"/>
<path class="st2" d="M352.6,418.6v8.1c4.2,0,8.3-0.2,12.4-0.6v-7.5H352.6z"/>
<path class="st2" d="M401.7,393.7h0.8l-0.2-0.3C402.1,393.5,401.9,393.6,401.7,393.7z"/>
<path class="st2" d="M390.6,393.7H365v12.2c9-1.1,17.5-3.4,25.6-6.8V393.7z"/>
<path class="st2" d="M402.3,393.4l-10-17.3c-0.6,0.3-1.1,0.6-1.7,0.9v16.7h11C401.9,393.6,402.1,393.5,402.3,393.4z"/>
<path class="st2" d="M352.6,386.7v7H365v-8C361,386.4,356.8,386.7,352.6,386.7z"/>
<path class="st2" d="M382.3,358.7c-5.3,3.1-11.1,5.4-17.3,6.7v2.8h22.7L382.3,358.7z"/>
<path class="st2" d="M352.6,368.1v18.6c4.2,0,8.4-0.3,12.4-1v-17.6H352.6z"/>
<path class="st2" d="M392.3,376l-1.7-2.9v3.8C391.2,376.6,391.7,376.3,392.3,376z"/>
<path class="st2" d="M373.4,343.3h-4.8c-1.2,0.5-2.3,1-3.5,1.4v20.7c6.2-1.3,12-3.6,17.3-6.7L373.4,343.3z"/>
<path class="st2" d="M365,343.3v1.4c1.2-0.4,2.4-0.9,3.5-1.4H365z"/>
<polygon class="st2" points="358.6,317.7 352.6,317.7 352.6,343.3 365,343.3 365,328.8 "/>
<path class="st1" d="M326.3,444.2h-11.7v18c8.3,2,16.8,3.4,25.6,4.1v-20.2C335.5,445.7,330.8,445.1,326.3,444.2z"/>
<path class="st1" d="M273.5,444.2l-0.7,1.2c5.4,3.2,11.1,6,16.9,8.5v-9.7H273.5z"/>
<path class="st1" d="M289.7,431.7v12.5h24.8v-2.8C305.9,438.9,297.6,435.7,289.7,431.7z"/>
<polygon class="st0" points="289.7,418.6 289.7,416 288.2,418.6 "/>
<path class="st0" d="M352.5,444.2h-12.3v1.9c4.1,0.4,8.2,0.6,12.3,0.6V444.2z"/>
<path class="st0" d="M326.2,444.2c4.6,0.9,9.3,1.5,14,1.9v-1.9H326.2z"/>
<path class="st0" d="M309.2,418.6h-19.5v13.2c7.9,4,16.2,7.2,24.8,9.7v-20.9C312.8,419.9,311,419.3,309.2,418.6z"/>
<path class="st0" d="M352.5,426.7c-4.2,0-8.3-0.2-12.3-0.6v18.1h12.3V426.7z"/>
<path class="st0" d="M314.6,399.1v19.5h25.6v-12.7C331.2,404.8,322.6,402.5,314.6,399.1z"/>
<path class="st0" d="M309.2,418.6c1.8,0.7,3.5,1.3,5.3,1.9v-1.9H309.2z"/>
<path class="st0" d="M352.5,418.6h-12.3v7.5c4.1,0.4,8.2,0.6,12.3,0.6V418.6z"/>
<path class="st0" d="M302.5,393.7h1.1c-0.3-0.2-0.5-0.3-0.8-0.4L302.5,393.7z"/>
<path class="st0" d="M314.6,393.7v5.5c8.1,3.3,16.6,5.6,25.6,6.8v-12.2H314.6z"/>
<path class="st0" d="M352.5,386.8c-4.2,0-8.3-0.3-12.3-1v7.9h12.3V386.8z"/>
<path class="st0" d="M312.8,376.1l-10,17.3c0.2,0.1,0.4,0.2,0.6,0.3h11.2v-16.7C314,376.8,313.4,376.4,312.8,376.1z"/>
<path class="st0" d="M322.9,358.8l-5.4,9.3h22.7v-2.7C334,364.2,328.2,361.9,322.9,358.8z"/>
<path class="st0" d="M312.9,376.1c0.6,0.3,1.1,0.6,1.7,0.9v-3.8L312.9,376.1z"/>
<path class="st0" d="M352.6,368.1h-12.4v17.7c4.1,0.6,8.2,1,12.4,1V368.1z"/>
<path class="st0" d="M336.5,343.3h-4.8l-8.9,15.4c5.4,3.1,11.2,5.4,17.4,6.7v-20.7C338.9,344.3,337.7,343.8,336.5,343.3z"/>
<path class="st0" d="M336.6,343.3c1.2,0.5,2.3,1,3.5,1.4v-1.4H336.6z"/>
<polygon class="st0" points="352.6,317.7 346.6,317.7 340.2,328.8 340.2,343.3 352.6,343.3 "/>
<path class="st1" d="M264.1,415v3.6h4.6C267.1,417.4,265.6,416.2,264.1,415z"/>
<path class="st1" d="M238.3,418.6h1v-24.9h-20.7C224.2,402.6,230.8,410.9,238.3,418.6z"/>
<path class="st1" d="M272.8,445.4l0.7-1.2h-2.7C271.5,444.6,272.1,445,272.8,445.4z"/>
<path class="st1" d="M239.3,418.6v1c7.4,7.5,15.7,14.4,24.8,20.4v-21.4H239.3z"/>
<path class="st1" d="M238.3,418.6c0.3,0.3,0.7,0.7,1,1v-1H238.3z"/>
<path class="st1" d="M243.3,393.7c-1.4-1.7-2.7-3.5-4-5.3v5.3H243.3z"/>
<path class="st0" d="M288.3,418.6l1.4-2.4v-7.4c-7-4.3-13.5-9.4-19.5-15h-6.1V415c1.5,1.2,3,2.5,4.6,3.6H288.3z"/>
<path class="st0" d="M249.8,368.1h-2.7l-7.8,4.5v15.8c1.3,1.8,2.6,3.6,4,5.3h20.9v-6.3C258.7,381.6,253.9,375.1,249.8,368.1z"/>
<path class="st0" d="M266.4,357l-2.3,1.3v9.8h9.8C271.2,364.6,268.7,360.9,266.4,357z"/>
<path class="st0" d="M270.2,393.7c6,5.7,12.5,10.7,19.5,15.1v-15.1H270.2z"/>
<path class="st0" d="M249.8,368.1c4.1,6.9,8.9,13.4,14.3,19.4v-19.4H249.8z"/>
<path class="st0" d="M302.8,393.4c-4.6-2.7-9-5.7-13.1-9.1v9.4h12.9L302.8,393.4z"/>
<path class="st0" d="M266.5,357c2.2,3.9,4.7,7.6,7.5,11.1h15.7v-12.4c-2.2-2.8-4.1-5.7-5.9-8.8L266.5,357z"/>
<path class="st0" d="M312.9,376.1c-4-2.3-7.8-5-11.3-8h-11.9v16.1c4.1,3.4,8.5,6.4,13.2,9.1L312.9,376.1z"/>
<path class="st0" d="M322.9,358.8c-3-1.7-5.7-3.7-8.3-5.9v15.2h2.9L322.9,358.8z"/>
<path class="st0" d="M283.8,347c1.8,3.1,3.8,6,5.9,8.8v-12.2L283.8,347z"/>
<path class="st0" d="M301.6,368.1c3.5,3,7.3,5.6,11.3,8l1.7-2.9v-5.1H301.6z"/>
<path class="st0" d="M290.2,343.3h15.1c-1.5-2-2.9-4.1-4.2-6.3L290.2,343.3z"/>
<path class="st0" d="M331.9,343.3h-17.3v9.6c2.6,2.2,5.4,4.2,8.3,5.9L331.9,343.3z"/>
<path class="st0" d="M301.1,337c1.3,2.2,2.7,4.3,4.2,6.3h9.3v-14.1L301.1,337z"/>
<polygon class="st0" points="334.5,317.7 340.2,317.7 340.2,314.4 "/>
<polygon class="st0" points="346.5,317.7 340.2,317.7 340.2,328.7 "/>
<path class="st1" d="M217.8,343.3h-4.2v24.8h13.4C223.3,360.3,220.1,351.9,217.8,343.3z"/>
<path class="st1" d="M205.2,368.1c2.4,5.9,5.3,11.8,8.5,17.5v-17.5H205.2z"/>
<path class="st1" d="M213.5,317.7h-20.1c0.6,8.6,1.8,17.1,3.8,25.6h16.5v-23.6C213.6,319,213.6,318.4,213.5,317.7z"/>
<path class="st1" d="M213.7,319.7v23.6h4.2C215.8,335.7,214.4,327.8,213.7,319.7z"/>
<path class="st1" d="M238.6,343.3h-20.8c2.3,8.6,5.4,16.9,9.3,24.8h12.2v-23C239.1,344.6,238.8,343.9,238.6,343.3z"/>
<polygon class="st1" points="247.1,368.1 239.3,368.1 239.3,372.7 "/>
<path class="st1" d="M233.1,307.2h-19.4v10.5h19.9C233.3,314.2,233.1,310.7,233.1,307.2z"/>
<path class="st1" d="M213.5,317.7c0,0.7,0.1,1.3,0.2,2v-2H213.5z"/>
<path class="st1" d="M264.1,352.8v5.5l2.3-1.3C265.6,355.6,264.9,354.2,264.1,352.8z"/>
<path class="st1" d="M238.6,343.3c0.2,0.6,0.4,1.3,0.6,1.9v-1.9H238.6z"/>
<path class="st1" d="M233.6,317.7h5.7v-10.5h-6.2C233.1,310.7,233.3,314.2,233.6,317.7z"/>
<path class="st1" d="M259.8,343.3c-3.2-8.1-5.3-16.6-6.2-25.6h-14.3v25.6H259.8z"/>
<path class="st1" d="M283.8,347c-0.7-1.2-1.4-2.4-2-3.7h-17.7v9.3c0.8,1.5,1.5,3,2.4,4.4L283.8,347z"/>
<path class="st1" d="M273.1,307.3h-9v10.4h9.7C273.3,314.3,273.1,310.8,273.1,307.3z"/>
<path class="st1" d="M253.7,317.7c0.9,8.9,3.1,17.5,6.3,25.6h4.2v-25.6H253.7z"/>
<path class="st1" d="M273.1,307.2c0,3.6,0.2,7.1,0.7,10.5h15.9v-10.6h-16.6V307.2z"/>
<polygon class="st1" points="290,343.3 289.7,343.3 289.7,343.5 "/>
<path class="st1" d="M283.8,346.9l5.9-3.4v-0.2h-7.9C282.5,344.5,283.1,345.7,283.8,346.9z"/>
<path class="st1" d="M301.1,336.9c-3.4-5.9-5.8-12.3-7.1-19.2h-4.3v25.6h0.3L301.1,336.9z"/>
<path class="st1" d="M314.5,317.7H294c1.2,6.9,3.7,13.4,7.1,19.3l13.5-7.8V318C314.6,317.9,314.5,317.8,314.5,317.7z"/>
<polygon class="st1" points="340.2,314.4 340.2,307.2 314.6,307.2 314.6,317.7 334.5,317.7 "/>
<path class="st1" d="M314.5,317.7c0,0.1,0.1,0.2,0.1,0.3L314.5,317.7L314.5,317.7z"/>
<path class="st1" d="M229.1,242.4h-15.4v24.9h5.3C221.5,258.6,224.9,250.3,229.1,242.4z"/>
<path class="st1" d="M213.7,292.8v1.9c0.1-0.6,0.1-1.3,0.2-1.9H213.7z"/>
<path class="st1" d="M198.1,267.3c-2.1,8.3-3.6,16.8-4.4,25.6h20v-25.6H198.1z"/>
<path class="st1" d="M206.8,242.4h6.9v-13.7C211.2,233.1,208.9,237.7,206.8,242.4z"/>
<path class="st1" d="M229.1,242.4c-4.1,7.9-7.6,16.2-10.1,24.9h20.3v-24.9H229.1z"/>
<path class="st1" d="M234,292.8h-20.1c-0.1,0.6-0.1,1.3-0.2,1.9v12.4h19.4C233.1,302.3,233.4,297.6,234,292.8z"/>
<path class="st1" d="M240,267.3h-0.7v2.1C239.5,268.6,239.7,267.9,240,267.3z"/>
<polygon class="st1" points="240.3,242.4 239.3,241.8 239.3,242.4 "/>
<path class="st1" d="M234,292.8c-0.6,4.7-0.9,9.5-0.9,14.4h6.2v-14.4H234z"/>
<path class="st1" d="M264.1,256v5.7c0.8-1.5,1.5-2.9,2.4-4.4L264.1,256z"/>
<path class="st1" d="M261.5,267.3H240c-0.2,0.7-0.5,1.4-0.7,2.1v23.5h14.9C255.5,283.9,258,275.3,261.5,267.3z"/>
<path class="st1" d="M274.4,292.8h-10.3v14.4h9C273.1,302.3,273.6,297.5,274.4,292.8z"/>
<path class="st1" d="M266.5,257.5c-0.8,1.4-1.6,2.8-2.4,4.3v5.4h19.2L266.5,257.5z"/>
<path class="st1" d="M261.5,267.3c-3.6,8-6.1,16.6-7.4,25.6h10v-25.6H261.5z"/>
<path class="st1" d="M274.4,292.8c-0.9,4.6-1.3,9.4-1.3,14.4h16.6v-14.4H274.4z"/>
<path class="st1" d="M301.1,277.5l-11.4-6.6v21.9h5.1C296.2,287.4,298.3,282.2,301.1,277.5z"/>
<path class="st1" d="M314.6,292.8v3.7c0.4-1.2,0.8-2.5,1.2-3.7H314.6z"/>
<path class="st1" d="M301.1,277.4c-2.8,4.8-4.9,10-6.2,15.5h19.7v-7.7L301.1,277.4z"/>
<path class="st1" d="M340.2,300l-12.4-7.2h-12c-0.5,1.2-0.9,2.4-1.2,3.7v10.7h25.6V300z"/>
<path class="st1" d="M264.1,192v7.5c3.2-2.6,6.5-5.2,10-7.5H264.1z"/>
<path class="st1" d="M221.2,216.8h18.1v-21.9C232.7,201.5,226.6,208.9,221.2,216.8z"/>
<path class="st1" d="M246.4,216.8h-7.2v9.2C241.5,222.8,243.9,219.7,246.4,216.8z"/>
<path class="st1" d="M242.3,192h21.9v-17.5C256.4,179.6,249.1,185.4,242.3,192z"/>
<path class="st1" d="M289.7,205.6v-7.4l-3.6-6.3h-12c-3.5,2.4-6.8,4.9-10,7.5v17.3h10.4C279.2,212.7,284.3,208.9,289.7,205.6z"/>
<path class="st1" d="M246.5,216.8c-2.5,3-4.9,6-7.2,9.2v15.8l1,0.6h12c3.5-5.5,7.5-10.6,11.9-15.5v-10.1H246.5z"/>
<path class="st1" d="M289.7,216.8v-11.2c-5.4,3.3-10.5,7-15.2,11.2H289.7z"/>
<path class="st1" d="M277.1,242.4h-13v13.8l2.3,1.3C269.5,252.1,273.1,247.1,277.1,242.4z"/>
<path class="st1" d="M302.8,221.1l-2.5-4.3h-10.6v13.3C293.8,226.8,298.2,223.8,302.8,221.1z"/>
<path class="st1" d="M252.2,242.4h11.9v-15.5C259.8,231.8,255.8,236.9,252.2,242.4z"/>
<path class="st1" d="M277.2,242.4c-4,4.7-7.6,9.7-10.8,15.1l16.9,9.8h0.6c1.8-3,3.7-5.9,5.9-8.7v-16.2H277.2z"/>
<path class="st1" d="M283.7,267.5c0-0.1,0.1-0.2,0.2-0.3h-0.6L283.7,267.5z"/>
<path class="st1" d="M312.8,238.4l-10-17.4c-4.6,2.7-9,5.8-13.1,9.1v12.3h16.9C308.6,241,310.7,239.6,312.8,238.4z"/>
<path class="st1" d="M315.2,242.4h-0.6v19.2c2.6-2.2,5.4-4.2,8.3-5.9L315.2,242.4z"/>
<path class="st1" d="M284,267.3h5.8v-8.6C287.6,261.4,285.7,264.2,284,267.3z"/>
<path class="st1" d="M308.6,267.3h-18.9v3.7l11.4,6.6C303.2,273.8,305.8,270.4,308.6,267.3z"/>
<path class="st1" d="M312.9,238.4c-2.1,1.2-4.2,2.6-6.2,4h7.9v-1.1L312.9,238.4z"/>
<polygon class="st1" points="314.6,241.3 314.6,242.4 315.2,242.4 "/>
<path class="st1" d="M322.9,255.7c-3,1.7-5.7,3.6-8.3,5.8v5.8h15L322.9,255.7z"/>
<path class="st1" d="M308.6,267.3c-2.8,3.1-5.3,6.5-7.5,10.3l13.5,7.8v-18H308.6z"/>
<polygon class="st1" points="340.2,300 340.2,292.8 327.7,292.8 "/>
<polygon class="st1" points="344.3,292.8 340.2,285.7 340.2,292.8 "/>
<polygon class="st3" points="365,313.6 365,317.7 367.4,317.7 "/>
<path class="st3" d="M426.6,418.5l-11.1-19v19.1L426.6,418.5C426.6,418.6,426.6,418.5,426.6,418.5z"/>
<path class="st3" d="M408.3,418.6l4.6,7.9c0.7,1.1,1.6,2,2.6,2.7v-10.6H408.3z"/>
<polygon class="st3" points="364,343.3 365,345 365,343.3 "/>
<polygon class="st3" points="390.6,368.1 390.6,357.2 382.5,343.3 365,343.3 365,345 378.6,368.1 "/>
<polygon class="st3" points="412.1,393.7 397,368.1 390.6,368.1 390.6,388.6 393.7,393.7 "/>
<polygon class="st3" points="349,317.7 364,343.3 365,343.3 365,317.7 "/>
<path class="st14" d="M352,252.7c-30.1,0-54.6,24.5-54.6,54.6c0,30.1,24.5,54.6,54.6,54.6s54.6-24.5,54.6-54.6
	C406.6,277.2,382.1,252.7,352,252.7z"/>
<path class="st15" d="M377.4,315.2c-4.4,0-8-3.6-8-8c0-9.6-7.8-17.5-17.5-17.5c-4.4,0-7.9-3.6-7.9-8c0-4.4,3.6-8,7.9-8
	c18.4,0,33.4,15,33.4,33.4C385.4,311.7,381.8,315.2,377.4,315.2z"/>
<g id="Layer_2">
</g>
</svg>
