<?xml version="1.0" encoding="utf-8"?>
<!-- Generator: Adobe Illustrator 19.0.0, SVG Export Plug-In . SVG Version: 6.00 Build 0)  -->
<svg version="1.1" id="Layer_1" xmlns="http://www.w3.org/2000/svg" xmlns:xlink="http://www.w3.org/1999/xlink" x="0px" y="0px"
	 viewBox="96 11 512 512" style="enable-background:new 96 11 512 512;" xml:space="preserve">
<style type="text/css">
	.st0{display:none;fill:#020202;}
	.st1{fill:#FD6A33;}
	.st2{fill:#FF8C29;}
	.st3{fill:#365558;}
	.st4{fill:#FFD1A9;}
	.st5{fill:#F0353D;}
	.st6{fill:#FFFFFF;}
	.st7{fill:#4ACFD9;}
	.st8{fill:#0295AA;}
	.st9{fill:#9BAAAB;}
	.st10{fill:#CDD4D5;}
	.st11{fill:#E6EAEA;}
	.st12{fill:#BCD643;}
</style>
<rect x="192" y="22" class="st0" width="512" height="512"/>
<path class="st1" d="M240.4,157h-5.6h-5.7c-7.3,0-13.2,6-13.2,13.2v57c0,7.3,6,13.2,13.2,13.2h5.7h5.6c3.3,0,6.1-2.7,6.1-6.1V163
	C246.5,159.9,243.8,157,240.4,157z"/>
<path class="st2" d="M469.2,240.4h-5.6c-3.3,0-6.1-2.7-6.1-6.1V163c0-3.3,2.7-6.1,6.1-6.1h5.6h5.7c7.3,0,13.2,6,13.2,13.2v57.1
	c0,7.3-6,13.2-13.2,13.2L469.2,240.4L469.2,240.4z"/>
<path class="st2" d="M416.5,103.9h-41.9c-4.1,0-8-3.8-8-8V94H352v186h64.5c16.8,0,30.5-13.7,30.5-30.5V134.2
	C447,117.4,433.2,103.7,416.5,103.9z"/>
<path class="st2" d="M371.2,88.9c6.6-4.3,4.7-14.1-1.6-19.1c0,0-17.5,12.9-17.5,24.1c5.1,0,14.6,0,14.6,0S365.8,92.4,371.2,88.9z"/>
<path class="st3" d="M385.6,237.3h16.6c1.7,0,3.2-1.4,3.2-3.2V229c0-1.7-1.4-3.2-3.2-3.2h-16.6c-1.7,0-3.2,1.4-3.2,3.2v5.1
	C382.4,235.8,383.9,237.3,385.6,237.3z"/>
<path class="st3" d="M393.9,187c8.4,0,15.2-6.8,15.2-15.2s-6.8-15.2-15.2-15.2c-8.4,0-15.2,6.8-15.2,15.2
	C378.7,180.2,385.5,187,393.9,187z"/>
<path class="st3" d="M360.5,225.8H352v11.4h8.5c1.6,0,3-1.3,3-3v-5.5C363.5,227.2,362.2,225.8,360.5,225.8z"/>
<path class="st1" d="M337.4,95.7c0,4.6-4.7,8-9.2,8h-40.6c-16.8,0-30.5,13.7-30.5,30.5v115.3c0,16.8,13.7,30.5,30.5,30.5H352V94
	h-14.6V95.7z"/>
<path class="st1" d="M348,72c-5.6,3.7-10.6,9.9-10.6,22c6.8,0,9.5,0,14.6,0c0-11.4,17.7-24.3,17.7-24.3
	C363.4,64.8,353.5,68.3,348,72z"/>
<path class="st3" d="M318.6,225.8h-17c-1.6,0-3,1.3-3,3v5.5c0,1.6,1.3,3,3,3h17c1.6,0,3-1.3,3-3v-5.5
	C321.6,227.2,320.2,225.8,318.6,225.8z"/>
<path class="st3" d="M310.1,156.5c-8.4,0-15.2,6.8-15.2,15.2s6.8,15.2,15.2,15.2s15.2-6.8,15.2-15.2
	C325.3,163.4,318.5,156.5,310.1,156.5z"/>
<path class="st3" d="M343.5,225.8c-1.6,0-3,1.3-3,3v5.5c0,1.6,1.3,3,3,3h8.5v-11.5H343.5z"/>
<path class="st4" d="M229,207.2c0.6,0.9,0.9,2.1,0.5,3.2c-1.5,6.3-0.3,12.9,3.3,18.1c1.2,1.7,0.8,4.1-0.7,5.4c-1.7,1.3-4,1-5.2-0.6
	c-5-6.9-6.6-15.8-4.5-24.3c0.5-2.1,2.5-3.4,4.5-2.9C227.9,206,228.4,206.5,229,207.2z"/>
<path class="st4" d="M477.6,206c2-0.5,4,0.9,4.5,2.9c2.2,8.5,0.5,17.4-4.5,24.3c-1.2,1.6-3.5,1.9-5.2,0.6c-1.5-1.3-2-3.7-0.7-5.4
	c3.6-5.2,4.8-11.7,3.3-18.1c-0.4-1.1-0.1-2.3,0.5-3.2C476,206.5,476.6,206,477.6,206z"/>
<path class="st5" d="M414.6,40.7l-17.1,16.5c-2.3,2.2-5.9,2.2-8.3-0.1c-2.3-2.3-2.3-5.8,0.1-8l17.1-16.5c2.3-2.2,5.9-2.2,8.3,0.1
	C416.9,34.9,416.9,38.4,414.6,40.7z"/>
<path class="st5" d="M428.3,75.5c-1.1,1.1-2.5,1.7-4.2,1.6l-21.7-0.1c-3.3,0-5.8-2.5-5.8-5.8c0-3.1,2.6-5.6,5.9-5.7l21.7,0.1
	c3.3,0,5.8,2.5,5.8,5.8C430.1,73.1,429.3,74.6,428.3,75.5z"/>
<path class="st5" d="M378.9,48.1c-1.1,1.1-2.5,1.7-4.2,1.6c-3.3,0-5.8-2.5-5.8-5.8l0.1-21.1c0-3.1,2.6-5.6,5.9-5.7
	c3.3,0,5.8,2.5,5.8,5.8l-0.1,21.1C380.5,45.6,380,47,378.9,48.1z"/>
<polygon class="st6" points="352,444.1 352,437.3 370.3,413.1 403,344.4 419.2,347.3 449.3,368.9 432.5,419.9 378,475.6 352,475.6 
	"/>
<path class="st7" d="M352,296.1c10.8,0,13.8,2.1,17.3,9.4c5.4,11.3,11.3,22.7,5.3,28.7s-15.8,8.7-22.7,8.7v-46.8H352z"/>
<path class="st7" d="M352,347.6c0,0,9.9-0.4,12.6-2s10.6,45.1,9.6,58.8c-1,13.7-5.2,11.5-5.2,11.5l-17,25.5V347.6z"/>
<rect x="-496.7" y="11" class="st5" width="128" height="128"/>
<rect x="-368.7" y="11" class="st1" width="128" height="128"/>
<rect x="-240.7" y="11" class="st2" width="128" height="128"/>
<rect x="-112.7" y="11" class="st4" width="128" height="128"/>
<rect x="-496.7" y="139" class="st3" width="128" height="128"/>
<rect x="-368.7" y="139" class="st8" width="128" height="128"/>
<rect x="-240.7" y="139" class="st7" width="128" height="128"/>
<rect x="-496.7" y="267" class="st9" width="128" height="128"/>
<rect x="-368.7" y="267" class="st10" width="128" height="128"/>
<rect x="-240.7" y="267" class="st11" width="128" height="128"/>
<rect x="-112.7" y="267" class="st6" width="128" height="128"/>
<rect x="-496.7" y="395" class="st12" width="128" height="128"/>
<polygon class="st11" points="352,443.8 352,437.3 333.7,413.1 301,344.4 284.8,347.3 254.7,368.9 271.5,419.9 326,475.6 352,475.3 
	"/>
<path class="st1" d="M352,465.3c39.9,0,72.2-66.6,72.2-111.7h30.5c0,55.6,12.7,143.7,61.9,143.7v25.3H352V465.3z"/>
<path class="st5" d="M352,465.3c-39.9,0-72.2-66.6-72.2-111.7h-30.5c0,55.6-12.7,143.7-61.9,143.7v25.3H352V465.3z"/>
<path class="st10" d="M424.1,324.1c13.4,3.8,35.4,22.2,43.8,27.4c3.8,2.3,13.6,9.8,9.9,15.7c0,0-44.5-24.2-54-8.2
	s-16.5,30.7-26.2,44.4c-11.4,16.1-39.7,44.1-39.7,44.1c-3.2,0.7-3.7,0.5-4.6-0.2c-1.4-1.2-1.9-6.1-0.7-10l55-101.4
	C409.9,329.5,417.2,324.1,424.1,324.1"/>
<path class="st8" d="M352,296.1c-10.8,0-13.8,2.1-17.3,9.4c-5.4,11.3-11.3,22.7-5.3,28.7s15.8,8.7,22.7,8.7v-46.8H352z"/>
<path class="st8" d="M352,347.7c0,0-9.9-0.4-12.6-2.1s-10.6,45.1-9.6,58.8c1,13.7,5.2,11.5,5.2,11.5l17,25.5V347.7z"/>
<path class="st9" d="M279.9,324.1c6.8,0,14.2,5.4,16.4,11.8l55,101.4c1.2,3.9,0.7,8.3-0.7,10c-0.7,0.8-0.6,0.9-4.6,0.2
	c0,0-28.3-28.1-39.7-44.1c-9.7-13.8-16.7-28.4-26.2-44.4s-54,8.2-54,8.2c-3.6-5.9,6.1-13.3,9.9-15.7
	C244.5,346.3,266.5,327.9,279.9,324.1"/>
<circle class="st3" cx="352" cy="489.9" r="7.6"/>
</svg>
