<?xml version="1.0" encoding="utf-8"?>
<!-- Generator: Adobe Illustrator 19.0.0, SVG Export Plug-In . SVG Version: 6.00 Build 0)  -->
<svg version="1.1" id="Layer_1" xmlns="http://www.w3.org/2000/svg" xmlns:xlink="http://www.w3.org/1999/xlink" x="0px" y="0px"
	 viewBox="96 11 512 512" style="enable-background:new 96 11 512 512;" xml:space="preserve">
<style type="text/css">
	.st0{display:none;}
	.st1{display:inline;fill:#E6EAEA;}
	.st2{display:inline;fill:#CDD4D5;}
	.st3{display:inline;fill:#9BAAAB;}
	.st4{display:inline;fill:#FFFFFF;}
	.st5{fill:#0295AA;}
	.st6{fill:#365558;}
	.st7{fill:#4ACFD9;}
	.st8{fill:#FD6A33;}
	.st9{fill:#F0353D;}
	.st10{fill:#FFFFFF;}
	.st11{fill:#FF8C29;}
	.st12{fill:#FFD1A9;}
	.st13{fill:#9BAAAB;}
	.st14{fill:#CDD4D5;}
	.st15{fill:#E6EAEA;}
	.st16{fill:#BCD643;}
</style>
<g id="Layer_2">
</g>
<g id="Layer_4" class="st0">
	<path class="st1" d="M1106.4-384.9H613.5c-4.4,0-8,3.6-8,8v485.8c0,4.4,3.6,8,8,8h492.9c4.4,0,8-3.6,8-8v-485.8
		C1114.4-381.3,1110.8-384.9,1106.4-384.9z"/>
	<path class="st2" d="M613.5-384.9c-4.4,0-8,3.6-8,8v485.8c0,4.4,3.6,8,8,8h245.4v-501.8H613.5L613.5-384.9z"/>
	<polygon class="st2" points="651.7,75.3 651.7,71.8 1068.2,71.8 1068.2,-146.3 1015.1,9.9 860,66.7 752.9,-32.3 	"/>
	<polygon class="st3" points="753.5,-35.5 651.7,65.3 651.7,61.8 858.9,61.8 852,58.3 	"/>
	<path class="st4" d="M1063.9-342.3H656c-4.4,0-8,3.6-8,8V66.3c0,4.4,3.6,8,8,8h407.9c4.4,0,8-3.6,8-8v-400.6
		C1071.9-338.7,1068.3-342.3,1063.9-342.3z M958.2-146.3h-90.3v-86.3h90.3V-146.3z M974.2-232.6h81.8v86.3h-81.8V-232.6z
		 M867.9-248.6v-77.8h90.3v77.8C958.2-248.6,867.9-248.6,867.9-248.6z M852-248.6h-90.3v-77.8H852V-248.6L852-248.6z M852-232.6
		v86.3h-90.3v-86.3H852z M745.8-146.3H664v-86.3h81.8V-146.3L745.8-146.3z M664-130.3h81.8V-44H664V-130.3L664-130.3z M761.7-130.3
		H852V-44h-90.3V-130.3z M852-28v86.3h-90.3V-28H852L852-28z M867.9-28h90.3v86.3h-90.3V-28L867.9-28z M867.9-44v-86.3h90.3V-44
		H867.9L867.9-44z M974.2-130.3h81.8V-44h-81.8V-130.3z M1056-248.6h-81.8v-77.8h81.8V-248.6z M745.8-326.3v77.8H664v-77.8H745.8z
		 M664-28h81.8v86.3H664V-28L664-28z M974.2,58.3V-28h81.8v86.3C1056,58.3,974.2,58.3,974.2,58.3z"/>
	<path class="st1" d="M656-342.3c-4.4,0-8,3.6-8,8V66.3c0,4.4,3.6,8,8,8h202.9v-416.5L656-342.3L656-342.3z M745.8,58.3H664V-28
		h81.8V58.3L745.8,58.3z M745.8-44H664v-86.3h81.8V-44L745.8-44z M745.8-146.3H664v-86.3h81.8V-146.3L745.8-146.3z M745.8-248.6H664
		v-77.8h81.8V-248.6L745.8-248.6z M852,58.3h-90.3V-28H852V58.3L852,58.3z M852-44h-90.3v-86.3H852V-44L852-44z M852-146.3h-90.3
		v-86.3H852V-146.3L852-146.3z M761.7-248.6v-77.8H852v77.8C852-248.6,761.7-248.6,761.7-248.6z"/>
</g>
<path class="st5" d="M441.1,135.1c-7.8,9.7-15.7,19.3-23.5,29c4.8,13.6,7.4,28.3,7.4,43.6c0,5.7-0.4,11.4-1.1,16.9
	c1.8,1.5,3.7,2.9,5.5,4.4c2.7,2.2,5.4,4.5,8.1,6.7c-1.8,2.4-3.3,4.6-5,6.6c-7.5,9.3-14.7,18.7-22.4,27.9c-1,1.2-2.1,2.4-3.2,3.6
	c-14.8,25.2-37.8,45.1-65.2,55.9v26.4c0.6,0,1.2-0.1,1.9-0.1c17.1,0,30.9,14.1,30.9,31.3c0,17.1-13.9,31-31.2,30.9c-0.5,0-1,0-1.6,0
	v39.4c2.3,1.3,4.5,3.1,6.5,5.1c1.1,1.1,2.5,2,3.8,2.9c5.7,3.9,11.8,5.6,18.5,3.4c4.1-1.2,6.9-4.5,9.7-7.4
	c10.6-11.4,21-22.8,31.4-34.4c7.9-8.9,15-18.5,20.6-29.1c4.9-9.2,6.2-15.1-2.3-24.9c-2.4-2.7-5.3-5-7.6-7.7c-2.1-2.5-4.6-5-5.4-8
	c-0.9-3.1-0.8-7,0.2-10.1c2.3-6.8,5.4-13.4,8.4-19.9c6.2-13.2,14.6-25.1,23.7-36.4c7.6-9.2,15.2-18.3,23-27.7
	c6.8,5.5,13.4,10.7,19.7,16.1c0.6,0.5,0.7,2,0.6,2.9c-0.9,6.1-2,12.2-3.2,18.3c-0.6,3.1-0.4,5.4,2.7,7.1c1.7,0.9,3,2.4,4.5,3.6
	c3,2.5,6.1,4.9,9.1,7.4c21.5-26.6,43-52.9,64.4-79.4C527.1,204.8,484.2,170,441.1,135.1z M472.9,244.5c-9.4,0-17-7.4-17-16.9
	c0-8.5,7.8-16.5,15.9-16.5c10,0,17.6,7.2,17.6,16.9C489.4,237.2,482,244.5,472.9,244.5z"/>
<path class="st6" d="M282.8,338.3c-0.3,0.4-0.6,0.8-1,1.2c-7.8,10.4-14.9,21.3-22.1,32.1c-3,4.5-2.8,9.5-1,14.5
	c1.8,5.1,5.4,8.8,9.5,11.7c7.7,5.2,12.5,12.1,14.5,21.2c0.4,2.1,1.2,4,2.1,5.9c3.3,8.1,9.4,13.8,16.1,19c7.1,5.6,15.1,9,24.2,9.2
	c6.1,0.1,11.6,1.7,16.5,4.6v-39.4c-16.7-0.6-29.5-14.3-29.4-31.4c0.1-16.3,13.2-29.6,29.4-30.6v-26.6c-14.8,5.8-30.9,9-47.7,9
	C290.1,338.8,286.4,338.6,282.8,338.3z"/>
<path class="st5" d="M451.7,122.1c8.6-10.6,17.1-21,25.7-31.6c48.8,27.7,91.7,62.4,128.9,104.6c-8.5,10.5-17,20.9-25.6,31.6
	C537.6,191.9,494.7,157.1,451.7,122.1z"/>
<path class="st7" d="M343.5,356.3c-0.6,0-1.2,0-1.9,0.1v62.1c0.5,0,1,0,1.6,0c17.3,0,31.2-13.8,31.2-30.9
	C374.3,370.3,360.4,356.4,343.5,356.3z"/>
<path class="st5" d="M312.2,386.9c-0.1,17.1,12.7,30.8,29.4,31.5v-62.1C325.3,357.3,312.2,370.6,312.2,386.9z"/>
<path class="st6" d="M489.4,228c0,9.1-7.4,16.5-16.5,16.6c-9.4,0-17-7.4-17-16.9c0-8.5,7.8-16.5,15.9-16.5
	C481.9,211.2,489.4,218.4,489.4,228z"/>
<path class="st8" d="M168.4,245.7c-10.9,9.7-21.8,19.3-32.6,29c22.7,25.6,45.3,51,67.8,76.5c5.2-4.7,10.3-9,15.2-13.6
	c0.6-0.5,0.8-2,0.7-2.8c-1.4-6.9-2.9-13.8-4.6-20.6c-0.2-0.8-0.2-1.5,0-2C193.1,295.7,176.6,272.5,168.4,245.7z"/>
<path class="st8" d="M173.3,156.3c-27.7,22.3-52.9,47.5-75.6,75.5c9,10.3,17.9,20.2,27,30.4c13.2-11.7,26.4-23.4,39.5-35.1
	c-0.9-6.3-1.4-12.8-1.4-19.4C162.8,189.4,166.5,172.1,173.3,156.3z"/>
<path class="st9" d="M252.6,75.3c1.7-4.3-0.3-9-4.6-10.7c-4.3-1.7-9,0.3-10.8,4.5l-10.6,26.1c7-4.2,14.5-7.8,22.3-10.7L252.6,75.3z"
	/>
<path class="st9" d="M194.9,104.9c1.8,4.3,6.6,6.3,10.8,4.5c2.1-0.9,3.7-2.5,4.5-4.5s0.8-4.1,0-6.3l-11.9-28.4
	c-1.8-4.3-6.6-6.3-10.8-4.5c-4.3,1.8-6.3,6.6-4.5,10.8L194.9,104.9z"/>
<path class="st10" d="M297.7,376.8c1.6,1.6,2.4,3.6,2.2,6c-1.1,12.6,3.3,25,12.2,33.9c2.9,2.9,2.9,7.7,0,10.6s-7.7,2.9-10.6,0
	c-12.1-12.1-18.1-28.8-16.6-45.8c0.4-4.1,4-7.1,8.2-6.8C294.8,374.8,296.4,375.6,297.7,376.8z"/>
<path class="st5" d="M451.7,122.1c8.6-10.6,17.1-21,25.7-31.6c48.8,27.7,91.7,62.4,128.9,104.6c-8.5,10.5-17,20.9-25.6,31.6
	C537.6,191.9,494.7,157.1,451.7,122.1z"/>
<path class="st7" d="M473.5,119.8l7.5-9.2c38.7,23.4,73.9,51.9,104.8,85l-7.5,9.2L473.5,119.8z"/>
<path class="st11" d="M173.3,156.3c-27.7,22.3-52.9,47.5-75.6,75.5c9,10.3,17.9,20.2,27,30.4c13.2-11.7,26.4-23.4,39.5-35.1
	c-0.9-6.3-1.4-12.8-1.4-19.4C162.8,189.4,166.5,172.1,173.3,156.3z"/>
<path class="st12" d="M165,183.7c-16.7,14.8-32.3,30.8-46.8,47.8l7.8,8.8l36.8-32.6c0,0,0,0,0-0.1
	C162.8,199.5,163.6,191.5,165,183.7z"/>
<g>
	<path class="st8" d="M338.4,310.1c-11.9-13.4-8.9-9.4-21-23.2c9.8-8.8,19.2-17.2,28.8-25.5c0.9-0.8,3.2-0.6,4.4-0.2
		c8.9,3,17.8,5.9,26.6,9.4c4.4,1.7,8,2,11.3-2.1c1.7-2.1,4.4-3.9,6.5-5.7c4.4-3.9,8.8-7.9,13.3-11.9c-34.3-38.6-68.4-77-102.5-115.5
		c-45.3,40.1-90.5,80.1-135.6,120.2c15.7,39.8,50.3,70.2,92.7,79.9c1.4-1.2,2.8-2.4,4.2-3.6c1.8,1.9,3.5,3.6,5.1,5.4
		c6.6,1,13.3,1.5,20.1,1.5c22,0,42.7-5.5,60.9-15.1C347,318.5,345.3,318.1,338.4,310.1z M288.8,281.3c-2.4,14-15.1,23.4-29.3,21.3
		c-12.7-2-22.6-15.6-20.7-27.6c2.6-14.9,14.9-24.5,29.4-22C282,254.9,291.1,267.7,288.8,281.3z"/>
	<path class="st6" d="M268.2,252.4c-14.3-2.4-26.9,7.1-29.4,22c-1.8,12.4,8.3,25.8,20.8,27.9c14,2.1,27-7.1,29.3-21.3
		C291,267.5,281.7,254.9,268.2,252.4z"/>
	<path class="st9" d="M301.5,84.6l14.1-5.9c-7.6-1.4-15.5-2.1-23.5-2.1c-2.5,0-4.9,0.1-7.3,0.2c0.1,0.3,0.2,0.7,0.4,1
		C287.9,84.3,295.2,87.3,301.5,84.6z"/>
	<path class="st11" d="M257.6,81.2c-55.6,15.2-96.5,66.1-96.5,126.5c0,7,0.6,13.9,1.6,20.6c42-37.3,84-74.5,126.1-111.9
		C278.3,104.6,267.9,92.9,257.6,81.2z"/>
	<path class="st12" d="M244,101.2c-25.3,16.8-49.4,35.1-72.3,54.7c-5.7,13.1-9.2,27.4-10.3,42.3l94.5-83.8L244,101.2z"/>
</g>
<path class="st13" d="M458.1,353l-44-44c-5.2-5.2-13.5-5.2-18.7,0c-5.2,5.2-5.2,13.5,0,18.7l44,44c2.5,2.6,5.9,3.9,9.3,3.9
	c3.3,0,6.6-1.3,9.4-3.9C463.3,366.5,463.3,358.3,458.1,353z"/>
<path class="st6" d="M293.9,39.5c-92.6,0-168,75.4-168,168s75.4,168,168,168s168-75.4,168-168S386.5,39.5,293.9,39.5z M293.9,338.8
	c-72.3,0-131.1-58.8-131.1-131.1S221.5,76.5,293.9,76.5S425,135.3,425,207.7C424.8,279.8,366,338.8,293.9,338.8z"/>
<path class="st7" d="M603.2,458.5L483.7,339c-2.5-2.5-5.8-3.9-9.3-3.9s-6.9,1.4-9.3,3.9l-39.8,39.8c-5.2,5.2-5.2,13.5,0,18.7
	L544.7,517c2.6,2.6,6,3.9,9.3,3.9c3.4,0,6.8-1.3,9.3-3.9l39.8-39.8c2.5-2.5,3.9-5.8,3.9-9.3C607,464.3,605.5,461,603.2,458.5z"/>
<path class="st10" d="M554.2,460c-3.4,0-6.8-1.3-9.3-3.9l-63.3-63.3c-5.2-5.2-5.2-13.5,0-18.7c5.2-5.2,13.5-5.2,18.7,0l63.3,63.3
	c5.2,5.2,5.2,13.5,0,18.7C561,458.8,557.5,460,554.2,460z"/>
<path class="st10" d="M221.3,277c13.8,18.8,35.1,30.4,58.5,31.9c5.6,0.3,10.5-4.1,10.8-9.6s-4.1-10.5-9.6-10.8
	c-17.1-1.1-32.9-9.9-43.2-23.7c-1.9-2.6-4.6-3.9-7.7-4.1c-2.5-0.1-4.7,0.5-6.7,2C219,266.1,217.9,272.4,221.3,277z"/>
<path class="st7" d="M371.1,133.4c-13.8-18.8-35.1-30.4-58.5-31.9c-5.6-0.3-10.5,4.1-10.8,9.6c-0.3,5.6,4.1,10.5,9.6,10.8
	c17.1,1.1,32.9,9.9,43.2,23.7c1.9,2.6,4.6,3.9,7.7,4.1c2.5,0.1,4.7-0.5,6.7-2C373.4,144.4,374.4,138,371.1,133.4z"/>
<rect x="-535" y="-84" class="st9" width="128" height="128"/>
<rect x="-407" y="-84" class="st8" width="128" height="128"/>
<rect x="-279" y="-84" class="st11" width="128" height="128"/>
<rect x="-151" y="-84" class="st12" width="128" height="128"/>
<rect x="-535" y="44" class="st6" width="128" height="128"/>
<rect x="-407" y="44" class="st5" width="128" height="128"/>
<rect x="-279" y="44" class="st7" width="128" height="128"/>
<rect x="-535" y="172" class="st13" width="128" height="128"/>
<rect x="-407" y="172" class="st14" width="128" height="128"/>
<rect x="-279" y="172" class="st15" width="128" height="128"/>
<rect x="-151" y="172" class="st10" width="128" height="128"/>
<rect x="-535" y="300" class="st16" width="128" height="128"/>
</svg>
