<?xml version="1.0" encoding="utf-8"?>
<!-- Generator: Adobe Illustrator 19.0.0, SVG Export Plug-In . SVG Version: 6.00 Build 0)  -->
<svg version="1.1" id="Layer_1" xmlns="http://www.w3.org/2000/svg" xmlns:xlink="http://www.w3.org/1999/xlink" x="0px" y="0px"
	 viewBox="96 11 512 512" style="enable-background:new 96 11 512 512;" xml:space="preserve">
<style type="text/css">
	.st0{display:none;fill:#020202;}
	.st1{fill:#FD6A33;}
	.st2{fill:#FF8C29;}
	.st3{fill:#365558;}
	.st4{fill:#FFD1A9;}
	.st5{fill:#F0353D;}
	.st6{fill:#FFFFFF;}
	.st7{fill:#4ACFD9;}
	.st8{fill:#0295AA;}
	.st9{fill:#9BAAAB;}
	.st10{fill:#CDD4D5;}
	.st11{fill:#E6EAEA;}
	.st12{fill:#BCD643;}
</style>
<rect x="96" y="11" class="st0" width="512" height="512"/>
<path class="st1" d="M240.4,157.4h-5.6h-5.7c-7.3,0-13.2,6-13.2,13.2v57c0,7.3,6,13.2,13.2,13.2h5.7h5.6c3.3,0,6.1-2.7,6.1-6.1
	v-71.3C246.5,160.3,243.8,157.4,240.4,157.4z"/>
<path class="st2" d="M469.2,240.8h-5.6c-3.3,0-6.1-2.7-6.1-6.1v-71.3c0-3.3,2.7-6.1,6.1-6.1h5.6h5.7c7.3,0,13.2,6,13.2,13.2v57.1
	c0,7.3-6,13.2-13.2,13.2H469.2z"/>
<path class="st2" d="M447,134.6v115.3c0,16.8-13.7,30.5-30.5,30.5H352V65.1l0,0c8,0,14.6,6.6,14.6,14.6v16.6c0,4.2,3.9,8,8,8h41.9
	C433.2,104.1,447,117.8,447,134.6z"/>
<path class="st3" d="M385.6,237.7h16.6c1.7,0,3.2-1.4,3.2-3.2v-5.1c0-1.7-1.4-3.2-3.2-3.2h-16.6c-1.7,0-3.2,1.4-3.2,3.2v5.1
	C382.4,236.2,383.9,237.7,385.6,237.7z"/>
<path class="st3" d="M393.9,187.4c8.4,0,15.2-6.8,15.2-15.2c0-8.4-6.8-15.2-15.2-15.2c-8.4,0-15.2,6.8-15.2,15.2
	C378.7,180.6,385.5,187.4,393.9,187.4z"/>
<path class="st3" d="M360.5,226.2H352v11.4h8.5c1.6,0,3-1.3,3-3v-5.5C363.5,227.6,362.2,226.2,360.5,226.2z"/>
<path class="st1" d="M352,64.9v215.5h-64.4c-16.8,0-30.5-13.7-30.5-30.5V134.6c0-16.8,13.7-30.5,30.5-30.5h40.6c4.5,0,9.2-3.4,9.2-8
	V79.5C337.5,71.5,344,64.9,352,64.9z"/>
<path class="st3" d="M318.6,226.2h-17c-1.6,0-3,1.3-3,3v5.5c0,1.6,1.3,3,3,3h17c1.6,0,3-1.3,3-3v-5.5
	C321.6,227.6,320.2,226.2,318.6,226.2z"/>
<path class="st3" d="M310.1,156.9c-8.4,0-15.2,6.8-15.2,15.2c0,8.4,6.8,15.2,15.2,15.2c8.4,0,15.2-6.8,15.2-15.2
	C325.3,163.8,318.5,156.9,310.1,156.9z"/>
<path class="st3" d="M343.5,226.2c-1.6,0-3,1.3-3,3v5.5c0,1.6,1.3,3,3,3h8.5v-11.5H343.5z"/>
<path class="st4" d="M229,207.6c0.6,0.9,0.9,2.1,0.5,3.2c-1.5,6.3-0.3,12.9,3.3,18.1c1.2,1.7,0.8,4.1-0.7,5.4c-1.7,1.3-4,1-5.2-0.6
	c-5-6.9-6.6-15.8-4.5-24.3c0.5-2.1,2.5-3.4,4.5-2.9C227.9,206.4,228.4,206.9,229,207.6z"/>
<path class="st4" d="M477.6,206.4c2-0.5,4,0.9,4.5,2.9c2.2,8.5,0.5,17.4-4.5,24.3c-1.2,1.6-3.5,1.9-5.2,0.6c-1.5-1.3-2-3.7-0.7-5.4
	c3.6-5.2,4.8-11.7,3.3-18.1c-0.4-1.1-0.1-2.3,0.5-3.2C476,206.9,476.6,206.4,477.6,206.4z"/>
<path class="st5" d="M357.3,17.5l-0.4,23.8c-0.1,3.2-2.6,5.7-5.9,5.8c-3.2,0-5.7-2.5-5.6-5.7l0.4-23.8c0.1-3.2,2.6-5.7,5.9-5.8
	C354.8,11.8,357.3,14.3,357.3,17.5z"/>
<path class="st5" d="M391.6,32.5c0,1.5-0.6,3-1.8,4.1l-15.4,15.3c-2.3,2.3-5.9,2.3-8.2,0c-2.2-2.2-2.1-5.8,0.2-8.2l15.4-15.3
	c2.3-2.3,5.9-2.3,8.2,0C391.2,29.5,391.7,31.1,391.6,32.5z"/>
<path class="st5" d="M337.3,48c0,1.5-0.6,3-1.8,4.1c-2.3,2.3-5.9,2.3-8.2,0l-14.9-15c-2.2-2.2-2.1-5.8,0.2-8.2
	c2.3-2.3,5.9-2.3,8.2,0l14.9,15C336.7,45.1,337.3,46.5,337.3,48z"/>
<polygon class="st6" points="352,444.5 352,437.7 370.3,413.5 403,344.8 419.2,347.7 449.3,369.3 432.5,420.3 378,476 352,476 "/>
<path class="st7" d="M352,296.5c10.8,0,13.8,2.1,17.3,9.4c5.4,11.3,11.3,22.7,5.3,28.7s-15.8,8.7-22.7,8.7V296.5z"/>
<path class="st7" d="M352,348c0,0,9.9-0.4,12.6-2s10.6,45.1,9.6,58.8c-1,13.7-5.2,11.5-5.2,11.5l-17,25.5V348z"/>
<rect x="-508.7" class="st5" width="128" height="128"/>
<rect x="-380.7" class="st1" width="128" height="128"/>
<rect x="-252.7" class="st2" width="128" height="128"/>
<rect x="-124.7" class="st4" width="128" height="128"/>
<rect x="-508.7" y="128" class="st3" width="128" height="128"/>
<rect x="-380.7" y="128" class="st8" width="128" height="128"/>
<rect x="-252.7" y="128" class="st7" width="128" height="128"/>
<rect x="-508.7" y="256" class="st9" width="128" height="128"/>
<rect x="-380.7" y="256" class="st10" width="128" height="128"/>
<rect x="-252.7" y="256" class="st11" width="128" height="128"/>
<rect x="-124.7" y="256" class="st6" width="128" height="128"/>
<rect x="-508.7" y="384" class="st12" width="128" height="128"/>
<polygon class="st11" points="352,444.2 352,437.7 333.7,413.5 301,344.8 284.8,347.7 254.7,369.3 271.5,420.3 326,476 352,475.7 
	"/>
<path class="st1" d="M352,465.7c39.9,0,72.2-66.6,72.2-111.7h30.5c0,55.6,12.7,143.7,61.9,143.7V523H352V465.7z"/>
<path class="st5" d="M352,465.7c-39.9,0-72.2-66.6-72.2-111.7h-30.5c0,55.6-12.7,143.7-61.9,143.7V523H352V465.7z"/>
<path class="st10" d="M424.1,324.5c13.4,3.8,35.4,22.2,43.8,27.4c3.8,2.3,13.6,9.8,9.9,15.7c0,0-44.5-24.2-54-8.2
	c-9.5,16-16.5,30.7-26.2,44.4c-11.4,16.1-39.7,44.1-39.7,44.1c-3.2,0.7-3.7,0.5-4.6-0.2c-1.4-1.2-1.9-6.1-0.7-10l55-101.4
	C409.9,329.9,417.2,324.5,424.1,324.5"/>
<path class="st8" d="M352,296.5c-10.8,0-13.8,2.1-17.3,9.4c-5.4,11.3-11.3,22.7-5.3,28.7s15.8,8.7,22.7,8.7V296.5z"/>
<path class="st8" d="M352,348.1c0,0-9.9-0.4-12.6-2.1s-10.6,45.1-9.6,58.8c1,13.7,5.2,11.5,5.2,11.5l17,25.5V348.1z"/>
<path class="st9" d="M279.9,324.5c6.8,0,14.2,5.4,16.4,11.8l55,101.4c1.2,3.9,0.7,8.3-0.7,10c-0.7,0.8-0.6,0.9-4.6,0.2
	c0,0-28.3-28.1-39.7-44.1c-9.7-13.8-16.7-28.4-26.2-44.4c-9.5-16-54,8.2-54,8.2c-3.6-5.9,6.1-13.3,9.9-15.7
	C244.5,346.7,266.5,328.3,279.9,324.5"/>
<circle class="st3" cx="352" cy="490.3" r="7.6"/>
</svg>
