<?xml version="1.0" encoding="utf-8"?>
<!-- Generator: Adobe Illustrator 19.0.0, SVG Export Plug-In . SVG Version: 6.00 Build 0)  -->
<svg version="1.1" id="Layer_1" xmlns="http://www.w3.org/2000/svg" xmlns:xlink="http://www.w3.org/1999/xlink" x="0px" y="0px"
	 viewBox="96 11 512 512" style="enable-background:new 96 11 512 512;" xml:space="preserve">
<style type="text/css">
	.st0{fill:#E6EAEA;}
	.st1{fill:#CDD4D5;}
	.st2{fill:#FFD1A9;}
	.st3{fill:#FF8C29;}
	.st4{fill:#9BAAAB;}
	.st5{fill:#687F82;}
	.st6{fill:#365558;}
	.st7{fill:#F0353D;}
	.st8{fill:#0295AA;}
	.st9{fill:#FD6A33;}
	.st10{fill:#4ACFD9;}
	.st11{display:none;fill:#0295AA;}
	.st12{fill:#FFFFFF;}
</style>
<path class="st0" d="M600,15.3H104c-4.4,0-8,3.6-8,8v487.4c0,4.4,3.6,8,8,8h496c4.4,0,8-3.6,8-8V23.3C608,18.9,604.4,15.3,600,15.3z
	 M280,338.8c-72.3,0-131.1-58.8-131.1-131.1S207.6,76.5,280,76.5s131.1,58.8,131.1,131.1C410.9,279.8,352.1,338.8,280,338.8z"/>
<path class="st1" d="M148.9,207.6c0-72.3,58.7-131.1,131.1-131.1c26.1,0,50.5,7.7,70.9,20.9V15.3H104c-4.4,0-8,3.6-8,8v487.4
	c0,4.4,3.6,8,8,8h246.9v-201c-20.5,13.3-44.8,21-70.9,21C207.7,338.8,148.9,280,148.9,207.6z"/>
<path class="st2" d="M458.9,262.7L352,356.8l-27.9-25.7c-13.8,5-28.7,7.7-44.1,7.7c-32.7,0-62.7-12.1-85.7-32l-51.8,58.6v106.9h419
	V143L458.9,262.7z"/>
<path class="st3" d="M194.3,306.8l-51.8,58.6v106.9h208.4V355.8l-26.8-24.7c-13.8,5-28.7,7.7-44.1,7.7
	C247.3,338.8,217.3,326.7,194.3,306.8z"/>
<path class="st4" d="M557.2,58H146.8c-4.4,0-8,3.6-8,8V468c0,4.4,3.6,8,8,8h410.5c4.4,0,8-3.6,8-8V66C565.2,61.6,561.7,58,557.2,58z
	 M237.1,459.9h-82.3v-86.6h82.3V459.9z M344,459.9h-90.9v-86.6H344V459.9z M450.9,459.9H360v-86.6h0h90.9V459.9z M450.9,152.1h-52.1
	c2.4,5.2,4.5,10.5,6.3,16h45.9v86.6h-48.6c-2.1,5.5-4.7,10.9-7.5,16h56.1v86.6H360v0v-46c-5.1,3.9-10.4,7.5-16,10.7v35.4h-90.9V336
	c-5.5-1.1-10.8-2.6-16-4.4v25.8h-82.3v-86.6h10.3c-2.8-5.1-5.3-10.5-7.5-16h-2.8v-8.1c-3.8-12.3-5.9-25.4-5.9-38.9
	c0-13.6,2.1-26.6,5.9-38.9v-0.6h0.2c1.7-5.5,3.8-10.9,6.3-16h-6.5v-78h82.3v9.7c5.2-1.8,10.6-3.3,16-4.4v-5.3H344v19.2
	c5.6,3.1,11,6.7,16,10.6V74.1h90.9V152.1z M549.2,459.9h-82.3v-86.6h82.3V459.9z M549.2,357.3h-82.3v-86.6h82.3V357.3z M549.2,254.7
	h-82.3v-86.6h82.3V254.7z M549.2,152.1h-82.3v-78h82.3V152.1z"/>
<path class="st5" d="M344,357.3h-90.9V336c-5.5-1.1-10.8-2.6-16-4.4v25.8h-82.3v-86.6h10.3c-2.8-5.1-5.3-10.5-7.5-16h-2.8v-8.1
	c-3.8-12.3-5.9-25.4-5.9-38.9c0-13.6,2.1-26.6,5.9-38.9v-0.6h0.2c1.7-5.5,3.8-10.9,6.3-16h-6.5v-78h82.3v9.7
	c5.2-1.8,10.6-3.3,16-4.4v-5.3H344v19.2c2.4,1.3,4.7,2.7,6.9,4.2V58H146.8c-4.4,0-8,3.6-8,8V468c0,4.4,3.6,8,8,8h204.2V317.7
	c-2.3,1.5-4.6,2.9-6.9,4.2V357.3z M237.1,459.9h-82.3v-86.6h82.3V459.9z M344,459.9h-90.9v-86.6H344V459.9z"/>
<path class="st6" d="M558.4,154.2c-3.3-3-8.3-2.8-11.3,0.5l-93.9,102.4L352,354.2l-25.2-24.2c-5.7,2.2-11.5,4-17.5,5.4l37.2,35.7
	c3.1,3,8,3,11.1,0l106.9-102.6c0.1-0.1,0.2-0.2,0.4-0.4l94.1-102.6C561.9,162.3,561.6,157.2,558.4,154.2z"/>
<path class="st6" d="M140.9,364.2c-3,3.3-2.8,8.3,0.5,11.3c1.5,1.4,3.5,2.1,5.4,2.1c2.2,0,4.3-0.9,5.9-2.6l54-58.7
	c-4.5-3-8.7-6.3-12.8-9.8L140.9,364.2z"/>
<path class="st7" d="M146.8,335.9c-16.2,0-29.4,13.2-29.4,29.4s13.2,29.4,29.4,29.4c16.2,0,29.4-13.2,29.4-29.4
	S163,335.9,146.8,335.9z"/>
<g>
	<path class="st0" d="M280,76.4c-72.4,0-131.1,58.8-131.1,131.1S207.7,338.6,280,338.6c72.1,0,130.9-58.9,131.1-131.1
		C411.1,135.2,352.4,76.4,280,76.4z"/>
	<path class="st1" d="M280,76.4c-72.4,0-131.1,58.8-131.1,131.1S207.7,338.6,280,338.6c48.5,0,91-26.7,113.7-66.2V142.3
		C371.1,103,328.6,76.4,280,76.4z"/>
	<path class="st2" d="M183,295.7c24,26.4,58.6,43,97,43c23.6,0,45.7-6.3,64.9-17.3l-101.6-93.8L183,295.7z"/>
	<path class="st3" d="M183,295.7c24,26.4,58.6,43,97,43c23.6,0,45.7-6.3,64.9-17.3l-101.6-93.8L183,295.7z"/>
	<path class="st4" d="M406.1,228.3v-56.6c-4.5-16-12.1-30.7-21.9-43.6v100.2H260.1V110h107.4c-9.9-8.9-21.2-16.3-33.5-21.9h-73.9V78
		c-7.5,1.1-14.9,2.9-21.9,5.3v4.8H226c-12.3,5.6-23.6,13-33.5,21.9h45.7v118.3h-87.6c1.2,7.5,3,14.9,5.5,21.9h82.2v81.6
		c7.1,2.4,14.4,4.2,21.9,5.3v-87h124.1v36.6c12.8-16.8,21.7-36.8,25.2-58.5H406.1z"/>
	<path class="st5" d="M393.7,142.3c-2.9-5-6-9.7-9.5-14.2v100.2H260.1V110h107.4c-9.9-8.9-21.2-16.3-33.5-21.9h-73.9V78
		c-7.5,1.1-14.9,2.9-21.9,5.3v4.8H226c-12.3,5.6-23.6,13-33.5,21.9h45.7v118.3h-87.6c1.2,7.5,3,14.9,5.5,21.9h82.2v81.6
		c7.1,2.4,14.4,4.2,21.9,5.3v-87h124.1v36.6c3.5-4.5,6.6-9.3,9.5-14.3V142.3z"/>
	<path class="st6" d="M248.8,228.3c-2.9,0.1-5.7,1.4-7.7,3.5l-58.4,63.5c4.9,5.4,10.2,10.4,16,15l51-55.4l77.9,74.8
		c7.3-2.9,14.2-6.3,20.8-10.4l-91.6-88C254.6,229.3,251.7,228.2,248.8,228.3z"/>
	<path class="st8" d="M249.1,199.1c-22.1,0-40.2,18-40.2,40.2c0,22.1,18,40.2,40.2,40.2s40.2-18,40.2-40.2
		C289.3,217.1,271.3,199.1,249.1,199.1z"/>
</g>
<path class="st9" d="M352,335.9c-16.2,0-29.4,13.2-29.4,29.4s13.2,29.4,29.4,29.4s29.4-13.2,29.4-29.4S368.2,335.9,352,335.9z"/>
<path class="st7" d="M322.6,365.3c0,15.8,12.6,28.8,28.3,29.4V336C335.2,336.5,322.6,349.5,322.6,365.3z"/>
<g>
	<path class="st10" d="M458.9,233.3c-16.2,0-29.4,13.2-29.4,29.4s13.2,29.4,29.4,29.4c16.2,0,29.4-13.2,29.4-29.4
		C488.3,246.5,475.1,233.3,458.9,233.3z"/>
	<path class="st10" d="M553,130.7c-16.2,0-29.4,13.2-29.4,29.4s13.2,29.4,29.4,29.4s29.4-13.2,29.4-29.4S569.2,130.7,553,130.7z"/>
</g>
<path class="st6" d="M444.2,353l-44-44c-5.2-5.2-13.5-5.2-18.7,0c-5.2,5.2-5.2,13.5,0,18.7l44,44c2.5,2.6,5.9,3.9,9.3,3.9
	c3.3,0,6.6-1.3,9.4-3.9C449.4,366.5,449.4,358.3,444.2,353z"/>
<path class="st8" d="M280,39.5c-92.6,0-168,75.4-168,168s75.4,168,168,168s168-75.4,168-168S372.6,39.5,280,39.5z M280,338.8
	c-72.3,0-131.1-58.8-131.1-131.1S207.6,76.5,280,76.5s131.1,58.8,131.1,131.1C410.9,279.8,352.1,338.8,280,338.8z"/>
<path class="st11" d="M280,76.5c-72.4,0-131.1,58.8-131.1,131.1S207.7,338.8,280,338.8c72.1,0,130.9-58.9,131.1-131.1
	C411.1,135.3,352.4,76.5,280,76.5z"/>
<path class="st10" d="M589.3,458.5L469.8,339c-2.5-2.5-5.8-3.9-9.3-3.9s-6.9,1.4-9.3,3.9l-39.8,39.8c-5.2,5.2-5.2,13.5,0,18.7
	L530.8,517c2.6,2.6,6,3.9,9.3,3.9c3.4,0,6.8-1.3,9.3-3.9l39.8-39.8c2.5-2.5,3.9-5.8,3.9-9.3C593.1,464.3,591.6,461,589.3,458.5z"/>
<path class="st12" d="M540.3,460c-3.4,0-6.8-1.3-9.3-3.9l-63.3-63.3c-5.2-5.2-5.2-13.5,0-18.7c5.2-5.2,13.5-5.2,18.7,0l63.3,63.3
	c5.2,5.2,5.2,13.5,0,18.7C547.1,458.8,543.6,460,540.3,460z"/>
<g>
	<path class="st12" d="M227.7,106.7c-2.7,0-5.5,1-7.6,3.1l-28.6,28.6c-4.2,4.2-4.2,11,0,15.2c4.3,4.2,11,4.2,15.2,0l28.6-28.6
		c4.2-4.2,4.2-11,0-15.2C233.2,107.7,230.5,106.7,227.7,106.7z"/>
	<path class="st12" d="M242,149.5c-2.7,0-5.5,1-7.6,3.1L203,184c-4.2,4.2-4.2,11,0,15.2s11,4.2,15.2,0l31.4-31.4
		c4.2-4.2,4.2-11,0-15.2C247.5,150.5,244.8,149.5,242,149.5z"/>
</g>
<path class="st12" d="M337,119.5c-17.8-15.1-41.2-21.4-64.3-17.4c-5.5,1-9.3,6.4-8.3,11.9s6.4,9.3,11.9,8.3
	c16.9-2.9,34.3,1.9,47.5,13c2.5,2.1,5.4,2.7,8.4,2.2c2.4-0.5,4.5-1.6,6-3.5C341.8,129.6,341.3,123.3,337,119.5z"/>
</svg>
