<?xml version="1.0" encoding="utf-8"?>
<!-- Generator: Adobe Illustrator 19.0.0, SVG Export Plug-In . SVG Version: 6.00 Build 0)  -->
<svg version="1.1" id="Layer_1" xmlns="http://www.w3.org/2000/svg" xmlns:xlink="http://www.w3.org/1999/xlink" x="0px" y="0px"
	 viewBox="96 11 512 512" style="enable-background:new 96 11 512 512;" xml:space="preserve">
<style type="text/css">
	.st0{display:none;fill:#FFD1A9;}
	.st1{display:none;fill:#FF8C29;}
	.st2{display:none;fill:#FFFFFF;}
	.st3{display:none;fill:#F0353D;}
	.st4{fill:#FFFFFF;}
	.st5{fill:#365558;}
	.st6{fill:#9BAAAB;}
	.st7{fill:#FD6A33;}
	.st8{fill:#F0353D;}
	.st9{fill:#0295AA;}
	.st10{fill:#4ACFD9;}
	.st11{fill:#687F82;}
	.st12{fill:#FFD1A9;}
	.st13{fill:#CDD4D5;}
	.st14{fill:#FF8C29;}
</style>
<path class="st0" d="M447,163.1c-63.4,0-114.9,51.5-114.9,114.9S383.6,392.9,447,392.9S561.9,341.4,561.9,278S510.4,163.1,447,163.1
	z"/>
<path class="st1" d="M332.1,278c0,63.4,51.5,114.9,114.9,114.9V163.1C383.6,163.1,332.1,214.6,332.1,278z"/>
<path class="st2" d="M519.6,260.4c-3.3,0-6.4-2.1-7.6-5.3c-5.9-16.7-18.4-30.9-34.4-38.8c-4-2-5.6-6.8-3.6-10.7
	c2-4,6.8-5.6,10.7-3.6c19.6,9.8,35.1,27.2,42.4,47.8c1.5,4.2-0.7,8.8-4.9,10.2C521.4,260.2,520.5,260.4,519.6,260.4z"/>
<path class="st3" d="M490.4,270.8l-65-50.4c-2.4-1.9-5.7-2.2-8.4-0.9c-2.7,1.3-4.5,4.1-4.5,7.2v102.6c0,3.1,1.8,5.9,4.6,7.2
	c1.1,0.5,2.3,0.8,3.5,0.8c1.8,0,3.6-0.6,5-1.8l65-52.2c1.9-1.5,3-3.9,3-6.3C493.5,274.6,492.3,272.3,490.4,270.8z"/>
<path class="st4" d="M351.3,27.9c-63.4,0-123.1,26.1-167.9,73.4c-41.5,43.7-65.7,100.8-69.1,162.1h474.1
	c-3.4-61.2-27.7-118.3-69.1-162.1C474.4,53.9,414.7,27.9,351.3,27.9z"/>
<path class="st5" d="M351,493c60.4,0,117.1-23.5,159.8-66.2c39.4-39.4,62.5-90.9,65.8-146.1H125.4c3.3,55.2,26.3,106.7,65.8,146.1
	C233.9,469.5,290.6,493,351,493z"/>
<path class="st6" d="M198.9,148.3V84.3c-2.3,1.6-4.6,3.3-6.9,5v59H198.9z"/>
<path class="st7" d="M218,138.8V78.9h-11c-12.1,7.7-23.5,16.5-34.2,26.3v33.6H218z"/>
<path class="st8" d="M195.4,138.8v-52c-7.9,5.7-15.4,11.8-22.6,18.5v33.6H195.4z"/>
<path class="st6" d="M290.1,30.6h-6.4v20.6c2.1-0.7,4.3-1.3,6.4-1.9V30.6z"/>
<path class="st6" d="M276.6,179.7V48.4c-2.3,0.6-4.6,1.3-6.9,1.9v129.3H276.6z"/>
<path class="st9" d="M266,49v8.4c8.1-3.3,16.4-6.1,24.9-8.4H266z"/>
<path class="st9" d="M295.9,139.3V48.2h-18.4c-9.1,2.4-18.1,5.3-26.8,8.7v82.4H295.9z"/>
<path class="st10" d="M287,49v1.1c1.3-0.4,2.6-0.8,3.9-1.1H287z"/>
<path class="st10" d="M295.9,139.3V48.2h-18.4c-1.4,0.4-2.8,0.8-4.2,1.2v89.9H295.9z"/>
<path class="st6" d="M362.1,29.1h-6.4v12c2.1,0,4.3,0.1,6.4,0.2V29.1z"/>
<path class="st6" d="M354.4,220.7V40.2c-2.3-0.1-4.6-0.2-6.9-0.2v180.7H354.4z"/>
<rect x="328.3" y="48.1" class="st7" width="45.2" height="131.4"/>
<rect x="328.3" y="48.1" class="st8" width="22.6" height="131.4"/>
<path class="st6" d="M509.8,247.4V103.2c-2.3-2-4.6-4-6.9-6v150.1H509.8z"/>
<path class="st9" d="M483.8,233.7H529V122.6c-4.5-5-9.1-9.9-14.1-14.6c-2-1.9-4.1-3.8-6.2-5.7h-24.9V233.7z"/>
<path class="st10" d="M506.4,233.7H529V122.6c-4.5-5-9.1-9.9-14.1-14.6c-2-1.9-4.1-3.8-6.2-5.7h-2.3V233.7z"/>
<rect x="425.4" y="118.6" class="st6" width="6.9" height="124.4"/>
<rect x="406.2" y="178.7" class="st7" width="45.2" height="55.6"/>
<rect x="406.2" y="178.7" class="st8" width="22.6" height="55.6"/>
<path class="st6" d="M276.2,339.8c-0.9,0.4-1.5,1.3-1.5,2.3v137.8c18.7,6.7,38.4,10.9,58.6,12.5h35.6c17.8-1.4,35.2-4.8,51.8-10.2
	L278.8,340.3C278.1,339.6,277.1,339.4,276.2,339.8z M299.2,395.3l72.7,72.5h-72.7V395.3z"/>
<path class="st11" d="M335.5,431.5l36.4,36.3h-72.7L284,482.9c15.9,4.9,32.3,8.1,49.2,9.4h35.6c17.8-1.4,35.2-4.8,51.8-10.2
	l-67.9-67.9L335.5,431.5z"/>
<path class="st5" d="M296.7,476.9c-1.4,0-2.5,1.1-2.5,2.5v6.5c1.6,0.4,3.3,0.8,4.9,1.2v-7.7C299.2,478,298.1,476.9,296.7,476.9z"/>
<path class="st5" d="M316.3,476.9c-1.4,0-2.5,1.1-2.5,2.5V490c1.6,0.3,3.3,0.5,4.9,0.8v-11.3C318.8,478,317.7,476.9,316.3,476.9z"/>
<path class="st5" d="M336,476.9c-1.4,0-2.5,1.1-2.5,2.5v12.9h4.9v-12.9C338.4,478,337.3,476.9,336,476.9z"/>
<path class="st5" d="M355.6,476.9c-1.4,0-2.5,1.1-2.5,2.5v12.9h4.9v-12.9C358,478,356.9,476.9,355.6,476.9z"/>
<path class="st5" d="M375.2,476.9c-1.4,0-2.5,1.1-2.5,2.5V492c1.6-0.2,3.3-0.3,4.9-0.5v-12.1C377.7,478,376.6,476.9,375.2,476.9z"/>
<path class="st5" d="M394.8,476.9c-1.4,0-2.5,1.1-2.5,2.5v9.8c1.6-0.3,3.3-0.6,4.9-1v-8.9C397.3,478,396.2,476.9,394.8,476.9z"/>
<g>
	<path class="st4" d="M291.9,366.5c-1-1-2.5-1-3.5,0c-1,1-1,2.5,0,3.5l36.6,36.6c0.5,0.5,1.1,0.7,1.7,0.7c0.6,0,1.3-0.2,1.7-0.7
		c1-1,1-2.5,0-3.5L291.9,366.5z"/>
	<path class="st4" d="M335.1,410.9c-1-1-2.5-1-3.5,0c-1,1-1,2.5,0,3.5l6.5,6.5c0.5,0.5,1.1,0.7,1.7,0.7c0.6,0,1.3-0.2,1.7-0.7
		c1-1,1-2.5,0-3.5L335.1,410.9z"/>
</g>
<path class="st7" d="M351.5,345.5c-0.5-0.5-1.1-0.7-1.7-0.7s-1.3,0.3-1.7,0.7l-25.9,25.9c-0.5,0.5-0.7,1.1-0.7,1.7
	c0,0.7,0.3,1.3,0.7,1.7l56.6,56.6c0.5,0.5,1.1,0.7,1.7,0.7c0.6,0,1.3-0.2,1.7-0.7l25.9-25.9c0.5-0.5,0.7-1.1,0.7-1.7
	s-0.3-1.3-0.7-1.7L351.5,345.5z"/>
<path class="st8" d="M322.2,371.4c-0.5,0.5-0.7,1.1-0.7,1.7c0,0.7,0.3,1.3,0.7,1.7l56.6,56.6c0.5,0.5,1.1,0.7,1.7,0.7
	c0.6,0,1.3-0.2,1.7-0.7l13.1-13.1l-60.1-60.1L322.2,371.4z"/>
<path class="st10" d="M343.2,353.8c-1-1-2.5-1-3.5,0l-9.2,9.2c-0.5,0.5-0.7,1.1-0.7,1.7c0,0.7,0.3,1.3,0.7,1.7l56.6,56.6
	c0.5,0.5,1.1,0.7,1.7,0.7c0.6,0,1.3-0.2,1.7-0.7l9.2-9.2c0.5-0.5,0.7-1.1,0.7-1.7c0-0.7-0.3-1.3-0.7-1.7L343.2,353.8z"/>
<path class="st9" d="M330.5,363c-0.5,0.5-0.7,1.1-0.7,1.7c0,0.7,0.3,1.3,0.7,1.7l56.6,56.6c0.5,0.5,1.1,0.7,1.7,0.7
	c0.6,0,1.3-0.2,1.7-0.7l4.7-4.7l-60.1-60.1L330.5,363z"/>
<g>
	<path class="st12" d="M315.7,339c-0.6,0.6-0.8,1.4-0.7,2.2l6.5,32.4l28.8-28.8l-32.4-6.5C317.1,338.2,316.3,338.4,315.7,339z"/>
	<path class="st12" d="M315.7,339c-0.6,0.6-0.8,1.4-0.7,2.2l6.5,32.4l14.5-14.5l-20.2-20.2C315.8,338.9,315.7,339,315.7,339z"/>
</g>
<path class="st11" d="M315.7,339c-0.6,0.6-0.8,1.4-0.7,2.2l2.8,13.9l14-14l-13.9-2.8C317.1,338.2,316.3,338.4,315.7,339z"/>
<path class="st5" d="M315.7,339c-0.6,0.6-0.8,1.4-0.7,2.2l2.8,13.9l7.1-7.1l-9.1-9.1C315.8,338.9,315.7,339,315.7,339z"/>
<path class="st13" d="M408.1,402.1l-29.4,29.4l18.5,18.5c0.5,0.5,1.1,0.7,1.7,0.7c0.6,0,1.3-0.2,1.7-0.7l25.9-25.9
	c0.5-0.5,0.7-1.1,0.7-1.7s-0.3-1.3-0.7-1.7L408.1,402.1z"/>
<path class="st6" d="M378.8,431.4l18.5,18.5c0.5,0.5,1.1,0.7,1.7,0.7c0.6,0,1.3-0.2,1.7-0.7l13.1-13.1l-20.2-20.2L378.8,431.4z"/>
<path class="st4" d="M407,414.9c-1-1-2.5-1-3.5,0c-1,1-1,2.5,0,3.5l6.5,6.5c0.5,0.5,1.1,0.7,1.7,0.7c0.6,0,1.3-0.2,1.7-0.7
	c1-1,1-2.5,0-3.5L407,414.9z"/>
<path class="st10" d="M398.9,339.6c-3.5-3.5-9.2-3.5-12.7,0l-8.3,8.3c-3.5,3.5-3.5,9.2,0,12.7l27.7,27.7c0.5,0.5,1.1,0.7,1.7,0.7
	c0.7,0,1.3-0.3,1.7-0.7l17.6-17.6c1-1,1-2.5,0-3.5L398.9,339.6z"/>
<path class="st12" d="M408.1,348.9l-21,21l18.5,18.5c0.5,0.5,1.1,0.7,1.7,0.7c0.7,0,1.3-0.3,1.7-0.7l17.6-17.6c1-1,1-2.5,0-3.5
	L408.1,348.9z"/>
<path class="st9" d="M377.9,347.9c-3.5,3.5-3.5,9.2,0,12.7l27.7,27.7c0.5,0.5,1.1,0.7,1.7,0.7c0.7,0,1.3-0.3,1.7-0.7l8.9-8.9
	l-35.8-35.8L377.9,347.9z"/>
<path class="st14" d="M387.1,369.9l18.5,18.5c0.5,0.5,1.1,0.7,1.7,0.7c0.7,0,1.3-0.3,1.7-0.7l8.9-8.9l-20.2-20.2L387.1,369.9z"/>
<path class="st4" d="M408.1,359.9c-1-1-2.5-1-3.5,0c-1,1-1,2.5,0,3.5l7.4,7.4c0.5,0.5,1.1,0.7,1.7,0.7s1.3-0.2,1.7-0.7
	c1-1,1-2.5,0-3.5L408.1,359.9z"/>
<path class="st10" d="M577,249H351v51.7h223.5c1.6-15.3,2.5-30.9,2.5-46.6C577,252.4,577,250.7,577,249z"/>
<path class="st9" d="M351,249H125c0,1.7,0,3.4,0,5.1c0,15.7,0.8,31.3,2.5,46.6H351V249z"/>
<path class="st14" d="M351,11L351,11l0,30h0c60.4,0,117.1,23.5,159.8,66.2C553.5,149.9,577,206.6,577,267
	c0,60.4-23.5,117.1-66.2,159.8C468.1,469.5,411.4,493,351,493h0v30h0c141.4,0,256-114.6,256-256S492.4,11,351,11z"/>
<path class="st7" d="M191.2,426.8C148.5,384.1,125,327.4,125,267c0-60.4,23.5-117.1,66.2-159.8C233.9,64.5,290.6,41,351,41V11
	C209.6,11,95,125.6,95,267s114.6,256,256,256v-30C290.6,493,233.9,469.5,191.2,426.8z"/>
</svg>
