<?xml version="1.0" encoding="utf-8"?>
<!-- Generator: Adobe Illustrator 19.0.0, SVG Export Plug-In . SVG Version: 6.00 Build 0)  -->
<svg version="1.1" id="Layer_1" xmlns="http://www.w3.org/2000/svg" xmlns:xlink="http://www.w3.org/1999/xlink" x="0px" y="0px"
	 viewBox="96 11 512 512" style="enable-background:new 96 11 512 512;" xml:space="preserve">
<style type="text/css">
	.st0{display:none;fill:#FFD1A9;}
	.st1{display:none;fill:#FF8C29;}
	.st2{display:none;fill:#FFFFFF;}
	.st3{display:none;fill:#F0353D;}
	.st4{fill:#F0353D;}
	.st5{fill:#FD6A33;}
	.st6{fill:#FF8C29;}
	.st7{fill:#FFD1A9;}
	.st8{fill:#365558;}
	.st9{fill:#0295AA;}
	.st10{fill:#4ACFD9;}
	.st11{fill:#9BAAAB;}
	.st12{fill:#CDD4D5;}
	.st13{fill:#E6EAEA;}
	.st14{fill:#FFFFFF;}
	.st15{fill:#BCD643;}
	.st16{fill:none;stroke:#BCD643;stroke-width:40;stroke-miterlimit:10;}
</style>
<path class="st0" d="M351,152.1c-63.4,0-114.9,51.5-114.9,114.9S287.6,381.9,351,381.9S465.9,330.4,465.9,267S414.4,152.1,351,152.1
	z"/>
<path class="st1" d="M236.1,267c0,63.4,51.5,114.9,114.9,114.9V152.1C287.6,152.1,236.1,203.6,236.1,267z"/>
<path class="st2" d="M423.6,249.4c-3.3,0-6.4-2.1-7.6-5.3c-5.9-16.7-18.4-30.9-34.4-38.8c-4-2-5.6-6.8-3.6-10.7
	c2-4,6.8-5.6,10.7-3.6c19.6,9.8,35.1,27.2,42.4,47.8c1.5,4.2-0.7,8.8-4.9,10.2C425.4,249.2,424.5,249.4,423.6,249.4z"/>
<path class="st3" d="M394.4,259.8l-65-50.4c-2.4-1.9-5.7-2.2-8.4-0.9c-2.7,1.3-4.5,4.1-4.5,7.2v102.6c0,3.1,1.8,5.9,4.6,7.2
	c1.1,0.5,2.3,0.8,3.5,0.8c1.8,0,3.6-0.6,5-1.8l65-52.2c1.9-1.5,3-3.9,3-6.3C397.5,263.6,396.3,261.3,394.4,259.8z"/>
<rect x="-501.3" y="11" class="st4" width="128" height="128"/>
<rect x="-373.3" y="11" class="st5" width="128" height="128"/>
<rect x="-245.3" y="11" class="st6" width="128" height="128"/>
<rect x="-117.3" y="11" class="st7" width="128" height="128"/>
<rect x="-501.3" y="139" class="st8" width="128" height="128"/>
<rect x="-373.3" y="139" class="st9" width="128" height="128"/>
<rect x="-245.3" y="139" class="st10" width="128" height="128"/>
<rect x="-501.3" y="267" class="st11" width="128" height="128"/>
<rect x="-373.3" y="267" class="st12" width="128" height="128"/>
<rect x="-245.3" y="267" class="st13" width="128" height="128"/>
<rect x="-117.3" y="267" class="st14" width="128" height="128"/>
<rect x="-501.3" y="395" class="st15" width="128" height="128"/>
<path class="st16" d="M141,523c0-70.7,57.3-128,128-128h130c70.7,0,128-57.3,128-128s-57.3-128-128-128H269
	c-70.7,0-128-57.3-128-128"/>
<path class="st10" d="M269,295v200c55.2,0,100-44.8,100-100C369,339.8,324.2,295,269,295z"/>
<path class="st9" d="M169,395c0,55.2,44.8,100,100,100V295C213.8,295,169,339.8,169,395z"/>
<path class="st10" d="M527,217v100c27.6,0,50-22.4,50-50C577,239.4,554.6,217,527,217z"/>
<path class="st9" d="M477,267c0,27.6,22.4,50,50,50V217C499.4,217,477,239.4,477,267z"/>
<path class="st10" d="M269,89v100c27.6,0,50-22.4,50-50C319,111.4,296.6,89,269,89z"/>
<path class="st9" d="M219,139c0,27.6,22.4,50,50,50V89C241.4,89,219,111.4,219,139z"/>
<path class="st7" d="M337.5,375.7c0-29.3-13.6-53-30.3-53s-28,23.7-28,53c0,13.3,7.4,29.4,14.9,40.3h32.9
	C333.4,406.3,337.5,391.8,337.5,375.7z"/>
<path class="st6" d="M297,408.8c-5.9-9-11.9-22-11.9-33c0-25.3,9.5-44.3,22.2-44.3c6.2,0,12.1,4.4,16.7,12.4
	c4.9,8.5,7.5,19.8,7.5,31.9c0,12.6-3,24.6-8.2,33H297z"/>
<path class="st7" d="M289.1,439.5c0,14.6,7.4,26.4,19.9,26.4s20.6-11.8,20.6-26.4c0-4.8-0.9-9.3-2.5-13.2h-35.6
	C289.9,430.2,289.1,434.7,289.1,439.5z"/>
<path class="st6" d="M308.8,461.1c-5.5,0-8.9-3.1-10.8-5.7c-2.7-3.8-4.2-9.1-4.2-15c0-3.2,0.5-6.3,1.3-9H323c0.9,2.8,1.4,5.8,1.4,9
	C324.4,452.4,317.9,461.1,308.8,461.1z"/>
<path class="st7" d="M199.9,375.7c0-29.3,13.6-53,30.3-53s28,23.7,28,53c0,13.3-7.4,29.4-14.9,40.3h-32.9
	C204.1,406.3,199.9,391.8,199.9,375.7z"/>
<path class="st7" d="M248.4,439.5c0,14.6-7.4,26.4-19.9,26.4c-12.4,0-20.6-11.8-20.6-26.4c0-4.8,0.9-9.3,2.5-13.2h35.6
	C247.6,430.2,248.4,434.7,248.4,439.5z"/>
<path class="st5" d="M213.3,408.8c-5.2-8.5-8.2-20.4-8.2-33c0-12.1,2.7-23.4,7.5-31.9c4.6-8,10.5-12.4,16.7-12.4
	c12.7,0,22.2,19.1,22.2,44.3c0,11-6,24-11.9,33H213.3z"/>
<path class="st5" d="M212.2,440.4c0-3.2,0.5-6.3,1.4-9h27.8c0.8,2.8,1.3,5.8,1.3,9c0,5.9-1.5,11.2-4.2,15c-1.9,2.6-5.3,5.7-10.8,5.7
	C218.7,461.1,212.2,452.4,212.2,440.4z"/>
</svg>
