<?xml version="1.0" encoding="utf-8"?>
<!-- Generator: Adobe Illustrator 19.0.0, SVG Export Plug-In . SVG Version: 6.00 Build 0)  -->
<svg version="1.1" id="Layer_1" xmlns="http://www.w3.org/2000/svg" xmlns:xlink="http://www.w3.org/1999/xlink" x="0px" y="0px"
	 viewBox="206 -206 512 512" style="enable-background:new 206 -206 512 512;" xml:space="preserve">
<style type="text/css">
	.st0{fill:#4ACFD9;}
	.st1{fill:#0295AA;}
	.st2{fill:#687F82;}
	.st3{fill:#365558;}
	.st4{fill:#FF8C29;}
	.st5{fill:#FD6A33;}
	.st6{fill:#FFD1A9;}
</style>
<g>
	<path class="st0" d="M594.7,265H482.3v40.7h112.3c2.2,0,4-1.8,4-4V269C598.7,266.8,596.9,265,594.7,265z"/>
	<rect x="452" y="265" class="st1" width="30.3" height="40.7"/>
	<path class="st1" d="M370,265c-2.2,0-4,1.8-4,4v32.7c0,2.2,1.8,4,4,4h82V265H370z"/>
	<rect x="550.8" y="279" class="st2" width="15" height="26.7"/>
	<rect x="577.7" y="279" class="st2" width="10" height="26.7"/>
	<rect x="513.3" y="279" class="st2" width="20" height="26.7"/>
	<rect x="398.2" y="279" class="st3" width="15" height="26.7"/>
	<rect x="376.3" y="279" class="st3" width="10" height="26.7"/>
	<rect x="430.7" y="279" class="st3" width="20" height="26.7"/>
	<rect x="482.3" y="279" class="st2" width="10.3" height="26.7"/>
	<rect x="472.7" y="279" class="st3" width="9.7" height="26.7"/>
</g>
<g>
	<path class="st0" d="M580.7,214H468.3v40.7h112.3c2.2,0,4-1.8,4-4V218C584.7,215.8,582.9,214,580.7,214z"/>
	<rect x="452" y="214" class="st1" width="16.3" height="40.7"/>
	<path class="st1" d="M356,214c-2.2,0-4,1.8-4,4v32.7c0,2.2,1.8,4,4,4h96V214H356z"/>
	<rect x="536.8" y="228" class="st2" width="15" height="26.7"/>
	<rect x="563.7" y="228" class="st2" width="10" height="26.7"/>
	<rect x="499.3" y="228" class="st2" width="20" height="26.7"/>
	<rect x="384.2" y="228" class="st3" width="15" height="26.7"/>
	<rect x="362.3" y="228" class="st3" width="10" height="26.7"/>
	<rect x="416.7" y="228" class="st3" width="20" height="26.7"/>
	<rect x="468.3" y="228" class="st2" width="10.3" height="26.7"/>
	<rect x="458.7" y="228" class="st3" width="9.7" height="26.7"/>
</g>
<g>
	<path class="st0" d="M515.5,3.1L492.4-20c-1.6-1.6-4.1-1.6-5.7,0L462,4.7v57.5l53.5-53.5C517,7.2,517,4.7,515.5,3.1z"/>
	<polygon class="st0" points="407.3,59.5 436,88.2 462,62.3 462,4.7 	"/>
	
		<rect x="472.9" y="11.7" transform="matrix(0.7071 -0.7071 0.7071 0.7071 122.9849 346.9985)" class="st2" width="15" height="26.7"/>
	
		<rect x="492.6" y="-5.5" transform="matrix(0.7071 -0.7071 0.7071 0.7071 140.1916 354.1258)" class="st2" width="10" height="26.7"/>
	<polygon class="st2" points="472.1,52.1 462,42 462,62.3 	"/>
	<polygon class="st2" points="439.1,47.4 458,66.3 462,62.3 462,42 453.3,33.3 	"/>
	
		<rect x="416.9" y="70" transform="matrix(-0.7071 -0.7071 0.7071 -0.7071 681.392 432.5018)" class="st2" width="26.7" height="10.3"/>
</g>
<path class="st4" d="M550.8-121.4L526.2-95c0,0-4.8,5.4-11.2,6.7c-3.4,0.7-27,5.3-53,10.7V37.3c4.1,3.7,5.4,9.6,1.2,17.1
	c-0.3,0.6-0.7,1.2-1.2,1.9v69c12.2-8.2,24.3-16.2,33.1-22.3c13.3-9.2,45.9-32.7,67.3-46.4c17.2-10.9,31.2-24.5,32.9-31.2
	c1.7-6.7,12.8-28.4,20.1-36.8s23-25.2,23-25.2L550.8-121.4z"/>
<path class="st4" d="M419.1,108c0,0-13.9,16.8-0.8,29.3c7.9,7.5,22.2,2.7,32.3-4.2c3.7-2.6,7.5-5.2,11.3-7.7v-69
	C452.7,70.8,419.1,108,419.1,108z"/>
<path class="st5" d="M337.7-10.8c-7.8,23.4-31.8,96-33.3,100.6c-1.6,4.6-2.3,13.1-2.3,16.6c0,3.5,0,79.2,0,89.8
	c0,10.6,8.4,24.4,21.7,24.4s25.3-5.9,25.7-24.4c0.4-20.6,1.7-57.4,1.7-57.4l11.7-49.1c0,0,11.2-15.6,18.4-31.8
	c7.2-16.2,25.7-22.3,36.2-23.4c10.6-1.1,20.6-1.1,32.3-1.1c4.9,0,9.3,1.5,12.2,4.1V-77.6c-23,4.8-47.7,10.1-61.9,13.8
	C370-56,345.5-34.2,337.7-10.8z"/>
<path class="st6" d="M366.1-1.3"/>
<path class="st6" d="M565.1-107.1L541-81.6l-0.1,0.1l-0.1,0.1c-2.2,2.4-10.3,10.4-21.9,12.7l-1.1,0.2c-20.5,4.1-39.4,7.9-55.9,11.4
	v20.4c17.3-3.6,37.6-7.8,59.7-12.2l1.1-0.2c17.1-3.4,28.6-14.2,32.8-18.8l24-25.4L565.1-107.1z"/>
<path class="st4" d="M405.2-44.4c-26.5,6.9-43.7,25.5-48.5,39.9s11.5,19.5,19,6.3s16.4-22.2,34.5-26.9c10.1-2.6,28.2-6.7,51.8-11.6
	v-20.4C436-51.7,416-47.3,405.2-44.4z"/>
<g>
	<path class="st0" d="M589.8,163H477.5v40.7h112.3c2.2,0,4-1.8,4-4V167C593.8,164.8,592,163,589.8,163z"/>
	<rect x="452" y="163" class="st1" width="25.5" height="40.7"/>
	<path class="st1" d="M365.2,163c-2.2,0-4,1.8-4,4v32.7c0,2.2,1.8,4,4,4H452V163H365.2z"/>
	<rect x="546" y="177" class="st2" width="15" height="26.7"/>
	<rect x="572.8" y="177" class="st2" width="10" height="26.7"/>
	<rect x="508.5" y="177" class="st2" width="20" height="26.7"/>
	<rect x="393.3" y="177" class="st3" width="15" height="26.7"/>
	<rect x="371.5" y="177" class="st3" width="10" height="26.7"/>
	<rect x="425.8" y="177" class="st3" width="20" height="26.7"/>
	<rect x="477.5" y="177" class="st2" width="10.3" height="26.7"/>
	<rect x="467.8" y="177" class="st3" width="9.7" height="26.7"/>
</g>
<g>
	<path class="st1" d="M327.9,138.9c-1.6,1.6-1.6,4.1,0,5.7l23.1,23.1c1.6,1.6,4.1,1.6,5.7,0L436,88.2l-28.8-28.8L327.9,138.9z"/>
	
		<rect x="359.1" y="125.5" transform="matrix(-0.7071 -0.7071 0.7071 -0.7071 541.6946 490.3663)" class="st3" width="26.7" height="15"/>
	
		<rect x="341.9" y="145.2" transform="matrix(-0.7071 -0.7071 0.7071 -0.7071 500.1545 507.5728)" class="st3" width="26.7" height="10"/>
	
		<rect x="383.8" y="98.2" transform="matrix(-0.7071 -0.7071 0.7071 -0.7071 601.4434 465.6177)" class="st3" width="26.7" height="20"/>
	
		<rect x="409.9" y="77.4" transform="matrix(-0.7071 -0.7071 0.7071 -0.7071 664.321 439.5729)" class="st3" width="26.7" height="9.7"/>
</g>
<path class="st2" d="M541-123.9l6.8,6.6c0,0,111.9,107.8,116.4,112.4s9.1,2.8,11.9,0c2.8-2.8,38.9-43,38.9-43v-154H614.6L541-123.9z
	"/>
<path class="st1" d="M559.5-143.8l6.8,6.6c0,0,111.9,107.8,116.4,112.4s9.1,2.8,11.9,0C697.4-27.6,718-52,718-52v-154H617.6
	L559.5-143.8z"/>
<circle class="st6" cx="599.1" cy="-144.3" r="14.2"/>
<circle class="st6" cx="630.5" cy="-115.9" r="14.2"/>
</svg>
