<?xml version="1.0" encoding="utf-8"?>
<!-- Generator: Adobe Illustrator 19.0.0, SVG Export Plug-In . SVG Version: 6.00 Build 0)  -->
<svg version="1.1" id="Layer_1" focusable="false" xmlns="http://www.w3.org/2000/svg" xmlns:xlink="http://www.w3.org/1999/xlink"
	 x="0px" y="0px" viewBox="322.8 -2120.3 2645.8 1612.3" style="enable-background:new 322.8 -2120.3 2645.8 1612.3;"
	 xml:space="preserve">
<image style="overflow:visible;" width="512" height="512" id="XMLID_1_" xlink:href="key-alt.png"  transform="matrix(1 0 0 1 2456.6021 -936.2551)">
</image>
<image style="overflow:visible;" width="512" height="512" id="XMLID_4_" xlink:href="key-arrows.png"  transform="matrix(1 0 0 1 1904.6021 -936.2551)">
</image>
<image style="overflow:visible;" width="512" height="512" id="XMLID_20_" xlink:href="key-ctrl.png"  transform="matrix(1 0 0 1 322.8335 -936.2551)">
</image>
<image style="overflow:visible;" width="512" height="512" id="XMLID_23_" xlink:href="key-down.png"  transform="matrix(1 0 0 1 1390.9103 -934.2551)">
</image>
<image style="overflow:visible;" width="512" height="512" id="XMLID_26_" xlink:href="key-left.png"  transform="matrix(1 0 0 1 884.9103 -936.2551)">
</image>
<image style="overflow:visible;" width="512" height="512" id="XMLID_32_" xlink:href="key-shift.png"  transform="matrix(1 0 0 1 322.8335 -1348.2551)">
</image>
<image style="overflow:visible;" width="512" height="512" id="XMLID_35_" xlink:href="key-up.png"  transform="matrix(5.859961e-003 0 0 5.859961e-003 1698.8899 -1797.3875)">
</image>
<image style="overflow:visible;" width="512" height="512" id="XMLID_38_" xlink:href="mouse-pointer.png"  transform="matrix(1 0 0 1 1646.9103 -2120.2551)">
</image>
<image style="overflow:visible;" width="512" height="512" id="XMLID_29_" xlink:href="key-up.png"  transform="matrix(1 0 0 1 1390.9103 -1358.2551)">
</image>
<image style="overflow:visible;" width="512" height="512" id="XMLID_41_" xlink:href="mouse-left-click.png"  transform="matrix(1 0 0 1 2158.9104 -2120.2551)">
</image>
</svg>
