<?xml version="1.0" encoding="utf-8"?>
<!-- Generator: Adobe Illustrator 19.0.0, SVG Export Plug-In . SVG Version: 6.00 Build 0)  -->
<svg version="1.1" id="Layer_1" xmlns="http://www.w3.org/2000/svg" xmlns:xlink="http://www.w3.org/1999/xlink" x="0px" y="0px"
	 viewBox="96 11 512 512" style="enable-background:new 96 11 512 512;" xml:space="preserve">
<style type="text/css">
	.st0{display:none;}
	.st1{display:inline;}
	.st2{fill:none;stroke:#CDD4D5;stroke-width:7;stroke-miterlimit:10;}
	.st3{fill:#F0353D;}
	.st4{fill:#BCD643;}
	.st5{fill:#0295AA;}
	.st6{fill:#9BAAAB;}
	.st7{fill:#FF8C29;}
</style>
<g id="Layer_3" class="st0">
	<rect x="302" y="-195" class="st1" width="512" height="512.8"/>
</g>
<line class="st2" x1="127.4" y1="126" x2="127.4" y2="282"/>
<line class="st2" x1="188.1" y1="286" x2="188.1" y2="335"/>
<line class="st2" x1="250" y1="262" x2="250" y2="424"/>
<line class="st2" x1="310.7" y1="374" x2="310.7" y2="424"/>
<line class="st2" x1="371.4" y1="424" x2="371.4" y2="315"/>
<line class="st2" x1="432.1" y1="327" x2="432.1" y2="424"/>
<line class="st2" x1="492.8" y1="424" x2="492.8" y2="255"/>
<line class="st2" x1="553.5" y1="278" x2="553.5" y2="424"/>
<g id="Layer_5" class="st0">
</g>
<path class="st3" d="M203.4,166.9c-10.5,0-20.3,0-30.7,0c0,35,0,84.2,0,119.1c11,0,20.9,0,30.7,0
	C203.4,250.8,203.4,201.6,203.4,166.9z"/>
<path class="st0" d="M103.7,92.6c14.8,10,91.3-43,127.1-33c56.6,16,111.1,61.5,119.3,138.8c7,65.9,6.5,166.1,32.3,221.2
	c38.7,82.7,122.8,89.5,185.8,75.5c26.3-5.9,32.1-21.3,32.1-21.3V461c0,0-22.6,18.5-86.4,10.6c-35.7-4.4-81-12.4-109.7-59.6
	c-42.4-69.7-39.1-164.6-43.4-213.6C354.1,123.8,308,40,230.8,33.6C153.6,27.2,103.7,92.6,103.7,92.6z"/>
<path class="st3" d="M265.3,286.1c-10.5,0-20.3,0-30.7,0c0,35,0,74.2,0,109.1c11,0,20.9,0,30.7,0C265.3,360,265.3,320.8,265.3,286.1
	z"/>
<path class="st3" d="M568.8,305.2c-10.5,0-20.3,0-30.7,0c0,35,0,54.2,0,89.1c11,0,20.9,0,30.7,0
	C568.8,359.1,568.8,339.9,568.8,305.2z"/>
<path class="st3" d="M447.4,355.2c-10.5,0-20.3,0-30.7,0c0,35,0,24.2,0,59.1c11,0,20.9,0,30.7,0
	C447.4,379.1,447.4,389.9,447.4,355.2z"/>
<path class="st3" d="M295.3,395.2c0,35,0-15.8,0,19.1c11,0,20.9,0,30.7,0c0-35.2,0,15.7,0-19.1"/>
<path class="st4" d="M142.7,165.9c-10.5,0-20.3,0-30.7,0c0,35,0,54.2,0,89.1c11,0,20.9,0,30.7,0
	C142.7,219.8,142.7,200.7,142.7,165.9z"/>
<path class="st4" d="M508.1,305.2c-10.5,0-20.3,0-30.7,0c0,35,0,74.2,0,109.1c11,0,20.9,0,30.7,0C508.1,379.1,508.1,340,508.1,305.2
	z"/>
<path class="st4" d="M386.7,355.2c-10.5,0-20.3,0-30.7,0c0,35,0,24.2,0,59.1c11,0,20.9,0,30.7,0C386.7,379.1,386.7,390,386.7,355.2z
	"/>
<rect x="336.5" y="434" class="st5" width="95.6" height="43.5"/>
<rect x="96" y="434" class="st6" width="240.5" height="43.5"/>
<rect x="432.1" y="434" class="st7" width="95.6" height="43.5"/>
<rect x="527.6" y="434" class="st3" width="80.4" height="43.5"/>
</svg>
