<?xml version="1.0" encoding="utf-8"?>
<!-- Generator: Adobe Illustrator 19.0.0, SVG Export Plug-In . SVG Version: 6.00 Build 0)  -->
<svg version="1.1" id="Layer_1" xmlns="http://www.w3.org/2000/svg" xmlns:xlink="http://www.w3.org/1999/xlink" x="0px" y="0px"
	 viewBox="96 11 512 512" style="enable-background:new 96 11 512 512;" xml:space="preserve">
<style type="text/css">
	.st0{display:none;}
	.st1{display:inline;}
	.st2{fill:#F0353D;}
	.st3{fill:#687F82;}
	.st4{fill:#9BAAAB;}
	.st5{fill:#BCD643;}
</style>
<g id="Layer_3" class="st0">
	<rect x="1203" y="-95" class="st1" width="512" height="512.8"/>
</g>
<g id="Layer_5" class="st0">
</g>
<path class="st2" d="M463.7,75.7c-10.5,0-80.3,0-90.7,0c0,35,0,164.3,0,199.2c11,0,80.9,0,90.7,0
	C463.7,239.8,463.7,110.4,463.7,75.7z"/>
<path class="st0" d="M1566.7,410.9c14.8,10,91.3-43,127.1-33c56.6,16,111.1,61.5,119.3,138.8c7,65.9,6.5,166.1,32.3,221.2
	c38.7,82.7,122.8,89.5,185.8,75.5c26.3-5.9,32.1-21.3,32.1-21.3v-12.8c0,0-22.6,18.5-86.4,10.6c-35.7-4.4-81-12.4-109.7-59.6
	c-42.4-69.7-39.1-164.6-43.4-213.6c-6.7-74.6-52.8-158.4-130-164.8S1566.7,410.9,1566.7,410.9z"/>
<rect x="136.4" y="433.8" class="st3" width="18.5" height="90.6"/>
<rect x="136.4" y="170.7" class="st4" width="18.5" height="64"/>
<path class="st5" d="M191,234.7c-10.5,0-80.3,0-90.7,0c0,35,0,164.2,0,199.1c11,0,80.9,0,90.7,0C191,398.6,191,269.5,191,234.7z"/>
<rect x="273.5" y="234.8" class="st3" width="18.5" height="162.9"/>
<rect x="273.5" y="49.7" class="st4" width="18.5" height="26"/>
<path class="st5" d="M328.1,75.7c-10.5,0-80.3,0-90.7,0c0,35,0,124.2,0,159.1c11,0,80.9,0,90.7,0
	C328.1,199.6,328.1,110.5,328.1,75.7z"/>
<rect x="409.1" y="273.9" class="st3" width="18.5" height="174.8"/>
<rect x="549" y="275.9" class="st3" width="18.5" height="72.9"/>
<rect x="549.1" y="9.7" class="st4" width="18.5" height="16"/>
<path class="st5" d="M603.7,25.7c-10.5,0-80.3,0-90.7,0c0,35,0,215.2,0,250.1c11,0,80.9,0,90.7,0C603.7,240.7,603.7,60.5,603.7,25.7
	z"/>
</svg>
