<?xml version="1.0" encoding="utf-8"?>
<!-- Generator: Adobe Illustrator 19.0.0, SVG Export Plug-In . SVG Version: 6.00 Build 0)  -->
<svg version="1.1" id="Layer_1" xmlns="http://www.w3.org/2000/svg" xmlns:xlink="http://www.w3.org/1999/xlink" x="0px" y="0px"
	 viewBox="96 11 512 512" style="enable-background:new 96 11 512 512;" xml:space="preserve">
<style type="text/css">
	.st0{display:none;}
	.st1{display:inline;}
	.st2{fill:#BCD643;}
	.st3{fill:none;stroke:#0295AA;stroke-width:20;stroke-linecap:round;stroke-miterlimit:10;}
	.st4{fill:#4ACFD9;}
	.st5{fill:#0295AA;}
	.st6{fill:#687F82;}
	.st7{fill:#FF8C29;}
	.st8{fill:#FD6A33;}
</style>
<g id="Layer_3" class="st0">
	<path class="st1" d="M1884,25.2c-31.9,14-69.9,24.6-120.5,24.6c-12.6,0-24.4-0.8-35.5-2.4v75.4h156V25.2z"/>
	<path class="st1" d="M1585.7-22.9c-44.6-34.5-86.6-67.1-161.3-67.1c-19.3,0-36.6,2.5-52.4,7v205.8h356V47.4
		C1665.2,38.7,1624.9,7.5,1585.7-22.9z"/>
	<path class="st1" d="M1372-390v276h52.4H1728V23.2c11,1.7,22.8,2.6,35.5,2.6c51.6,0,88.6-11.7,120.5-27V-390H1372z"/>
	<path class="st1" d="M1424.4-114H1372v6.3C1388.8-111.9,1406.3-114,1424.4-114z"/>
	<path class="st1" d="M1424.4-114c82.9,0,130.2,36.7,176,72.2c37.4,29,73,56.5,127.6,65V-114H1424.4z"/>
	<path class="st1" d="M1424.4-114.1c-2.3,0-4.6,0-6.8,0.1h14C1429.2-114.1,1426.8-114.1,1424.4-114.1z"/>
	<path class="st1" d="M1763.5,25.8c-12.7,0-24.5-0.9-35.5-2.7v24.2c11.1,1.5,22.9,2.4,35.5,2.4c50.5,0,88.6-10.6,120.5-24.6V-1.3
		C1852.2,14.1,1815.2,25.8,1763.5,25.8z"/>
	<path class="st1" d="M1600.4-41.9c-44.5-34.5-90.3-70-168.8-72.1h-14c-15.7,0.5-30.9,2.5-45.6,6.2v24.7c15.8-4.5,33.1-7,52.4-7
		c74.6,0,116.7,32.6,161.3,67.1c39.2,30.3,79.5,61.6,142.3,70.3V23.1C1673.4,14.7,1637.8-12.9,1600.4-41.9z"/>
</g>
<g id="Layer_5" class="st0">
</g>
<path class="st2" d="M183.5,405.8l29.7,24.9c5.1,4.3,5.7,11.8,1.5,16.9c-4.3,5.1-11.8,5.7-16.9,1.5l-29.7-24.9
	c-13.3,24.6-8,55.9,14.2,74.6c25.4,21.3,63.2,18,84.5-7.4c21.3-25.4,18-63.2-7.4-84.5C237.2,388.2,205.4,388.4,183.5,405.8z"/>
<line class="st3" x1="425.7" y1="295.4" x2="425.7" y2="509.3"/>
<path class="st4" d="M455,365.8h-57.4c-11.8,0-21.5-9.7-21.5-21.5v-22.8c0-11.8,9.7-21.5,21.5-21.5H455c11.8,0,21.5,9.7,21.5,21.5
	v22.8C476.5,356.1,466.8,365.8,455,365.8z"/>
<line class="st3" x1="547.2" y1="295.4" x2="547.2" y2="509.3"/>
<path class="st4" d="M576.5,437.5H519c-11.8,0-21.5-9.7-21.5-21.5v-22.8c0-11.8,9.7-21.5,21.5-21.5h57.4c11.8,0,21.5,9.7,21.5,21.5
	V416C598,427.8,588.3,437.5,576.5,437.5z"/>
<path class="st5" d="M452.3,152.6c-44.6,39.7-90.7,80.7-162.6,80.7c-70.1,0-111.4-29-151.4-57.1c-13.5-9.5-27.3-19.1-42.3-27.9
	v115.9h512V70.7C539.4,75.2,497,112.9,452.3,152.6z"/>
<path class="st6" d="M96,21.1V121c21.1,10.9,39.1,23.6,56.1,35.6c38.6,27.1,75.1,52.7,137.6,52.7c62.8,0,103.6-36.2,146.7-74.6
	c23.9-21.2,48.5-43.2,77.9-59.9C544,57.9,574.7,48.7,608,46.7V21.1H96z"/>
<path class="st7" d="M201.2,326.2c0.1-23-18.4-41.9-41.2-42h-0.1v83C182.5,367.1,201.1,348.7,201.2,326.2z"/>
<path class="st8" d="M119.7,325.5c-0.1,23,18.4,41.6,41.4,41.7c0.1,0,0.2,0,0.3,0v-83C138.4,284.1,119.8,302.6,119.7,325.5z"/>
<path class="st7" d="M322.1,328.2c0.1-23-18.4-41.9-41.2-42h-0.1v83C303.4,369.1,322,350.7,322.1,328.2z"/>
<path class="st8" d="M240.6,327.5c-0.1,23,18.4,41.6,41.4,41.7c0.1,0,0.2,0,0.3,0v-83C259.3,286.1,240.7,304.6,240.6,327.5z"/>
</svg>
