<?xml version="1.0" encoding="utf-8"?>
<!-- Generator: Adobe Illustrator 19.0.0, SVG Export Plug-In . SVG Version: 6.00 Build 0)  -->
<svg version="1.1" id="Layer_1" xmlns="http://www.w3.org/2000/svg" xmlns:xlink="http://www.w3.org/1999/xlink" x="0px" y="0px"
	 viewBox="96 11 512 512" style="enable-background:new 96 11 512 512;" xml:space="preserve">
<style type="text/css">
	.st0{display:none;}
	.st1{display:inline;}
	.st2{fill:none;stroke:#FFFFFF;stroke-width:15;stroke-linecap:round;stroke-miterlimit:10;}
	.st3{fill:#4ACFD9;}
	.st4{fill:#0295AA;}
</style>
<g id="Layer_3" class="st0">
	<path class="st1" d="M1715,320.2c-31.9,14-69.9,24.6-120.5,24.6c-84,0-131.7-36.9-177.8-72.7c-44.6-34.5-86.6-67.1-161.3-67.1
		c-2.9,0-5.7,0.1-8.5,0.2v212.6H1715V320.2z"/>
	<path class="st1" d="M1203,212v205.8h43.9V205.2C1231,205.8,1216.5,208.2,1203,212z"/>
	<path class="st1" d="M1203-95v206h43.9v70.2c2.8-0.1,5.7-0.2,8.5-0.2c82.8,0,130.2,36.7,176,72.2c44.9,34.8,87.3,67.6,163.1,67.6
		c51.6,0,88.6-11.7,120.5-27V-95H1203z"/>
	<path class="st1" d="M1203,111v76.3c14.2-3.5,28.8-5.5,43.9-6.1V111H1203z"/>
	<path class="st1" d="M1594.5,320.8c-75.8,0-118.2-32.9-163.1-67.7c-45.8-35.5-93.1-72.2-176-72.2c-2.9,0-5.7,0.1-8.5,0.2v24
		c2.8-0.1,5.6-0.2,8.5-0.2c74.6,0,116.7,32.6,161.3,67.1c46.1,35.7,93.8,72.7,177.8,72.7c50.5,0,88.6-10.6,120.5-24.6v-26.4
		C1683.2,309.1,1646.2,320.8,1594.5,320.8z"/>
	<path class="st1" d="M1203,187.3V212c13.5-3.8,28-6.2,43.9-6.8v-24C1231.8,181.7,1217.2,183.7,1203,187.3z"/>
</g>
<g id="Layer_5" class="st0">
</g>
<path class="st2" d="M1130.4,84.1c71.9-37,156.5-13.3,208.1-45.1c73.1-45.1,128-95.5,163.5-187.6"/>
<g>
	<path class="st3" d="M498.3,11c-4.6,10.2-10,20.7-15.7,31.1c-21.5,38.8-36.9,53.9-42.1,54.4c-3.3-4-7.5-6.2-12.5-6.2
		c-26.6,0-79.4,67.1-88.9,91.2c-1,2.4-7.8,10.2-27.8,18c-15.3,5.8-32.7,9.5-45.4,9.5c-8.7,0-11.7-1.9-12.2-2.2
		c-2.3-1.5-5.1-2.3-8.3-2.3c-18.2,0-53,29.8-69.1,59.1c-7.2,12.7-10.4,24.8-9.7,35.8c-1.1,2.9-7.6,10.3-24.6,17.5
		c-14.5,6.2-31.6,9.9-46,10v168.4c0.3-1,0.6-2,0.8-3c2.5-7.7,28.1-21.3,62.6-21.3c21.7,0,30.5,6,32.5,8.5c1,13.3,8,28.8,34.5,28.8
		c22.7,0,52.6-11,63.3-23.3c5.4-6.2,29.5-13,53.8-13c22.8,0,31.7,5.8,33,7.8c5.3,8.3,15.2,12.5,30.3,12.5
		c26.5,0,69.3-13.3,81.1-38.3c8-17,56.8-58.6,82.6-58.6c5.8,0,9.3,2,10.3,6.2c4.2,16.3,13.1,25.3,25.8,25.3c0.5,0,0.9,0,1.4,0V11
		H498.3z"/>
	<path class="st4" d="M175.3,299c-2.7-29.8,49.1-80.6,69.9-80.6c2,0,3.5,0.3,5,1.3c3.2,2.2,8.8,3.3,15.5,3.3
		c26.6,0,73.1-15.3,80.4-34c8.2-20.6,58.9-84.7,81.6-84.7c3.2,0,5.7,1.2,7.5,3.8c1.3,1.8,2.8,2.5,4.8,2.5
		c15.2,0,48.6-53.1,68.6-99.6h-21.3c-2.9,6-6.1,12.3-9.6,18.6c-17.3,32-30.6,47.6-36.5,52.1c-3.5-2.7-7.8-4.8-13.6-4.8
		c-14,0-33,13.3-56.4,39.6c-14.8,16.8-32.6,40.4-39.3,56.4c-2,2.3-9.7,8.7-26.1,14.6c-13.6,4.8-29.1,8.2-40.3,8.2
		c-6.2,0-8.7-0.8-9-1.2c-3.5-2.2-7.3-3.5-11.5-3.5c-22.6,0-59.3,34.3-75.4,63.9c-7.2,13-11.2,25.8-11.7,38.3
		c-3.2,2.8-10,7.8-21.8,12.3c-13.1,4.9-28,7.9-40.2,8v26.9C129.6,340.2,177.3,321.3,175.3,299z"/>
	<path class="st4" d="M606.3,413.3c-8.3,0-14.8-5-17.8-16.8c-2.7-10.5-9.3-14.6-18.3-14.6c-28.6,0-79.9,43.6-89.6,64.1
		c-8.8,18.8-47.6,32.8-74.2,32.8c-11.3,0-20.5-2.5-24.1-8.5c-5.3-8.3-21.3-12-39.1-12c-24,0-50.9,6.3-58.9,15.5
		c-8.5,9.8-36.6,20.8-58.3,20.8c-14.1,0-25.3-4.7-26.1-17.6c-0.8-13.6-19.1-19.6-40.9-19.6c-23.1,0-49.9,6.8-63,18.4v41.5
		c3.5-5.5,6-11.2,7.7-17.2c5.7-6,27.5-15.5,55.3-15.5c13.5,0,21.3,2.5,25,4.3c2.5,12.3,8.8,21.8,17.6,27.3c6.3,4,14.5,5.8,24.1,5.8
		c21.5,0,54.8-10.5,68.1-25.8c4.2-3.8,24.3-10.5,48.9-10.5c17,0,25.3,3.5,27.6,5c7.2,10.5,18.5,15.3,35.6,15.3
		c14.6,0,32.6-3.8,48.1-10.3c20.1-8.3,33.1-19.3,39.9-33.6c2-4.2,13.3-17.8,31.6-31.8c17.3-13.2,34.3-21.5,44.1-21.5
		c1.3,0,2.3,0.2,3.2,0.3c5.7,19.8,17.6,31.3,33,31.3c0.7,0,1.5,0,2.2-0.1v-27.1C607.4,413.3,606.9,413.3,606.3,413.3z"/>
	<path class="st2" d="M96,416.8c84.6-22.1,204.1-109.2,320.1-129.2c82.7-14.3,114.5-27.5,191.9-111.9"/>
</g>
</svg>
