<?xml version="1.0" encoding="utf-8"?>
<!-- Generator: Adobe Illustrator 19.0.0, SVG Export Plug-In . SVG Version: 6.00 Build 0)  -->
<svg version="1.1" id="Layer_1" xmlns="http://www.w3.org/2000/svg" xmlns:xlink="http://www.w3.org/1999/xlink" x="0px" y="0px"
	 viewBox="96 11 512 512" style="enable-background:new 96 11 512 512;" xml:space="preserve">
<style type="text/css">
	.st0{display:none;}
	.st1{display:inline;}
	.st2{fill:#F0353D;}
	.st3{fill:#BCD643;}
	.st4{fill:#687F82;}
	.st5{fill:#9BAAAB;}
</style>
<g id="Layer_3" class="st0">
	<rect x="1107" y="-106" class="st1" width="512" height="512.8"/>
</g>
<g id="Layer_5" class="st0">
</g>
<path class="st0" d="M1470.7,399.9c14.8,10,91.3-43,127.1-33c56.6,16,111.1,61.5,119.3,138.8c7,65.9,6.5,166.1,32.3,221.2
	c38.7,82.7,122.8,89.5,185.8,75.5c26.3-5.9,32.1-21.3,32.1-21.3v-12.8c0,0-22.6,18.5-86.4,10.6c-35.7-4.4-81-12.4-109.7-59.6
	c-42.4-69.7-39.1-164.6-43.4-213.6c-6.7-74.6-52.8-158.4-130-164.8S1470.7,399.9,1470.7,399.9z"/>
<path class="st2" d="M588.1,300.2c-10.5,0-20.3,0-30.7,0c0,35,0,154.2,0,189.1c11,0,20.9,0,30.7,0
	C588.1,454.1,588.1,334.9,588.1,300.2z"/>
<path class="st2" d="M527.1,300.2c-10.5,0-20.3,0-30.7,0c0,35,0,114.2,0,149.1c11,0,20.9,0,30.7,0
	C527.1,414.1,527.1,334.9,527.1,300.2z"/>
<path class="st2" d="M466.1,300.2c-10.5,0-20.3,0-30.7,0c0,35,0,54.2,0,89.1c11,0,20.9,0,30.7,0
	C466.1,354.1,466.1,334.9,466.1,300.2z"/>
<path class="st2" d="M374.3,300.2c0,35,0-5.8,0,29.1c11,0,20.9,0,30.7,0c0-35.2,0,5.7,0-29.1"/>
<path class="st3" d="M148.5,34.6c-10.5,0-20.3,0-30.7,0c0,35,0,184.2,0,219.1c11,0,20.9,0,30.7,0C148.5,218.5,148.5,69.4,148.5,34.6
	z"/>
<path class="st3" d="M209.3,64.6c-10.5,0-20.3,0-30.7,0c0,35,0,154.2,0,189.1c11,0,20.9,0,30.7,0C209.3,218.5,209.3,99.4,209.3,64.6
	z"/>
<path class="st3" d="M270,124.6c-10.5,0-20.3,0-30.7,0c0,35,0,94.2,0,129.1c11,0,20.9,0,30.7,0C270,218.5,270,159.4,270,124.6z"/>
<path class="st3" d="M330.8,194.6c-10.5,0-20.3,0-30.7,0c0,35,0,24.2,0,59.1c11,0,20.9,0,30.7,0
	C330.8,218.5,330.8,229.4,330.8,194.6z"/>
<rect x="96" y="267.7" class="st4" width="257.4" height="18.5"/>
<rect x="353.5" y="267.7" class="st5" width="254.5" height="18.5"/>
</svg>
