<?xml version="1.0" encoding="utf-8"?>
<!-- Generator: Adobe Illustrator 19.0.0, SVG Export Plug-In . SVG Version: 6.00 Build 0)  -->
<svg version="1.1" id="Layer_1" xmlns="http://www.w3.org/2000/svg" xmlns:xlink="http://www.w3.org/1999/xlink" x="0px" y="0px"
	 viewBox="96 11 512 512" style="enable-background:new 96 11 512 512;" xml:space="preserve">
<style type="text/css">
	.st0{display:none;}
	.st1{display:inline;}
	.st2{fill:#FF8C29;}
	.st3{fill:#FD6A33;}
	.st4{fill:#BCD643;}
	.st5{fill:#0295AA;}
</style>
<g id="Layer_3" class="st0">
	<path class="st1" d="M2390.7,66.1C2346.1,31.6,2304.1-1,2229.4-1c-19.3,0-36.6,2.5-52.4,7v205.8h512v-97.6
		c-31.9,14-69.9,24.6-120.5,24.6C2484.5,138.8,2436.8,101.9,2390.7,66.1z"/>
	<path class="st1" d="M2405.4,47.2c44.9,34.8,87.3,67.6,163.1,67.6c51.6,0,88.6-11.7,120.5-27V-301h-512v282.3
		c16.8-4.2,34.3-6.3,52.4-6.3C2312.3-25,2359.6,11.7,2405.4,47.2z"/>
	<path class="st1" d="M2568.5,114.8c-75.8,0-118.2-32.9-163.1-67.7c-45.8-35.5-93.1-72.2-176-72.2c-18.2,0-35.6,2.1-52.4,6.3V5.9
		c15.8-4.5,33.1-7,52.4-7c74.6,0,116.7,32.6,161.3,67.1c46.1,35.7,93.8,72.7,177.8,72.7c50.5,0,88.6-10.6,120.5-24.6V87.7
		C2657.2,103.1,2620.2,114.8,2568.5,114.8z"/>
</g>
<g id="Layer_5" class="st0">
</g>
<rect x="-958.5" y="-313.8" width="2" height="3"/>
<polygon class="st2" points="231.9,205.2 96,124.7 96,451.8 231.9,506.1 "/>
<path class="st3" d="M810.3,262.3L810.3,262.3L810.3,262.3z"/>
<polygon class="st3" points="238.9,199 96,114.3 96,135 224.8,211.3 224.8,493.4 96,441.9 96,461.6 238.9,518.8 "/>
<g>
	<polygon class="st4" points="246,502.3 505.5,296.9 505.5,30.6 246,204.8 	"/>
	<path class="st5" d="M238.9,518.8l273.6-216.6v-287L238.9,199V518.8z M253,210.8l245.4-165v245.7L253,485.8V210.8z"/>
</g>
<polygon class="st2" points="519.6,26.4 519.6,295.6 608,338 608,47.3 "/>
<polygon class="st3" points="526.7,289.1 526.7,37.7 608,56.9 608,37.8 512.5,15.1 512.5,302.3 608,348.1 608,328.1 "/>
</svg>
