<?xml version="1.0" encoding="utf-8"?>
<!-- Generator: Adobe Illustrator 19.0.0, SVG Export Plug-In . SVG Version: 6.00 Build 0)  -->
<svg version="1.1" id="Layer_1" xmlns="http://www.w3.org/2000/svg" xmlns:xlink="http://www.w3.org/1999/xlink" x="0px" y="0px"
	 viewBox="1632 11 512 512" style="enable-background:new 1632 11 512 512;" xml:space="preserve">
<style type="text/css">
	.st0{display:none;}
	.st1{display:inline;}
	.st2{fill:#BCD643;}
	.st3{fill:none;stroke:#0295AA;stroke-width:20;stroke-linecap:round;stroke-miterlimit:10;}
	.st4{fill:#4ACFD9;}
	.st5{fill:#0295AA;}
	.st6{fill:#687F82;}
	.st7{fill:#FF8C29;}
	.st8{fill:#FD6A33;}
</style>
<g id="Layer_3" class="st0">
	<path class="st1" d="M1788,14.2c-31.9,14-69.9,24.6-120.5,24.6c-12.6,0-24.4-0.8-35.5-2.4v75.4h156V14.2z"/>
	<path class="st1" d="M1489.7-33.9c-44.6-34.5-86.6-67.1-161.3-67.1c-19.3,0-36.6,2.5-52.4,7v205.8h356V36.4
		C1569.2,27.7,1528.9-3.5,1489.7-33.9z"/>
	<path class="st1" d="M1276-401v276h52.4H1632V12.2c11,1.7,22.8,2.6,35.5,2.6c51.6,0,88.6-11.7,120.5-27V-401H1276z"/>
	<path class="st1" d="M1328.4-125H1276v6.3C1292.8-122.9,1310.3-125,1328.4-125z"/>
	<path class="st1" d="M1328.4-125c82.9,0,130.2,36.7,176,72.2c37.4,29,73,56.5,127.6,65V-125H1328.4z"/>
	<path class="st1" d="M1328.4-125.1c-2.3,0-4.6,0-6.8,0.1h14C1333.2-125.1,1330.8-125.1,1328.4-125.1z"/>
	<path class="st1" d="M1667.5,14.8c-12.7,0-24.5-0.9-35.5-2.7v24.2c11.1,1.5,22.9,2.4,35.5,2.4c50.5,0,88.6-10.6,120.5-24.6v-26.4
		C1756.2,3.1,1719.2,14.8,1667.5,14.8z"/>
	<path class="st1" d="M1504.4-52.9c-44.5-34.5-90.3-70-168.8-72.1h-14c-15.7,0.5-30.9,2.5-45.6,6.2v24.7c15.8-4.5,33.1-7,52.4-7
		c74.6,0,116.7,32.6,161.3,67.1c39.2,30.3,79.5,61.6,142.3,70.3V12.1C1577.4,3.7,1541.8-23.9,1504.4-52.9z"/>
</g>
<g id="Layer_5" class="st0">
</g>
<path class="st2" d="M1719.5,396.3l29.7,24.9c5.1,4.3,5.7,11.8,1.5,16.9c-4.3,5.1-11.8,5.7-16.9,1.5l-29.7-24.9
	c-13.3,24.6-8,55.9,14.2,74.6c25.4,21.3,63.2,18,84.5-7.4c21.3-25.4,18-63.2-7.4-84.5C1773.2,378.7,1741.4,378.9,1719.5,396.3z"/>
<line class="st3" x1="1961.7" y1="285.9" x2="1961.7" y2="499.8"/>
<path class="st4" d="M1991,356.3h-57.4c-11.8,0-21.5-9.7-21.5-21.5v-22.8c0-11.8,9.7-21.5,21.5-21.5h57.4c11.8,0,21.5,9.7,21.5,21.5
	v22.8C2012.5,346.6,2002.8,356.3,1991,356.3z"/>
<line class="st3" x1="2083.2" y1="285.9" x2="2083.2" y2="499.8"/>
<path class="st4" d="M2112.5,428H2055c-11.8,0-21.5-9.7-21.5-21.5v-22.8c0-11.8,9.7-21.5,21.5-21.5h57.4c11.8,0,21.5,9.7,21.5,21.5
	v22.8C2134,418.3,2124.3,428,2112.5,428z"/>
<path class="st5" d="M1988.3,143.1c-44.6,39.7-90.7,80.7-162.6,80.7c-70.1,0-111.4-29-151.4-57.1c-13.5-9.5-27.3-19.1-42.3-27.9
	v115.9h512V61.2C2075.4,65.7,2033,103.4,1988.3,143.1z"/>
<path class="st6" d="M1632,11.6v99.9c21.1,10.9,39.1,23.6,56.1,35.6c38.6,27.1,75.1,52.7,137.6,52.7c62.8,0,103.6-36.2,146.7-74.6
	c23.9-21.2,48.5-43.2,77.9-59.9c29.7-16.9,60.4-26.1,93.7-28.1V11.6H1632z"/>
<rect x="-100.8" y="-589.2" width="2" height="3"/>
<path class="st7" d="M1737.2,316.7c0.1-23-18.4-41.9-41.2-42h-0.1v83C1718.5,357.6,1737.1,339.2,1737.2,316.7z"/>
<path class="st8" d="M1655.7,316c-0.1,23,18.4,41.6,41.4,41.7c0.1,0,0.2,0,0.3,0v-83C1674.4,274.6,1655.8,293.1,1655.7,316z"/>
<path class="st7" d="M1858.1,318.7c0.1-23-18.4-41.9-41.2-42h-0.1v83C1839.4,359.6,1858,341.2,1858.1,318.7z"/>
<path class="st8" d="M1776.6,318c-0.1,23,18.4,41.6,41.4,41.7c0.1,0,0.2,0,0.3,0v-83C1795.3,276.6,1776.7,295.1,1776.6,318z"/>
</svg>
