<?xml version="1.0" encoding="utf-8"?>
<!-- Generator: Adobe Illustrator 19.0.0, SVG Export Plug-In . SVG Version: 6.00 Build 0)  -->
<svg version="1.1" id="Layer_1" xmlns="http://www.w3.org/2000/svg" xmlns:xlink="http://www.w3.org/1999/xlink" x="0px" y="0px"
	 viewBox="1120 11 512 512" style="enable-background:new 1120 11 512 512;" xml:space="preserve">
<style type="text/css">
	.st0{display:none;}
	.st1{display:inline;}
	.st2{fill:none;stroke:#BCD643;stroke-width:24;stroke-linecap:round;stroke-miterlimit:10;}
	.st3{fill:none;stroke:#FD6A33;stroke-width:24;stroke-linecap:round;stroke-miterlimit:10;}
	.st4{fill:none;stroke:#4ACFD9;stroke-width:24;stroke-linecap:round;stroke-miterlimit:10;}
	.st5{fill:none;stroke:#687F82;stroke-width:24;stroke-linecap:round;stroke-miterlimit:10;}
</style>
<g id="Layer_3" class="st0">
	<rect x="1276" y="-401" class="st1" width="512" height="512.8"/>
</g>
<g id="Layer_5" class="st0">
</g>
<path class="st2" d="M1120,390.1c82-60,117.9-155.1,134-234c14-68.7,39.3-93.3,61.3-87.4s31.3,37.3,51.3,40
	c39.7,5.3,45.2-36.9,63.3-52.3c35.6-30.3,34,81.7,54,121.7s66,25.8,96,13.9c18.5-7.3,35.2-23.3,52-24.1"/>
<path class="st3" d="M1120,342.1c170-34,248-152,308-198s116.5-33.6,168,38c9.6,13.4,21.8,25.6,36,36.5"/>
<path class="st4" d="M1120,444.1c126-12,254-42,352-96c51.9-28.6,104.5-60,160-87"/>
<path class="st5" d="M1120,511.1c152.3-13.1,324.7-61,512-100.1"/>
</svg>
